<?xml version="1.0" encoding="UTF-8"?><svg id="_レイヤー_2" xmlns="http://www.w3.org/2000/svg" viewBox="0 0 327.35 300.61"><defs><style>.cls-1,.cls-2{fill:none;}.cls-3{letter-spacing:.1em;}.cls-4,.cls-5{fill:#595757;}.cls-6{letter-spacing:-.4em;}.cls-2{stroke:#595757;stroke-miterlimit:10;stroke-width:.25px;}.cls-5{font-family:NotoSerifCJKjp-Medium-83pv-RKSJ-H, 'Noto Serif CJK JP';font-size:17px;font-weight:500;}.cls-7{letter-spacing:-.15em;}</style></defs><g id="_レイヤー_1-2"><g><rect class="cls-1" y="0" width="327.35" height="300.61"/><text class="cls-5" transform="translate(106.27 89.12)"><tspan class="cls-3" x="0" y="0">オイル・整体</tspan><tspan class="cls-7" x="112.2" y="0">・</tspan><tspan class="cls-3"><tspan x="-11.48" y="32.64">リフレクソロジー</tspan></tspan><tspan class="cls-3"><tspan x="-11.48" y="65.28">ご自宅やホテルへ</tspan></tspan><tspan class="cls-3"><tspan x="-48.88" y="97.91">確かな技術のセラピストが</tspan></tspan><tspan class="cls-3" x="-53.98" y="130.55">至高の癒しをお届けします</tspan><tspan class="cls-6" x="170.42" y="130.55">。</tspan></text><g><g><path class="cls-1" d="m62.35,47.49c-.13.04-.23.15-.26.28,0,.05,0,.11.01.16.05.15.22.22.36.22.02-.03.06-.05.11-.05.02,0,.03,0,.04.01.13-.06.22-.22.22-.36-.03-.22-.3-.35-.49-.27Z"/><path class="cls-1" d="m68.15,46.32c.08-.03.15.02.22-.02.17-.09.33-.29.31-.49-.03-.26-.32-.44-.56-.44-.19.02-.32.21-.34.39,0,.23.1.52.36.56Z"/><path class="cls-1" d="m63.89,48.89c0,.07.13.05.17.03,0-.05.04-.08.08-.1.02-.12-.26-.02-.25.07Z"/><path class="cls-1" d="m65.15,45.82c.36-.69-.57-1.2-1.14-.92-.26.16-.39.49-.42.77,0,.24.09.55.34.64.46.14,1.03,0,1.22-.49Z"/><path class="cls-1" d="m62.41,50.06c-.06.01-.11.07-.13.14,0,.04,0,.08.04.1.06.05.15.01.21-.02,0,0,0-.02,0-.03,0-.03.02-.06.05-.08-.02-.06-.1-.11-.17-.11Z"/><path class="cls-1" d="m66.55,47.55s-.02-.09,0-.13c0,0,.01-.01.02-.02t0,0c0-.17-.24-.21-.36-.12-.07.05-.11.12-.12.2-.03.32.32.26.46.07Z"/><path class="cls-1" d="m65.08,50.22c-.16.02-.33.14-.37.3-.03.12.07.23.16.28.18.12.42.15.6.02-.02-.03-.03-.07-.02-.1.01-.04.04-.07.08-.08h0c.12-.25-.24-.44-.45-.42Z"/><path class="cls-1" d="m37.61,37.95c-.66.61-1.34,1.23-1.81,2-.71,1.23-.93,2.75-.62,4.13.21.99.98,1.72,1.34,2.64.93,2.25-1.3,4.94.34,7.13.04.03.07.06.09.11.02.03.05.06.07.09,1.87,1.36,6.64.4,8.82-.12,1.4-.33,2.8-.63,4.16-1.1,2.62-.74,5.05-2.04,7.62-2.9.24-.05.71-.37.95-.27,0,0,0-.01,0-.02-.02-.25-.04-.5-.04-.74-.23.23-.59.36-.87.53-.61.33-1.23.59-1.88.82-.24.09-.48.17-.72.25-.06.02-.13-.01-.15-.07-.02-.06.01-.13.07-.15,1.2-.41,2.47-.84,3.47-1.63.03-.02.05-.02.08-.02,0-.18.02-.36.04-.54-.07.03-.16.05-.21.08-4.39,1.32-9.05,2.02-13.64,1.65-1.58-.13-3.12-.4-4.66-.73-.06-.01-.1-.08-.09-.14.01-.06.08-.1.14-.09.45.1.91.19,1.36.28,1.56.29,3.12.49,4.71.53,3.91.15,7.81-.53,11.56-1.54.27-.09.56-.17.81-.3.01-.01.03-.02.05-.02.03-.18.06-.36.1-.54-1.29.37-2.63.51-3.96.38-.44-.04-.88-.09-1.31-.16-.06-.01-.11-.07-.1-.14.01-.06.07-.11.14-.1.59.09,1.18.17,1.78.19,1.2.05,2.38-.11,3.52-.45,0-.02.01-.04.02-.06h0c.05-.14.1-.28.15-.42-1.58-.05-3.17-.27-4.73-.49-2.39-.32-4.8-.67-7.12-1.35-1.54-.44-3.06-.97-4.57-1.52-.06-.02-.09-.09-.07-.15.02-.06.09-.09.15-.07,1.63.6,3.29,1.16,4.96,1.63,1.87.52,3.8.84,5.72,1.09,1.86.25,3.7.54,5.58.61.05,0,.12,0,.17,0,.04-.1.08-.2.12-.29-.01-.01-.03-.03-.03-.05-.82-.62-1.82-1.01-2.75-1.41-1.34-.51-2.7-.94-4.06-1.39-.06-.02-.1-.09-.08-.15.02-.06.09-.1.15-.08,1.43.47,2.87.92,4.27,1.48.41.19,2.19.91,2.6,1.37.09-.18.18-.36.28-.53-.03-.01-.05-.03-.06-.06-.12-.22-.27-.42-.4-.64-.55-.95-1.36-1.66-2.17-2.38-2.3-2.11-5-3.75-7.83-5.05-.93-.42-1.85-.8-2.79-1.2-.69-.29-1.39-.56-2.09-.84-.06-.02-.09-.09-.07-.15.02-.06.09-.1.15-.07.35.14.7.28,1.05.42.88.35,1.76.73,2.63,1.1,3.24,1.36,6.36,3.14,8.98,5.51,1.02.87,1.98,1.81,2.63,2.99.03.05.07.1.11.16.15-.24.31-.47.48-.68-.73-1.51-1.63-2.96-2.65-4.28-.07-.14-.37-.29-.24-.45.2-.2.91.99,1.07,1.16.74,1.07,1.42,2.2,2,3.37.14-.16.29-.31.44-.45-.2-.53-.42-1.07-.63-1.6-.58-1.4-1.31-2.75-2.03-4.06-.89-1.48-1.92-2.89-2.95-4.28-1.06-1.36-2.3-2.58-3.64-3.66-.56-.43-1.12-.83-1.68-1.25-.05-.04-.07-.11-.03-.16.03-.05.11-.07.16-.03.7.52,1.41,1.03,2.08,1.57,1.38,1.19,2.67,2.48,3.72,3.97,2.16,2.85,3.97,5.98,5.18,9.35.16-.13.33-.26.5-.37-.04-.03-.05-.09-.03-.13-.33-1.58-1.12-3.01-1.8-4.46-.04-.14-.25-.3-.1-.43.22-.13.37.52.48.66.48,1.01.97,2.02,1.35,3.07.03.15.31.85.3,1.16.14-.08.27-.16.41-.23-.02-.02-.04-.06-.06-.1-.09-.24-.15-.48-.23-.72-.49-1.85-1.12-3.65-1.72-5.47-.57-2.04-1.1-4.09-1.71-6.13-.34-1.22-.66-2.49-1.13-3.66-.52-1.23-1.05-2.64-2.22-3.38-.43-.28-.91-.42-1.4-.51-1.56-.36-3.16-.36-4.74-.29-4.53.31-10.62-.53-9.3,6.12,1.43,4.38,1.73,6.02-1.93,9.28Z"/><path class="cls-1" d="m69.21,53.78c1.08-.25,2.11-.69,2.96-1.41.74-.57,1.4-1.28,1.64-2.2.34-1.12.24-2.3-.16-3.38-.44-1.2-1.54-2.01-2.65-2.56-2.85-1.44-6.55-2.44-9.44-.63-1.31,1.04-2.18,2.61-2.47,4.23-.1.78-.14,1.56.1,2.3.48,1.1,1.39,1.93,2.32,2.64,2.18,1.66,5.16,1.6,7.7,1.01Zm-8.46-3.07c-.8-.76-.95-2.03-.79-3.07.97-3.85,4.74-4.62,8.13-3.59,3.54.99,6.82,4.04,3.69,7.51-1.27,1.39-2.8,1.47-4.55,1.53-1.49.07-2.96-.21-4.29-.87-.8-.37-1.7-.77-2.2-1.51Z"/><path class="cls-1" d="m35.97,53.08c-.29-.98-.18-2.11.02-3.08.26-1.15.59-2.42-.08-3.5-.32-.62-.79-1.16-1.03-1.82-.41-1.16-.37-2.45-.04-3.62.74-3.1,4.79-4.3,5.21-7.5-1.51,1.63-3.39,2.92-4.73,4.7-.48.62-.91,1.33-1.28,2.01-.31.52-.62,1.1-.85,1.65-.43,1.24-.71,2.55-.78,3.86-.19,2.86,1.08,4.86,3.02,6.81.18.17.36.34.54.5Z"/><path class="cls-1" d="m69.18,49.96c.16.1.4.02.56-.05.36-.18.53-.63.52-1.01-.02-.28-.24-.5-.47-.62-.55-.3-1.2.14-1.23.74-.02.41.25.8.63.94Z"/><path class="cls-1" d="m67.81,51.22c-.19-.07-.4.08-.45.26-.04.28.39.35.56.19-.05-.06-.03-.15.03-.18.07-.13-.03-.22-.15-.26Z"/><path class="cls-1" d="m66.46,49.26s.01.05.03.06c.06.04.15.02.19-.04,0-.02,0-.04,0-.06,0-.02.02-.03.03-.04-.07-.1-.24-.03-.26.08Z"/><path class="cls-1" d="m72.32,49.86s0,0,0,0c.68-1.24-.03-2.83-1.06-3.64-1.59-1.41-3.75-2.05-5.84-2.13-2.27-.15-4.57,1.4-5,3.69-.11.75-.02,1.55.37,2.22.08.27.41.36.48.62.95.9,2.19,1.33,3.4,1.75,1.3.33,2.65.28,3.97.15,1.65-.02,3.1-1.16,3.69-2.66Zm-11.31-2.47c.01-.06.07-.11.13-.1.06,0,.11.07.1.13-.01.06-.07.11-.13.1-.06,0-.11-.07-.1-.13Zm.21,1.74c-.06,0-.11-.07-.1-.13.01-.06.07-.11.13-.1.06,0,.11.07.1.13-.01.06-.07.11-.13.1Zm7.74,2.07c-.06,0-.11-.07-.1-.13.01-.06.07-.11.13-.1.06,0,.11.07.1.13-.01.06-.07.11-.13.1Zm1.16.52c-.4.2-.7-.32-.33-.58.4-.28.72.35.33.58Zm.75-1.14c-.06,0-.11-.07-.1-.13.01-.06.07-.11.13-.1.06,0,.11.07.1.13-.01.06-.07.11-.13.1Zm.99-2.5c.06,0,.11.07.1.13-.01.06-.07.11-.13.1-.06,0-.11-.07-.1-.13.01-.06.07-.11.13-.1Zm-.14,1.29c.13.1.17.35.01.44-.18.38-.86.05-.62-.33.12-.19.42-.27.6-.11Zm-1.39-2.15s0,0,0,0c.1-.52.94-.42.85.13-.1.53-.93.39-.85-.13,0,0,0,0,0,0v-.02Zm-.69-1.1c.06,0,.11.07.1.13-.01.06-.07.11-.13.1-.06,0-.11-.07-.1-.13.01-.06.07-.11.13-.1Zm-1.99-.67c.37-.73,1.57-.05,1.22.65-.49.96-1.65.23-1.22-.65Zm.54,2.3c-.01.06-.07.11-.13.1-.06,0-.11-.07-.1-.13.01-.06.07-.11.13-.1.06,0,.11.07.1.13Zm-.26,2.43c-.01.06-.07.11-.13.1-.06,0-.11-.07-.1-.13.01-.06.07-.11.13-.1.06,0,.11.07.1.13Zm-1.35-4.92c.06,0,.11.07.1.13-.01.06-.07.11-.13.1-.06,0-.11-.07-.1-.13.01-.06.07-.11.13-.1Zm-.54,1.85h.01s0,0,0,0c.24-.22.71-.13.77.21.13.23-.16.47-.35.57-.51.23-.83-.46-.43-.78,0,0,0,0,0,0Zm-3.68-.85c.06,0,.11.07.1.13-.01.06-.07.11-.13.1-.06,0-.11-.07-.1-.13.01-.06.07-.11.13-.1Zm.35,4.09c-.04.18-.34.21-.48.14-.35-.18-.12-.75.25-.69.25.02.49.38.23.55Zm.25-2.26c-.37.6-1.39.1-1.04-.56,0,0,0,0,0,0,0,0,0,0,0,0,0,0,0,0,0,0,.37-.71,1.52-.15,1.04.56Zm.47-1.13c-.06,0-.11-.07-.1-.13.01-.06.07-.11.13-.1.06,0,.11.07.1.13-.01.06-.07.11-.13.1Zm-.02-1.61s0,0,0,0h0s0,0,0,0c.26-1.27,2.32-.89,2.03.38-.36,1.26-2.45,1.1-2.03-.38Zm2.05,3.45c-.01.06-.07.11-.13.1-.06,0-.11-.07-.1-.13.01-.06.07-.11.13-.1.06,0,.11.07.1.13Zm-.69-1.16c-.01.06-.07.11-.13.1-.06,0-.11-.07-.1-.13.01-.06.07-.11.13-.1.06,0,.11.07.1.13Zm-.9,3.62c-.06,0-.11-.07-.1-.13.01-.06.07-.11.13-.1.06,0,.11.07.1.13-.01.06-.07.11-.13.1Zm.4-2.27c-.13.3-.72.13-.6-.21,0,0,0,0,0,0h0s0,0,0,0c.07-.22.36-.34.57-.24.18.09.19.36.03.46Zm.68,2.08c-.6-.18-.63-.86-.04-1.08,0,0,0,0,0,0h0s0,0,0,0c.36-.13.87.11.89.52.13.46-.48.72-.85.57Zm1.01,1.06c-.06,0-.11-.07-.1-.13.01-.06.07-.11.13-.1.06,0,.11.07.1.13-.01.06-.07.11-.13.1Zm.75-2.61c-.38.15-.66-.33-.32-.57.46-.31.84.35.32.57Zm.43,1.89c.06-.25.29-.45.55-.47.27-.02.61.22.52.52.11.69-1.2.66-1.07-.05Zm1.24-2.72c.42-1.37,2.53-.71,2.06.65-.48,1.55-2.45.78-2.06-.65Z"/><path class="cls-1" d="m71.4,49.75c.06.03.11-.01.15-.06,0,0,0-.01,0-.02,0-.02.02-.04.04-.05-.02-.15-.26-.09-.29.02,0,.06.05.09.1.1Z"/><path class="cls-1" d="m54.01,116.05c1.93,2.91,4.01,5.71,6.22,8.41,1.43,1.67,2.76,3.45,4.34,4.98-.95-2.25-1.97-4.5-3.15-6.62-1.04-1.89-1.92-3.89-3.11-5.69-1.33-1.88-3.12-3.27-4.84-4.75-1.6-1.36-3.16-2.77-4.54-4.35.41.7.81,1.42,1.2,2.12,1.24,2,2.63,3.9,3.89,5.89Z"/><path class="cls-1" d="m61.27,127.84c1.1.68,2.23,1.3,3.33,1.97-.04-.04-.07-.07-.09-.09-1.48-1.39-2.69-3.03-4.02-4.56-2.78-3.35-5.34-6.85-7.69-10.51-1.25-1.95-2.67-3.8-3.72-5.87-.1-.17-.2-.34-.3-.52,1.12,3.5,2.07,7.08,3.81,10.33,1.99,3.8,5.06,6.96,8.67,9.24Z"/><path class="cls-1" d="m104.99,21.79c.98-.11,1.95-.12,2.93-.06,1.08.1,2.19.09,3.25.36.02,0,.03,0,.05,0,.56.05,1.25.34,1.98.75-.67-.79-1.32-1.6-2.08-2.31-1.45-1.3-3.23-2.52-5.23-2.62.57,1.11-.55,2.84-.91,3.88Z"/><path class="cls-1" d="m138.75,19.02c-1.63.67-3.25,1.38-4.88,2.07-2.83,1.18-5.69,2.25-8.51,3.43-2,.84-3.98,1.74-5.87,2.81,4.31-.77,8.61-1.41,12.79-2.7,3.22-1.06,6.41-2.4,9.17-4.39.7-.59,1.64-1.33,1.54-2.35-.02-.1-.06-.19-.1-.27-.05.02-.1.04-.15.06-1.31.5-2.68.83-3.99,1.32Z"/><path class="cls-1" d="m70.94,47.35s-.01,0-.02-.01c-.05-.04-.06-.12-.02-.16,0,0,0,0,0,0-.11-.08-.31-.03-.34.11-.02.2.33.27.38.06Z"/><path class="cls-1" d="m78.27,22.84c-.2.78-.45,1.53-.63,2.31-.05.25-.11.49-.18.73.23.08.45.15.67.23.89.29,1.83.55,2.73.77,1.24.25,2.51.57,3.63,1.16.18-.28.37-.56.53-.84.55-1.09.98-2.24,1.32-3.41,1.35-4.7,1.3-9.89-.54-14.45-1.11-2.81-2.85-5.33-3.7-8.23.01.56-.09,1.39-.08,1.54-.2,3.41-.63,6.81-1.36,10.15-.56,3.4-1.59,6.69-2.41,10.04Z"/><path class="cls-1" d="m136.25,19.82c.77-.33,1.53-.66,2.31-.97,1.38-.54,2.84-.87,4.21-1.41-.46-.6-1.4-.75-2.13-.72-2.2.14-4.35.77-6.45,1.41-3.7,1.21-7.08,3.22-10.29,5.38-1.67,1.13-3.39,2.26-4.74,3.77,3.9-2.26,8.18-3.76,12.34-5.46,1.6-.62,3.18-1.31,4.76-1.99Z"/><path class="cls-1" d="m69.86,51.44c0,.13.17.12.21,0,0-.04,0-.1-.03-.12-.08-.05-.15.05-.17.11Z"/><path class="cls-1" d="m34.39,59.9c3.55-1.38,7.15-2.61,10.67-4.06,1.57-.66,3.16-1.29,4.68-2.05.77-.44,1.57-.83,2.37-1.19-1.91.71-3.86,1.3-5.87,1.71-2.2.56-4.46.94-6.73.88-.9-.06-1.86-.16-2.64-.65-.13-.11-.24-.23-.34-.35-.08-.05-.15-.12-.21-.18-.44-.37-.91-.76-1.3-1.16-.79-.79-1.42-1.56-1.91-2.35-.1.02-.21.03-.3.05-1.59.31-3.21.75-4.77,1.14-3.76,1.03-7.39,2.47-10.83,4.27-1.59.83-3.21,1.74-4.62,2.84-2.77,2.24-5.39,4.7-7.74,7.37-1.14,1.24-2.04,2.69-3.2,3.91,6.87-2.67,14.17-4.12,21.22-6.27,3.86-1.27,7.73-2.48,11.53-3.91Z"/><path class="cls-1" d="m70.25,19.07c.6.49,1.15,1.06,1.63,1.65.83.97,1.34,2.19,2.09,3.21.81,1.03,2.05,1.47,3.27,1.88.97-3.83,2.08-7.63,2.93-11.5.34-1.96.8-3.92,1.07-5.88.28-2.4.6-4.82.62-7.23-1.92,4.62-6.15,6.58-8.97,10.41-1.43,2.18-2.93,4.71-2.61,7.41,0,.02-.01.03-.02.05Z"/><path class="cls-1" d="m59.54,74.45c.47-.04.95-.08,1.41-.12.61-.02,1.22-.08,1.82-.14.09-.16.27-.36.3-.46.15-.26.33-.53.47-.78,2.54-4.33,3.61-9.51,3.02-14.49-.19-1.18-.41-2.36-.79-3.49-.01-.09-.1-.24-.13-.36-.13,0-.27-.02-.4-.03.34,1.55.21,3.15.02,4.71-.02.15-.26.12-.23-.03.14-1.13.24-2.28.17-3.42-.03-.45-.12-.86-.19-1.28-.19-.02-.37-.05-.55-.08.03.22-.16.61-.17.76-.51,1.54-1.04,3.09-1.39,4.68-.55,2.48-1.12,4.96-1.65,7.45-.16.72-.31,1.44-.47,2.15-.03.14-.26.1-.23-.05.84-3.71,1.58-7.47,2.52-11.15.32-1.28.88-2.52,1.17-3.8-.01-.02-.01-.05,0-.07-.27-.05-.53-.12-.79-.19-.24,1.16-.62,2.3-1,3.42-.04.11-.07.19-.1.3-.06.14-.28.05-.22-.09.35-1.04.73-2.08.97-3.15.04-.18.07-.36.12-.54-.11-.04-.22-.07-.34-.11-.12-.05-.23-.11-.35-.16-1.14,2.45-2.33,4.88-3.33,7.38-.36.88-.69,1.77-1,2.66-.15.41-.3.82-.45,1.23-.05.14-.28.07-.22-.08,1.33-3.88,3.02-7.61,4.8-11.29-.16-.08-.32-.18-.48-.27,0,0,0,0-.01,0-.56.74-.99,1.59-1.4,2.43-.23.5-.47,1.01-.67,1.53-.06.14-.28.05-.22-.09.41-.98.85-1.95,1.38-2.87.24-.36.41-.82.73-1.12-.15-.1-.3-.2-.45-.3-1.32,1.04-2.25,2.45-3.27,3.76-1.41,1.9-2.74,3.88-3.96,5.9-.6,1.01-1.16,2.05-1.72,3.09-.16.31-.32.62-.47.93-.06.13-.28.03-.21-.11,1.56-3.21,3.48-6.23,5.55-9.14,1.22-1.59,2.31-3.32,3.87-4.59-.15-.12-.3-.24-.45-.36,0,0-.02.01-.03.02-1.7,1.18-3.01,2.81-4.16,4.52-.14.21-.28.42-.43.62-.04.05-.12.06-.17.02-.05-.04-.06-.11-.02-.17,1.29-1.93,2.69-3.85,4.62-5.18-.1-.09-.2-.18-.29-.28-.28.08-.56.18-.82.29-2.21.88-4.01,2.48-5.7,4.11-2.32,2.24-4.23,4.85-5.86,7.61-.71,1.23-1.4,2.49-1.83,3.84,0,.02,0,.03-.01.05,2.86.39,5.97,1.11,7.47,3.79.51.82.85,1.85,1.78,2.28,1.43.55,2.98.45,4.47.33,0,0,0,0,0,0,0,0,0,0-.01,0Z"/><path class="cls-1" d="m79.99,45.71c-1.88.26-3.85.53-5.48,1.57-.04.03-.1.07-.16.1.06.27.11.56.13.87,0,0,0,0,0,0,4.63-1.44,9.63-1.17,14.32-.13-.09-.2-.18-.4-.27-.59-.61-1.14-1.17-2.36-2.12-3.25-.16-.19-.76-.48-.94-.76-.9.08-1.85.24-2.81.43-2.57.6-5.08,1.5-7.73,1.73-.15.02-.37.09-.51.02-.18.05-.36.11-.53.15-.05.01-.11.03-.18.04.24.37.43.79.56,1.25,0,0,.01,0,.02,0,1.76-1.16,3.93-1.43,5.97-1.7.06,0,.12.05.12.11,0,.19-.27.12-.4.16Z"/><path class="cls-1" d="m60.35,35.48c.04.25.09.5.17.74.01.06,0,.11-.02.15.05.15.09.31.14.46.67,1.87,1.21,3.78,1.79,5.67.02.04.03.07.03.11.38-.15.78-.27,1.19-.34-.9-1.38-1.58-2.93-1.85-4.56-.04-.25-.08-.51-.1-.76,0-.05.05-.09.1-.1.06,0,.13.04.13.1.05.45.12.93.23,1.36.33,1.39.93,2.71,1.73,3.88,0,0,.01.02.02.03.32-.05.64-.07.98-.08-.14-.23-.19-.72-.26-.87-.58-2.48-1.04-5-1.23-7.55,0,0,0,0,0,0-.13-2.21-.17-4.44.25-6.62.17-1.01.34-2.02.6-3,.08-.32.17-.64.26-.96.02-.06.08-.1.15-.08.06.02.1.08.08.15-.18.64-.35,1.28-.49,1.92-.28,1.38-.53,2.8-.66,4.21-.22,4.27.37,8.57,1.5,12.68.05.01.07.06.08.11.25,0,.51.02.76.04,0,0,0,0,0,0-.19-.91-.35-1.84-.43-2.77-.08-.87-.09-1.77-.07-2.65,0-.06.05-.12.12-.12.06,0,.12.05.12.12,0,.36-.02.72-.01,1.09.01.52.03,1.06.08,1.57.1.93.24,1.88.45,2.79,0,0,0,0,0,0,.24.03.48.06.72.1-.01-3.27.21-6.56.85-9.77.03-.21.9-3.97,1.11-2.98-1.28,3.37-1.51,7.03-1.69,10.59-.06.73,0,1.47-.04,2.2.29.06.58.12.87.2,0-.02,0-.03.02-.05.91-2.07,1.29-4.32,1.9-6.49.06-.13.02-.42.22-.4.06.02.1.08.09.14-.63,2.27-1.05,4.64-1.98,6.81,0,.02,0,.03,0,.05.35.1.69.21,1.03.34,3.4-3.29,5.23-7.82,6.19-12.37.06-.27.11-.54.16-.81.01-.06.07-.11.13-.1.23.03-.04.62-.03.78-.97,4.62-2.76,9.28-6.24,12.59.22.08.44.17.67.27,1.32-.95,2.71-1.86,3.76-3.13.73-.9,1.32-1.88,2.01-2.8.08-.13.28,0,.2.13-.88,1.19-1.62,2.51-2.69,3.55-.89.92-1.98,1.59-2.99,2.35,0,0-.02.01-.03.02,0,0,.01,0,.02,0,.22.09.44.19.65.29.01-.01.03-.03.05-.03,2.72-.9,5.59-1.58,7.98-3.22,2.48-1.73,4.71-3.94,6.1-6.65.09-.18.18-.35.27-.53.03-.06.11-.07.16-.04.19.11-.23.6-.27.76-1.58,2.99-4.13,5.44-6.99,7.2-2.19,1.24-4.65,1.89-7.04,2.66.4.21.77.44,1.11.71.04-.02.08-.03.12,0,1.47-.33,2.87-.99,4.24-1.57.26-.12.52-.24.78-.37.06-.03.13,0,.16.05.03.06,0,.13-.05.16-.27.13-.54.26-.81.38-.32.13-3.22,1.45-4.19,1.56.25.21.48.45.69.7.04-.03.1-.04.15-.04.83-.18,1.58-.48,2.37-.78,4.6-1.71,9.91-3.83,11.28-9.06.15-.59.22-1.2.21-1.8,0-.03,0-.05,0-.08,0,0,0,0,0-.01-.05-2.02-.96-4.01-2.79-5.03-1.19-.8-2.64-1.04-4-1.37-1.17-.29-2.34-.63-3.48-1.03-1.78-.58-3.32-1.27-4.19-3.04-1.38-2.52-3.64-5.37-6.83-5.03-3.05.28-4.19,3.1-5.23,5.56-1.05,2.64-.98,5.57-.82,8.35.02,1.13.11,2.26.27,3.37Z"/><path class="cls-1" d="m68.4,57.24c-.11-.91-.23-1.81-.5-2.67,0-.02,0-.04,0-.06-.31.04-.63.08-.94.1,0,.02,0,.04,0,.07.65,1.1,1.06,2.33,1.23,3.59,0,.06-.04.12-.1.13-.06,0-.12-.04-.13-.1-.08-.6-.22-1.19-.41-1.76-.18-.54-.42-1.08-.7-1.59-.05-.1-.16-.21-.13-.32-.27.01-.54.01-.81,0,2.14,6.3.97,13.55-2.56,19.14-.08.14-.16.27-.25.4.65-.07,1.3-.16,1.95-.25.05-.01.09-.01.14,0,.08-.07.16-.15.24-.22,2.02-2.05,3.27-4.87,3.64-7.7.25-1.88.08-3.78-.18-5.65-.13-1.04-.32-2.05-.47-3.08Z"/><path class="cls-1" d="m59.71,74.91c-2.18.16-5.24.48-6.29-1.93-1.42-2.92-3.52-3.78-6.57-4.29-.44-.09-.88-.14-1.32-.2.32.26.62.55.87.9,1.02,1.3,1.75,2.8,2.5,4.27.24.49.46.98.68,1.48.18.45.47.93,1.03.84.77-.03,1.59-.19,2.35-.07.98.14,1.92.56,2.87.8,1.38.38,2.83.41,4.24.23.73-.08,1.41-.4,2.01-.76.87-.49,1.71-1.07,2.48-1.72-1.19.16-2.38.31-3.59.35-.43.04-.84.07-1.26.11Z"/><path class="cls-1" d="m146.08,34.3c-4.38-1.5-8.78-2.9-13.24-4.1-2.17-.57-4.38-.94-6.59-1.31,2.23.67,4.39,1.56,6.5,2.53,3.7,1.75,7.29,3.73,11.07,5.29,1.96.84,3.93,1.59,6.03,1.94,1.77.28,3.77.4,5.36-.56.27-.17.46-.35.59-.54-.22-.07-.46-.14-.67-.21-3-1.06-6.05-2-9.05-3.03Z"/><path class="cls-1" d="m53.12,76.42c-.09-.02-.17-.03-.26-.05-.14-.02-.27-.03-.41-.03.02.11.02.24.05.32.26,1.29.68,2.58,1.42,3.67,2.34,3.32,6.93,4.1,9.07,7.6.38.58.67,1.2.95,1.83.03.06,0,.13-.06.16-.06.02-.13,0-.16-.06-.14-.33-.3-.67-.46-.99-1.64-3.44-5.2-4.37-7.9-6.68-1.41-1.1-2.37-2.65-2.82-4.38-.13-.48-.24-.98-.33-1.46-.33,0-.66.04-.99.07,1.31,1.39,1.77,3.32,2.34,5.09.38,1.12.82,2.28,1.38,3.3.65,1.22,1.46,2.32,2.29,3.4.92,1.28,1.5,2.77,1.86,4.29.72,2.7-.1,5.54-1.44,7.9-.16.27-.33.52-.52.75,1.28-.69,2.02-2.14,3.31-2.88,1.06-.7,2.29-1.1,3.52-1.42.62-.17,1.27-.27,1.84-.57,1.53-.85,1.86-2.75,1.69-4.35-.38-3.62-3.2-6.45-6.12-8.33-2.9-1.81-7.44-3.46-8.23-7.14,0,0,0-.02-.01-.03Z"/><path class="cls-1" d="m146.66,31.06c-4.12-1.37-8.38-2.29-12.68-2.83-3.32-.43-6.66-.61-9.99-.28-.32.03-.64.06-.96.1,3.33.68,6.73,1.06,10.02,1.95,4.51,1.22,8.97,2.65,13.39,4.17,2.92,1,5.86,1.9,8.77,2.93.23.08.47.15.71.23.18-.42.06-.88-.3-1.43-1.53-2.23-6.39-3.86-8.96-4.84Z"/><path class="cls-1" d="m45.5,108.32c-.18,2.69-.19,5.4-.18,8.09,0,1.55-.03,3.09-.04,4.63-.02,2.63-.25,5.26-.28,7.89.01,1.8-.23,3.59-.12,5.38,0,.01,0,.03,0,.04,2.27.03,2.8-4.28,3.06-6,.48-4.39.11-8.83-.47-13.19,0,0,0,.01,0,.02-.02-.15-.04-.3-.07-.45,0,.01,0,.02,0,.03-.45-3.19-1.1-6.35-1.78-9.5-.02,1.02-.09,2.04-.12,3.07Z"/><path class="cls-1" d="m45.05,120.24c.06-4.26-.03-8.51.25-12.76.04-.89.09-1.8.1-2.69,0-.2,0-.41,0-.61,0-.02,0-.04-.01-.06-.96,4.18-1.94,8.36-3.04,12.51-.61,2.46-1.09,4.98-1.34,7.5-.17,2.13-.27,4.33.51,6.36.52,1.45,1.23,3.23,2.81,3.77.11.03.21.05.31.06-.09-1.4.05-2.81.1-4.21.02-3.29.31-6.59.32-9.88Z"/><path class="cls-1" d="m97.06,45.46c6.84,1.33,13.66.71,19.03-4.08,1.38-1.22,2.46-2.75,3.34-4.35-.43-.09-.86-.2-1.27-.36-.11-.05-.23-.1-.36-.16-.07-.06-.16-.09-.25-.13,0,0-.02,0-.03-.01-.01,0-.03-.01-.04-.02-.16-.09-.32-.19-.47-.28-.01,0-.02-.01-.03-.02-.16-.15-.27-.34-.27-.59.02-.24.1-.46.18-.67.17-.44.33-.85-.09-1.31-1.05-1.16-2.61-1.72-2.49-3.54-.05-1.09-.24-2.16-.48-3.21-.21-.99-.5-1.99-1.2-2.76-.44-.51-.68-1.2-1.39-1.38-1.74-.38-3.59-.44-5.36-.4-.12,0-.24.02-.36.03-.12-.01-.24-.03-.37-.04.01,0,.02,0,.03,0-.07,0-.13-.02-.2-.03-.02,0-.04-.01-.06-.02,0,0,0,0,0,0-.05-.01-.09-.03-.13-.04-.02,0-.03-.01-.05-.02,0,0-.02,0-.02-.01-.02,0-.03-.02-.05-.03-.02-.02-.04-.03-.06-.05,0,0-.02-.01-.02-.02,0-.01,0-.02,0-.03,0-.02,0-.04-.01-.06,0,0,0-.02,0-.03,0,0,0,0,0-.01,0,0,0,0,0,0,0-.03,0-.05,0-.08,0,0,0,0,0-.01,0-.04,0-.08.02-.11.02-.07.04-.14.06-.2.02-.06.04-.12.05-.18.05-.11.11-.22.15-.33.18-.39.36-.77.49-1.16.54-1.57.21-1.99-1.3-2.55-1.33-.38-2.66-.79-3.84-1.53-1.16-.62-1.92-1.75-3.02-2.43-.94-.62-2.13-.12-2.54.87-.63,1.47-.85,3.05-1.07,4.63-.08.57-.16,1.14-.26,1.7-.34,2.12-.72,4.26-1.4,6.28-.54,1.61-1.15,3.22-2.04,4.68-.62.84-1.1,1.9-1.98,2.5-.02,1.35-.39,2.71-1.03,3.87.39-.49.77-.98,1.17-1.46,1.69-2.09,3.3-4.25,4.54-6.64.6-1.11,1.26-2.2,1.75-3.37.47-1.21.86-2.44,1.12-3.7.08-.47.21-.96.15-1.42-.03-.06,0-.13.06-.15.53-.11-.2,2.47-.26,2.79-.42,1.55-.97,3.05-1.77,4.44-.77,1.41-1.54,2.83-2.4,4.19-1.07,1.61-2.29,3.12-3.5,4.63-.68.87-1.37,1.74-2.06,2.59-.48.54-1.05,1.01-1.59,1.49-.2.19-.43.35-.66.51-.03.02-.06.03-.09.02-.62.45-1.28.84-1.97,1.18-1.45.74-2.94,1.36-4.46,1.94,1.88-.6,3.74-1.32,5.54-2.12,3.16-1.62,6.12-3.6,8.83-5.89,1.57-1.36,3.21-2.66,4.71-4.11,1.53-1.56,2.91-3.26,4.11-5.08.79-1.17,1.5-2.42,2.02-3.71.78-.26-1.59,3.51-1.75,3.73-1.22,1.87-2.64,3.62-4.19,5.21-1.19,1.18-2.5,2.22-3.76,3.31-2.87,2.47-5.97,4.76-9.36,6.48,1.01-.44,2.01-.92,3.02-1.38,2.41-1.06,4.92-1.85,7.33-2.9,2.83-1.23,5.68-2.45,8.36-3.99,1.08-.61,2.16-1.24,3.15-1.97.66-.5,1.2-1.1,1.82-1.65.12-.09.3-.3.41-.12.06.16-.19.2-.26.3-1.93,2.05-4.45,3.36-6.91,4.67-3.42,1.74-6.98,3.23-10.57,4.59-2.12.74-4.14,1.7-6.18,2.64-.67.3-1.36.57-2.04.84,2.65-.88,5.29-1.84,8.08-2.17,6.62-.86,13.38.37,19.97-1,1.16-.22,2.31-.49,3.44-.83.06-.02.13.02.14.08.02.06-.02.13-.09.14-1.12.33-2.26.61-3.41.82-4.22.86-8.53.72-12.82.71-2.19-.03-4.38-.07-6.56.22-2.77.25-5.38,1.14-7.99,2,1.78-.42,3.58-.65,5.41-.64,1.05.05,2.09.41,2.97,1,.08-.02.16,0,.23.02.77.15,1.54.34,2.31.51,1.38.38,2.79.68,4.2.95Zm-.45-11.91s-.02,0-.02,0c.01,0,.02,0,.03,0,0,0,0,0,0,0Z"/><path class="cls-1" d="m57.57,89.66c-.45-.9-1.11-1.68-1.7-2.49-1.01-1.4-1.85-2.97-2.42-4.58-.64-1.66-.96-3.47-1.91-5-.17-.29-.37-.56-.6-.8-.09-.09-.23-.21-.29-.34-.13.01-.25,0-.36-.01.15.57.33,1.14.52,1.7.88,2.35,1.36,4.85,2.41,7.13.97,2.08,2.49,3.89,3.03,6.16.08.27.16.55.24.83.02.06-.02.13-.08.15-.06.02-.13-.02-.14-.08-.3-1.07-.61-2.15-1.11-3.14-.85-1.56-1.89-3.03-2.53-4.7-.66-1.8-1.16-3.66-1.75-5.48-.3-.78-.53-1.59-.78-2.39-.01-.03-.03-.08-.03-.12-.08.36-.16.72-.24,1.07-.22.89-.14,1.8-.09,2.71.08,1.4.18,2.8.5,4.16.52,2.1.81,4.26.47,6.41-.04.33-.08.66-.12.99,0,.06-.07.11-.13.1-.06,0-.11-.07-.1-.13.33-2.17.4-4.38-.17-6.51-.37-1.55-.59-3.13-.66-4.72-.05-.98-.17-1.99.05-2.96h0c.06-.32.13-.63.21-.95-.18.22-.37.43-.52.67-1.55,2.31-2.62,4.91-3.09,7.65-.31,1.6-.4,3.24-.54,4.86-.02.15-.26.12-.23-.03.13-1.57.22-3.13.51-4.68.47-2.84,1.55-5.53,3.15-7.92.11-.16.23-.33.36-.49-.61.32-1.2.7-1.79,1.05-1.28.95-2.45,2.1-3.35,3.41-.78,1.18-1.29,2.52-1.71,3.87-.71,2.37-.92,4.84-.98,7.3,0,.15-.24.16-.24,0,.04-1.79.19-3.56.49-5.33,0,0,0,0,0,0,0,0,0-.01,0-.01,0,0,0,0,0,.01.48-2.28,1.2-4.59,2.6-6.47,1.03-1.28,2.21-2.49,3.63-3.32.59-.32,1.15-.68,1.75-.98-.17-.11-.31-.27-.42-.46-2.06.54-3.81,1.91-5.38,3.29-1.58,1.63-3.11,3.43-3.74,5.65-.72,2.56-.58,5.3.15,7.83.57,1.84,1.15,3.86,2.67,5.15.37-.38.74-.74,1.18-1.04,2-1.31,3.82-.43,5.05,1.4.66.88,1.23,1.89,2.13,2.54.17.12.35.22.53.32.03,0,.06.02.08.04,1.26.65,2.75.86,4.13.53.06-.1.18-.2.26-.28,0,0-.01.01-.01,0,.03-.02.05-.05.08-.07,1.39-1.53,2.27-4.18,2.39-6.22.05-1.83-.51-3.66-1.31-5.27Z"/><path class="cls-1" d="m86.13,43.47c.21.16.43.31.62.48.72.65,1.16,1.51,1.64,2.33.87,1.55,1.49,3.22,2.07,4.89.66,2.1,1.17,4.33,1.22,6.52-.12,2.73-1.15,5.4-2.74,7.61-.13.17-.27.35-.4.52.85-.5,1.75-.94,2.54-1.47,3.47-2.18,4.01-4.59,2.82-8.38-.82-2.72-.76-5.63-1.62-8.34-1.12-3.48-3.42-4.28-6.17-4.16Z"/><path class="cls-1" d="m91.2,56.97c-.28-2.97-1.12-5.86-2.3-8.58-3.5-.82-7.14-1.1-10.72-.71-.99.12-1.98.31-2.94.59-.25.07-.5.16-.76.22.02.37,0,.74-.05,1.1,2.24.34,4.51.54,6.78.62.06,0,.11.07.11.13,0,.07-.06.11-.13.11-1.51-.02-3.01-.2-4.52-.33-.15-.04-1.89-.12-2.29-.33-.09.46-.24.9-.46,1.32,4.5,1.76,9.3,2.76,13.99,3.93.15.02.12.26-.03.23-3.41-.83-6.83-1.64-10.2-2.62-.85-.24-1.69-.55-2.53-.82-.43-.15-.86-.31-1.27-.51-.02,0-.04-.02-.06-.04-.06.1-.12.2-.18.29-.08.09-.16.18-.24.27.13.04.25.28.35.36,1,1.07,2.25,1.85,3.49,2.61,1.05.64,2.09,1.32,3.24,1.78.14.05.06.28-.09.22-1.41-.57-2.67-1.44-3.97-2.22-1.12-.7-2.24-1.49-3.1-2.51-.04,0-.06-.03-.07-.07-.26.28-.55.54-.85.77.02.04.04.07.05.11.15.39.37.76.6,1.1,2.68,3.7,6.2,6.7,10.03,9.16.07.05.15.1.22.15.12.09-.02.28-.14.19-3.36-2.15-6.48-4.67-9.04-7.74-.65-.82-1.37-1.61-1.81-2.57-.04-.08-.07-.17-.1-.25-.28.21-.57.39-.87.56,0,0,.01,0,.02.02.07.22.16.45.26.67.63,1.47,1.58,2.73,2.48,4.04.09.12-.09.27-.19.14-.95-1.38-1.97-2.74-2.6-4.3-.02-.11-.16-.32-.17-.46-.27.13-.54.25-.82.35-.09.03-.17.05-.26.08.04.03.07.08.05.13.97,2.43,2.08,4.83,3.18,7.2,1.79,3.12,3.7,6.32,6.58,8.57.29.24.57.48.88.7.05.04.06.11.02.17-.15.17-.44-.23-.59-.3-2.11-1.6-3.81-3.62-5.18-5.86-1.11-1.65-2.09-3.37-2.87-5.19-.64-1.52-1.33-3.01-1.98-4.53-.1-.26-.24-.51-.27-.78,0-.02.01-.03.02-.04-.26.08-.53.15-.8.21.5.18,1.47,4.22,1.69,4.59.12.34.23.67.38.99.03.06,0,.13-.06.16-.22.1-.42-.8-.51-.96-.57-1.56-.91-3.25-1.63-4.73,0-.01.02-.02.03-.03-.21.05-.42.09-.63.13,0,.03,0,.06,0,.1.28.87.38,1.8.5,2.69.11.77.26,1.53.37,2.3.15.87.26,1.74.32,2.62.07.04.11.12.11.21.05.16.12.31.19.46.35.77.73,1.49,1.16,2.22,1.22,1.99,2.43,4.04,4.19,5.59,1.69,1.39,3.84,2.49,6.07,2.44,2.31-.14,3.68-2.27,4.35-4.27.27-.7.69-1.25,1.2-1.73.14-.24.53-.48.63-.66.48-.56.96-1.13,1.37-1.75,1.49-2.24,2.48-4.96,2.37-7.68Z"/><path class="cls-1" d="m109.7,45.57s-.07.03-.11.04c-4.05,1.32-8.48,1.09-12.62.32-1.76-.32-3.48-.79-5.22-1.18,1.08.72,2.26,1.28,3.45,1.79,3.27,1.29,6.81,1.58,10.28,1.9.16.04.43-.06.47.14-.03.21-.33.08-.46.09-3.91-.31-7.95-.76-11.52-2.42,3.67,2.32,9.8,7.33,14.07,6.49,1.72-.4,2.8-1.64,2.38-3.44-.25-1.21-1.21-2.5-.71-3.74Z"/><path class="cls-1" d="m119.5,37.85c-.61,1.04-1.29,1.99-2.09,2.89-1.94,2.08-4.41,3.62-7.06,4.6-1.17,1.61,1.39,3.56.38,5.94.95-.56,1.84-1.23,2.73-1.88,2.05-1.44,4.19-2.97,5.4-5.22.36-.66.63-1.39.71-2.13.06-1.1-.1-2.18-.07-3.26,0-.31,0-.62,0-.94Z"/><path class="cls-1" d="m133.11,38.27c2.67,2.08,5.16,4.39,7.79,6.5.3.25.58.52.87.77.67-.7.39-1.99-.38-3.26-.7-1.24-1.69-2.28-2.72-3.24-1.71-1.55-3.62-2.86-5.59-4.05-2.36-1.41-4.75-2.69-7.31-3.66,0,0,0,0,.01,0-1.72-.65-3.46-1.22-5.27-1.55-.24-.04-.49-.08-.74-.11.05.04.1.08.15.12,4.77,2.18,9.04,5.29,13.18,8.47Z"/><path class="cls-1" d="m134.68,39.83c-2.02-1.67-4.13-3.21-6.26-4.74-2.48-1.74-5.04-3.37-7.77-4.68,1.89,1.67,3.49,3.67,5.25,5.48,2.46,2.67,5.03,5.27,7.91,7.5,1.76,1.31,3.73,2.5,5.96,2.68.85.06,1.45-.08,1.83-.36-.29-.25-.57-.52-.85-.75-2.05-1.67-4.04-3.41-6.06-5.12Z"/><path class="cls-1" d="m117.73,27.38c-.55-.87-1.3-1.49-2.05-2.15-.98-.82-2.02-1.62-3.16-2.21.03.04.06.09.08.13.38.56.88,1.05,1.14,1.68.55,1.43.83,2.96.99,4.48.1.68-.06,1.49.44,2.04,1.06,1.24,3.1,1.9,2.06,3.85-.05.17-.13.39.04.51.67.46,1.49.71,2.25.88.05.01.12.02.18.03.02-.03.03-.07.04-.1.29-.77.33-1.58.22-2.39-.12-1.25-.48-2.48-.85-3.67-.33-1.07-.75-2.16-1.39-3.07Z"/><path class="cls-1" d="m43.81,97.61c-1.32,1.5-2.84,2.54-4.92,2.43-.45,0-.87-.08-1.28-.21.93,1.09,1.92,2.15,3.24,2.77,2.02.93,4.33.21,6.03-1.04,1.1-.72,2.44-1.21,3.74-1.03-.91-.89-1.49-2.06-2.34-2.98-1.35-1.51-3.09-1.26-4.46.07Z"/><path class="cls-1" d="m50.11,60.07c2.48-3.09,5.72-6.66,9.52-8.03.08-.03.16-.05.25-.07-.18-.2-.35-.4-.51-.62-.04.03-.09.05-.15.05-1.71.42-3.26,1.3-4.71,2.27-.55.37-1.08.74-1.62,1.13-.12.08-.26-.11-.13-.2,1.99-1.41,4.08-2.9,6.48-3.44-.16-.23-.29-.47-.41-.71-.5.16-1,.32-1.48.54-4.71,1.74-8.87,4.85-11.89,8.85-.96,1.24-1.88,2.58-2.26,4.12-.06.24-.12.49-.17.75,0,.04,0,.09-.02.14-.09.59-.07,1.2.25,1.72.4.57.97.98,1.53,1.39.03-.01.07-.02.11-.01.23.03.46.06.7.09.96-2.89,2.74-5.48,4.5-7.95Zm-5.36,3.75c-.16.28-.32.57-.48.86-.03.06-.11.08-.16.04-.06-.03-.07-.11-.04-.16.83-1.49,1.7-2.97,2.61-4.41.03-.05.1-.08.16-.04.05.03.08.11.04.16-.74,1.17-1.45,2.35-2.13,3.55Z"/><path class="cls-1" d="m35.84,113.99c1.84-2.51,3.87-4.88,5.88-7.26.64-.8,1.25-1.62,1.93-2.38-1.76,1.42-3.52,2.85-5.12,4.46-1.77,1.78-3.44,3.66-5.05,5.59-1.71,2.01-3.24,4.14-4.54,6.43-.9,1.54-1.69,3.17-1.98,4.94-.12,1.16.17,1.78.67,2.05,1.03-2.31,2.34-4.5,3.65-6.66,1.46-2.42,2.93-4.84,4.55-7.15Z"/><path class="cls-1" d="m42.62,98.15s.08-.08.12-.12c-.39-.35-.77-.72-1.05-1.17-.96-1.48-1.49-3.2-1.93-4.89-.51-1.98-.59-4.03-.27-6.05.29-2.11,1.36-4.02,2.74-5.6,1.45-1.79,3.28-3.35,5.36-4.35.3-.12,1.05-.56,1.56-.65-.11-.23-.21-.46-.32-.69-1.08.4-2.09.95-3.13,1.43-2.8,1.5-5.27,3.67-6.73,6.52-.84,1.63-1.45,3.36-1.94,5.12-.18.71-.39,1.44-.48,2.16,0,.15-.24.16-.24,0,0-.12.02-.23.05-.35,1.72-8.01,4.74-12.09,12.37-15.11-.07-.14-.13-.28-.2-.42-1.04.74-2.25,1.19-3.34,1.85-2.78,1.72-6.06,2.24-8.97,3.67-2.4,1.27-4.44,3.14-5.99,5.36-.53.75-.99,1.55-1.43,2.35-.1.18-.2.36-.3.54-.03.06-.1.08-.16.04-.05-.03-.08-.11-.04-.16,1.9-3.7,4.79-7.05,8.67-8.73,2.29-.99,4.76-1.49,6.98-2.65,1.46-.84,3.02-1.52,4.43-2.43.02-.01.03-.03.05-.04-.12-.25-.24-.49-.37-.74-.05.06-.09.12-.12.17-.17.28-.41.5-.68.69-.65.51-1.32.98-2.05,1.35-1.95,1.11-4.16,1.57-6.33,2.05-1.45.28-2.91.55-4.23,1.24-2,.9-3.7,2.31-5.22,3.87-1.35,1.55-2.26,3.57-2.34,5.63-.08,2.81.35,5.87,3.13,7.24,1,.5,2.17.24,3.16.73.7.35,1.16,1.07,1.69,1.6.49.48,1.05.95,1.66,1.3.06.02.12.05.17.09.62.33,1.29.55,2.01.56,1.37.06,2.75-.44,3.72-1.42Z"/><path class="cls-1" d="m41.09,107.84c-2.16,2.6-4.38,5.16-6.21,8.01-2.08,3.22-4.1,6.5-5.93,9.87-.41.7-.73,1.45-1.08,2.18.96.29,2.45-.43,3.42-1.29,1.81-1.45,3.2-3.33,4.52-5.2,2.44-3.62,4.11-7.7,5.89-11.67.83-1.86,1.53-3.74,2.43-5.56-.05.06-.09.1-.12.13-1.06,1.12-1.89,2.4-2.93,3.53Z"/><path class="cls-1" d="m18.78,72.05c1.82-.08,3.63-.29,5.44-.53,0,0,0,0,0,0,0,0,0,0,0,0,4.29-.62,8.44-2.01,12.44-3.62,2.05-.87,4.16-1.74,5.87-3.2,0,0,0,0,.01-.01.03-.18.07-.38.13-.58.43-2,1.69-3.68,2.95-5.24,2.21-2.79,5.02-5.08,8.15-6.77-1.39.62-2.78,1.23-4.11,1.98-1.61.78-3.27,1.46-4.93,2.13-4.07,1.62-8.19,3.1-12.29,4.64-4.21,1.43-8.41,2.91-12.69,4.1-4.77,1.33-9.61,2.44-14.31,4.01-1.16.36-2.29.77-3.41,1.22-.3.1-.58.27-.88.37-.04.03-.07.07-.1.1,4.93.47,9.84,1.24,14.8,1.4.88.04,1.76.03,2.63,0,.11-.06.22-.08.31-.01Z"/><path class="cls-1" d="m27.92,73.55s0,0,0,0c0,0,0,0,0,0,2.11-1.4,4.23-2.79,6.33-4.21-2.43.89-4.91,1.63-7.44,2.19-2.68.55-5.41.88-8.14.98-.01.01-.03.02-.04.03-2.08,2-3.97,4.19-5.54,6.61-1.24,1.85-2.04,3.96-3.26,5.82,2.33-1.71,4.85-3.12,7.29-4.66,3.63-2.22,7.28-4.43,10.82-6.77Z"/><path class="cls-1" d="m39.12,67.35c-1.28.58-2.57,1.12-3.88,1.62-.06.04-.11.07-.13.09-3.38,2.23-6.74,4.5-10.15,6.68-2.65,1.71-5.38,3.31-8.06,4.98-2.01,1.29-4.13,2.42-6.06,3.82-.19.11-.65.51-1,.72,2.87-.57,5.68-1.38,8.51-2.13,4.08-1.18,8.01-2.81,11.73-4.85,1.94-1.07,3.71-2.42,5.44-3.8,1.35-1.07,2.64-2.17,3.84-3.38.89-.91,1.81-1.79,2.66-2.75.33-.4.66-.82.96-1.24.02-.03.05-.05.07-.07-.35-.43-.57-.95-.57-1.66-.99.77-3,1.81-3.37,1.96Z"/><path class="cls-4" d="m46.84,60.11c-.06-.03-.13-.01-.16.04-.91,1.44-1.78,2.91-2.61,4.41-.03.06-.02.13.04.16.05.03.13.01.16-.04.16-.29.32-.57.48-.86.68-1.2,1.39-2.39,2.13-3.55.03-.05.01-.13-.04-.16Z"/><path class="cls-4" d="m71.79,51.56c3.13-3.47-.15-6.52-3.69-7.51-3.39-1.03-7.16-.26-8.13,3.59-.16,1.04-.02,2.31.79,3.07.5.74,1.4,1.15,2.2,1.51,1.33.67,2.81.94,4.29.87,1.74-.07,3.28-.14,4.55-1.53Zm-7.13.81c-1.21-.42-2.45-.86-3.4-1.75-.07-.26-.4-.35-.48-.62-.38-.66-.48-1.46-.37-2.22.42-2.28,2.72-3.83,5-3.69,2.08.08,4.24.72,5.84,2.13,1.04.81,1.74,2.4,1.06,3.64,0,0,0,0,0,0-.59,1.5-2.04,2.64-3.69,2.66-1.31.13-2.66.18-3.97-.15Z"/><polygon class="cls-4" points="86.05 29.16 86.05 29.16 86.05 29.16 86.05 29.16"/><path class="cls-4" d="m156.31,36.18c-.76-2.49-7.14-4.69-9.88-5.7-7.34-2.38-20.14-4.69-27.5-1.91-.09-.21-.19-.41-.3-.61.33-.04.66-.1.99-.15,1-.2,2.07-.37,3.11-.53,4.44-.81,8.94-1.62,13.1-3.42,2.32-1.04,5.75-2.5,7.26-4.57.94-1.25.13-2.65-1.29-2.94-1.5-.29-3.01.11-4.48.43-2.33.54-4.63,1.26-6.79,2.3-2.8,1.34-5.42,3-7.97,4.76-1.51,1.07-3.07,2.17-4.19,3.66-.17-.29-.36-.56-.56-.83-.58-.71-1.64-1.72-2.8-2.61-.92-.75-1.58-1.75-2.37-2.63-1.83-2.01-4.27-4.06-7.14-3.97-.78-.62-1.78-.81-2.71-1.1-.97-.32-1.9-.75-2.76-1.33-1.39-.87-2.53-3.02-4.45-2.41-1.86.68-2.01,3.47-2.35,5.16-.3,1.93-.55,3.86-.96,5.77-.72,3.28-2.02,7.26-4.4,9.75-.1-1.54-.68-3.02-1.83-4.13,0,0,0,0,0,0h0s0,0,0,0c0,0,0,0,0,0-.35-.34-.73-.63-1.14-.88.55-.63,1.27-2.51,1.41-2.91,1.66-4.55,1.88-9.61.6-14.29-.75-2.62-2.15-4.98-3.32-7.42-.28-.56-.52-1.13-.73-1.74-.18-.34-.48-2.5-1.09-1.77-.73,1.77-1.65,3.47-3.02,4.84-1.65,1.74-3.56,3.21-5.18,4.98-1.6,1.81-2.85,3.97-3.55,6.29-.27.78-.31,1.62-.27,2.44-.8-.55-1.69-.92-2.69-.97-2.56-.3-4.79,1.57-5.7,3.85-.48,1.05-1.01,2.08-1.3,3.2-.77,2.78-.57,5.68-.39,8.54-.14-.53-.29-1.06-.46-1.58-.51-1.73-.91-3.5-1.56-5.19-1.42-3.77-2.78-4.32-6.68-4.51-1.81-.03-3.62.12-5.42.19-3.51.05-6.8.94-6.66,5.12.06,1.89,1.14,3.59,1.2,5.47-.01.01-.03.02-.04.03-1.09,1.34-2.59,2.33-3.76,3.62-1.09,1.04-1.97,2.26-2.67,3.59-.68,1.07-1.13,2.28-1.38,3.53-.56,2.59-.37,4.59.64,6.47-.18.03-.36.06-.54.1-1.47.34-2.94.7-4.4,1.07-5.36,1.51-10.63,3.72-15.23,6.89-3.3,2.58-6.36,5.51-9.04,8.72-.76.86-1.35,1.84-2.13,2.68-.34.4-.89.72-1.12,1.22-.03.38.42.37.7.4.77.09,1.54.17,2.32.25,3.36.36,6.72.77,10.09,1.05,1.47.1,2.95.13,4.43.1-.08.09-.16.17-.22.22-.37.38-.75.76-1.12,1.15-1.45,1.53-2.76,3.21-3.93,4.98-1.4,2.1-2.28,4.51-3.76,6.56-.17.46.41.43.69.34.94-.16,1.82-.36,2.76-.6,1.81-.46,3.63-.91,5.44-1.41,4.46-1.23,8.79-3.01,12.84-5.27,3.85-2.32,7.34-5.25,10.45-8.48.8-.79,1.55-1.63,2.21-2.54.03-.03.05-.06.07-.09.82.79,2.03,1.37,2.87,2.57.58.83,1.1,1.71,1.57,2.61-.02.03-.04.05-.05.08-.14.2-.3.46-.49.64-3.34,2.9-7.24,3.14-11.3,4.2-2.01.7-3.89,1.8-5.46,3.24-.63.57-1.28,1.12-1.81,1.79-.91,1.18-1.55,2.57-1.92,4.01-.29,1.27-.2,2.58-.09,3.86.11,2,1.1,4.03,2.86,5.09,1.27.96,3.21.24,4.28,1.52.78.9,1.69,1.81,2.75,2.4.05.05.11.1.15.14.44.48.82,1.01,1.27,1.48,1.62,1.85,3.76,2.85,6.11,2.35-2.13,1.7-4.29,3.42-6.19,5.39-3.19,3.34-6.36,6.83-8.77,10.79-1.13,1.85-2.22,3.79-2.62,5.95-.3,1.38.25,3.05,1.91,2.95,1.21-.04,2.24-.77,3.16-1.49,1.33-1.05,2.43-2.37,3.45-3.71,1.28-1.66,2.42-3.45,3.35-5.33,1.81-3.51,3.38-7.12,4.9-10.77.4-.99.86-1.98,1.34-2.95.12-.25.24-.49.37-.74-.02.1-.04.19-.05.29-.46,2.04-.93,4.08-1.41,6.12-.87,3.72-2.01,7.39-2.61,11.18-.25,1.4-.44,2.8-.49,4.22-.12,1.78-.05,3.58.58,5.28.57,1.64,1.4,3.66,3.21,4.19.91.23,1.63-.02,2.21-.59l.33-.38c1.83-2.44,1.86-8.44,1.82-10.47-.11-5.35-.95-10.65-2.05-15.88-.24-1.29-.55-2.56-.8-3.85-.02-.06-.02-.14-.03-.22.57,1.12,1.22,2.2,2.01,3.18-.08.18.08.34.13.51.06.17.14.41.22.59.82,2.31,1.39,4.7,2.26,6.99,2.08,5.86,5.56,10.47,10.89,13.75.78.49,1.61.95,2.43,1.43.44.26.87.52,1.31.77.09.05.17.1.28.09.22-.03.26-.28.17-.45-1.63-4.07-3.72-7.92-5.77-11.78-1.87-3.75-5.68-5.92-8.55-8.82-1.73-1.65-3.26-3.52-4.49-5.58-.23-.41-.41-.85-.67-1.24-.02-.03-.05-.05-.07-.07,1.25-.68,2.36-1.66,3.84-1.75.46-.05.97.02,1.41.16.21.03.45.2.68.24,1.52.81,3.4.98,5.02.41,1.22-.38,1.97-1.45,2.83-2.31,1.4-1.35,3.31-1.93,5.16-2.36,2.26-.38,3.31-2.54,3.16-4.68-.11-3.92-3.07-7.08-6.19-9.13-2.67-1.73-7.32-3.38-8.15-6.76,1.25.33,2.48.87,3.78.92,1.75.15,3.59.02,5.08-1,1.01-.58,1.96-1.27,2.82-2.06.05-.02.08-.06.11-.1,1.07-1.01,1.98-2.19,2.62-3.53,1.24-2.33,1.63-4.84,1.57-7.38.02.05.04.09.05.12.64,1.33,1.41,2.59,2.23,3.81,1.65,2.67,3.91,4.94,6.99,5.85,2.28.82,4.64.21,6.02-1.83.58-.82.89-1.78,1.28-2.68.73-1.45,2.22-2.28,3.62-3,1.22-.68,2.43-1.43,3.43-2.41,2.21-2.21,1.91-4.8,1.07-7.55-.94-3.2-.66-6.7-2.22-9.72-.11-.22-.23-.42-.37-.62,1.3.87,2.63,1.72,3.94,2.62,3.23,2.1,10.91,7.82,14.41,4.16.05.01.11.01.17-.02.13-.08.27-.16.39-.24,0,0,0,0,0,0,0,0,.01,0,.02-.01,0,0,0,0,0,0,.02-.01.05-.03.07-.04,1.07-.64,2.11-1.39,3.12-2.14,2.33-1.63,4.76-3.44,5.83-6.18.52-1.19.36-2.5.3-3.76-.02-.86-.02-1.78-.01-2.66.03-.04.05-.08.06-.13.26-.52.39-1.1.44-1.68.04-1.7-.43-3.36-.93-4.98-.03-.09-.06-.17-.08-.26.31.26.65.49.94.77,1.92,1.82,3.65,3.82,5.46,5.75,3.06,3.2,6.15,6.52,10.02,8.75,0,0,0,0,0,0,0,0-.01,0-.02-.01,1.71.95,5.55,2.33,6.64-.04.75-2.51-2.54-5.77-4.31-7.25-4.64-3.8-12.6-8.19-18.69-8.8.75-.24,1.47-.54,2.24-.71,1.43-.09,2.85.43,4.23.8,1.51.44,2.93.99,4.4,1.58,5.99,2.5,11.54,6.13,17.83,7.89,2.32.56,5,.98,7.18-.24.58-.33,1-.84,1.08-1.43,0,0-.03-.49-.16-.91Zm-13.3-18.27c.1,1.01-.84,1.76-1.54,2.35-2.76,1.98-5.96,3.33-9.17,4.39-4.18,1.29-8.49,1.93-12.79,2.7,1.89-1.07,3.86-1.97,5.87-2.81,2.82-1.18,5.69-2.26,8.51-3.43,1.62-.7,3.24-1.41,4.88-2.07,1.31-.5,2.68-.83,3.99-1.32.05-.02.1-.04.15-.06.04.08.08.17.1.27Zm-19.11,5.59c3.21-2.17,6.59-4.17,10.29-5.38,2.1-.63,4.25-1.27,6.45-1.41.73-.03,1.67.12,2.13.72-1.37.54-2.83.87-4.21,1.41-.77.32-1.54.64-2.31.97-1.58.68-3.15,1.37-4.76,1.99-4.16,1.71-8.44,3.21-12.34,5.46,1.35-1.51,3.07-2.64,4.74-3.77ZM53.47,112.38c1.72,1.49,3.51,2.87,4.84,4.75,1.19,1.8,2.07,3.8,3.11,5.69,1.19,2.12,2.2,4.38,3.15,6.62-1.58-1.53-2.92-3.31-4.34-4.98-2.21-2.7-4.29-5.5-6.22-8.41-1.25-1.99-2.64-3.89-3.89-5.89-.39-.71-.78-1.42-1.2-2.12,1.38,1.58,2.94,2.99,4.54,4.35Zm-4.38-3.6c1.05,2.07,2.47,3.92,3.72,5.87,2.35,3.66,4.91,7.16,7.69,10.51,1.33,1.53,2.53,3.17,4.02,4.56.02.02.05.05.09.09-1.11-.67-2.24-1.28-3.33-1.97-3.61-2.28-6.68-5.44-8.67-9.24-1.74-3.25-2.69-6.83-3.81-10.33.1.17.21.34.3.52ZM111.12,20.53c.76.71,1.41,1.52,2.08,2.31-.73-.41-1.42-.7-1.98-.75-.02,0-.04,0-.05,0-1.06-.26-2.17-.26-3.25-.36-.98-.06-1.95-.05-2.93.06.35-1.04,1.48-2.77.91-3.88,2,.09,3.77,1.31,5.23,2.62ZM82.11,1.11c.84,2.9,2.59,5.43,3.7,8.23,1.83,4.56,1.88,9.74.54,14.45-.34,1.17-.77,2.32-1.32,3.41-.16.29-.35.57-.53.84-1.12-.59-2.39-.91-3.63-1.16-.9-.22-1.84-.48-2.73-.77-.22-.08-.45-.15-.67-.23.07-.24.13-.48.18-.73.17-.78.42-1.54.63-2.31.82-3.34,1.84-6.64,2.41-10.04.73-3.34,1.16-6.74,1.36-10.15-.01-.15.09-.98.08-1.54Zm-9.24,10.5c2.83-3.84,7.06-5.8,8.97-10.41-.02,2.41-.34,4.83-.62,7.23-.27,1.97-.74,3.92-1.07,5.88-.84,3.86-1.95,7.66-2.93,11.5-1.21-.4-2.46-.84-3.27-1.88-.75-1.02-1.25-2.24-2.09-3.21-.48-.58-1.03-1.16-1.63-1.65,0-.02.02-.03.02-.05-.32-2.7,1.18-5.23,2.61-7.41Zm-11.98,12.16c1.04-2.46,2.18-5.28,5.23-5.56,3.19-.34,5.45,2.52,6.83,5.03.86,1.77,2.41,2.47,4.19,3.04,1.14.39,2.31.74,3.48,1.03,1.36.33,2.81.56,4,1.37,1.83,1.02,2.75,3.01,2.79,5.03,0,0,0,0,0,.01,0,.03,0,.05,0,.08,0,.61-.06,1.22-.21,1.8-1.38,5.23-6.68,7.35-11.28,9.06-.79.3-1.54.6-2.37.78-.05,0-.11.01-.15.04-.2-.25-.43-.48-.69-.7.97-.11,3.87-1.43,4.19-1.56.26-.12.54-.25.81-.38.06-.03.08-.1.05-.16-.03-.06-.1-.08-.16-.05-.26.13-.52.25-.78.37-1.37.58-2.77,1.25-4.24,1.57-.04-.02-.09-.02-.12,0-.34-.26-.71-.49-1.11-.71,2.38-.77,4.85-1.42,7.04-2.66,2.86-1.76,5.42-4.21,6.99-7.2.04-.17.46-.65.27-.76-.05-.03-.13-.02-.16.04-.09.18-.18.35-.27.53-1.39,2.71-3.62,4.92-6.1,6.65-2.39,1.64-5.26,2.33-7.98,3.22-.02,0-.04.02-.05.03-.21-.1-.42-.2-.65-.29,0,0-.01,0-.02,0,0,0,.02-.01.03-.02,1.02-.76,2.11-1.44,2.99-2.35,1.07-1.04,1.8-2.35,2.69-3.55.08-.13-.12-.25-.2-.13-.68.93-1.28,1.91-2.01,2.8-1.05,1.27-2.44,2.18-3.76,3.13-.22-.09-.44-.18-.67-.27,3.48-3.31,5.27-7.97,6.24-12.59,0-.16.26-.75.03-.78-.07,0-.12.04-.13.1-.05.27-.11.54-.16.81-.96,4.56-2.8,9.08-6.19,12.37-.34-.12-.69-.24-1.03-.34,0-.02,0-.03,0-.05.93-2.17,1.35-4.54,1.98-6.81.01-.06-.02-.13-.09-.14-.2-.02-.16.27-.22.4-.61,2.17-.99,4.42-1.9,6.49-.01.02-.01.03-.02.05-.29-.08-.58-.15-.87-.2.03-.73-.03-1.47.04-2.2.18-3.57.41-7.22,1.69-10.59-.2-.99-1.08,2.76-1.11,2.98-.64,3.21-.86,6.5-.85,9.77-.24-.04-.48-.08-.72-.1,0,0,0,0,0,0-.21-.91-.35-1.86-.45-2.79-.04-.51-.07-1.05-.08-1.57,0-.36,0-.73.01-1.09,0-.06-.06-.12-.12-.12-.07,0-.12.06-.12.12-.02.88-.01,1.78.07,2.65.09.93.24,1.86.43,2.77,0,0,0,0,0,0-.26-.02-.51-.04-.76-.04,0-.05-.03-.09-.08-.11-1.13-4.11-1.72-8.41-1.5-12.68.13-1.41.38-2.83.66-4.21.14-.64.31-1.29.49-1.92.02-.06-.02-.13-.08-.15-.06-.02-.13.02-.15.08-.09.32-.18.64-.26.96-.26.99-.44,2-.6,3-.42,2.18-.38,4.41-.25,6.62,0,0,0,0,0,0,.19,2.54.65,5.07,1.23,7.55.06.14.12.64.26.87-.33,0-.66.03-.98.08,0,0,0-.02-.02-.03-.8-1.18-1.4-2.49-1.73-3.88-.11-.43-.18-.91-.23-1.36,0-.06-.07-.11-.13-.1-.05,0-.09.05-.1.1.02.26.07.51.1.76.27,1.63.95,3.18,1.85,4.56-.41.08-.81.19-1.19.34,0-.03,0-.07-.03-.11-.57-1.89-1.12-3.81-1.79-5.67-.05-.15-.1-.31-.14-.46.02-.04.03-.09.02-.15-.08-.24-.14-.49-.17-.74-.16-1.11-.25-2.25-.27-3.37-.17-2.77-.24-5.7.82-8.35Zm19.37,21.67c-2.04.27-4.21.54-5.97,1.7,0,0-.01,0-.02,0-.13-.46-.32-.87-.56-1.25.06-.01.12-.03.18-.04.18-.05.36-.1.53-.15.14.06.36,0,.51-.02,2.65-.23,5.16-1.13,7.73-1.73.96-.18,1.9-.35,2.81-.43.18.28.77.57.94.76.94.89,1.51,2.11,2.12,3.25.09.2.18.39.27.59-4.69-1.04-9.69-1.31-14.32.13,0,0,0,0,0,0-.02-.31-.06-.59-.13-.87.06-.02.12-.07.16-.1,1.63-1.04,3.6-1.31,5.48-1.57.12-.04.39.03.4-.16,0-.06-.06-.12-.12-.11Zm-25.17,28.69c-.93-.43-1.27-1.46-1.78-2.28-1.5-2.68-4.61-3.39-7.47-3.79,0-.01,0-.03.01-.05.43-1.36,1.12-2.62,1.83-3.84,1.63-2.77,3.54-5.38,5.86-7.61,1.69-1.63,3.49-3.23,5.7-4.11.26-.1.54-.2.82-.29.09.09.19.19.29.28-1.93,1.33-3.33,3.25-4.62,5.18-.04.05-.03.13.02.17.05.04.13.03.17-.02.15-.21.29-.41.43-.62,1.14-1.71,2.46-3.33,4.16-4.52,0,0,.02-.01.03-.02.15.13.29.25.45.36-1.56,1.27-2.65,3-3.87,4.59-2.07,2.91-3.99,5.92-5.55,9.14-.07.14.15.24.21.11.14-.32.3-.63.47-.93.56-1.04,1.12-2.08,1.72-3.09,1.22-2.03,2.55-4,3.96-5.9,1.02-1.31,1.95-2.72,3.27-3.76.15.11.3.21.45.3-.32.29-.49.76-.73,1.12-.54.92-.98,1.89-1.38,2.87-.06.14.16.23.22.09.21-.51.44-1.02.67-1.53.42-.83.85-1.68,1.4-2.43,0,0,0,0,.01,0,.16.1.32.19.48.27-1.79,3.68-3.47,7.42-4.8,11.29-.05.15.17.22.22.08.15-.41.3-.82.45-1.23.31-.89.64-1.78,1-2.66,1-2.5,2.19-4.94,3.33-7.38.12.06.23.11.35.16.11.04.22.08.34.11-.05.18-.09.36-.12.54-.24,1.07-.62,2.11-.97,3.15-.06.14.16.23.22.09.04-.1.06-.19.1-.3.38-1.12.76-2.26,1-3.42.26.08.53.14.79.19,0,.02,0,.05,0,.07-.29,1.29-.85,2.52-1.17,3.8-.94,3.69-1.68,7.44-2.52,11.15-.03.15.2.19.23.05.16-.72.32-1.44.47-2.15.54-2.48,1.1-4.96,1.65-7.45.35-1.59.88-3.13,1.39-4.68.02-.15.2-.54.17-.76.18.03.37.06.55.08.07.43.17.84.19,1.28.07,1.14-.02,2.29-.17,3.42-.02.15.21.18.23.03.2-1.56.32-3.16-.02-4.71.13.01.27.02.4.03.04.12.12.27.13.36.38,1.13.6,2.31.79,3.49.59,4.98-.47,10.17-3.02,14.49-.15.25-.32.51-.47.78-.03.1-.21.3-.3.46-.6.06-1.21.12-1.82.14-.47.04-.94.08-1.41.12,0,0,.01,0,.01,0,0,0,0,0,0,0-1.49.13-3.04.23-4.47-.33Zm6.42-21.36c-.93-.71-1.84-1.54-2.32-2.64-.24-.74-.21-1.52-.1-2.3.3-1.62,1.17-3.19,2.47-4.23,2.89-1.8,6.6-.81,9.44.63,1.11.55,2.21,1.36,2.65,2.56.4,1.08.5,2.26.16,3.38-.24.92-.9,1.64-1.64,2.2-.85.72-1.88,1.16-2.96,1.41-2.54.58-5.53.65-7.7-1.01Zm-21.96-24.1c-1.32-6.65,4.77-5.82,9.3-6.12,1.59-.08,3.19-.07,4.74.29.49.09.97.23,1.4.51,1.17.74,1.7,2.15,2.22,3.38.46,1.17.78,2.44,1.13,3.66.6,2.03,1.14,4.08,1.71,6.13.6,1.81,1.23,3.62,1.72,5.47.08.24.15.49.23.72.02.04.04.07.06.1-.14.07-.28.15-.41.23.01-.32-.27-1.02-.3-1.16-.38-1.05-.87-2.06-1.35-3.07-.11-.14-.27-.79-.48-.66-.14.13.06.28.1.43.68,1.45,1.47,2.88,1.8,4.46-.02.04,0,.1.03.13-.17.11-.34.24-.5.37-1.22-3.37-3.02-6.5-5.18-9.35-1.05-1.48-2.35-2.78-3.72-3.97-.67-.54-1.39-1.05-2.08-1.57-.05-.04-.13-.02-.16.03-.04.05-.02.12.03.16.56.42,1.12.82,1.68,1.25,1.34,1.08,2.58,2.3,3.64,3.66,1.03,1.39,2.06,2.8,2.95,4.28.72,1.31,1.46,2.66,2.03,4.06.21.53.43,1.07.63,1.6-.15.14-.3.29-.44.45-.58-1.17-1.26-2.29-2-3.37-.16-.17-.86-1.36-1.07-1.16-.13.16.17.31.24.45,1.02,1.32,1.92,2.77,2.65,4.28-.17.21-.33.44-.48.68-.03-.06-.08-.12-.11-.16-.65-1.18-1.61-2.12-2.63-2.99-2.62-2.37-5.74-4.15-8.98-5.51-.87-.37-1.74-.75-2.63-1.1-.35-.14-.7-.28-1.05-.42-.06-.02-.13.01-.15.07-.02.06.01.13.07.15.7.28,1.39.56,2.09.84.94.4,1.86.78,2.79,1.2,2.83,1.3,5.53,2.94,7.83,5.05.8.72,1.62,1.43,2.17,2.38.13.22.28.42.4.64.01.03.03.05.06.06-.1.17-.19.35-.28.53-.42-.47-2.2-1.18-2.6-1.37-1.4-.55-2.84-1-4.27-1.48-.06-.02-.13.02-.15.08-.02.06.02.13.08.15,1.36.45,2.72.88,4.06,1.39.93.4,1.93.79,2.75,1.41,0,.02.02.04.03.05-.04.09-.08.19-.12.29-.05,0-.12,0-.17,0-1.87-.07-3.72-.36-5.58-.61-1.92-.26-3.85-.58-5.72-1.09-1.67-.46-3.33-1.03-4.96-1.63-.06-.02-.13.01-.15.07-.02.06.01.13.07.15,1.51.55,3.02,1.08,4.57,1.52,2.32.68,4.72,1.03,7.12,1.35,1.56.22,3.15.44,4.73.49-.05.14-.1.28-.15.43h0s-.01.04-.02.06c-1.15.34-2.32.5-3.52.45-.6-.03-1.19-.11-1.78-.19-.06,0-.12.03-.14.1-.01.06.03.13.1.14.43.07.87.12,1.31.16,1.33.12,2.67-.02,3.96-.38-.04.18-.07.36-.1.54-.02,0-.03,0-.05.02-.25.14-.54.21-.81.3-3.76,1-7.66,1.68-11.56,1.54-1.58-.05-3.15-.24-4.71-.53-.45-.09-.91-.18-1.36-.28-.06-.01-.13.03-.14.09-.01.06.03.13.09.14,1.55.33,3.08.6,4.66.73,4.59.36,9.24-.33,13.64-1.65.05-.03.13-.05.21-.08-.02.18-.03.36-.04.54-.03,0-.05,0-.08.02-1,.79-2.27,1.22-3.47,1.63-.06.02-.1.09-.07.15.02.06.09.09.15.07.24-.08.48-.16.72-.25.65-.23,1.27-.49,1.88-.82.28-.18.63-.3.87-.53,0,.25.01.5.04.74,0,0,0,.01,0,.02-.24-.09-.71.22-.95.27-2.57.86-5.01,2.16-7.62,2.9-1.36.47-2.76.77-4.16,1.1-2.17.52-6.95,1.48-8.82.12-.03-.03-.05-.06-.07-.09-.02-.04-.05-.08-.09-.11-1.64-2.19.6-4.88-.34-7.13-.37-.92-1.13-1.65-1.34-2.64-.31-1.38-.09-2.9.62-4.13.47-.77,1.14-1.39,1.81-2,3.66-3.26,3.37-4.9,1.93-9.28Zm-7.15,17.11c.07-1.31.35-2.62.78-3.86.22-.55.54-1.12.85-1.65.37-.68.8-1.39,1.28-2.01,1.34-1.78,3.22-3.08,4.73-4.7-.42,3.2-4.47,4.4-5.21,7.5-.33,1.18-.37,2.46.04,3.62.25.66.71,1.2,1.03,1.82.67,1.08.34,2.35.08,3.5-.2.98-.31,2.11-.02,3.08-.18-.16-.37-.33-.54-.5-1.94-1.95-3.22-3.95-3.02-6.81Zm-27.56,20.39c2.35-2.67,4.97-5.13,7.74-7.37,1.42-1.1,3.03-2.01,4.62-2.84,3.45-1.81,7.08-3.25,10.83-4.27,1.56-.39,3.18-.83,4.77-1.14.08-.02.2-.03.3-.05.49.79,1.12,1.56,1.91,2.35.39.4.86.79,1.3,1.16.06.06.13.12.21.18.1.12.21.24.34.35.78.5,1.74.59,2.64.65,2.27.06,4.53-.32,6.73-.88,2.01-.41,3.95-1,5.87-1.71-.81.37-1.61.75-2.37,1.19-1.53.76-3.11,1.4-4.68,2.05-3.52,1.45-7.12,2.68-10.67,4.06-3.8,1.43-7.67,2.64-11.53,3.91-7.05,2.15-14.34,3.6-21.22,6.27,1.16-1.22,2.06-2.67,3.2-3.91Zm10.99,5.9c-4.95-.16-9.87-.92-14.8-1.4.04-.03.07-.07.1-.1.3-.1.59-.27.88-.37,1.12-.46,2.25-.86,3.41-1.22,4.7-1.57,9.54-2.69,14.31-4.01,4.28-1.19,8.48-2.67,12.69-4.1,4.1-1.54,8.22-3.02,12.29-4.64,1.66-.68,3.32-1.36,4.93-2.13,1.32-.75,2.72-1.36,4.11-1.98-3.13,1.69-5.93,3.98-8.15,6.77-1.27,1.56-2.52,3.24-2.95,5.24-.06.21-.1.4-.13.58,0,0,0,0-.01.01-1.71,1.45-3.82,2.33-5.87,3.2-4,1.6-8.16,2.99-12.44,3.62,0,0,0,0,0,0,0,0,0,0,0,0-1.81.24-3.62.44-5.44.53-.09-.07-.2-.05-.31.01-.87.03-1.75.04-2.63,0Zm-2.77,7.09c1.58-2.41,3.46-4.61,5.54-6.61.01-.01.03-.02.04-.03,2.73-.1,5.46-.43,8.14-.98,2.52-.56,5.01-1.3,7.44-2.19-2.1,1.42-4.22,2.81-6.33,4.21,0,0,0,0,0,0,0,0,0,0,0,0-3.54,2.34-7.19,4.56-10.82,6.77-2.44,1.54-4.96,2.95-7.29,4.66,1.22-1.86,2.02-3.97,3.26-5.82Zm29.91-12.04c-.3.42-.62.83-.96,1.24-.85.95-1.76,1.84-2.66,2.75-1.21,1.22-2.49,2.32-3.84,3.38-1.73,1.38-3.5,2.73-5.44,3.8-3.72,2.04-7.65,3.67-11.73,4.85-2.83.75-5.64,1.55-8.51,2.13.34-.21.81-.61,1-.72,1.93-1.4,4.06-2.53,6.06-3.82,2.68-1.67,5.41-3.27,8.06-4.98,3.41-2.18,6.76-4.45,10.15-6.68.03-.03.07-.06.13-.09,1.31-.5,2.6-1.04,3.88-1.62.37-.15,2.38-1.19,3.37-1.96,0,.71.22,1.23.57,1.66-.03.02-.05.04-.07.07Zm1.82.83c-.57-.41-1.13-.81-1.53-1.39-.32-.52-.34-1.12-.25-1.72.02-.05.03-.1.02-.14.04-.25.1-.51.17-.75.38-1.54,1.31-2.87,2.26-4.12,3.03-4,7.18-7.11,11.89-8.85.48-.22.98-.37,1.48-.54.11.25.25.48.41.71-2.4.54-4.49,2.03-6.48,3.44-.13.08,0,.28.13.2.53-.38,1.07-.76,1.62-1.13,1.45-.97,3-1.85,4.71-2.27.05,0,.11-.02.15-.05.16.21.33.42.51.62-.08.03-.16.05-.25.07-3.8,1.37-7.04,4.94-9.52,8.03-1.76,2.47-3.54,5.06-4.5,7.95-.23-.03-.47-.06-.7-.09-.04,0-.08,0-.11.01Zm-8.08,30.98c-.61-.35-1.16-.82-1.66-1.3-.54-.53-.99-1.25-1.69-1.6-.99-.5-2.16-.24-3.16-.73-2.78-1.36-3.21-4.43-3.13-7.24.08-2.06,1-4.08,2.34-5.63,1.53-1.55,3.22-2.96,5.22-3.87,1.32-.69,2.78-.95,4.23-1.24,2.17-.48,4.38-.94,6.33-2.05.73-.37,1.4-.85,2.05-1.35.27-.19.51-.41.68-.69.03-.05.07-.11.12-.17.12.24.25.49.37.74-.02.01-.04.03-.05.04-1.41.92-2.97,1.59-4.43,2.43-2.22,1.16-4.69,1.67-6.98,2.65-3.88,1.68-6.76,5.03-8.67,8.73-.03.05-.01.13.04.16.06.03.13.01.16-.04.11-.18.2-.36.3-.54.45-.8.9-1.6,1.43-2.35,1.55-2.21,3.59-4.09,5.99-5.36,2.9-1.43,6.18-1.94,8.97-3.67,1.09-.66,2.3-1.11,3.34-1.85.07.14.13.28.2.42-7.63,3.02-10.65,7.1-12.37,15.11-.02.11-.04.23-.05.35,0,.16.24.15.24,0,.09-.72.29-1.45.48-2.16.49-1.76,1.1-3.5,1.94-5.12,1.46-2.85,3.92-5.02,6.73-6.52,1.04-.48,2.06-1.03,3.13-1.43.11.23.21.46.32.69-.51.09-1.27.53-1.56.65-2.08,1-3.91,2.56-5.36,4.35-1.37,1.58-2.44,3.5-2.74,5.6-.32,2.01-.24,4.07.27,6.05.44,1.7.97,3.41,1.93,4.89.28.45.65.82,1.05,1.17-.04.04-.08.08-.12.12-.97.98-2.35,1.48-3.72,1.42-.71,0-1.39-.22-2.01-.56-.05-.04-.11-.08-.17-.09Zm-9.74,26.84c.29-1.76,1.07-3.4,1.98-4.94,1.3-2.29,2.83-4.42,4.54-6.43,1.61-1.93,3.28-3.81,5.05-5.59,1.6-1.61,3.35-3.04,5.12-4.46-.68.77-1.29,1.58-1.93,2.38-2.02,2.37-4.04,4.74-5.88,7.26-1.62,2.32-3.09,4.73-4.55,7.15-1.31,2.17-2.62,4.35-3.65,6.66-.5-.26-.8-.89-.67-2.05Zm14.73-16.02c-1.78,3.97-3.44,8.05-5.89,11.67-1.32,1.87-2.71,3.75-4.52,5.2-.97.86-2.47,1.58-3.42,1.29.34-.74.67-1.48,1.08-2.18,1.84-3.37,3.85-6.64,5.93-9.87,1.83-2.85,4.06-5.41,6.21-8.01,1.04-1.13,1.87-2.41,2.93-3.53.02-.03.07-.07.12-.13-.91,1.82-1.6,3.7-2.43,5.56Zm2.93,24.59c-.1-.01-.2-.03-.31-.06-1.58-.54-2.28-2.32-2.81-3.77-.79-2.03-.69-4.23-.51-6.36.25-2.52.73-5.04,1.34-7.5,1.09-4.15,2.08-8.33,3.04-12.51,0,.02,0,.04.01.06,0,.2,0,.41,0,.61,0,.89-.06,1.79-.1,2.69-.28,4.25-.19,8.5-.25,12.76,0,3.29-.3,6.59-.32,9.88-.05,1.4-.19,2.8-.1,4.21Zm2.77-19.57s0-.02,0-.03c.02.15.04.3.07.45,0,0,0-.01,0-.02.58,4.36.95,8.8.47,13.19-.27,1.72-.79,6.02-3.06,6,0-.01,0-.03,0-.04-.11-1.79.14-3.59.12-5.38.03-2.63.27-5.26.28-7.89.01-1.53.05-3.08.04-4.63,0-2.69,0-5.4.18-8.09.04-1.03.1-2.04.12-3.07.68,3.15,1.33,6.31,1.78,9.5Zm-.52-13.2c-1.7,1.26-4,1.97-6.03,1.04-1.32-.61-2.31-1.67-3.24-2.77.41.13.83.2,1.28.21,2.08.11,3.6-.94,4.92-2.43,1.37-1.33,3.11-1.58,4.46-.07.86.92,1.43,2.1,2.34,2.98-1.31-.18-2.65.31-3.74,1.03Zm9.61-.41s-.05.05-.08.07c0,0,0,0,.01,0-.08.08-.19.17-.26.28-1.38.34-2.87.13-4.13-.53-.02-.02-.05-.03-.08-.04-.18-.1-.36-.2-.53-.32-.91-.65-1.48-1.66-2.13-2.54-1.23-1.82-3.05-2.71-5.05-1.4-.44.29-.81.66-1.18,1.04-1.52-1.29-2.1-3.31-2.67-5.15-.73-2.53-.87-5.26-.15-7.83.63-2.21,2.17-4.02,3.74-5.65,1.57-1.38,3.32-2.75,5.38-3.29.11.19.25.34.42.46-.6.29-1.17.65-1.75.98-1.41.84-2.6,2.05-3.63,3.32-1.4,1.88-2.12,4.19-2.6,6.47-.3,1.76-.45,3.53-.49,5.33,0,.16.24.15.24,0,.06-2.46.27-4.93.98-7.3.42-1.34.94-2.68,1.71-3.87.91-1.31,2.07-2.46,3.35-3.41.59-.35,1.18-.73,1.79-1.05-.13.16-.25.32-.36.49-1.6,2.39-2.69,5.08-3.15,7.92-.29,1.55-.37,3.11-.51,4.68-.02.16.22.18.23.03.14-1.62.23-3.26.54-4.86.47-2.73,1.54-5.34,3.09-7.65.15-.24.34-.46.52-.67-.07.32-.14.62-.21.95h0c-.22.96-.11,1.97-.05,2.95.07,1.59.29,3.17.66,4.72.57,2.13.5,4.34.17,6.51,0,.06.04.12.1.13.06,0,.13-.04.13-.1.04-.33.08-.66.12-.99.34-2.15.05-4.31-.47-6.41-.31-1.36-.42-2.77-.5-4.16-.05-.9-.13-1.82.09-2.71.07-.35.16-.71.24-1.07,0,.04.02.09.03.12.25.8.48,1.6.78,2.39.6,1.82,1.09,3.68,1.75,5.48.64,1.67,1.68,3.14,2.53,4.7.51.99.81,2.07,1.11,3.14.02.06.08.1.14.08.06-.02.1-.08.08-.15-.07-.28-.15-.55-.24-.83-.53-2.27-2.05-4.08-3.03-6.16-1.05-2.28-1.53-4.78-2.41-7.13-.18-.56-.37-1.13-.52-1.7.11.02.23.02.36.01.06.13.2.24.29.34.23.24.43.51.6.8.96,1.53,1.27,3.34,1.91,5,.57,1.62,1.41,3.18,2.42,4.58.59.81,1.25,1.59,1.7,2.49.8,1.62,1.36,3.45,1.31,5.27-.12,2.04-1.01,4.68-2.39,6.22Zm4.87-17.56c2.92,1.88,5.74,4.71,6.12,8.33.17,1.61-.16,3.5-1.69,4.35-.57.3-1.22.4-1.84.57-1.22.32-2.45.72-3.52,1.42-1.28.73-2.02,2.18-3.31,2.88.19-.23.36-.48.52-.75,1.34-2.36,2.16-5.2,1.44-7.9-.36-1.52-.94-3.01-1.86-4.29-.83-1.08-1.64-2.18-2.29-3.4-.56-1.03-1-2.18-1.38-3.3-.57-1.77-1.03-3.7-2.34-5.09.33-.03.66-.06.99-.07.09.48.2.98.33,1.46.45,1.72,1.41,3.28,2.82,4.38,2.7,2.31,6.27,3.24,7.9,6.68.16.32.32.65.46.99.03.06.1.09.16.06.06-.03.09-.1.06-.16-.28-.63-.57-1.25-.95-1.83-2.14-3.5-6.73-4.28-9.07-7.6-.74-1.09-1.16-2.39-1.42-3.67-.03-.07-.03-.21-.05-.32.14,0,.27.01.41.03.09.01.17.03.26.05,0,0,0,.02.01.03.79,3.69,5.33,5.33,8.23,7.14Zm.72-7.43c-.6.36-1.28.68-2.01.76-1.41.19-2.86.16-4.24-.23-.96-.24-1.89-.66-2.87-.8-.76-.12-1.58.04-2.35.07-.56.09-.85-.39-1.03-.84-.23-.49-.45-.99-.68-1.48-.75-1.46-1.48-2.97-2.5-4.27-.24-.35-.54-.64-.87-.9.44.06.89.11,1.32.2,3.04.51,5.15,1.37,6.57,4.29,1.05,2.41,4.11,2.09,6.29,1.93.42-.03.83-.07,1.26-.11,1.2-.05,2.39-.19,3.59-.35-.77.65-1.61,1.23-2.48,1.72Zm6.98-10.19c-.37,2.83-1.62,5.65-3.64,7.7-.08.08-.16.15-.24.22-.05,0-.09,0-.14,0-.65.09-1.3.17-1.95.25.09-.13.17-.27.25-.4,3.53-5.59,4.71-12.84,2.56-19.14.27,0,.54,0,.81,0-.03.12.08.22.13.32.28.51.51,1.05.7,1.59.2.57.33,1.16.41,1.76,0,.06.07.11.13.1.06,0,.11-.07.1-.13-.17-1.26-.58-2.5-1.23-3.59,0-.02,0-.05,0-.07.31-.02.63-.05.94-.1,0,.02,0,.04,0,.06.27.87.39,1.76.5,2.67.15,1.03.35,2.04.47,3.08.25,1.87.43,3.77.18,5.65Zm17.78,1.08c-.5.47-.93,1.03-1.2,1.73-.67,2-2.03,4.13-4.35,4.27-2.23.05-4.39-1.04-6.07-2.44-1.76-1.55-2.97-3.6-4.19-5.59-.43-.73-.8-1.45-1.16-2.22-.07-.15-.14-.3-.19-.46,0-.09-.04-.16-.11-.21-.07-.87-.18-1.75-.32-2.62-.11-.77-.26-1.53-.37-2.3-.11-.89-.22-1.83-.5-2.69,0-.04,0-.07,0-.1.21-.04.42-.08.63-.13,0,0-.02.02-.03.03.72,1.48,1.06,3.17,1.63,4.73.09.16.28,1.06.51.96.06-.03.09-.1.06-.16-.15-.32-.27-.66-.38-.99-.22-.38-1.19-4.42-1.69-4.59.27-.06.54-.13.8-.21,0,.01-.02.03-.02.04.02.27.17.53.27.78.65,1.51,1.35,3.01,1.98,4.53.78,1.82,1.76,3.54,2.87,5.19,1.38,2.24,3.07,4.27,5.18,5.86.15.07.44.46.59.3.04-.05.03-.13-.02-.17-.3-.22-.59-.45-.88-.7-2.88-2.24-4.79-5.44-6.58-8.57-1.1-2.37-2.21-4.77-3.18-7.2.02-.05-.01-.1-.05-.13.09-.03.18-.05.26-.08.28-.1.55-.22.82-.35,0,.14.15.35.17.46.63,1.57,1.65,2.92,2.6,4.3.09.12.28-.02.19-.14-.9-1.3-1.85-2.57-2.48-4.04-.1-.22-.18-.45-.26-.67,0,0-.01-.01-.02-.02.3-.16.6-.35.87-.56.04.08.07.16.1.25.44.96,1.16,1.75,1.81,2.57,2.56,3.07,5.68,5.59,9.04,7.74.12.09.26-.1.14-.19-.07-.05-.15-.1-.22-.15-3.83-2.46-7.35-5.46-10.03-9.16-.24-.34-.45-.71-.6-1.1-.01-.03-.03-.07-.05-.11.3-.24.59-.5.85-.77.01.03.04.06.07.07.86,1.02,1.97,1.81,3.1,2.51,1.3.78,2.56,1.65,3.97,2.22.14.06.23-.17.09-.22-1.15-.46-2.19-1.14-3.24-1.78-1.24-.75-2.49-1.54-3.49-2.61-.1-.07-.21-.31-.35-.36.08-.09.16-.18.24-.27.06-.1.12-.2.18-.29.02.02.04.03.06.04.41.2.83.36,1.27.51.83.28,1.68.58,2.53.82,3.37.98,6.79,1.79,10.2,2.62.16.02.18-.22.03-.23-4.69-1.18-9.49-2.17-13.99-3.93.22-.41.37-.86.46-1.32.39.21,2.14.29,2.29.33,1.5.13,3.01.32,4.52.33.06,0,.12-.04.13-.11,0-.06-.05-.13-.11-.13-2.27-.08-4.54-.28-6.78-.62.06-.36.07-.73.05-1.1.26-.06.51-.15.76-.22.96-.28,1.95-.47,2.94-.59,3.58-.39,7.21-.11,10.72.71,1.18,2.73,2.02,5.61,2.3,8.58.11,2.71-.88,5.43-2.37,7.68-.41.62-.88,1.19-1.37,1.75-.1.17-.49.42-.63.66Zm5.46-19.42c.86,2.71.8,5.61,1.62,8.34,1.19,3.79.65,6.2-2.82,8.38-.79.53-1.69.98-2.54,1.47.13-.17.27-.34.4-.52,1.59-2.21,2.61-4.88,2.74-7.61-.05-2.2-.57-4.42-1.22-6.52-.58-1.67-1.21-3.34-2.07-4.89-.48-.82-.93-1.68-1.64-2.33-.2-.17-.41-.32-.62-.48,2.75-.12,5.05.68,6.17,4.16Zm-1.74-3.63c-.07-.03-.16-.04-.23-.02-.88-.59-1.92-.95-2.97-1-1.83,0-3.63.23-5.41.64,2.61-.86,5.22-1.75,7.99-2,2.18-.29,4.37-.26,6.56-.22,4.28,0,8.59.15,12.82-.71,1.15-.22,2.29-.49,3.41-.82.06-.02.1-.08.09-.14-.02-.06-.08-.1-.14-.08-1.13.34-2.28.61-3.44.83-6.58,1.38-13.34.14-19.97,1-2.79.33-5.43,1.28-8.08,2.17.69-.27,1.37-.54,2.04-.84,2.04-.93,4.06-1.9,6.18-2.64,3.59-1.35,7.15-2.84,10.57-4.59,2.46-1.31,4.98-2.61,6.91-4.67.07-.1.32-.14.26-.3-.11-.18-.29.03-.41.12-.61.55-1.16,1.15-1.82,1.65-.99.73-2.08,1.36-3.15,1.97-2.68,1.54-5.52,2.76-8.36,3.99-2.41,1.05-4.92,1.84-7.33,2.9-1.01.46-2.01.94-3.02,1.38,3.39-1.72,6.48-4.01,9.36-6.48,1.26-1.1,2.57-2.14,3.76-3.31,1.56-1.59,2.98-3.34,4.19-5.21.16-.22,2.54-3.99,1.75-3.73-.52,1.29-1.23,2.54-2.02,3.71-1.2,1.82-2.58,3.52-4.11,5.08-1.49,1.45-3.13,2.75-4.71,4.11-2.71,2.29-5.68,4.27-8.83,5.89-1.8.81-3.66,1.53-5.54,2.12,1.51-.58,3.01-1.2,4.46-1.94.68-.34,1.34-.73,1.97-1.18.03,0,.06,0,.09-.02.23-.16.46-.32.66-.51.54-.48,1.11-.95,1.59-1.49.69-.85,1.38-1.73,2.06-2.59,1.21-1.51,2.43-3.02,3.5-4.63.86-1.36,1.62-2.78,2.4-4.19.8-1.39,1.35-2.89,1.77-4.44.06-.32.79-2.9.26-2.79-.06.02-.09.1-.06.15.05.47-.07.95-.15,1.42-.26,1.26-.64,2.5-1.12,3.7-.49,1.17-1.15,2.26-1.75,3.37-1.24,2.39-2.85,4.55-4.54,6.64-.4.48-.78.97-1.17,1.46.65-1.16,1.02-2.52,1.03-3.87.88-.6,1.36-1.66,1.98-2.5.89-1.46,1.5-3.07,2.04-4.68.68-2.02,1.06-4.16,1.4-6.28.1-.56.18-1.13.26-1.7.22-1.58.44-3.16,1.07-4.63.41-1,1.6-1.49,2.54-.87,1.1.68,1.86,1.82,3.02,2.43,1.18.74,2.51,1.15,3.84,1.53,1.51.55,1.84.98,1.3,2.55-.12.39-.3.77-.49,1.16-.04.11-.1.21-.15.33-.01.06-.03.12-.05.18-.02.07-.04.14-.06.2,0,.04-.01.08-.02.11,0,0,0,0,0,.01,0,.03,0,.05,0,.08,0,0,0,0,0,0,0,0,0,0,0,.01,0,0,0,.02,0,.03,0,.02,0,.04.01.06,0,.01,0,.02,0,.03,0,0,.02.01.02.02.02.02.04.03.06.05.02,0,.03.02.05.03,0,0,.02,0,.02.01.02,0,.03.02.05.02.04.02.09.03.13.04,0,0,0,0,0,0,.02,0,.04.01.06.02.06.01.13.03.2.03-.01,0-.02,0-.03,0,.12.01.24.02.37.04.12-.01.24-.02.36-.03,1.77-.04,3.61.02,5.36.4.71.17.94.86,1.39,1.38.69.77.99,1.76,1.2,2.76.24,1.05.43,2.12.48,3.21-.12,1.82,1.43,2.38,2.49,3.54.41.46.25.87.09,1.31-.08.21-.16.44-.18.67,0,.25.11.44.27.59.01,0,.02.01.03.02.16.09.32.18.47.28.01,0,.03.01.04.02,0,0,.02,0,.03.01.09.04.18.07.25.13.13.05.25.1.36.16.41.16.84.27,1.27.36-.88,1.6-1.96,3.13-3.34,4.35-5.37,4.8-12.2,5.42-19.03,4.08-1.4-.27-2.82-.58-4.2-.95-.77-.17-1.53-.36-2.31-.51Zm17.48,8.75c-4.27.84-10.4-4.17-14.07-6.49,3.57,1.66,7.62,2.1,11.52,2.42.13-.02.43.12.46-.09-.03-.2-.31-.1-.47-.14-3.47-.32-7.01-.61-10.28-1.9-1.19-.51-2.36-1.07-3.45-1.79,1.74.4,3.46.87,5.22,1.18,4.14.77,8.57,1,12.62-.32.04-.01.07-.03.11-.04-.5,1.24.46,2.52.71,3.74.42,1.81-.65,3.04-2.38,3.44Zm11.55-10.7c-.09.74-.35,1.47-.71,2.13-1.21,2.25-3.35,3.78-5.4,5.22-.9.65-1.78,1.32-2.73,1.88,1.01-2.38-1.55-4.33-.38-5.94,2.65-.98,5.12-2.53,7.06-4.6.79-.9,1.48-1.85,2.09-2.89,0,.31,0,.63,0,.94-.03,1.08.14,2.16.07,3.26Zm.38-7.93c.12.81.08,1.61-.22,2.39,0,.03-.02.06-.04.1-.06-.01-.12-.02-.18-.03-.76-.17-1.58-.42-2.25-.88-.17-.12-.1-.34-.04-.51,1.04-1.95-1-2.61-2.06-3.85-.5-.55-.34-1.35-.44-2.04-.16-1.52-.44-3.04-.99-4.48-.26-.63-.76-1.12-1.14-1.68-.03-.04-.05-.09-.08-.13,1.14.59,2.18,1.39,3.16,2.21.75.66,1.5,1.28,2.05,2.15.63.91,1.06,2.01,1.39,3.07.37,1.19.73,2.42.85,3.67Zm19.81,11.94c-2.23-.18-4.2-1.37-5.96-2.68-2.87-2.23-5.45-4.83-7.91-7.5-1.76-1.81-3.36-3.81-5.25-5.48,2.73,1.31,5.29,2.95,7.77,4.68,2.13,1.53,4.25,3.07,6.26,4.74,2.02,1.71,4.01,3.45,6.06,5.12.28.23.56.5.85.75-.38.28-.98.42-1.83.36Zm-19.25-16.28c1.81.33,3.55.9,5.27,1.55,0,0,0,0-.01,0,2.56.97,4.95,2.24,7.31,3.66,1.97,1.19,3.88,2.5,5.59,4.05,1.04.96,2.02,2.01,2.72,3.24.78,1.27,1.05,2.56.38,3.26-.29-.25-.57-.52-.87-.77-2.62-2.12-5.12-4.42-7.79-6.5-4.15-3.18-8.42-6.29-13.18-8.47-.05-.04-.1-.08-.15-.12.25.03.49.07.74.11Zm34.69,8.29c-1.59.97-3.59.84-5.36.56-2.1-.36-4.07-1.1-6.03-1.94-3.78-1.56-7.37-3.54-11.07-5.29-2.11-.96-4.27-1.86-6.5-2.53,2.21.37,4.42.74,6.59,1.31,4.47,1.2,8.87,2.6,13.24,4.1,3,1.03,6.05,1.97,9.05,3.03.22.08.45.14.67.21-.13.19-.33.37-.59.54Zm.71-.75c-.24-.08-.48-.14-.71-.23-2.91-1.03-5.85-1.93-8.77-2.93-4.42-1.52-8.88-2.94-13.39-4.17-3.29-.89-6.7-1.27-10.02-1.95.32-.04.64-.07.96-.1,3.33-.33,6.67-.15,9.99.28,4.3.53,8.56,1.46,12.68,2.83,2.56.98,7.43,2.61,8.96,4.84.37.54.48,1.01.3,1.43Z"/><polygon class="cls-4" points="110.75 51.82 110.75 51.82 110.75 51.83 110.74 51.83 110.75 51.82"/><path class="cls-4" d="m96.61,33.55s0,0,0,0c-.01,0-.02,0-.03,0,0,0,.02,0,.02,0Z"/><path class="cls-4" d="m130.52,19.08s0,0-.01,0c0,0,.01,0,.02,0,0,0,0,0,0,0,0,0,0,0-.01,0Z"/><path class="cls-4" d="m41.81,87.01s0,0,0,0c0,0,0,0,0-.01,0,0,0,.01,0,.01Z"/><path class="cls-4" d="m70.43,49.37c.48-1.37-1.63-2.02-2.06-.65-.39,1.43,1.58,2.21,2.06.65Zm-.65-1.09c.24.11.46.33.47.62.02.38-.15.83-.52,1.01-.16.07-.39.16-.56.05-.38-.14-.65-.53-.63-.94.03-.6.68-1.04,1.23-.74Z"/><polygon class="cls-4" points="64.91 50.02 64.91 50.02 64.91 50.02 64.91 50.02"/><path class="cls-4" d="m64.91,50.02c-.59.22-.56.9.04,1.08.37.15.98-.11.85-.57-.02-.41-.53-.65-.89-.52Zm.63.62h0s-.07.04-.08.08c0,.04,0,.07.02.1-.17.14-.42.1-.6-.02-.09-.06-.19-.16-.16-.28.04-.16.2-.29.37-.3.21-.02.57.17.45.42Z"/><path class="cls-4" d="m61.92,47.56c-.34.66.67,1.16,1.04.56.48-.71-.68-1.26-1.04-.56Zm.7.56s-.03-.01-.04-.01c-.04,0-.08.01-.11.05-.15,0-.32-.07-.36-.22-.02-.05-.02-.11-.01-.16.02-.14.12-.24.26-.28.19-.07.45.06.49.27,0,.14-.09.3-.22.36Z"/><polygon class="cls-4" points="61.92 47.56 61.92 47.56 61.92 47.56 61.92 47.56"/><polygon class="cls-4" points="66.03 47.13 66.04 47.13 66.05 47.12 66.03 47.13"/><path class="cls-4" d="m66.47,47.91c.19-.09.48-.34.35-.57-.06-.34-.53-.44-.77-.21-.4.32-.08,1.01.43.78Zm-.25-.62c.12-.09.35-.05.36.12t0,0s-.01.01-.02.02c-.03.04-.03.09,0,.13-.14.19-.49.25-.46-.07.01-.08.06-.15.12-.2Z"/><path class="cls-4" d="m68.87,46.11c.35-.7-.85-1.38-1.22-.65-.43.88.73,1.61,1.22.65Zm-.74-.74c.25,0,.53.18.56.44.02.2-.14.39-.31.49-.07.05-.15,0-.22.02-.26-.03-.36-.33-.36-.56.02-.18.15-.37.34-.39Z"/><path class="cls-4" d="m67.68,50.97c-.26.02-.49.22-.55.47-.13.71,1.18.74,1.07.05.09-.3-.25-.54-.52-.52Zm.27.52c-.06.04-.08.13-.03.18-.17.16-.6.1-.56-.19.05-.18.26-.33.45-.26.12.04.22.13.15.26Z"/><polygon class="cls-4" points="70.33 47.23 70.33 47.25 70.33 47.24 70.33 47.23"/><path class="cls-4" d="m71.18,47.37c.09-.55-.75-.65-.85-.13-.08.52.76.66.85.13Zm-.28-.2s0,0,0,0c-.04.05-.03.13.02.16,0,0,.01,0,.02.01-.05.2-.4.14-.38-.06.03-.15.23-.19.34-.11Z"/><path class="cls-4" d="m65.43,45.75c.3-1.27-1.76-1.65-2.03-.38-.42,1.48,1.67,1.64,2.03.38Zm-1.5.56c-.25-.08-.34-.4-.34-.64.03-.29.17-.62.42-.77.57-.29,1.5.23,1.14.92-.19.48-.76.63-1.22.49Z"/><polygon class="cls-4" points="63.41 45.38 63.41 45.38 63.41 45.37 63.41 45.38"/><path class="cls-4" d="m64.23,48.56c-.21-.1-.5.02-.57.24-.13.35.47.51.6.21.17-.1.15-.37-.03-.46Zm-.17.35s-.17.04-.17-.03c0-.09.27-.19.25-.07-.04.02-.08.05-.08.1Z"/><polygon class="cls-4" points="63.66 48.81 63.66 48.81 63.66 48.8 63.66 48.81"/><path class="cls-4" d="m62.47,49.83c-.37-.06-.6.51-.25.69.15.08.44.05.48-.14.25-.17.02-.53-.23-.55Zm.06.42s0,.02,0,.03c-.06.04-.15.07-.21.02-.03-.02-.04-.06-.04-.1.01-.06.06-.12.13-.14.06,0,.15.04.17.11-.02.02-.04.05-.05.08Z"/><path class="cls-4" d="m66.38,48.98c-.35.24-.06.72.32.57.52-.23.15-.88-.32-.57Zm.31.24s0,.04,0,.06c-.05.05-.13.08-.19.04-.02-.01-.03-.03-.03-.06.02-.11.19-.18.26-.08-.01.01-.02.02-.03.04Z"/><path class="cls-4" d="m69.79,51.15c-.36.26-.07.78.33.58.39-.23.07-.87-.33-.58Zm.07.29c.02-.07.1-.16.17-.11.04.02.03.08.03.12-.03.12-.21.12-.21,0Z"/><path class="cls-4" d="m71.73,49.82c.15-.09.12-.34-.01-.44-.18-.16-.48-.08-.6.11-.24.37.44.71.62.33Zm-.14-.2s-.03.03-.04.05c0,0,0,.01,0,.02-.04.05-.09.09-.15.06-.04-.02-.11-.05-.1-.1.03-.11.27-.17.29-.02Z"/><path class="cls-4" d="m67.95,47.74c-.01.06.04.12.1.13.07,0,.12-.04.13-.1.01-.06-.04-.12-.1-.13-.07,0-.12.04-.13.1Z"/><path class="cls-4" d="m69.6,46.36c.07,0,.12-.04.13-.1.01-.06-.04-.12-.1-.13-.07,0-.12.04-.13.1-.01.06.04.12.1.13Z"/><path class="cls-4" d="m66.55,45.52c.07,0,.12-.04.13-.1.01-.06-.04-.12-.1-.13-.07,0-.12.04-.13.1-.01.06.04.12.1.13Z"/><path class="cls-4" d="m64.53,47.64c-.01.06.04.12.1.13.07,0,.12-.04.13-.1.01-.06-.04-.12-.1-.13-.07,0-.12.04-.13.1Z"/><path class="cls-4" d="m62.33,46.52c.07,0,.12-.04.13-.1.01-.06-.04-.12-.1-.13-.07,0-.12.04-.13.1-.01.06.04.12.1.13Z"/><path class="cls-4" d="m61.25,48.9c-.07,0-.12.04-.13.1-.01.06.04.12.1.13.07,0,.12-.04.13-.1.01-.06-.04-.12-.1-.13Z"/><path class="cls-4" d="m63.89,51.05c-.07,0-.12.04-.13.1-.01.06.04.12.1.13.07,0,.12-.04.13-.1.01-.06-.04-.12-.1-.13Z"/><path class="cls-4" d="m67.69,50.17c-.01.06.04.12.1.13.07,0,.12-.04.13-.1.01-.06-.04-.12-.1-.13-.07,0-.12.04-.13.1Z"/><path class="cls-4" d="m68.99,50.97c-.07,0-.12.04-.13.1-.01.06.04.12.1.13.07,0,.12-.04.13-.1.01-.06-.04-.12-.1-.13Z"/><path class="cls-4" d="m65.98,51.93c-.07,0-.12.04-.13.1-.01.06.04.12.1.13.07,0,.12-.04.13-.1.01-.06-.04-.12-.1-.13Z"/><path class="cls-4" d="m70.9,50.35c-.07,0-.12.04-.13.1-.01.06.04.12.1.13.07,0,.12-.04.13-.1.01-.06-.04-.12-.1-.13Z"/><path class="cls-4" d="m71.83,48.32c.07,0,.12-.04.13-.1.01-.06-.04-.12-.1-.13-.07,0-.12.04-.13.1-.01.06.04.12.1.13Z"/><path class="cls-4" d="m65.35,48.69c-.07,0-.12.04-.13.1-.01.06.04.12.1.13.07,0,.12-.04.13-.1.01-.06-.04-.12-.1-.13Z"/><path class="cls-4" d="m63.46,46.75c-.07,0-.12.04-.13.1-.01.06.04.12.1.13.07,0,.12-.04.13-.1.01-.06-.04-.12-.1-.13Z"/><path class="cls-4" d="m61.25,47.42c.01-.06-.04-.12-.1-.13-.07,0-.12.04-.13.1-.01.06.04.12.1.13.07,0,.12-.04.13-.1Z"/></g><path class="cls-4" d="m166.92,300.61c-38.11,0-73.93-14.84-100.88-41.78s-41.78-62.77-41.78-100.88c0-10.1,1.06-20.19,3.16-29.98l.49.1c-2.09,9.76-3.15,19.81-3.15,29.88,0,37.97,14.79,73.67,41.64,100.52s62.55,41.64,100.52,41.64,73.67-14.79,100.52-41.64c26.85-26.85,41.64-62.55,41.64-100.52s-14.79-73.67-41.64-100.52c-26.85-26.85-62.55-41.64-100.52-41.64-7.98,0-15.99.67-23.79,1.98l-.08-.49c7.84-1.32,15.87-1.99,23.88-1.99,38.11,0,73.93,14.84,100.88,41.78,26.95,26.94,41.78,62.77,41.78,100.88s-14.84,73.93-41.78,100.88c-26.94,26.94-62.77,41.78-100.88,41.78Z"/><path class="cls-2" d="m135.77,23.61c10.01-2.31,20.44-3.53,31.16-3.53,76.14,0,137.87,61.73,137.87,137.87s-61.73,137.87-137.87,137.87S29.05,234.09,29.05,157.95c0-11.22,1.34-22.14,3.87-32.58"/></g></g></g></svg>