<?xml version="1.0" encoding="UTF-8"?><svg id="_レイヤー_2" xmlns="http://www.w3.org/2000/svg" viewBox="0 0 355 60"><defs><style>.cls-1{fill:#fff;}.cls-2{fill:#ffd95a;}.cls-3{fill:#30a338;}.cls-4{fill:none;stroke:#fff;stroke-linecap:round;stroke-miterlimit:10;}</style></defs><g id="_レイヤー_1-2"><g><g><rect class="cls-3" x="147.5" y="-147.5" width="60" height="355" rx="30" ry="30" transform="translate(207.5 -147.5) rotate(90)"/><g><g><path class="cls-1" d="m78.5,43.99l-.17,4.33h-11.4v-.8l2.14-.23c.04-2.04.04-4.07.04-6.03v-1.2c0-2.06,0-4.12-.04-6.11l-2.14-.23v-.8h6.49v.8l-2.16.23c-.04,2.02-.04,4.05-.04,6.09v1.53c0,1.74,0,3.74.04,5.75h5.29l.76-3.34h1.2Z"/><path class="cls-1" d="m84.87,33.96c-.04,1.99-.04,4.05-.04,6.11v1.13c0,2.02,0,4.05.04,6.07l2.14.25v.8h-6.47v-.8l2.14-.23c.04-2.02.04-4.03.04-6.09v-1.13c0-2.06,0-4.09-.04-6.11l-2.14-.23v-.8h6.47v.8l-2.14.23Z"/><path class="cls-1" d="m104.02,33.73l-1.93.27-.02,14.47h-.82l-9.39-12.89.04,11.63,2.46.31v.8h-5.44v-.8l1.93-.27.04-13.02-.23-.29-1.64-.21v-.8h3.55l8.5,11.76-.04-10.67-2.46-.29v-.8h5.44v.8Z"/><path class="cls-1" d="m117.92,44.23l-.13,4.09h-11.84v-.8l2.14-.23c.04-2.02.04-4.03.04-6.09v-1.13c0-2.06,0-4.09-.04-6.11l-2.14-.23v-.8h11.4l.13,4.05h-1.13l-.61-3.04h-5.46c-.04,1.99-.04,4.01-.04,6.09h3.46l.34-2.27h.95v5.42h-.95l-.31-2.23h-3.49c0,2.27,0,4.33.04,6.36h5.9l.61-3.09h1.13Z"/><path class="cls-1" d="m125.54,35.09c.32.55.86,1.05,1.34,1.05,1.16,0,4.91-1.09,8.44-1.91,2.35-.57,4.16-.92,4.85-.92.59,0,1.18.08,1.58.27.48.21.74.48.74.86,0,.36-.29.65-.82.65-.46,0-1.09-.06-1.83-.06-.99,0-2.39.13-3.48.82-.88.55-2.88,2.44-2.88,6.45,0,2.33.97,3.23,1.79,3.72,1.32.78,3.13.65,3.9.65.57,0,1.32.46,1.32,1.05,0,.63-.69.84-1.66.84-1.32,0-3.25-.13-4.66-1.13-1.34-.94-2.1-2.27-2.1-4.72,0-2.62.94-5.35,3.32-7.16.15-.1.13-.23-.1-.19-2.37.57-5.33,1.57-6.59,2.2-.42.21-.86.59-1.34.59-.82,0-1.99-1.05-2.14-1.87-.06-.38-.02-.73,0-1.05l.34-.13Zm13,2.71c1.07.42,1.95.88,2.52,1.41.48.44.67.82.67,1.22,0,.38-.23.63-.59.63-.32,0-.55-.44-.97-.97-.42-.55-.99-1.24-1.91-1.93l.27-.36Zm1.85-1.39c1.09.36,1.97.73,2.5,1.18.55.44.76.84.76,1.3,0,.38-.19.59-.55.59s-.59-.44-1.01-.97c-.46-.5-.94-1.05-1.93-1.74l.23-.36Z"/><path class="cls-1" d="m165.36,39.46c-.17.17-.42.23-.88.25-1.15,1.32-3.4,3.15-5.08,4.2l-.23-.17c1.03-1.15,2.37-3.02,3.15-4.41h-5.92v8.31c0,1.3-.38,2.18-2.88,2.39-.04-.55-.23-.97-.61-1.24-.4-.27-1.07-.5-2.37-.67v-.29s2.98.19,3.55.19c.42,0,.57-.13.57-.44v-8.25h-8.63l-.19-.59h10.64c-.67-1.09-2.48-2.81-5.04-4.03l.13-.29c1.91.29,3.3.76,4.28,1.26,1.24-.8,2.79-1.91,3.82-2.81h-11.23l-.17-.61h11.8l1.13-1.05,1.83,1.76c-.19.15-.42.19-.92.21-1.36.92-3.88,2.04-5.84,2.75,1.74,1.09,1.83,2.37,1.26,2.81h4.85l1.11-1.09,1.87,1.81Z"/><path class="cls-1" d="m166.7,48.05c.65-1.51,1.24-3.72,1.51-5.82l2.12.55c-.08.25-.29.42-.76.44-.57,1.89-1.47,3.78-2.54,5l-.34-.17Zm5.94-10.56c4.32,2.02,2.94,5.06,1.49,3.84-.08-.5-.27-1.05-.5-1.6l-1.57.38v9.39c0,.13-.53.5-1.3.5h-.27v-9.51c-.78.17-1.64.36-2.56.55-.13.27-.34.42-.55.44l-.52-1.78c.52,0,1.36-.04,2.37-.1,1.26-1.93,2.62-4.51,3.44-6.45l2.27.9c-.1.23-.38.4-.84.34-.97,1.51-2.58,3.55-4.2,5.17,1.07-.08,2.27-.17,3.51-.25-.32-.63-.67-1.22-1.01-1.68l.25-.13Zm.06-6c-.08.23-.36.42-.8.38-.69,1.09-1.58,2.23-2.42,3.09,1.79,1.3.86,2.98-.29,2.2-.27-1.03-1.28-2.27-2.1-2.96l.19-.19c.69.17,1.24.38,1.68.63.48-1.11,1.01-2.58,1.41-3.99l2.33.84Zm.21,10.62c4.05,2.41,2.52,5.46,1.09,4.14-.1-1.26-.76-2.94-1.34-4.01l.25-.13Zm13.27-6.47c-.17.19-.44.31-.9.36-.19,6.93-.63,11.69-1.74,12.93-.67.71-1.55,1.03-2.77,1.03,0-.52-.11-.99-.44-1.24-.4-.31-1.47-.59-2.5-.78l.02-.34c1.13.1,2.94.27,3.48.27.44,0,.63-.08.86-.31.84-.73,1.24-5.61,1.43-11.82h-6.09c-.69,1.3-1.49,2.46-2.39,3.38l-.29-.19c1.09-2.06,2.12-5.14,2.65-8.19l2.44.73c-.11.23-.31.44-.78.44-.38,1.11-.82,2.2-1.3,3.21h5.54l.96-1.03,1.83,1.53Zm-8.65,2.88c4.98,2.35,3.42,6.03,1.78,4.6-.1-1.49-1.11-3.3-2.02-4.45l.23-.15Z"/><path class="cls-1" d="m198.54,32.01h1.22l-6.13,19.99h-1.26l6.17-19.99Z"/><path class="cls-1" d="m209.42,34.59c-.13,1.36-.74,3.04-3.17,4.12l-.19-.29c1.68-1.41,1.87-3.07,1.87-4.54v-2.37l1.91.63c1.49-.44,3.11-1.03,4.03-1.47l1.55,1.57c-.21.19-.59.17-1.05-.06-1.26.23-3.19.44-4.93.55v1.26h4.03l.92-1.15s1.05.82,1.7,1.43c-.04.23-.25.34-.55.34h-2.39v2.71c0,.08-.5.42-1.3.42h-.25v-3.13h-2.18Zm-3,15.08c2.56-.67,5.48-2.04,6.89-3.09l1.95,1.45c-.17.21-.55.23-1.05.06-1.85.82-4.89,1.62-7.68,1.91l-.11-.34Zm16.84-16.92s1.13.86,1.8,1.51c-.04.23-.23.34-.52.34h-2.88v2.69c-.02.06-.29.25-.78.34l1.62,1.26c-.13.13-.42.29-.78.36v7.2c-.02.13-.88.5-1.41.5h-.27v-.88h-8.65v.65c0,.17-.71.52-1.39.52h-.27v-9.62l1.78.78h8.33l.65-.71h-.44v-3.09h-2.18c-.19,1.18-.92,2.54-3.28,3.44l-.17-.31c1.78-1.24,1.99-2.75,1.99-4.09v-2.18l1.76.59c1.57-.42,3.25-.97,4.24-1.36l1.58,1.6c-.23.19-.61.17-1.09-.06-1.28.19-3.19.38-4.96.46v1.32h4.32l.97-1.24Zm-11.86,6.26v1.72h8.65v-1.72h-8.65Zm0,2.31v1.74h8.65v-1.74h-8.65Zm8.65,4.12v-1.76h-8.65v1.76h8.65Zm-3.19,1.62c10.31.46,7.31,3.93,5.48,2.67-1.09-.78-2.96-1.7-5.54-2.35l.06-.31Z"/><path class="cls-1" d="m229.62,37.95v11.42c0,.21-.57.63-1.32.63h-.29v-18.77l1.7.82h3.84l.82-.9,1.74,1.36c-.13.13-.42.29-.78.36v5.79c-.02.13-.82.46-1.34.46h-.25v-1.18h-4.12Zm0-5.31v2.02h4.12v-2.02h-4.12Zm4.12,4.7v-2.08h-4.12v2.08h4.12Zm7.45,3.99c-.12.15-.42.31-.8.38v5c-.02.15-.8.52-1.32.52h-.27v-1.24h-4.7v1.07c0,.13-.69.5-1.37.5h-.23v-7.41l1.68.73h4.43l.82-.9,1.76,1.34Zm-2.39,4.03v-3.88h-4.7v3.88h4.7Zm7.22-12.83c-.13.15-.46.34-.88.4v14.87c0,1.22-.27,1.91-2.39,2.1-.06-.46-.17-.84-.46-1.05-.29-.25-.78-.44-1.7-.57v-.31s2,.15,2.42.15.5-.15.5-.48v-9.68h-4.28v.52c0,.17-.69.5-1.37.5h-.21v-7.66l1.68.73h3.97l.8-1.01,1.93,1.49Zm-6.8.1v2.02h4.28v-2.02h-4.28Zm4.28,4.7v-2.08h-4.28v2.08h4.28Z"/><path class="cls-1" d="m256.29,32.36c.42-.23.99-.52,1.58-.52.94,0,2.31.48,2.31,1.05,0,.52-.34.86-.36,1.41-.02.25-.04.63-.04,1.09,3.59-.38,4.64-.59,5.06-.59.84,0,2.02.44,2.02,1.22,0,.46-.25.61-.71.61-.76,0-2.29-.52-6.38-.17-.02,1.01-.02,2.16,0,3.21.61.65.88,1.66.88,2.86,0,3.99-3.09,6.32-7.29,7.22l-.25-.48c2.56-.94,4.66-2.39,5.46-4.43-2.08.86-3.74-.82-3.74-2.94,0-1.62,1.11-3.04,2.83-3.04.32,0,.61.04.86.1-.02-.61-.04-1.47-.11-2.37-2.1.23-4.18.69-5.38,1.01-.96.25-1.36.61-1.97.61-.76,0-1.79-.99-2.02-1.64-.15-.38-.19-.9-.19-1.32l.38-.15c.55.73.92,1.32,1.64,1.32.82.02,5.04-.57,7.5-.86-.04-.76-.11-1.45-.15-1.95-.04-.4-.15-.52-.48-.63-.31-.1-.8-.17-1.41-.21l-.04-.4Zm2.67,9.43c0-1.28-.59-2.02-1.49-2.02-1.03,0-1.7.9-1.7,1.97,0,1.13.71,1.93,1.68,1.93,1.03,0,1.51-.52,1.51-1.89Z"/><path class="cls-1" d="m274.22,32.72c.29.63.65,1.26,1.2,1.26.8,0,3.34-.63,4.32-.94.57-.17.61-.42.95-.42.73,0,2.04,1.01,2.04,1.68,0,.44-.57.5-1.28,1.11-1.15.88-3.88,3.46-4.81,4.43-.17.17-.06.34.13.25.88-.31,2.1-.71,3.59-.71,2.75,0,5.08,1.78,5.04,4.77-.04,2.67-2.44,4.87-6.51,4.87-2.37,0-4.05-.99-4.05-2.58,0-1.2,1.07-2.08,2.5-2.08s3.11.92,3.49,2.98c2.02-.63,2.96-2.08,2.98-3.65.06-1.85-1.3-3.55-3.84-3.55-2.98,0-5.06,1.93-6.82,4.22-.38.46-.57.61-.92.59-.34,0-.69-.4-.65-.99.02-.44.25-.78.8-1.32,2.94-3.02,6.91-6.8,7.85-8.23.23-.34.08-.46-.19-.4-.69.13-2.37.8-3.23,1.2-.4.19-.71.5-1.09.5-.92,0-1.74-1.05-1.87-1.7-.08-.38-.04-.8.04-1.24l.36-.04Zm5.14,14.89c-.27-1.55-1.24-2.41-2.42-2.41-.78,0-1.32.42-1.32,1.09,0,.76.92,1.36,2.83,1.36.32,0,.61-.02.9-.04Z"/></g><g><path class="cls-1" d="m62.58,14.13c-.08.12-.22.16-.5.17-.46,1.27-1.12,2.42-2.04,3.39,1.2.89,2.71,1.45,4.41,1.79v.13c-.46.06-.79.36-.95.83-1.64-.48-2.99-1.18-4.03-2.19-1.08.94-2.47,1.68-4.28,2.17l-.1-.18c1.61-.61,2.89-1.48,3.89-2.53-.72-.86-1.26-1.92-1.61-3.21-.65,2.25-1.81,4.38-4.04,5.82l-.17-.12c2.4-2.02,3.35-5.09,3.67-8.18h-3.39l-.08-.34h3.51c.07-.77.11-1.54.12-2.29l1.61.08c-.02.19-.12.3-.49.35-.05.61-.11,1.24-.18,1.86h4.34l.67-.85s.78.59,1.24,1c-.04.13-.14.19-.32.19h-5.97c-.08.6-.19,1.2-.32,1.79h3.43l.61-.58.98.91Zm-5.07,0c.4,1.25,1.06,2.25,1.92,3.06.72-.91,1.26-1.93,1.61-3.06h-3.53Z"/><path class="cls-1" d="m69.52,12.5c.6-.19,1.07-.41,1.43-.6.19-.11.34-.19.44-.19.23,0,.62.13.62.42,0,.25-.17.4-.74.62-.29.12-1.19.43-2.01.64-.17.56-.35,1.19-.55,1.75-.53,1.55-1.29,3.54-1.8,4.39-.18.31-.31.47-.61.47-.25,0-.43-.29-.43-.61s.17-.47.38-.85c.56-.86,1.21-2.03,1.79-3.66.14-.4.28-.85.4-1.31-.41.06-.86.12-1.25.12-.77,0-1.33-.24-1.73-1.27l.19-.14c.54.44.9.65,1.46.65.54.01,1.08-.07,1.54-.18.14-.6.24-1.15.28-1.5.02-.29-.04-.38-.25-.5-.22-.11-.48-.18-.73-.25v-.24c.29-.08.53-.13.84-.12.52.01,1.27.34,1.28.62,0,.24-.19.52-.36,1.1l-.18.65Zm.62,4.43c.06.34.17.77.41,1.13.42.66,1.15.91,2.16.91,1.16,0,1.57-.23,1.88-.23.34,0,.72.16.72.5,0,.26-.31.41-.71.5-.36.07-.9.16-1.63.16-1.52,0-2.6-.52-2.91-1.65-.16-.43-.18-.9-.18-1.3l.26-.02Zm.61-2.67c.59-.28,1.45-.53,2.29-.53.79,0,1.33.16,1.61.3.3.17.44.38.44.59,0,.25-.2.35-.56.37-.22.01-.42.05-.73.17-.41.11-.96.36-1.38.54l-.13-.19c.38-.25,1.06-.71,1.2-.86.08-.07.05-.13-.06-.17-.28-.1-.68-.14-1.04-.14-.48,0-1.02.07-1.55.18l-.08-.25Zm2.55-3.39c.62.24,1.1.49,1.43.79.29.26.41.48.4.71,0,.22-.14.35-.35.35-.19,0-.34-.25-.55-.54-.24-.31-.55-.71-1.08-1.12l.16-.19Zm1.04-.74c.63.2,1.12.42,1.43.66.31.26.43.49.43.74,0,.23-.13.35-.32.35-.2,0-.34-.26-.59-.55-.24-.3-.52-.6-1.08-1.01l.13-.19Z"/><path class="cls-1" d="m80.09,10.18c.29-.08.54-.16.79-.16.62,0,1.34.37,1.34.66,0,.26-.25.34-.36.76-.07.24-.14.53-.24.89.75-.16,1.47-.38,1.94-.62.46-.23.68-.37.85-.37.28,0,.73.08.73.42,0,.25-.3.46-.77.64-.49.18-1.64.55-2.96.73-.24.96-.61,2.33-.78,2.93-.07.24-.06.29.17.11,1.15-.82,2.18-1.36,3.42-1.36,1.81,0,2.65,1.09,2.65,2.31,0,2.23-3.11,3.07-5.92,2.87l-.04-.29c.92-.05,1.74-.19,2.42-.41,2.03-.6,2.57-1.56,2.57-2.42,0-.98-.74-1.63-1.74-1.63-1.32,0-2.67,1.13-3.5,2.09-.2.23-.36.7-.64.7s-.58-.53-.58-.92c0-.19.08-.24.26-.66.25-.6.68-2.24.92-3.21-.25.01-.49.02-.74.02-1.02,0-1.42-.14-2.04-1.42l.2-.14c.66.64,1.16.83,1.94.83.25,0,.53-.01.8-.05.12-.59.22-1.18.24-1.45.02-.24-.04-.31-.23-.4-.19-.07-.42-.13-.72-.19v-.24Z"/><path class="cls-1" d="m91.84,18.17c.84.91,1.73,1.04,3.81,1.04,1.39,0,3.26,0,4.71-.05v.17c-.4.08-.62.36-.68.8h-4.01c-2.21,0-3.15-.29-3.98-1.75-.5.56-1.28,1.33-1.77,1.74.02.17-.04.24-.16.3l-.61-1.16c.44-.18,1.13-.5,1.79-.84v-3.54h-1.68l-.07-.36h1.57l.53-.68,1.15.94c-.08.1-.26.19-.6.24v3.15Zm-1.98-8.42c3.14.84,2.39,2.99,1.36,2.28-.18-.74-.88-1.64-1.46-2.19l.11-.08Zm4.4,8.66c0,.12-.36.35-.78.35h-.17v-8.18l1.01.46h1.02c.07-.48.17-1.19.23-1.69l1.55.24c-.04.18-.19.29-.44.3-.2.34-.54.8-.8,1.15h2.04l.5-.54,1.08.82c-.08.1-.28.19-.52.25v2.33c-.01.07-.48.25-.79.25h-.16v-.46h-3.77v1.34h3.96l.49-.53,1.08.8c-.08.1-.26.2-.52.25v2.7c-.01.07-.48.26-.79.26h-.16v-.68h-4.07v.58Zm0-7.03v1.96h3.77v-1.96h-3.77Zm0,3.98v2.12h4.07v-2.12h-4.07Z"/><path class="cls-1" d="m106.12,11.4l1.02.86c-.08.11-.24.18-.5.22-.1,4.32-.31,6.52-.89,7.18-.35.37-.84.55-1.4.55,0-.3-.04-.55-.2-.7-.18-.17-.6-.3-1.07-.38v-.2c.48.05,1.24.12,1.49.12.23,0,.32-.04.44-.16.43-.41.6-2.71.7-6.56h-1.57c-.12,2.83-.6,5.83-2.92,8.07l-.19-.17c1.69-2.31,2.06-5.13,2.15-7.9h-1.75l-.1-.35h1.86c.02-.88.01-1.73.01-2.57l1.43.14c-.04.17-.13.29-.43.34-.01.67-.01,1.38-.05,2.09h1.43l.55-.59Zm6.07.29c-.08.11-.28.22-.53.26v7.68c-.02.1-.48.36-.83.36h-.14v-1.08h-2v.9c0,.12-.35.35-.78.35h-.17v-9.2l1,.47h1.82l.52-.61,1.12.88Zm-1.5,6.87v-6.8h-2v6.8h2Z"/><path class="cls-1" d="m113.6,11.91c.18.31.49.6.77.6.66,0,2.81-.62,4.82-1.09,1.34-.32,2.38-.53,2.77-.53.34,0,.67.05.9.16.28.12.42.28.42.49,0,.2-.17.37-.47.37-.26,0-.62-.04-1.04-.04-.56,0-1.37.07-1.99.47-.5.31-1.64,1.39-1.64,3.68,0,1.33.55,1.85,1.02,2.12.76.44,1.79.37,2.23.37.32,0,.75.26.75.6,0,.36-.4.48-.95.48-.75,0-1.86-.07-2.66-.65-.77-.54-1.2-1.3-1.2-2.7,0-1.5.54-3.06,1.89-4.09.08-.06.07-.13-.06-.11-1.36.32-3.05.9-3.77,1.26-.24.12-.49.34-.77.34-.47,0-1.14-.6-1.22-1.07-.04-.22-.01-.42,0-.6l.19-.07Zm7.42,1.55c.61.24,1.12.5,1.44.8.28.25.38.47.38.7s-.13.36-.34.36c-.18,0-.31-.25-.55-.55-.24-.31-.56-.71-1.09-1.1l.16-.2Zm1.06-.79c.62.2,1.13.42,1.43.67.31.25.43.48.43.74,0,.22-.11.34-.31.34s-.33-.25-.58-.55c-.26-.29-.54-.6-1.1-1l.13-.2Z"/><path class="cls-2" d="m134.47,9.98l-1.99,4.4h2.23v.7h-2.49v.94h2.49v.71h-2.49c0,.6,0,1.16.03,1.85l1.57.14v.5h-4.44v-.5l1.55-.14c.01-.67.03-1.25.03-1.85h-2.42v-.71h2.42v-.94h-2.42v-.7h2.14l-2.09-4.45-.99-.11v-.49h3.68v.49l-1.21.13,1.86,4.31,1.88-4.29-1.2-.15v-.49h2.97v.49l-1.11.17Z"/><path class="cls-2" d="m142.48,18.03v1.19h-6.3v-.95c.84-.84,1.65-1.72,2.33-2.42,1.55-1.62,2.2-2.82,2.2-4.05s-.73-2.09-1.88-2.09c-.22,0-.52.03-.83.1l-.31,1.12c-.18.7-.45.97-.84.97-.32,0-.59-.17-.74-.46.21-1.57,1.55-2.33,3.08-2.33,1.98,0,2.86,1.08,2.86,2.62,0,1.32-.71,2.37-3.07,4.59-.43.42-1.09,1.05-1.79,1.71h5.29Z"/><path class="cls-2" d="m144.92,19.29c-.39-.28-.56-.67-.56-1.02,0-.52.32-.94.9-.94.28,0,.57.1.91.42.13.36.17.69.17,1.08,0,1.78-1.41,3.21-2.82,3.77l-.21-.45c1.08-.55,1.86-1.25,2.2-2.41l-.59-.45Z"/><path class="cls-2" d="m154.77,14.28c0,3.78-1.58,5.14-3.19,5.14s-3.22-1.36-3.22-5.14,1.57-5.17,3.22-5.17,3.19,1.4,3.19,5.17Zm-3.19,4.55c.94,0,1.82-.95,1.82-4.55s-.88-4.57-1.82-4.57-1.86.95-1.86,4.57.88,4.55,1.86,4.55Z"/><path class="cls-2" d="m162.45,14.28c0,3.78-1.58,5.14-3.19,5.14s-3.22-1.36-3.22-5.14,1.57-5.17,3.22-5.17,3.19,1.4,3.19,5.17Zm-3.19,4.55c.94,0,1.82-.95,1.82-4.55s-.88-4.57-1.82-4.57-1.86.95-1.86,4.57.88,4.55,1.86,4.55Z"/><path class="cls-2" d="m170.14,14.28c0,3.78-1.58,5.14-3.19,5.14s-3.22-1.36-3.22-5.14,1.57-5.17,3.22-5.17,3.19,1.4,3.19,5.17Zm-3.19,4.55c.94,0,1.82-.95,1.82-4.55s-.88-4.57-1.82-4.57-1.86.95-1.86,4.57.88,4.55,1.86,4.55Z"/><path class="cls-2" d="m179.6,8.37c.25-.03.52-.04.88.01.66.1,1.48.56,1.48.84s-.18.38-.41.73c-.15.27-.32.52-.5.77.08.01.14.01.21.01.62,0,2.31-.21,2.69-.31.38-.08.52-.35.77-.35.36,0,1.4.62,1.4,1.05,0,.31-.48.42-.7.78-1.96,3.52-4.82,6.39-8.94,8.01l-.21-.29c3.6-1.88,6.88-5.48,8-8.29.06-.18,0-.24-.14-.24-.29,0-1.61.22-2.09.34-.29.08-.56.18-.78.18-.15,0-.36-.14-.62-.34-1.13,1.48-2.59,2.79-4.29,3.64l-.2-.28c2.2-1.64,4.2-4.48,4.2-5.31,0-.27-.36-.52-.84-.73l.07-.24Z"/><path class="cls-2" d="m189.89,13.14c.32.5.56.92,1.19.92,1.32,0,6.04-.31,6.74-.36.94-.07,1.4-.15,1.75-.15.63,0,1.29.29,1.29.74,0,.28-.21.45-.71.45s-1-.03-1.89-.03-4.64.21-5.69.34c-.87.1-1.04.34-1.49.34s-1.15-.76-1.36-1.29c-.11-.28-.11-.57-.11-.87l.28-.08Z"/><path class="cls-2" d="m207.69,9.17c.34-.11.78-.21,1.13-.21.62.03,1.42.5,1.42.85,0,.28-.28.32-.31.73-.04.32-.06.84-.07,1.41,2.82-.36,2.94-.59,3.26-.59.55,0,1.33.35,1.33.77,0,.31-.15.43-.52.43-.45,0-.88-.06-1.54-.06-.56,0-1.62.1-2.55.21-.01.45-.01.88-.01,1.23,0,1.16.08,4.02.08,4.45,0,.63-.39,1.33-.95,1.33-.45,0-.43-.28-.74-.71-.24-.29-.69-.66-1.15-.92l.13-.28c.5.15,1.04.32,1.39.38.17.03.27.01.28-.18.06-.67.06-2.89.06-4.08v-1.12c-.91.1-2.06.28-2.77.43-.55.11-.71.38-1.06.38s-.88-.45-1.12-.92c-.1-.2-.13-.57-.15-.84l.24-.1c.29.38.56.7.9.69.64,0,2.87-.27,3.95-.39-.01-.87-.04-1.72-.1-2-.07-.41-.39-.5-1.09-.62v-.28Zm-1.05,5.44c-.1,1.57-1.08,3.63-2.17,3.63-.35,0-.57-.25-.57-.57,0-.43.31-.52.83-.92.94-.74,1.32-1.44,1.58-2.2l.34.07Zm4.99-.22c1.51.5,3,1.54,3.19,2.76.06.45-.14.77-.53.77-.45,0-.63-.48-.88-.94-.39-.74-.98-1.62-1.95-2.35l.17-.24Zm.49-5.1c0-.84.69-1.53,1.53-1.53s1.53.69,1.53,1.53-.69,1.53-1.53,1.53-1.53-.69-1.53-1.53Zm.49,0c0,.57.46,1.04,1.04,1.04s1.02-.46,1.02-1.04-.45-1.02-1.02-1.02-1.04.45-1.04,1.02Z"/><path class="cls-2" d="m228.77,10.9l.31.2c-1.67,3.01-4.26,5.32-7.37,7.3-.32.2-.49.57-.83.57-.62,0-1.5-.7-1.79-1.16-.14-.27-.27-.74-.28-1.02l.21-.14c.39.43.85.91,1.32.91,1.21,0,6.43-3.74,8.43-6.65Zm-9.69-1.33c1.7.38,3.73,1.29,3.73,2.48,0,.38-.25.64-.6.64-.29,0-.52-.18-.87-.63-.67-.84-1.15-1.34-2.42-2.21l.17-.28Z"/><path class="cls-1" d="m233.17,12.26c.76,0,4.35-.38,4.94-.5.36-.08.42-.26.66-.26.41,0,1.4.8,1.4,1.18,0,.3-.37.42-.55.82-1.31,2.97-3.47,5.23-7.11,6.55l-.17-.26c3.39-1.73,5.65-4.4,6.34-7.16.05-.16-.02-.18-.13-.18-.61,0-3.79.5-4.47.67-.32.07-.59.29-.84.29-.41,0-1-.62-1.12-.97-.06-.2-.08-.4-.11-.73l.22-.08c.23.31.5.66.94.66Zm6.4-1.49c0-.71.56-1.28,1.28-1.28s1.28.58,1.28,1.28-.58,1.28-1.28,1.28-1.28-.56-1.28-1.28Zm.42,0c0,.48.38.86.86.86s.85-.38.85-.86-.38-.85-.85-.85-.86.38-.86.85Z"/><path class="cls-1" d="m244.44,11.51c.29-.13.64-.28.89-.28.55,0,1.38.6,1.38.91,0,.23-.26.41-.3.79-.07.65-.14,3.75-.14,4.87,0,.12.04.16.14.13,2.08-.65,4.98-2.58,6.67-4.33l.22.22c-1.49,2.07-3.79,3.8-6.36,5.07-.4.2-.41.5-.7.5-.34,0-1.02-.74-1.02-1.06,0-.2.22-.38.23-.79.04-.83.05-4.35-.02-5.25-.01-.26-.12-.41-.97-.59v-.2Z"/><path class="cls-1" d="m257.7,10.74c.36-.13.71-.2.97-.2.5,0,1.31.48,1.31.78s-.24.44-.3.84c-.05.32-.1.95-.14,1.67,1.02-.29,2.46-.68,3.13-.88.36-.11.48-.34.67-.34.4,0,1.29.72,1.29,1.06,0,.26-.41.34-.67.59-.58.55-1.46,1.34-2.46,1.97l-.19-.19c.74-.79,1.4-1.65,1.76-2.33.08-.14.02-.23-.14-.2-.65.1-2.38.68-3.43,1.04-.06,1.01-.08,2.09-.08,2.79.02,1.01.17,1.1,1.52,1.1,1.62,0,2.24-.29,2.48-.29.38,0,.92.16.92.52,0,.26-.24.38-.56.44-.55.12-1.66.23-2.43.23-1.97,0-2.7-.14-2.71-1.77-.02-.79.01-1.93.02-2.73-.54.19-1.19.43-1.63.62-.46.22-.52.41-.88.41-.31,0-1.01-.54-1.17-.9-.1-.19-.08-.44-.07-.71l.18-.06c.24.34.46.59.78.59.43,0,1.97-.46,2.81-.71.02-.97.05-2.16.01-2.63-.02-.3-.38-.38-.97-.49v-.22Zm5.16-.08c.64.23,1.12.49,1.44.78.3.28.4.48.4.71,0,.22-.12.35-.32.35-.19,0-.34-.24-.56-.53-.24-.31-.56-.7-1.09-1.1l.14-.2Zm1.05-.77c.65.19,1.13.43,1.44.67.3.25.43.48.43.73,0,.23-.12.35-.31.35-.2,0-.34-.26-.59-.55-.24-.29-.53-.59-1.09-1.01l.12-.19Z"/><path class="cls-1" d="m276.98,12.34l.26.17c-1.43,2.58-3.65,4.56-6.31,6.25-.28.17-.42.49-.71.49-.53,0-1.28-.6-1.54-1-.12-.23-.23-.64-.24-.88l.18-.12c.34.37.73.78,1.13.78,1.03,0,5.5-3.2,7.22-5.7Zm-8.3-1.14c1.45.32,3.19,1.1,3.19,2.12,0,.32-.22.55-.52.55-.25,0-.44-.16-.74-.54-.58-.72-.98-1.15-2.08-1.9l.14-.24Z"/><path class="cls-1" d="m282.04,10.47c.32-.1.6-.2.85-.2.54,0,1.43.49,1.43.8,0,.28-.23.35-.28.74-.07.54-.1,1.36-.11,2.04,1.16.22,2.31.61,2.97,1.02.41.25.73.58.73,1.01,0,.28-.17.52-.48.52-.49,0-.61-.49-1.38-1.13-.49-.36-1.08-.68-1.85-1-.01.94-.01,2.79,0,4.01.01.55.04.92.04,1.12,0,.41-.12.58-.44.58-.47,0-.71-.65-.71-1.2,0-.28.11-.52.16-1,.1-.89.1-2.75.1-3.61,0-.97,0-2.33-.08-2.91-.05-.38-.35-.48-.94-.55v-.23Z"/><path class="cls-1" d="m295.45,18.8c0-.43.33-.79.82-.79s.82.36.82.79-.35.8-.82.8-.82-.36-.82-.8Zm1.56-7.65c0,.65-.11,1.7-.35,3.86l-.17,1.85h-.46l-.17-1.85c-.24-2.17-.35-3.21-.35-3.86,0-.61.29-.89.74-.89s.74.28.74.89Z"/></g></g><path class="cls-1" d="m31.66,16.57c-9.15,0-16.56,6.02-16.56,13.47s6.81,12.95,15.41,13.43c.17.61.24,1.56-.2,2.82-.87,2.53-.03,2.21,1.31,1.57,6.25-3.04,12.67-9.04,12.7-9.13,2.43-2.37,3.91-5.38,3.91-8.69,0-7.46-7.42-13.47-16.57-13.47Zm-6.91,17.48h-2.47c-1.43,0-1.43-.93-1.43-1.4v-6.15c0-.52.24-.8.88-.8.59,0,.89.22.89.8v5.65c0,.24.07.32.33.32h1.8c.31,0,.83.06.83.79,0,.56-.28.79-.83.79Zm3.65-.64c0,.6-.34.81-.87.81-.45,0-.92-.12-.92-.81v-6.9c0-.6.35-.81.89-.81.45,0,.89.12.89.81v6.9Zm7.78-.24c0,.27,0,1.06-.93,1.06-.6,0-.87-.35-1.16-.83l-2.9-4.84v4.86c0,.38-.09.81-.78.81-.39,0-.8-.13-.8-.81v-6.66c0-.25,0-1.06.93-1.06.63,0,.9.38,1.17.83l2.89,4.85v-4.88c0-.36.09-.8.78-.8.39,0,.8.12.8.8v6.67Zm5.95.88h-3.42c-1.44,0-1.44-.93-1.44-1.4v-5.37c0-.51,0-1.41,1.44-1.41h3.29c.3,0,.82.06.82.8,0,.54-.27.79-.82.79h-2.62c-.26,0-.32.07-.32.32v1.29h2.65c.29,0,.8.06.8.77,0,.56-.28.78-.8.78h-2.65v1.54c0,.22.06.32.32.32h2.75c.35,0,.84.08.84.79,0,.53-.24.79-.84.79Z"/></g><g><polyline class="cls-4" points="335.12 29.83 335.12 37.28 320.21 37.28 320.21 22.37 327.66 22.37"/><polyline class="cls-4" points="330.16 19.87 337.62 19.87 337.62 27.33"/><line class="cls-4" x1="337.62" y1="19.87" x2="328.59" y2="28.9"/></g></g></g></svg>