<?xml version="1.0" encoding="UTF-8"?><svg id="_レイヤー_2" xmlns="http://www.w3.org/2000/svg" xmlns:xlink="http://www.w3.org/1999/xlink" viewBox="0 0 355 60"><defs><style>.cls-1{fill:#fff;}.cls-2{fill:none;stroke:#fff;stroke-linecap:round;stroke-miterlimit:10;}.cls-3{fill:url(#_名称未設定グラデーション_10);}</style><linearGradient id="_名称未設定グラデーション_10" x1="177.5" y1="60" x2="177.5" y2="0" gradientTransform="translate(147.5 207.5) rotate(-90)" gradientUnits="userSpaceOnUse"><stop offset="0" stop-color="#232331"/><stop offset="1" stop-color="#233e79"/><stop offset="1" stop-color="#000"/></linearGradient></defs><g id="_レイヤー_1-2"><g><g><rect class="cls-3" x="147.5" y="-147.5" width="60" height="355" rx="30" ry="30" transform="translate(207.5 -147.5) rotate(90)"/><g><path class="cls-1" d="m107.23,37.62c0,6.21-2.6,8.44-5.24,8.44s-5.29-2.23-5.29-8.44,2.58-8.49,5.29-8.49,5.24,2.3,5.24,8.49Zm-5.24,7.47c1.54,0,2.99-1.56,2.99-7.47s-1.45-7.5-2.99-7.5-3.06,1.56-3.06,7.5,1.45,7.47,3.06,7.47Z"/><path class="cls-1" d="m112.69,35.96c.83-.25,1.63-.37,2.55-.37,3.26,0,5.5,1.82,5.5,5.08s-2.32,5.38-5.89,5.38c-2.55,0-4.19-1.17-4.69-3.5.21-.53.64-.8,1.2-.8.74,0,1.06.37,1.36,1.59l.41,1.52c.53.16,1.01.23,1.54.23,2.51,0,3.86-1.63,3.86-4.16s-1.5-4-3.93-4c-.81,0-1.63.09-2.44.32l-.64-.18.53-7.59h8.23v1.95h-7.27l-.32,4.53Z"/><path class="cls-1" d="m134.33,37.62c0,6.21-2.6,8.44-5.24,8.44s-5.29-2.23-5.29-8.44,2.58-8.49,5.29-8.49,5.24,2.3,5.24,8.49Zm-5.24,7.47c1.54,0,2.99-1.56,2.99-7.47s-1.45-7.5-2.99-7.5-3.06,1.56-3.06,7.5,1.45,7.47,3.06,7.47Z"/><path class="cls-1" d="m137.3,38.68h5.86v1.47h-5.86v-1.47Z"/><path class="cls-1" d="m156.27,44.96v.78h-9.29v-.78l3.59-.51c.02-1.33.05-2.69.05-4.02v-9.29l-3.36.32v-.87l5.17-1.33.35.25-.09,3.61v7.31c0,1.33.02,2.69.05,4.02l3.54.51Z"/><path class="cls-1" d="m170.23,43.78v1.95h-10.35v-1.56c1.38-1.38,2.71-2.83,3.82-3.98,2.55-2.67,3.61-4.62,3.61-6.65s-1.2-3.43-3.08-3.43c-.37,0-.85.05-1.36.16l-.51,1.84c-.3,1.15-.74,1.59-1.38,1.59-.53,0-.97-.28-1.22-.76.34-2.58,2.55-3.82,5.06-3.82,3.24,0,4.69,1.77,4.69,4.3,0,2.16-1.17,3.89-5.04,7.54-.71.69-1.79,1.72-2.94,2.81h8.69Z"/><path class="cls-1" d="m176.35,31.73c-.28,1.01-.62,1.49-1.43,1.49-.53,0-.94-.23-1.17-.85.46-2.21,2.39-3.24,4.71-3.24,2.92,0,4.76,1.61,4.76,3.93,0,1.86-1.24,3.38-3.47,4.09,2.74.51,4,2.05,4,4.12,0,2.78-2.28,4.78-5.63,4.78-2.51,0-4.37-1.06-4.83-3.5.28-.55.69-.8,1.22-.8.78,0,1.08.51,1.38,1.66l.41,1.49c.51.14.99.18,1.45.18,2.51,0,3.79-1.4,3.79-3.7s-1.31-3.66-3.91-3.66h-1.2v-1.1h.99c2.25,0,3.68-1.24,3.68-3.5,0-1.93-1.15-3.01-3.13-3.01-.34,0-.76.02-1.22.14l-.41,1.47Z"/><path class="cls-1" d="m197.94,40.82h-2.67v4.92h-2.02v-4.92h-6.83v-1.22l7.45-10.32h1.4v10.07h2.67v1.47Zm-4.69-1.47v-7.75l-5.57,7.75h5.57Z"/><path class="cls-1" d="m200.29,38.68h5.86v1.47h-5.86v-1.47Z"/><path class="cls-1" d="m211.58,35.96c.83-.25,1.63-.37,2.55-.37,3.26,0,5.5,1.82,5.5,5.08s-2.32,5.38-5.89,5.38c-2.55,0-4.19-1.17-4.69-3.5.21-.53.64-.8,1.2-.8.74,0,1.06.37,1.36,1.59l.41,1.52c.53.16,1.01.23,1.54.23,2.51,0,3.86-1.63,3.86-4.16s-1.5-4-3.93-4c-.81,0-1.63.09-2.44.32l-.64-.18.53-7.59h8.23v1.95h-7.27l-.32,4.53Z"/><path class="cls-1" d="m232.49,29.78c-4.81,1.15-7.17,3.68-7.57,7.61,1.06-1.06,2.37-1.63,3.75-1.63,2.74,0,4.58,1.93,4.58,4.94,0,3.43-2.12,5.36-5.15,5.36-3.36,0-5.45-2.6-5.45-7.04,0-4.97,3.47-9.18,9.7-9.89l.14.64Zm-7.63,8.9c0,4.32,1.24,6.42,3.31,6.42,1.72,0,2.92-1.36,2.92-4.12s-1.2-3.84-2.99-3.84c-1.08,0-2.25.3-3.24,1.17v.37Z"/><path class="cls-1" d="m246.68,29.48v1.22l-5.91,15.04h-2.02l-.23-.23,6.76-14.07h-8.83v-1.95h10.23Z"/><path class="cls-1" d="m260.18,41.78c0,2.55-2.18,4.28-5.15,4.28s-5.17-1.4-5.17-4c0-1.86,1.29-3.15,3.66-4.3-2.18-1.17-3.13-2.69-3.13-4.44,0-2.6,2.09-4.19,4.71-4.19s4.32,1.61,4.32,3.86c0,1.24-.71,2.71-3.04,4,2.58,1.27,3.79,2.58,3.79,4.78Zm-2.02.25c0-1.49-.94-2.48-3.86-3.89-1.63,1.03-2.44,1.95-2.44,3.66,0,2,1.31,3.31,3.24,3.31s3.06-1.29,3.06-3.08Zm-2.53-5.4c1.45-1.13,2-2.14,2-3.56,0-1.63-.94-2.94-2.58-2.94-1.47,0-2.76,1.01-2.76,2.64,0,1.36.69,2.6,3.33,3.86Z"/></g><path class="cls-1" d="m40.62,16.51c-2.03,1.31-2.42,5.42-1.66,8.77.6,2.61,1.86,6.1,4,9.39,2.01,3.1,4.81,5.87,6.95,7.48,2.74,2.06,6.65,3.37,8.68,2.06,1.02-.66,2.55-2.48,2.61-2.8,0,0-.89-1.38-1.09-1.68l-2.99-4.61c-.22-.34-1.62-.03-2.32.37-.96.54-1.84,1.99-1.84,1.99-.66.38-1.2,0-2.35-.53-1.41-.65-2.99-2.66-4.25-4.49-1.15-1.9-2.34-4.16-2.36-5.71-.01-1.26-.13-1.92.48-2.36,0,0,1.69-.21,2.57-.86.66-.48,1.51-1.63,1.29-1.97l-2.99-4.61c-.2-.3-1.09-1.68-1.09-1.68-.33-.07-2.6.58-3.63,1.24Z"/><g><path class="cls-1" d="m72.81,11.43c-.08.1-.22.12-.43.13-.3.37-.83.9-1.21,1.2l-.16-.08c.12-.34.26-.88.36-1.28h-3.69v2.77c0,.06-.31.24-.8.24h-.16v-3.01h-3.43c.06.76-.23,1.27-.56,1.5-.31.2-.77.18-.89-.14-.12-.3.06-.56.35-.71.42-.24.79-.85.72-1.52h.18c.07.18.12.37.16.54h3.48v-.98h-3.71l-.1-.35h7.21l.59-.72s.68.5,1.12.88c-.04.13-.16.19-.32.19h-3.83v.98h3.63l.54-.56.96.94Zm-7.26,1.61s.52.36.85.66c-.04.13-.14.19-.3.19h-2.75l-.1-.35h1.85l.44-.5Zm6.68,5.84c.37.16.42.19.42.35,0,.38-.35.6-1.52.6h-2.94c-1.21,0-1.47-.19-1.47-1.27v-.55h-2.39v.56c0,.1-.41.31-.79.31h-.14v-4.51l1.02.46h5.65l.48-.54,1.04.79c-.07.1-.24.19-.47.24v2.9c-.01.08-.48.29-.8.29h-.14v-.5h-2.51v.6c0,.4.05.43.55.43h2.96c.28,0,.42-.01.52-.13.08-.13.2-.5.36-1.09h.16l.02,1.07Zm-6.69-7.04s.49.36.82.66c-.04.12-.14.18-.3.18h-2.47l-.1-.35h1.62l.43-.49Zm-1.21,3.32v1.06h2.39v-1.06h-2.39Zm2.39,2.49v-1.09h-2.39v1.09h2.39Zm.95-2.49v1.06h2.51v-1.06h-2.51Zm2.51,2.49v-1.09h-2.51v1.09h2.51Zm-2.09-4.11h1.88l.47-.54s.55.38.9.7c-.02.13-.13.19-.3.19h-2.85l-.1-.35Zm2.1-1.73s.5.38.83.68c-.02.12-.13.18-.3.18h-2.52l-.1-.35h1.63l.46-.52Z"/><path class="cls-1" d="m77.7,10.66s.62.49,1.01.84c-.04.13-.13.19-.3.19h-4.58l-.1-.35h3.43l.54-.68Zm-1.13,2.22l.52-.64s.58.46.94.8c-.02.13-.14.19-.31.19h-3.36l-.1-.36h2.31Zm-2.22,1.9l-.1-.36h2.28l.52-.66s.59.47.96.83c-.04.13-.14.19-.3.19h-3.36Zm.05-4.59l-.1-.34h2.24l.55-.71s.61.5,1,.86c-.04.13-.14.18-.31.18h-3.38Zm2.87,5.22l1.03.78c-.08.1-.26.19-.49.24v3.12c-.01.08-.44.29-.76.29h-.14v-.7h-1.73v.62c0,.1-.37.3-.76.3h-.12v-4.55l.94.42h1.55l.48-.53Zm-.36,3.38v-2.52h-1.73v2.52h1.73Zm6.82-6.79s.68.55,1.08.96c-.02.13-.14.19-.3.19h-2.59v2.25h.96l.5-.53,1.07.82c-.08.08-.26.19-.5.24v3.68c-.01.07-.48.3-.79.3h-.16v-.76h-3.05v.59c0,.1-.37.31-.77.31h-.14v-5.07l.97.42h.97v-2.25h-2.51l-.1-.36h2.6v-2.18c-.74.13-1.54.23-2.3.26l-.04-.19c1.63-.34,3.54-1.03,4.49-1.62l1.07.92c-.11.11-.32.11-.64.01-.46.16-1.02.3-1.64.43v2.36h1.22l.59-.79Zm-3.78,3.77v3.05h3.05v-3.05h-3.05Z"/><path class="cls-1" d="m86.1,11.53c.18.31.49.6.77.6.66,0,2.81-.62,4.82-1.09,1.34-.32,2.38-.53,2.77-.53.34,0,.67.05.9.16.28.12.42.28.42.49,0,.2-.17.37-.47.37-.26,0-.62-.04-1.04-.04-.56,0-1.37.07-1.99.47-.5.31-1.64,1.39-1.64,3.68,0,1.33.55,1.85,1.02,2.12.76.44,1.79.37,2.23.37.32,0,.75.26.75.6,0,.36-.4.48-.95.48-.75,0-1.86-.07-2.66-.65-.77-.54-1.2-1.3-1.2-2.7,0-1.5.54-3.06,1.89-4.09.08-.06.07-.13-.06-.11-1.36.32-3.05.9-3.77,1.26-.24.12-.49.34-.77.34-.47,0-1.14-.6-1.22-1.07-.04-.22-.01-.42,0-.6l.19-.07Zm7.42,1.55c.61.24,1.12.5,1.44.8.28.25.38.47.38.7s-.13.36-.34.36c-.18,0-.31-.25-.55-.55-.24-.31-.56-.71-1.09-1.1l.16-.2Zm1.06-.79c.62.2,1.13.42,1.43.67.31.25.43.48.43.74,0,.22-.11.34-.31.34s-.33-.25-.58-.55c-.26-.29-.54-.6-1.1-1l.13-.2Z"/><path class="cls-1" d="m99.25,13.16v6.52c0,.12-.32.36-.75.36h-.17v-10.72l.97.47h2.2l.47-.52,1,.78c-.07.07-.24.17-.44.2v3.31c-.01.07-.47.26-.77.26h-.14v-.67h-2.35Zm0-3.03v1.15h2.35v-1.15h-2.35Zm2.35,2.69v-1.19h-2.35v1.19h2.35Zm4.26,2.28c-.07.08-.24.18-.46.22v2.85c-.01.08-.46.3-.76.3h-.16v-.71h-2.69v.61c0,.07-.4.29-.78.29h-.13v-4.23l.96.42h2.53l.47-.52,1.01.77Zm-1.37,2.3v-2.22h-2.69v2.22h2.69Zm4.13-7.33c-.07.08-.26.19-.5.23v8.49c0,.7-.16,1.09-1.37,1.2-.04-.26-.1-.48-.26-.6-.17-.14-.44-.25-.97-.32v-.18s1.14.08,1.38.08.29-.08.29-.28v-5.53h-2.45v.3c0,.1-.4.29-.78.29h-.12v-4.38l.96.42h2.27l.46-.58,1.1.85Zm-3.89.06v1.15h2.45v-1.15h-2.45Zm2.45,2.69v-1.19h-2.45v1.19h2.45Z"/><path class="cls-1" d="m116.24,9.32c-.04.14-.19.2-.5.23,1.07,1.51,3.09,2.67,5.13,3.42v.17c-.44.11-.76.47-.84.83-1.93-.96-3.69-2.48-4.51-4.26-1.12,1.75-3.49,3.71-5.8,4.7l-.08-.17c2.04-1.16,4.4-3.59,5.01-5.3l1.59.38Zm1.91,5.7l1.12.86c-.08.1-.28.19-.52.24v3.54c-.01.07-.53.28-.84.28h-.16v-.82h-5v.6c0,.08-.43.31-.84.31h-.16v-4.91l1.07.47h4.8l.53-.58Zm-1.15-2.42s.71.55,1.15.96c-.04.13-.16.18-.32.18h-5.31l-.1-.34h3.95l.64-.8Zm.76,6.18v-2.83h-5v2.83h5Z"/><path class="cls-1" d="m125.76,13.77c1.1-.67,2.21-1.16,3.49-1.16,1.59,0,3.03,1.12,3.03,2.77,0,1.75-1.24,3.29-4.57,4.03l-.12-.26c3.02-1.15,3.65-2.7,3.65-4.04,0-1.13-.83-2.06-2.16-2.06-1.21,0-2.5.65-3.38,1.4-.07,1.26.06,2.63.12,3.3.02.36.06.59.06.88,0,.49-.22,1.08-.58,1.08-.29,0-.42-.16-.47-.44-.06-.3-.11-.54-.23-.83-.12-.3-.47-.89-.79-1.35-.23.34-.44.65-.65.94-.17.24-.3.43-.5.43-.2.01-.38-.19-.38-.48,0-.26.06-.43.29-.68.5-.54,1.75-2.06,2.58-3.33.02-.29.05-.58.08-.85-.38.2-.78.43-1.04.59-.25.17-.36.42-.58.42-.4,0-.92-.49-1.06-.91-.05-.19-.05-.37-.05-.54l.2-.07c.19.34.36.53.59.53.3,0,1.4-.49,2.02-.79.1-.79.18-1.44.18-1.79,0-.26-.08-.34-.29-.42-.16-.07-.4-.13-.68-.19v-.24c.24-.08.5-.16.79-.16.56,0,1.21.56,1.21.95,0,.23-.14.38-.26.84-.05.17-.13.46-.2.82h.02c.22.12.48.37.48.53,0,.14-.12.26-.29.44-.14.16-.34.38-.5.61v.07Zm-.71,3.96c0-.53-.02-1.51.01-2.51-.34.5-.71,1.06-1.08,1.58.32.4.72.83.88,1.02.11.12.18.11.19-.1Z"/><path class="cls-1" d="m140,10.08c.29-.13.58-.25.83-.25.62,0,1.37.5,1.37.86,0,.2-.23.3-.25.73-.02.35-.05.78-.07,1.28.92-.19,1.56-.3,1.8-.3.53,0,1.04.22,1.04.65,0,.29-.2.37-.56.37-.5,0-.92-.11-1.82-.02-.16.01-.31.04-.49.06-.04.83-.11,1.87-.24,2.4-.12.56-.43.94-.92.94-.2,0-.32-.06-.44-.31-.18-.38-.72-.61-1.2-.84l.08-.24c.54.16,1.14.3,1.36.3.2,0,.33-.04.42-.31.08-.35.14-1.18.17-1.81-1.13.2-2.42.5-3.29.76-.05,1.03-.07,2.17-.05,2.7.04,1.2.28,1.38,1.8,1.38s2.46-.32,2.81-.32c.43,0,.82.17.82.52,0,.25-.16.38-.56.48-.49.12-1.5.2-2.72.2-1.81,0-2.81-.37-2.87-1.79-.04-.67-.02-1.8-.04-2.91-1.33.46-1.85.78-2.17.78-.35,0-.82-.43-1.01-.89-.08-.17-.07-.42-.07-.67l.18-.07c.2.31.5.62.79.62.26,0,1.45-.3,2.28-.5,0-.8,0-1.52-.04-1.9-.04-.35-.1-.42-.29-.5-.18-.08-.47-.11-.7-.13v-.24c.24-.1.54-.2.85-.2.54,0,1.33.47,1.33.8,0,.23-.2.29-.25.77-.02.25-.05.68-.07,1.19.84-.2,2.25-.54,3.29-.77,0-.7.01-1.62-.02-2.11-.01-.19-.11-.3-.32-.36-.2-.05-.43-.07-.71-.1l-.02-.23Z"/><path class="cls-1" d="m148.74,10.18c.17.36.37.72.68.72.46,0,1.91-.36,2.47-.54.32-.1.35-.24.54-.24.42,0,1.16.58,1.16.96,0,.25-.32.29-.73.64-.66.5-2.22,1.98-2.75,2.53-.1.1-.04.19.07.14.5-.18,1.2-.41,2.05-.41,1.57,0,2.9,1.02,2.88,2.72-.02,1.52-1.39,2.78-3.72,2.78-1.36,0-2.32-.56-2.32-1.48,0-.68.61-1.19,1.43-1.19s1.77.53,1.99,1.7c1.15-.36,1.69-1.19,1.7-2.09.04-1.06-.74-2.03-2.19-2.03-1.7,0-2.89,1.1-3.9,2.41-.22.26-.32.35-.53.34-.19,0-.4-.23-.37-.56.01-.25.14-.44.46-.76,1.68-1.73,3.95-3.89,4.49-4.7.13-.19.05-.26-.11-.23-.4.07-1.36.46-1.85.68-.23.11-.41.29-.62.29-.53,0-1-.6-1.07-.97-.05-.22-.02-.46.02-.71l.2-.02Zm2.94,8.5c-.16-.89-.71-1.38-1.38-1.38-.44,0-.76.24-.76.62,0,.43.53.78,1.62.78.18,0,.35-.01.52-.02Z"/><path class="cls-1" d="m168.29,8.9l.2.23c-1.39,1.14-2.59,2.85-2.59,5.4s1.2,4.26,2.59,5.4l-.2.23c-1.66-1.03-3.27-2.73-3.27-5.62s1.62-4.59,3.27-5.62Z"/><path class="cls-1" d="m180.92,13.29c-.08.1-.22.12-.44.13-.38.37-1.04.9-1.54,1.21l-.13-.08c.17-.36.38-.9.52-1.32h-7.95c.07.82-.24,1.37-.62,1.59-.33.19-.78.16-.91-.16-.11-.32.07-.59.36-.74.46-.24.84-.92.76-1.67h.18c.08.22.16.42.19.62h5.62c.44-.73.92-1.73,1.21-2.48l1.43.48c-.05.14-.19.24-.46.22-.44.54-1.15,1.24-1.85,1.79h2.03l.58-.58,1.03.98Zm-1.93,1.86c-.1.12-.24.16-.54.17-.59.96-1.34,1.78-2.27,2.46,1.33.64,2.91,1.02,4.59,1.22l-.02.14c-.44.1-.76.42-.89.91-1.73-.35-3.24-.9-4.47-1.75-1.45.86-3.27,1.45-5.48,1.75l-.06-.19c1.93-.44,3.61-1.13,4.93-2.04-.83-.71-1.5-1.6-1.98-2.7h-1.37l-.11-.34h6l.67-.59,1,.95Zm.55-5.17c-.12.11-.35.11-.67-.04-2.2.34-5.52.67-8.41.74l-.04-.24c2.78-.26,6.3-.91,8.13-1.45l.98.98Zm-7.81.79c2.5.79,1.58,2.55.71,1.83-.06-.59-.46-1.32-.83-1.75l.12-.08Zm1.34,4.35c.54.92,1.34,1.67,2.33,2.24.79-.65,1.43-1.39,1.89-2.24h-4.22Zm1.34-4.58c2.37,1,1.38,2.75.54,1.98-.01-.64-.35-1.42-.68-1.91l.14-.07Z"/><path class="cls-1" d="m185.75,9.44c-.05.14-.19.25-.46.24-.35.95-.77,1.85-1.24,2.65l.55.2c-.04.11-.14.19-.35.23v6.98c-.02.08-.42.31-.8.31h-.17v-6.54c-.47.66-.97,1.24-1.51,1.73l-.17-.12c1.05-1.46,2.12-3.8,2.7-6.14l1.44.46Zm6.07,1.86s.68.56,1.08.97c-.04.13-.16.19-.31.19h-1.83v6.16c0,.77-.18,1.25-1.69,1.4-.05-.34-.14-.56-.37-.73-.26-.17-.67-.3-1.43-.41v-.18s1.79.12,2.13.12c.29,0,.36-.08.36-.3v-6.07h-4.67l-.1-.35h4.76v-2.97l1.44.16c-.04.18-.14.29-.44.32v2.49h.48l.59-.82Zm-5.95,2.35c3.19,1.52,2.42,3.67,1.43,2.9-.19-.91-.95-2.07-1.56-2.83l.13-.07Z"/><path class="cls-1" d="m197.94,10.4c-.07.1-.28.19-.5.24v7.48c-.01.1-.46.31-.78.31h-.14v-.82h-1.49v1.07c0,.08-.3.31-.77.31h-.16v-9.31l1.06.43h1.24l.49-.56,1.05.84Zm-2.91.07v3.2h1.49v-3.2h-1.49Zm1.49,6.8v-3.26h-1.49v3.26h1.49Zm1.17-3.93l-.1-.36h2.84v-1.74h-2.39l-.1-.36h2.48v-1.83l1.38.13c-.01.17-.13.29-.43.34v1.37h1.37l.6-.76s.67.53,1.09.92c-.04.13-.16.19-.32.19h-2.73v1.74h1.73l.6-.78s.71.54,1.12.95c-.02.13-.14.19-.3.19h-6.84Zm6.2.89s.65.52,1.02.88c-.02.13-.16.19-.32.19h-1.7v3.48c0,.73-.16,1.15-1.44,1.27-.04-.3-.1-.52-.29-.66-.18-.16-.49-.26-1.08-.35v-.18s1.32.08,1.58.08c.23,0,.29-.06.29-.23v-3.42h-4.21l-.1-.35h4.31v-1.38l1.33.13c-.02.16-.14.25-.4.3v.95h.46l.55-.72Zm-5.29,1.5c2.83.91,1.96,2.87,1.01,2.12-.11-.68-.66-1.52-1.13-2.04l.12-.08Z"/><path class="cls-1" d="m207.31,13.2v6.48c0,.13-.32.37-.77.37h-.17v-10.69l1,.47h2.13l.47-.52,1,.77c-.07.07-.24.18-.44.22v3.21c-.01.07-.47.26-.77.26h-.14v-.58h-2.3Zm0-3.03v1.15h2.3v-1.15h-2.3Zm2.3,2.67v-1.18h-2.3v1.18h2.3Zm4.27,1.97c-.06.07-.24.17-.44.2v3.6c-.01.08-.46.31-.77.31h-.14v-.66h-2.67v.48c0,.1-.38.3-.74.3h-.14v-4.92l.95.42h2.51l.47-.52,1,.78Zm-4.03.07v1.29h2.67v-1.29h-2.67Zm2.67,3.02v-1.38h-2.67v1.38h2.67Zm4.05-7.8c-.07.08-.26.19-.5.23v8.42c0,.74-.14,1.18-1.39,1.3-.02-.3-.1-.54-.25-.7-.18-.14-.44-.26-.98-.35v-.19s1.15.1,1.4.1c.22,0,.28-.08.28-.26v-5.44h-2.4v.25c0,.08-.41.29-.79.29h-.12v-4.34l.96.43h2.23l.46-.59,1.12.86Zm-3.85.06v1.15h2.4v-1.15h-2.4Zm2.4,2.67v-1.18h-2.4v1.18h2.4Z"/><path class="cls-1" d="m226.07,18.68v.41h-4.85v-.41l1.87-.26c.01-.7.02-1.4.02-2.1v-4.85l-1.75.17v-.46l2.7-.7.18.13-.05,1.88v3.81c0,.7.01,1.4.02,2.1l1.85.26Z"/><path class="cls-1" d="m232.87,14.85c0,3.24-1.36,4.4-2.73,4.4s-2.76-1.16-2.76-4.4,1.34-4.43,2.76-4.43,2.73,1.2,2.73,4.43Zm-2.73,3.9c.8,0,1.56-.82,1.56-3.9s-.76-3.91-1.56-3.91-1.6.82-1.6,3.91.76,3.9,1.6,3.9Z"/><path class="cls-1" d="m234.49,13.53c0-.5.4-.91.89-.91s.9.41.9.91c0,.47-.4.88-.9.88s-.89-.41-.89-.88Zm0,4.85c0-.5.4-.91.89-.91s.9.41.9.91c0,.47-.4.88-.9.88s-.89-.41-.89-.88Z"/><path class="cls-1" d="m243.41,14.85c0,3.24-1.36,4.4-2.73,4.4s-2.76-1.16-2.76-4.4,1.34-4.43,2.76-4.43,2.73,1.2,2.73,4.43Zm-2.73,3.9c.8,0,1.56-.82,1.56-3.9s-.76-3.91-1.56-3.91-1.6.82-1.6,3.91.76,3.9,1.6,3.9Z"/><path class="cls-1" d="m249.99,14.85c0,3.24-1.36,4.4-2.73,4.4s-2.76-1.16-2.76-4.4,1.34-4.43,2.76-4.43,2.73,1.2,2.73,4.43Zm-2.73,3.9c.8,0,1.56-.82,1.56-3.9s-.76-3.91-1.56-3.91-1.6.82-1.6,3.91.76,3.9,1.6,3.9Z"/><path class="cls-1" d="m253.87,14.04c-1.03,0-1.85.46-2.54,1.18l-.19-.17c.82-1.16,1.91-1.74,3.05-1.74.89,0,1.66.3,2.55.84.95.55,1.61.85,2.46.85,1.03,0,1.85-.47,2.54-1.19l.19.18c-.79,1.15-1.91,1.74-3.05,1.74-.89,0-1.66-.3-2.55-.84-.95-.55-1.61-.85-2.46-.85Z"/><path class="cls-1" d="m268.58,18.07v1.02h-5.4v-.82c.72-.72,1.42-1.48,1.99-2.08,1.33-1.39,1.88-2.41,1.88-3.47s-.62-1.79-1.61-1.79c-.19,0-.44.02-.71.08l-.26.96c-.16.6-.38.83-.72.83-.28,0-.5-.14-.64-.4.18-1.34,1.33-1.99,2.64-1.99,1.69,0,2.45.92,2.45,2.24,0,1.13-.61,2.03-2.63,3.93-.37.36-.94.9-1.54,1.46h4.53Z"/><path class="cls-1" d="m274.79,10.76c-2.51.6-3.74,1.92-3.95,3.97.55-.55,1.24-.85,1.96-.85,1.43,0,2.39,1.01,2.39,2.58,0,1.79-1.1,2.79-2.69,2.79-1.75,0-2.84-1.36-2.84-3.67,0-2.59,1.81-4.79,5.06-5.16l.07.34Zm-3.98,4.64c0,2.25.65,3.35,1.73,3.35.9,0,1.52-.71,1.52-2.15s-.62-2-1.56-2c-.56,0-1.18.16-1.69.61v.19Z"/><path class="cls-1" d="m276.79,13.53c0-.5.4-.91.89-.91s.9.41.9.91c0,.47-.4.88-.9.88s-.89-.41-.89-.88Zm0,4.85c0-.5.4-.91.89-.91s.9.41.9.91c0,.47-.4.88-.9.88s-.89-.41-.89-.88Z"/><path class="cls-1" d="m285.71,14.85c0,3.24-1.36,4.4-2.73,4.4s-2.76-1.16-2.76-4.4,1.34-4.43,2.76-4.43,2.73,1.2,2.73,4.43Zm-2.73,3.9c.8,0,1.56-.82,1.56-3.9s-.76-3.91-1.56-3.91-1.6.82-1.6,3.91.76,3.9,1.6,3.9Z"/><path class="cls-1" d="m292.29,14.85c0,3.24-1.36,4.4-2.73,4.4s-2.76-1.16-2.76-4.4,1.34-4.43,2.76-4.43,2.73,1.2,2.73,4.43Zm-2.73,3.9c.8,0,1.56-.82,1.56-3.9s-.76-3.91-1.56-3.91-1.6.82-1.6,3.91.76,3.9,1.6,3.9Z"/><path class="cls-1" d="m293.77,8.9c1.66,1.03,3.27,2.73,3.27,5.62s-1.62,4.59-3.27,5.62l-.2-.23c1.39-1.14,2.59-2.85,2.59-5.4s-1.2-4.26-2.59-5.4l.2-.23Z"/></g></g><g><polyline class="cls-2" points="335.12 30.93 335.12 38.38 320.21 38.38 320.21 23.47 327.66 23.47"/><polyline class="cls-2" points="330.16 20.97 337.62 20.97 337.62 28.43"/><line class="cls-2" x1="337.62" y1="20.97" x2="328.59" y2="30"/></g></g></g></svg>