<?xml version="1.0" encoding="UTF-8"?><svg id="_レイヤー_2" xmlns="http://www.w3.org/2000/svg" viewBox="0 0 160 160"><defs><style>.cls-1{fill:#fffaee;}.cls-2,.cls-3{fill:#233e79;}.cls-4{fill:#261413;}.cls-4,.cls-3,.cls-5,.cls-6,.cls-7{fill-rule:evenodd;}.cls-5{fill:#bdada8;}.cls-6{fill:#fce6e0;}.cls-7{fill:#fefefe;}</style></defs><g id="_レイヤー_1-2"><g><path class="cls-2" d="m80,160c-21.37,0-41.46-8.32-56.57-23.43C8.32,121.46,0,101.37,0,80S8.32,38.54,23.43,23.43C38.54,8.32,58.63,0,80,0s41.46,8.32,56.57,23.43c15.11,15.11,23.43,35.2,23.43,56.57s-8.32,41.46-23.43,56.57c-15.11,15.11-35.2,23.43-56.57,23.43Z"/><circle class="cls-1" cx="80" cy="80" r="75.27"/><g><path class="cls-7" d="m80,11.03c38.09,0,68.97,30.88,68.97,68.97s-30.88,68.97-68.97,68.97S11.03,118.09,11.03,80,41.91,11.03,80,11.03h0Z"/><path class="cls-4" d="m77.31,31.94c15.98-2.09,26.72,6.3,26.16,26-.76,26.79-10.57,30.57-21.82,30.88-14.85.4-21.56-12.23-22.45-25.15-1.05-15.31,5.48-31.69,18.11-31.72h0Z"/><path class="cls-6" d="m68.72,79.69s2.59,18.03-.42,23.09c-4.97,6.32-13.23,8.13-25,13.86,5.87,13.68,12.17,23.49,18.6,29.93,5.77,1.57,11.84,2.41,18.1,2.41,8.5,0,16.64-1.54,24.16-4.36,6.06-6.67,11.54-15.97,16.05-27.24-18.24-10.35-19.18-9.67-23.73-14.55-2.51-2.68-3.44-9.52-3.82-24.17l-23.94,1.03h0Z"/><path class="cls-5" d="m69.02,82.05l23.89,3.37c.49,10.07,1.49,15.18,3.57,17.41.06.06.12.12.17.18-16.48,5.18-24.54-5.75-27.08-14.83-.15-2.39-.37-4.58-.55-6.13h0Z"/><path class="cls-6" d="m61.48,62.19c-1.8,0-2.88,4.06-1.86,7.99,1.02,3.93,1.58,7.46,3.38,7.46,1.8,0,1.01-2.54,1.02-7.13.01-4.59-.73-8.31-2.53-8.32h0Z"/><path class="cls-5" d="m62.05,63.65c-.81-.1-1.33,2.04-1.53,3.14-.2,1.09-.17,4.01.45,5.51.5,1.21,1.26,4.43,1.62.56.09-.99-.42-1.2-.62-2.42-.2-1.23.4-2.02.7-2.36,1.16-1.3.16-4.33-.62-4.42h0Z"/><path class="cls-6" d="m102.25,62.24c1.8,0,2.86,4.08,1.82,8-1.04,3.92-1.61,7.45-3.42,7.44-1.8,0-.99-2.55-.98-7.13.01-4.59.77-8.31,2.58-8.3h0Z"/><path class="cls-5" d="m101.68,63.7c.81-.09,1.32,2.05,1.51,3.15.19,1.09.15,4.01-.48,5.5-.51,1.2-1.28,4.43-1.62.55-.09-.99.43-1.2.64-2.42.21-1.22-.39-2.02-.69-2.36-1.16-1.31-.14-4.33.64-4.42h0Z"/><path class="cls-6" d="m81.77,38.47c20.58,0,18.8,12.24,18.75,28.99-.05,16.75-11.48,27.9-19.11,27.23-6.88-.24-18.37-9.96-18.32-26.72.04-12.81,1.3-24.05,10.19-28.29,2.74-1.31,3.63-1.21,8.48-1.21h0Z"/><path class="cls-4" d="m77.36,39.32c22.28-.16,24.14-20.99,3.43-20.92-10.44.02-23.88,13.23-3.43,20.92h0Z"/><path class="cls-3" d="m131.65,125.7c-1.82-4.1-6.36-8.06-10.64-9.77-6.68-3.24-11.5-4.36-17.62-7.92-7.41,30.6-40.73,21.58-42.05.15-8.79,3.22-10.09,4.2-19.17,7.72,0,0-9.06,2.95-11.92,11.87,12.55,13.08,30.2,21.22,49.76,21.22,20.56,0,39.01-9,51.65-23.27h0Z"/><path class="cls-4" d="m64.05,66.06c2.53-10.05,19.19-9.59,26.35-21.02,9.76,9.95,7.84,11.23,9.09,21.18,2.01-3.17,2.34-9.24,2.2-11.54-.35-11.06-9.88-21.34-20.12-20.06-14.61,2.9-17.16,8.13-21.72,25.74,2.76,1.78,3.05,2.59,4.2,5.71h0Z"/></g></g></g></svg>