<?xml version="1.0" encoding="UTF-8"?><svg id="_レイヤー_2" xmlns="http://www.w3.org/2000/svg" viewBox="0 0 160 160"><defs><style>.cls-1{fill:#fffaee;}.cls-2,.cls-3{fill:#233e79;}.cls-4{fill:#261413;}.cls-4,.cls-3,.cls-5,.cls-6,.cls-7,.cls-8,.cls-9{fill-rule:evenodd;}.cls-5{fill:#bdada8;}.cls-6{fill:#7f7f7e;}.cls-7{fill:#333533;}.cls-8{fill:#fce6e0;}.cls-9{fill:#fefefe;}</style></defs><g id="_レイヤー_1-2"><g><path class="cls-2" d="m80,160c-21.37,0-41.46-8.32-56.57-23.43C8.32,121.46,0,101.37,0,80S8.32,38.54,23.43,23.43C38.54,8.32,58.63,0,80,0s41.46,8.32,56.57,23.43c15.11,15.11,23.43,35.2,23.43,56.57s-8.32,41.46-23.43,56.57c-15.11,15.11-35.2,23.43-56.57,23.43Z"/><circle class="cls-1" cx="80" cy="80" r="75.27"/><g><path class="cls-9" d="m80,11.03c38.09,0,68.97,30.88,68.97,68.97s-30.88,68.97-68.97,68.97S11.03,118.09,11.03,80,41.91,11.03,80,11.03h0Z"/><path class="cls-7" d="m116.31,111.14c.07.01.14.03.22.04-.08-.01-.14-.03-.22-.04h0Z"/><path class="cls-7" d="m47.27,109.4c.08-.03.16-.06.24-.08-.08.03-.16.06-.24.08h0Z"/><path class="cls-8" d="m108.21,107.05c-3.12-1.44-9.63-3.47-10.31-8.31-.39-2.76-.41-5.45-.42-6.04-.02-2.64.06-5.33.3-8.16-3.53,6.57-9.36,10.77-17.82,10.59-5.93-.12-11.15-5.06-14.55-11.6.45,3.45.69,6.74.78,10.01,0,.15-.03,1.2-.07,2.32-.17,4.83-5.5,8.3-10.23,9.94,12.12,21.13,39.22,21.58,52.31,1.23h0Z"/><path class="cls-8" d="m80.01,95.23c8.47.18,14.3-4.02,17.82-10.59,1.22-2.27,2.16-4.82,2.84-7.57-.03-1.44.45-3.74.65-6.83.15-2.36.48-4.51.98-6.19,0-.01,0-.02,0-.04-.07.09-.13.18-.21.27-.37-5.95-2.39-16.31-3.24-18.86-1.92-1.59-4.28-4.84-24.46-4.24-2.35-.68-8.77,4.2-8.85,4.33-.71,1.13-1.69,3.39-2.28,6.73-1.97,11.1-.98,7.98-1.63,12.05-.11-.07-.38-.38-.74-.77.03.26.05.52.08.78.41,1.61.67,3.58.78,5.72.09,1.68.27,3.12.4,4.32.69,3.23,1.82,6.43,3.32,9.31,3.39,6.54,8.61,11.47,14.55,11.6h0Z"/><path class="cls-4" d="m60.66,63.28c.08.08.15.16.22.24.36.39.63.7.74.77.65-4.07-.34-.95,1.63-12.05.59-3.34,1.57-5.6,2.28-6.73,1.35-2.12,32.76,3.8,32.86,3.88.85,2.55,2.53,9.81,3.7,14.9.07-.09.14-.18.21-.27,0,0,0-.01.01-.02.66-2.2,1.64-3.58,2.96-3.49.13,0,.26.04.38.08.42-4.5.27-9.36.06-14.31.13-14.3-15.85-19.92-27.33-19.2-20.15,1.26-23.9,15.04-20.82,33.46,1.84,0,2.63,1.33,3.1,2.75h0Z"/><path class="cls-6" d="m99.91,47.3s-.03.05-.05.07c.03-.01.04-.04.05-.07h0Z"/><path class="cls-6" d="m98.17,49.28c.08.04.15.07.22.1-.01-.03-.09-.06-.22-.1h0Z"/><path class="cls-6" d="m62.54,56.66s-.05,0-.08-.01c.02.01.05.02.08.01h0Z"/><path class="cls-8" d="m61.11,64.29c-.09-.36-.19-.7-.3-1.02-.64-1.92-1.55-3.11-2.77-3.04-.31.02-.59.12-.85.29-1.72,1.14-2.38,5.39-1,9.41,1.59,4.63,2.55,8.81,4.88,8.68,1.62-.09,1.53-1.56,1.23-4.3-.13-1.2-.31-2.64-.4-4.32-.12-2.14-.38-4.11-.78-5.72h0Zm-1.88,5.78c.34,1.45,1.02,1.66.97,2.86-.2,4.66-1.39.85-2.13-.55-.91-1.74-1.14-5.24-.96-6.56.18-1.32.71-3.92,1.76-3.87,1.01.05,2.52,3.6,1.1,5.25-.37.43-1.09,1.42-.74,2.88h0Z"/><path class="cls-5" d="m58.88,61.94c-1.05-.05-1.58,2.55-1.76,3.87-.18,1.32.06,4.82.96,6.56.73,1.41,1.93,5.22,2.13.55.05-1.2-.63-1.4-.97-2.86-.35-1.45.37-2.44.74-2.88,1.42-1.65-.09-5.2-1.1-5.25h0Z"/><path class="cls-8" d="m102.31,64s0,.03-.01.05c-.5,1.68-.82,3.83-.98,6.19-.2,3.09-.68,5.38-.65,6.83.03,1.12.36,1.73,1.38,1.79,2.33.15,3.34-4.02,4.97-8.63,1.54-4.35.68-9.01-1.38-9.65-.12-.04-.25-.07-.38-.08-1.32-.09-2.3,1.29-2.96,3.49h0Zm2.8,8.64c-.75,1.4-1.98,5.2-2.13.53-.04-1.2.64-1.4,1-2.85.36-1.45-.35-2.45-.72-2.88-1.4-1.66.15-5.2,1.16-5.24,1.05-.04,1.56,2.56,1.72,3.89.16,1.33-.11,4.82-1.03,6.55h0Z"/><path class="cls-5" d="m104.42,62.2c-1.01.04-2.55,3.58-1.16,5.24.37.44,1.08,1.43.72,2.88-.36,1.45-1.04,1.65-1,2.85.15,4.66,1.39.87,2.13-.53.92-1.73,1.19-5.22,1.03-6.55-.16-1.33-.67-3.93-1.72-3.89h0Z"/><path class="cls-5" d="m99.4,101.91c-15.28,2-31.15-9.35-33.92-18.27v.02s.01,0,.01,0h0s0,0,0,0h0s0,0,0,0h0s0,0,0,0h0s0,0,0,0h0s0,0,0,0h0s0,0,0,0h0s0,0,0,0h0s0,0,0,0h0s0,0,0,0h0s0,0,0,0h0s0,0,0,0c.03.05.06.11.09.16h0s0,0,0,0h0s0,0,0,0v.02s.01,0,.01,0h0s0,0,0,0h0s0,.01,0,.01h0s0,.01,0,.01h0s0,0,0,0h0s0,0,0,0h0s0,0,0,0h0s0,0,0,0h0s0,0,0,0h0s0,0,0,0h0s0,0,0,0h0s0,0,0,0h0s0,0,0,0h0s0,0,0,0c.02.04.05.09.07.13h0s0,.02,0,.02h0s.01.03.01.03h0s0,0,0,0h0s0,0,0,0h0s.02.03.02.03h0s0,0,0,0h0s0,0,0,0h0s0,0,0,0h0s0,0,0,0h0s0,0,0,0h0s0,0,0,0h0s0,0,0,0h0s0,0,0,0h0s.06.12.06.12h0s0,0,0,0h0s0,0,0,0h0s0,0,0,0h0s0,0,0,0v.02s.01,0,.01,0h0s0,0,0,0h0s0,0,0,0h0s0,0,0,0h0s0,0,0,0h0s0,0,0,0h0s0,.01,0,.01h0s0,0,0,0h0s0,0,0,0h0s0,0,0,0h0s0,0,0,0h0s0,.01,0,.01h0s.08.15.08.15h0s0,0,0,0h0s0,0,0,0h0s0,.02,0,.02h0s0,0,0,0h0s0,.01,0,.01l.03.05h0s0,.01,0,.01h0s0,0,0,0h0s0,0,0,0h0s0,0,0,0h0s0,0,0,0h0s0,0,0,0h0s0,0,0,0h0s.07.12.07.12h0s0,0,0,0h0s.02.04.02.04h0s0,0,0,0h0s0,0,0,0h0s0,0,0,0h0s0,0,0,0h0s0,0,0,0h0s0,0,0,0h0s0,0,0,0h0s0,0,0,0h0s0,0,0,0h0s0,0,0,0h0s0,0,0,0h0s0,0,0,0c.03.05.06.1.09.15h0s0,0,0,0h0s.01.03.01.03h0s0,0,0,0h0s0,0,0,0h0s0,0,0,0h0s0,0,0,0h0s0,0,0,0h0s0,0,0,0h0s0,0,0,0h0s0,0,0,0h0s0,0,0,0h0s0,0,0,0h0s0,0,0,0h0s0,0,0,0h0s0,0,0,0h0s0,0,0,0c.03.04.05.09.08.13h0s0,0,0,0h0s0,0,0,0v.02s.01,0,.01,0h0s0,0,0,0h0s0,0,0,0h0s0,.01,0,.01l.03.04h0s0,.01,0,.01h0s0,0,0,0h0s0,0,0,0h0s0,0,0,0h0s0,0,0,0h0s.08.13.08.13h0s0,0,0,0h0s0,0,0,0l.02.04h0s0,0,0,0h0s0,0,0,0h0s0,0,0,0h0s0,.01,0,.01h0s0,0,0,0h0s0,0,0,0h0s0,.01,0,.01h0s0,0,0,0h0s0,0,0,0h0s0,0,0,0h0s0,0,0,0h0s0,0,0,0h0s0,0,0,0h0s0,0,0,0c.02.04.05.07.07.11h0s0,0,0,0h0s0,0,0,0h0s.03.05.03.05h0s0,0,0,0h0s0,0,0,0h0s0,0,0,0h0s0,0,0,0h0s0,0,0,0h0s0,0,0,0h0s0,0,0,0h0s0,0,0,0h0s0,0,0,0h0s0,0,0,0h0s0,0,0,0h0s0,0,0,0h0s0,0,0,0h0s0,0,0,0h0s0,0,0,0h0s.07.11.07.11h0s0,0,0,0h0s0,0,0,0h0s.03.05.03.05h0s0,0,0,0h0s0,0,0,0h0s0,0,0,0h0s0,0,0,0h0s0,0,0,0h0s0,0,0,0h0s0,0,0,0h0s0,0,0,0h0s0,0,0,0h0s0,0,0,0h0s0,0,0,0h0s0,0,0,0h0s0,0,0,0h0s0,0,0,0h0s0,0,0,0l.07.1h0s0,0,0,0h0s0,0,0,0h0s0,0,0,0l.02.03h0s0,0,0,0h0s0,0,0,0h0s0,0,0,0h0s0,0,0,0h0s0,0,0,0h0s0,.01,0,.01h0s0,0,0,0h0s0,0,0,0h0s0,0,0,0h0s0,0,0,0h0s0,0,0,0h0s0,0,0,0h0s0,0,0,0h0s0,0,0,0h0s0,0,0,0l.07.11h0s0,0,0,0h0s0,0,0,0h0s.02.03.02.03h0s0,0,0,0h0s0,0,0,0h0s0,0,0,0h0s0,0,0,0h0s0,0,0,0h0s0,0,0,0h0s0,0,0,0h0s0,0,0,0h0s0,0,0,0h0s0,0,0,0h0s0,0,0,0h0s0,0,0,0h0s0,0,0,0h0s.1.14.1.14h0s0,0,0,0l.02.03h0s0,0,0,0h0s0,0,0,0h0s0,0,0,0h0s0,0,0,0h0s0,.01,0,.01h0s0,0,0,0l.02.03h0s0,0,0,0h0s0,0,0,0h0s0,0,0,0h0s0,0,0,0h0s0,0,0,0h0s0,0,0,0h0s.07.1.07.1h0s0,0,0,0h0s0,0,0,0h0s.02.03.02.03h0s0,0,0,0h0s0,0,0,0h0s0,0,0,0h0s.03.05.03.05h0s0,0,0,0h0s0,0,0,0h0s0,.01,0,.01h0s0,0,0,0h0s0,0,0,0h0s0,0,0,0h0s0,0,0,0l.07.09h0s0,0,0,0h0s.03.04.03.04h0s0,0,0,0h0s0,0,0,0h0s0,0,0,0h0s0,0,0,0h0s0,0,0,0h0s0,0,0,0h0s0,0,0,0h0s0,0,0,0h0s0,0,0,0h0s0,0,0,0h0s0,0,0,0h0s0,0,0,0h0s0,0,0,0h0s0,0,0,0h0s0,0,0,0h0s0,.01,0,.01h0s.04.06.06.09h0s0,0,0,0h0s0,0,0,0l.04.05h0s0,0,0,0h0s0,0,0,0h0s0,0,0,0h0s0,0,0,0h0s0,0,0,0h0s0,0,0,0h0s0,0,0,0h0s0,0,0,0h0s0,0,0,0h0s0,0,0,0h0s0,0,0,0h0s0,0,0,0h0s0,0,0,0h0s.06.08.09.12h0s0,0,0,0l.02.02h0s0,0,0,0h0s0,0,0,0h0s0,0,0,0h0s0,.01,0,.01l.04.05h0s0,0,0,0h0s0,0,0,0h0s0,0,0,0h0s0,0,0,0h0s0,0,0,0h0s0,0,0,0h0s0,0,0,0c.02.03.05.06.07.09h0s0,0,0,0h0s.03.04.03.04h0s0,0,0,0h0s0,0,0,0h0s0,0,0,0h0s0,0,0,0h0s0,0,0,0h0s0,0,0,0h0s0,0,0,0h0s0,0,0,0h0s0,0,0,0h0s0,0,0,0h0s0,0,0,0h0s0,0,0,0h0s0,0,0,0h0s0,0,0,0h0s0,0,0,0h0s0,0,0,0h0s0,0,0,0h0s0,0,0,0l.06.07h0s0,0,0,0h0s.04.05.04.05l.07.08h0s0,0,0,0h0s0,0,0,0h0s0,0,0,0h0s0,0,0,0h0s.07.08.07.08h0s0,0,0,0h0s0,0,0,0l.03.04h0s0,0,0,0h0s0,0,0,0h0s0,0,0,0h0s0,0,0,0h0s0,0,0,0l.03.04h0s0,0,0,0h0s0,0,0,0h0s0,0,0,0h0s0,0,0,0h0s0,0,0,0h0s0,0,0,0h0s.07.08.07.08h0s0,0,0,0h0s0,0,0,0l.05.05h0s0,0,0,0h0s0,0,0,0h0s0,0,0,0h0s0,0,0,0h0s0,0,0,0h0s0,0,0,0h0s0,0,0,0h0s0,0,0,0h0s0,0,0,0h0s0,0,0,0h0s0,0,0,0h0s0,0,0,0h0s0,0,0,0h0s0,0,0,0h0s0,0,0,0h0s.05.06.07.09h0s0,0,0,0l.05.05h0s0,0,0,0h0s0,0,0,0h0s0,0,0,0h0s0,0,0,0h0s0,0,0,0h0s0,0,0,0h0s0,0,0,0h0s0,0,0,0h0s0,0,0,0h0s0,0,0,0h0s0,0,0,0h0s0,0,0,0h0s0,0,0,0h0s0,0,0,0h0s0,0,0,0h0s0,0,0,0h0s0,0,0,0h0s.04.05.07.08h0s0,0,0,0l.05.05h0s0,0,0,0h0s0,0,0,0h0s0,0,0,0h0s0,0,0,0h0s0,0,0,0h0s0,0,0,0h0s0,0,0,0h0s0,0,0,0h0s0,0,0,0h0s0,0,0,0h0s0,0,0,0h0s0,0,0,0h0s0,0,0,0h0s0,0,0,0h0s0,0,0,0h0s0,0,0,0h0s0,0,0,0h0s.04.05.06.07h0s0,0,0,0h0s0,0,0,0l.06.06h0s0,0,0,0h0s0,0,0,0h0s0,0,0,0h0s0,0,0,0h0s0,0,0,0h0s0,0,0,0h0s0,0,0,0h0s0,0,0,0h0s0,0,0,0h0s0,0,0,0h0s0,0,0,0h0s0,0,0,0h0s0,0,0,0h0s0,0,0,0h0s0,0,0,0h0s0,0,0,0h0s0,0,0,0h0s0,0,0,0c.02.02.04.04.06.06h0s0,0,0,0h0s0,0,0,0h0s.04.04.04.04h0s0,0,0,0h0s0,0,0,0h0s0,0,0,0h0s0,0,0,0h.01s0,.01,0,.01h0s0,0,0,0h0s0,.01,0,.01h.01s0,.01,0,.01h0s0,0,0,0h0s0,0,0,0h0s0,0,0,0h0s0,0,0,0h0s0,0,0,0h0s.06.07.06.07h0s0,0,0,0h0s.04.04.04.04h0s0,0,0,0h0s0,0,0,0l.08.08h0s0,0,0,0h0s0,0,0,0h0s0,0,0,0h0s0,0,0,0h0s0,0,0,0h0s0,0,0,0l.05.05h0s0,0,0,0h0s.06.06.06.06h0s0,0,0,0h0s0,0,0,0h0s0,0,0,0h0s0,0,0,0h0s0,0,0,0h0s0,0,0,0h0s0,0,0,0h0s0,0,0,0h0s0,0,0,0h0s0,0,0,0h0s0,0,0,0h0s0,0,0,0h0s0,0,0,0h0s0,0,0,0h0s0,0,0,0h0s0,0,0,0l.08.07h0s0,0,0,0l.05.05h0s0,0,0,0h0s0,0,0,0h0s0,0,0,0h0s0,0,0,0h0s.02.02.02.02h0s0,0,0,0h0s0,0,0,0l.02.02h0s0,0,0,0h0s0,0,0,0h0s0,0,0,0h0s0,0,0,0h0s0,0,0,0h0s0,0,0,0h0s.05.04.05.04h0s0,0,0,0h0s0,0,0,0l.06.05h0s0,0,0,0h0s0,0,0,0h0s0,0,0,0h0s0,0,0,0h0s0,0,0,0h0s0,0,0,0h0s0,0,0,0h0s0,0,0,0h0s0,0,0,0h0s0,0,0,0h0s0,0,0,0h0s0,0,0,0h0s0,0,0,0h0s0,0,0,0h0s0,0,0,0h0s0,0,0,0h0s0,0,0,0h0s0,0,0,0c.02.02.05.04.07.06h0s.05.05.05.05h0s0,0,0,0h0s0,0,0,0h0s0,0,0,0h0s0,0,0,0l.07.06h0s0,0,0,0h0s0,0,0,0h0s0,0,0,0h0s0,0,0,0h0s.05.04.05.04h0s0,0,0,0h0s0,0,0,0l.06.06h0s0,0,0,0h0s0,0,0,0h0s0,0,0,0h0s0,0,0,0h0s0,0,0,0h0s0,0,0,0h0s0,0,0,0h0s0,0,0,0h0s.01.01.01.01h0s0,0,0,0h0s0,0,0,0h0s0,0,0,0h0s0,0,0,0h0s0,0,0,0h0s0,0,0,0h0s0,0,0,0h0s.05.04.05.04h0s0,0,0,0h0s0,0,0,0l.08.06h0s0,0,0,0h0s0,0,0,0h0s0,0,0,0h0s0,0,0,0h.01s0,.01,0,.01h0s0,0,0,0h0s.02.02.02.02h0s0,0,0,0h0s0,0,0,0h0s0,0,0,0h0s0,0,0,0h0s0,0,0,0h0s0,0,0,0h0s0,0,0,0h0s.04.04.04.04h0s0,0,0,0h0s0,0,0,0l.05.04h0s0,0,0,0h0s0,0,0,0h0s0,0,0,0h0s0,0,0,0h0s0,0,0,0h0s0,0,0,0h0s0,0,0,0h0s0,0,0,0h0s0,0,0,0h0s0,0,0,0h0s0,0,0,0h0s0,0,0,0h0s0,0,0,0h0s0,0,0,0h0s0,0,0,0h0s0,0,0,0h0s0,0,0,0h0s0,0,0,0h0s0,0,0,0h0s0,0,0,0h0s0,0,0,0h0s0,0,0,0h0s0,0,0,0h0s0,0,0,0h0s0,0,0,0h0s0,0,0,0h0s.05.04.05.04h0s0,0,0,0h0s0,0,0,0h0s0,0,0,0h0s0,0,0,0h0s0,0,0,0h0s0,0,0,0h0s.04.03.04.03h0s0,0,0,0h0s0,0,0,0h0s0,0,0,0h0s0,0,0,0h0s0,0,0,0h0s0,0,0,0h0s0,0,0,0h0s0,0,0,0h0s0,0,0,0h0s0,0,0,0h0s0,0,0,0h0s0,0,0,0h0s0,0,0,0h0s0,0,0,0h0s0,0,0,0h0s0,0,0,0h0s0,0,0,0h0s0,0,0,0h0s0,0,0,0h0s0,0,0,0h0s0,0,0,0h0s0,0,0,0h0s0,0,0,0h0s0,0,0,0h0s0,0,0,0h0s0,0,0,0h0s0,0,0,0h0s0,0,0,0h0s0,0,0,0h0s.05.04.05.04h0s0,0,0,0l.07.05h0s0,0,0,0h0s0,0,0,0h0s0,0,0,0h0s0,0,0,0h0s0,0,0,0h0s0,0,0,0l.03.02h0s.02.02.02.02h0s0,0,0,0h0s0,0,0,0h0s0,0,0,0h0s0,0,0,0h0s0,0,0,0h0s0,0,0,0h0s0,0,0,0l.04.03h0s0,0,0,0h0s0,0,0,0h0s0,0,0,0h0s0,0,0,0h0s.04.03.04.03h0s0,0,0,0h0s0,0,0,0h0s0,0,0,0h0s0,0,0,0h0s0,0,0,0h0s0,0,0,0h0s0,0,0,0h0s0,0,0,0h0s0,0,0,0h0s0,0,0,0h0s0,0,0,0h0s0,0,0,0h0s0,0,0,0h0s0,0,0,0h0s0,0,0,0h.01s0,0,0,0h0s.02.02.02.02h0s.02.01.02.01h0s0,0,0,0h0s0,0,0,0h0s0,0,0,0h0s0,0,0,0h0s0,0,0,0h0s0,0,0,0h0s0,0,0,0h0s.05.04.05.04l.07.05h0s0,0,0,0h0s0,0,0,0h0s0,0,0,0h0s.06.04.09.06h0s0,0,0,0h0s0,0,0,0h0s0,0,0,0h0s0,0,0,0h0s.03.02.03.02h0s0,0,0,0h0s0,0,0,0h0s0,0,0,0h0s0,0,0,0h0s.03.02.03.02h0s0,0,0,0h0s0,0,0,0h0s0,0,0,0h0s0,0,0,0h0s0,0,0,0h0s0,0,0,0h0s0,0,0,0h0s0,0,0,0h0s0,0,0,0h0s0,0,0,0h0s0,0,0,0h0s0,0,0,0h0s0,0,0,0h0s0,0,0,0h0s0,0,0,0h0s0,0,0,0h0s0,0,0,0h0s0,0,0,0h0s0,0,0,0h0s0,0,0,0h0s0,0,0,0h0s.02.01.02.01h0s0,0,0,0h.01s0,0,0,0h0s0,0,0,0h0s0,0,0,0h0s0,0,0,0h0s0,0,0,0h0s0,0,0,0h0s0,0,0,0l.04.02h0s0,0,0,0h0s0,0,0,0h0s0,0,0,0h0s0,0,0,0h0s0,0,0,0l.03.02h0s0,0,0,0h0s0,0,0,0h0s0,0,0,0h0s0,0,0,0h0s0,0,0,0h0s0,0,0,0h0s0,0,0,0h0s0,0,0,0h0s0,0,0,0h0s0,0,0,0h0s0,0,0,0h0s0,0,0,0h0s0,0,0,0h0s0,0,0,0h0s0,0,0,0h0s0,0,0,0h0s0,0,0,0h0s.1.06.1.06h0s0,0,0,0h0s0,0,0,0h0s0,0,0,0h0s.02.02.02.02h0s0,0,0,0h0s0,0,0,0h0s0,0,0,0c.02.01.04.02.05.03h0s0,0,0,0h0s0,0,0,0h0s0,0,0,0h0s0,0,0,0h0s0,0,0,0h0s0,0,0,0h0s0,0,0,0h0s0,0,0,0h0s0,0,0,0h0s0,0,0,0h0s0,0,0,0h0s0,0,0,0h0s0,0,0,0h0s0,0,0,0h0s0,0,0,0h0s0,0,0,0h0s0,0,0,0h0s.07.05.07.05h0s0,0,0,0h0s0,0,0,0h0s0,0,0,0h0s0,0,0,0l.03.02h0s0,0,0,0h0s0,0,0,0h0s0,0,0,0l.08.04h0s0,0,0,0h0s0,0,0,0h0s0,0,0,0h0s0,0,0,0h0s0,0,0,0h0s0,0,0,0h0s0,0,0,0h0s0,0,0,0h0s0,0,0,0h0s0,0,0,0h0s0,0,0,0h0s0,0,0,0h0s0,0,0,0h0s0,0,0,0h0s0,0,0,0h0s0,0,0,0h0s0,0,0,0h0s.02.01.02.01h0s0,0,0,0h0s0,0,0,0h0s0,0,0,0h0s0,0,0,0h0s0,0,0,0h0s0,0,0,0l.03.02h0s0,0,0,0h0s0,0,0,0h0s.06.04.06.04h0s0,0,0,0h0s0,0,0,0h0s0,0,0,0h0s0,0,0,0h0s0,0,0,0h0s0,0,0,0h0s0,0,0,0h0s0,0,0,0h0s0,0,0,0h0s0,0,0,0h0s0,0,0,0h0s0,0,0,0h0s0,0,0,0h0s0,0,0,0h0s0,0,0,0h0s0,0,0,0h0s0,0,0,0h0s0,0,0,0h0s0,0,0,0h0s0,0,0,0h0s0,0,0,0h0s0,0,0,0h0s0,0,0,0h0s0,0,0,0h.01s0,0,0,0h0s0,0,0,0h0s0,0,0,0h0s0,0,0,0h0s0,0,0,0h0s0,0,0,0h0s0,0,0,0h0s0,0,0,0h0s0,0,0,0h0s0,0,0,0h0s.02,0,.02,0h0s0,0,0,0h0s0,0,0,0h0s0,0,0,0l.06.03h0s0,0,0,0h0s0,0,0,0h0s0,0,0,0h0s0,0,0,0h0s0,0,0,0h0s0,0,0,0h0s0,0,0,0h0s0,0,0,0h0s0,0,0,0h0s0,0,0,0h0s0,0,0,0h0s0,0,0,0h0s0,0,0,0h0s0,0,0,0h0s0,0,0,0h0s0,0,0,0h0s0,0,0,0h0s0,0,0,0h0s0,0,0,0h0s0,0,0,0h0s0,0,0,0h0s0,0,0,0h0s0,0,0,0h0s0,0,0,0h0s0,0,0,0h0s0,0,0,0h0s0,0,0,0h0s0,0,0,0h0s0,0,0,0h0s0,0,0,0h0s0,0,0,0h0s0,0,0,0h0s.02.01.04.02h0s0,0,0,0h0s0,0,0,0h0s0,0,0,0h0s0,0,0,0h0s0,0,0,0h0s.05.03.05.03h0s0,0,0,0h0s0,0,0,0h0s0,0,0,0h0s0,0,0,0h0s0,0,0,0h0s0,0,0,0h0s0,0,0,0h0s0,0,0,0h0s0,0,0,0h0s0,0,0,0h0s0,0,0,0h0s0,0,0,0h.01s0,0,0,0l.08.04h0s0,0,0,0h0s0,0,0,0h0s0,0,0,0h0s0,0,0,0h0s.03.02.03.02h0s0,0,0,0h0s0,0,0,0h0s0,0,0,0h0s0,0,0,0l.05.03h0s0,0,0,0h0s0,0,0,0h0s0,0,0,0h0s0,0,0,0h0s0,0,0,0h0s0,0,0,0h0s0,0,0,0h0s0,0,0,0h0s0,0,0,0h0s0,0,0,0h0s.11.05.11.05h0s0,0,0,0h0s0,0,0,0h0s0,0,0,0h0s0,0,0,0h.02s0,0,0,0h0s0,0,0,0h0s.06.03.06.03h0s0,0,0,0h0s0,0,0,0h0s0,0,0,0h0s0,0,0,0h0s0,0,0,0h0s0,0,0,0h0s0,0,0,0h0s0,0,0,0h0s0,0,0,0h0s0,0,0,0h0s0,0,0,0h0s0,0,0,0h0s0,0,0,0h0s0,0,0,0h0s0,0,0,0h0s0,0,0,0h0s0,0,0,0h0s0,0,0,0h0s0,0,0,0h0s.05.03.05.03h0s0,0,0,0h0s0,0,0,0h0s0,0,0,0h0s0,0,0,0h0s0,0,0,0h0s0,0,0,0h.03s0,.01,0,.01h0s0,0,0,0h0s0,0,0,0h0s0,0,0,0h0s.07.03.07.03h0s0,0,0,0h0s0,0,0,0h0s0,0,0,0h0s0,0,0,0h0s0,0,0,0h0s0,0,0,0h0s0,0,0,0h0s0,0,0,0h0s0,0,0,0h0s0,0,0,0h0s0,0,0,0h0s0,0,0,0h0s0,0,0,0h0s0,0,0,0h0s0,0,0,0h0s0,0,0,0l.05.02h0s0,0,0,0h0s0,0,0,0h0s0,0,0,0h0s0,0,0,0h0s0,0,0,0h0s0,0,0,0h0s.02,0,.02,0h0s0,0,0,0h0s0,0,0,0h0s0,0,0,0c.02.01.05.02.07.03h0s0,0,0,0h0s0,0,0,0h0s0,0,0,0h0s0,0,0,0h0s0,0,0,0h0s0,0,0,0h0s0,0,0,0h0s0,0,0,0h0s0,0,0,0h0s0,0,0,0h0s0,0,0,0h0s0,0,0,0h0s0,0,0,0h0s0,0,0,0h0s0,0,0,0h0s0,0,0,0h0s0,0,0,0h0s0,0,0,0h0s0,0,0,0h0s0,0,0,0h0s0,0,0,0h0s0,0,0,0h0s0,0,0,0h0s0,0,0,0h0s0,0,0,0h0s0,0,0,0h0s0,0,0,0h0s0,0,0,0h0s0,0,0,0h0s0,0,0,0h0s0,0,0,0h0s0,0,0,0h0s0,0,0,0h0s.02,0,.02,0h0s0,0,0,0h0s0,0,0,0h0s0,0,0,0l.09.04h0s0,0,0,0h0s0,0,0,0h0s0,0,0,0h0s0,0,0,0h0s0,0,0,0h0s0,0,0,0h0s0,0,0,0h0s0,0,0,0h0s0,0,0,0h0s0,0,0,0h0s0,0,0,0h0s0,0,0,0h0s0,0,0,0h0s0,0,0,0h0s0,0,0,0h0s.06.02.06.02h0s0,0,0,0h0s0,0,0,0h0s0,0,0,0h0s0,0,0,0h0s0,0,0,0h0s0,0,0,0h0s0,0,0,0c.04.01.07.03.11.04h0s0,0,0,0h0s0,0,0,0h0s0,0,0,0h0s0,0,0,0h0s0,0,0,0h0s0,0,0,0h0s0,0,0,0h0s0,0,0,0h0s0,0,0,0h0s0,0,0,0h0s0,0,0,0h0s0,0,0,0h0s0,0,0,0h0s0,0,0,0h0s0,0,0,0h0s0,0,0,0h0s0,0,0,0h0s0,0,0,0h0s0,0,0,0h0s0,0,0,0h0s0,0,0,0h0s0,0,0,0h0s0,0,0,0h0s0,0,0,0h0s0,0,0,0h0s0,0,0,0h0s0,0,0,0h0s0,0,0,0h0s0,0,0,0c.03.01.07.02.1.03h0s0,0,0,0h0s0,0,0,0h0s0,0,0,0h0s0,0,0,0h0s0,0,0,0h0s0,0,0,0h0s0,0,0,0h0s0,0,0,0h0s0,0,0,0h0s0,0,0,0h0s0,0,0,0h0s0,0,0,0h0s0,0,0,0h0s0,0,0,0h0s0,0,0,0h0s.06.02.06.02h0s0,0,0,0h0s0,0,0,0h0s0,0,0,0h0s0,0,0,0h0s0,0,0,0h0s0,0,0,0h0s0,0,0,0h0s.08.03.12.04h0s0,0,0,0h0s0,0,0,0h0s0,0,0,0h0s0,0,0,0h0s0,0,0,0h0s0,0,0,0h0s0,0,0,0h0s0,0,0,0h0s0,0,0,0h0s0,0,0,0h0s0,0,0,0h0s0,0,0,0h0s0,0,0,0h0s0,0,0,0h0s0,0,0,0h0s0,0,0,0h0s0,0,0,0h0s0,0,0,0h0s0,0,0,0h0s.03,0,.03,0h0s0,0,0,0h0s0,0,0,0h0s0,0,0,0h0s0,0,0,0h0s0,0,0,0h.01s0,0,0,0h0s0,0,0,0c.03,0,.06.02.08.02h0s0,0,0,0h0s0,0,0,0h0s0,0,0,0h0s0,0,0,0h0s0,0,0,0h0s0,0,0,0h0s0,0,0,0h0s0,0,0,0h0s0,0,0,0h0s0,0,0,0h0s0,0,0,0h0s0,0,0,0h0s0,0,0,0h0s0,0,0,0h0s0,0,0,0h0s0,0,0,0h0s0,0,0,0h0s0,0,0,0l.07.02h0s0,0,0,0h0s0,0,0,0h0s0,0,0,0h0s0,0,0,0h0s0,0,0,0h0s0,0,0,0l.06.02h0s0,0,0,0h0s0,0,0,0h0s0,0,0,0h0s0,0,0,0h0s0,0,0,0h0s0,0,0,0h0s0,0,0,0h0s0,0,0,0h0s0,0,0,0h0s0,0,0,0h0s0,0,0,0h0s0,0,0,0h0s0,0,0,0h0s0,0,0,0h0s0,0,0,0h0s0,0,0,0h0s0,0,0,0c.03,0,.07.02.1.03h0s0,0,0,0h0s0,0,0,0h0s0,0,0,0h0s0,0,0,0h0s0,0,0,0h0s0,0,0,0h0s.07.02.11.03h0s0,0,0,0h0s0,0,0,0h0s0,0,0,0h0s0,0,0,0h0s0,0,0,0h0s0,0,0,0h0s0,0,0,0h0s0,0,0,0h0s0,0,0,0h0s0,0,0,0h0s0,0,0,0h0s0,0,0,0h0s0,0,0,0h0s0,0,0,0h0s0,0,0,0h0s0,0,0,0h0s0,0,0,0h0s0,0,0,0h0s0,0,0,0h.05s0,.01,0,.01h0s0,0,0,0h0s0,0,0,0h0s0,0,0,0h0s0,0,0,0c.05,0,.09.02.14.03h0s0,0,0,0h0s0,0,0,0h0s0,0,0,0h0s0,0,0,0h0s0,0,0,0h0s0,0,0,0h0s0,0,0,0h0s0,0,0,0h0s0,0,0,0h0s0,0,0,0h0s0,0,0,0h0s0,0,0,0h0s.06.01.06.01h0s0,0,0,0h0s0,0,0,0h0s0,0,0,0h0s0,0,0,0h0s0,0,0,0h0s0,0,0,0c.05.01.11.02.16.03h0s0,0,0,0h0s0,0,0,0h0s0,0,0,0h0s0,0,0,0h0s0,0,0,0h0s0,0,0,0h0s0,0,0,0h0s0,0,0,0h0s0,0,0,0h0s0,0,0,0h0s0,0,0,0h0s0,0,0,0h0s0,0,0,0h0s0,0,0,0h0s0,0,0,0h0s0,0,0,0h0s.04,0,.04,0h0s0,0,0,0h0s0,0,0,0h0s0,0,0,0h0s0,0,0,0h0s0,0,0,0c.04,0,.09.01.13.02h0s0,0,0,0h0s0,0,0,0h0s0,0,0,0h0s0,0,0,0h0s0,0,0,0h0s0,0,0,0h0s0,0,0,0h0s0,0,0,0h0s0,0,0,0h0s0,0,0,0h0s0,0,0,0h0s0,0,0,0h0s0,0,0,0h0s0,0,0,0h0s0,0,0,0h0s.06,0,.06,0h0s0,0,0,0h0s0,0,0,0h0s0,0,0,0h0s0,0,0,0h0s0,0,0,0h0c.09.01.18.03.27.04h0s0,0,0,0h0s0,0,0,0c.06,0,.12.01.18.02h0s0,0,0,0h0s0,0,0,0h0s0,0,0,0h0s0,0,0,0h0s0,0,0,0h0s0,0,0,0h0s0,0,0,0h0s0,0,0,0h0s0,0,0,0h0s0,0,0,0h0s0,0,0,0h0s0,0,0,0h0s0,0,0,0h0s0,0,0,0h0s0,0,0,0h0s.03,0,.03,0h0s0,0,0,0h0s0,0,0,0h0s0,0,0,0h0s0,0,0,0c.09,0,.18.02.27.02h0c.09,0,.18.01.27.02h0c.09,0,.18,0,.28,0,8.47.18,14.3-4.02,17.82-10.59-.24,2.82-.32,5.52-.3,8.16,0,.58.03,3.28.42,6.04.17,1.23.72,2.27,1.49,3.17h0Z"/><path class="cls-3" d="m136.7,119.27c-.52-.43-1.07-.84-1.66-1.24-9.18-6.14-27.11-10.62-33.82-14.59-7.23,22.05-37.68,17.36-41.41-.35-7.9,2.89-29.01,7.85-37.03,15.14-.04.03-.08.07-.11.11,12.37,18.47,33.44,30.64,57.34,30.64s44.24-11.75,56.7-29.7h0Z"/></g></g></g></svg>