<?xml version="1.0" encoding="UTF-8"?><svg id="_レイヤー_2" xmlns="http://www.w3.org/2000/svg" viewBox="0 0 160 160"><defs><style>.cls-1{fill:#fffaee;}.cls-2,.cls-3{fill:#233e79;}.cls-4{fill:#261413;}.cls-4,.cls-3,.cls-5,.cls-6,.cls-7,.cls-8,.cls-9,.cls-10,.cls-11{fill-rule:evenodd;}.cls-5{fill:#bdada8;}.cls-6{fill:#7f7f7e;}.cls-7{fill:#7f7f7f;}.cls-8{fill:#333533;}.cls-9{fill:#f4f0e4;}.cls-10{fill:#fce6e0;}.cls-11{fill:#fefefe;}</style></defs><g id="_レイヤー_1-2"><g><path class="cls-2" d="m80,160c-21.37,0-41.46-8.32-56.57-23.43C8.32,121.46,0,101.37,0,80S8.32,38.54,23.43,23.43C38.54,8.32,58.63,0,80,0s41.46,8.32,56.57,23.43c15.11,15.11,23.43,35.2,23.43,56.57s-8.32,41.46-23.43,56.57c-15.11,15.11-35.2,23.43-56.57,23.43Z"/><circle class="cls-1" cx="80" cy="80" r="75.27"/><g><path class="cls-11" d="m80,11.03c38.09,0,68.97,30.88,68.97,68.97s-30.88,68.97-68.97,68.97S11.03,118.09,11.03,80,41.91,11.03,80,11.03h0Z"/><path class="cls-9" d="m96.08,91.47l-.88.02c0,.88.02,1.76.05,2.63.32-.87.6-1.75.83-2.65h0Z"/><path class="cls-9" d="m63.91,92.34h-.48c.17.34.33.65.5.96,0-.32,0-.64-.02-.96h0Z"/><path class="cls-3" d="m138.71,116.2c-8.7-3.76-17.6-4.25-23.88-6.13.06.02.12.02.19.03l-.2,10.03v.68s-.67.11-.67.11l-5.6.95,4.89,5.8.24.28-.05.36c-.66,4.62-1.85,9.21-3.42,13.69,11.76-5.74,21.65-14.73,28.49-25.81h0Z"/><path class="cls-3" d="m111.98,128.45l-5.57-6.61-.92-1.09,1.4-.24,6.33-1.08.19-9.64s.05,0,.07.01c-5.06-3.19-11.87-10.11-13.75-12.47-.76,18.36-3.94,35.81-7.78,50.59,5.66-.99,11.09-2.67,16.18-4.95,1.76-4.75,3.11-9.63,3.84-14.53h0Zm-44.74,19.33c-4.67-.87-9.18-2.22-13.46-3.98-2.94-6.73-5.3-12.82-6.42-17.17l5.54-6.57.92-1.09-1.4-.24-6.33-1.08-.19-9.8s-.08.03-.11.04c.09-.03.18-.07.27-.1,6.15-2.41,10.03-4.73,13.98-10.13-.03.04-.06.09-.08.12.62,6.76,2.71,28.76,7.29,50h0Z"/><path class="cls-3" d="m45.68,126.62l-.1-.4.27-.32,4.89-5.8-5.6-.95-.66-.11v-.68s-.21-9.94-.21-9.94c.05-.02.1-.03.15-.05-5.98,1.96-15.89,3.68-22.04,6.38,1.26,2.25,2.5,5.05,3.68,8.25,6.78,8.49,15.52,15.35,25.53,19.88-2.74-6.39-4.92-12.13-5.93-16.25h0Z"/><path class="cls-8" d="m21.65,115.09c.16-.08.34-.15.51-.23-.17.08-.34.15-.51.23h0Z"/><path class="cls-8" d="m114.02,109.93c.07.01.14.03.22.04-.08-.01-.15-.03-.22-.04h0Z"/><path class="cls-8" d="m20.94,115.44c.18-.09.37-.19.56-.28-.19.09-.38.18-.56.28h0Z"/><path class="cls-8" d="m44.97,108.19c.08-.03.16-.06.24-.08-.08.03-.16.06-.24.08h0Z"/><path class="cls-3" d="m21.6,116.7c-.22-.43-.45-.85-.67-1.25l-.07.04c.24.41.49.81.75,1.21h0Z"/><path class="cls-10" d="m76.51,109.6c2.34.04,4.69.08,7.03.12,4.58-3.47,9.26-8.92,11.7-15.6-.02-.87-.04-1.75-.05-2.63-.02-2.64.06-5.33.3-8.16-3.53,6.57-9.36,10.77-17.82,10.59-5.93-.12-11.15-5.06-14.55-11.6.45,3.45.69,6.74.78,10.01,0,.32.01.64.02.96,3.75,7.1,7.33,11.77,12.59,16.3h0Z"/><path class="cls-11" d="m70.06,148.25c2.64-10.49,7.69-28.03,7.69-28.03l-3.71-6.06,2.78-3.9,6.29.14,3.17,3.68-3.63,6.25c1.53,8.33,4.34,18.81,6.41,28.05.97-.13,1.94-.27,2.89-.44,3.84-14.78,7.02-32.23,7.78-50.59,0-.02,0-.03,0-.05-2.29-2.97-.99-.98-3.64-5.82h0s0-.01,0-.02c0,0,0,.01,0,.02-.23.91-.52,1.79-.83,2.65-2.43,6.67-7.12,12.13-11.7,15.6-2.34-.04-4.69-.08-7.03-.12-5.26-4.53-8.84-9.21-12.59-16.3-.17-.31-.33-.62-.5-.95-.63.94-2.69,4.27-3.4,5.32-.03.04-.06.09-.08.12.62,6.76,2.71,28.76,7.29,50,.93.17,1.87.33,2.82.47h0Z"/><path class="cls-3" d="m86.28,114.08l-3.17-3.68-6.29-.14-2.78,3.9,3.71,6.06s-5.05,17.55-7.69,28.03c3.25.47,6.56.72,9.94.72,3.07,0,6.09-.2,9.06-.59-2.07-9.24-4.88-19.72-6.41-28.05l3.63-6.25h0Z"/><path class="cls-7" d="m47.36,126.64l5.54-6.57.92-1.09-1.4-.24-6.33-1.08-.19-9.8s-.08.03-.11.04c-.18.07-.37.14-.57.21-.08.03-.16.06-.24.08-.17.06-.35.12-.53.18-.05.02-.1.03-.15.05l.19,9.94v.68s.67.11.67.11l5.6.95-4.89,5.8-.27.32.1.4c1.01,4.12,3.18,9.86,5.93,16.25.72.32,1.44.63,2.17.93-2.94-6.73-5.3-12.82-6.42-17.17h0Z"/><path class="cls-7" d="m113.64,128.32l.05-.36-.24-.28-4.89-5.8,5.6-.95.66-.11v-.68s.21-10.03.21-10.03c-.07-.01-.12-.02-.19-.03-.2-.03-.41-.07-.6-.11-.07-.01-.15-.03-.22-.04-.19-.04-.37-.07-.54-.11-.02,0-.05,0-.07-.01l-.19,9.64-6.33,1.08-1.4.24.92,1.09,5.57,6.61c-.73,4.91-2.08,9.78-3.84,14.53.7-.31,1.39-.64,2.08-.97,1.57-4.48,2.76-9.07,3.42-13.69h0Z"/><path class="cls-7" d="m26.07,122.99c-1.18-3.2-2.42-6-3.68-8.25h0c-.08.04-.16.07-.24.11-.17.08-.34.15-.51.23-.05.02-.1.05-.15.08-.19.09-.38.18-.56.28,0,0-.01,0-.01,0h0c.22.4.45.81.67,1.25,1.38,2.18,2.87,4.29,4.48,6.3h0Z"/><path class="cls-10" d="m77.67,93.93c8.47.18,14.3-4.02,17.82-10.59,1.22-2.27,2.16-4.82,2.84-7.57-.03-1.44.45-3.74.65-6.83.15-2.36.48-4.51.98-6.19,0-.01,0-.02,0-.04-.07.09-.13.18-.21.27-.37-5.95-2.39-16.31-3.24-18.86-1.92-1.59-4.28-4.84-24.46-4.24-2.35-.68-8.77,4.2-8.85,4.33-.71,1.13-1.69,3.39-2.28,6.73-1.97,11.1-.98,7.98-1.63,12.05-.11-.07-.38-.38-.74-.77.03.26.05.52.08.78.41,1.61.67,3.58.78,5.72.09,1.68.27,3.12.4,4.32.69,3.23,1.82,6.43,3.32,9.31,3.39,6.54,8.61,11.47,14.55,11.6h0Z"/><path class="cls-4" d="m58.33,61.97c.08.08.15.16.22.24.36.39.63.7.74.77.65-4.07-.34-.95,1.63-12.05.59-3.34,1.57-5.6,2.28-6.73,1.35-2.12,32.76,3.8,32.86,3.88.85,2.55,2.53,9.81,3.7,14.9.07-.09.14-.18.21-.27,0,0,0-.01.01-.02.66-2.2,1.64-3.58,2.96-3.49.13,0,.26.04.38.08.42-4.5.27-9.36.06-14.31.13-14.3-15.85-19.92-27.33-19.2-20.15,1.26-23.9,15.04-20.82,33.46,1.84,0,2.63,1.33,3.1,2.75h0Z"/><path class="cls-6" d="m97.57,45.99s-.03.05-.05.07c.03-.01.04-.04.05-.07h0Z"/><path class="cls-6" d="m95.83,47.98c.08.04.15.07.22.1-.01-.03-.09-.06-.22-.1h0Z"/><path class="cls-6" d="m60.2,55.36s-.05,0-.08-.01c.02.01.05.02.08.01h0Z"/><path class="cls-10" d="m58.78,62.99c-.09-.36-.19-.7-.3-1.02-.64-1.92-1.55-3.11-2.77-3.04-.31.02-.59.12-.85.29-1.72,1.14-2.38,5.39-1,9.41,1.59,4.63,2.55,8.81,4.88,8.68,1.62-.09,1.53-1.56,1.23-4.3-.13-1.2-.31-2.64-.4-4.32-.12-2.14-.38-4.11-.78-5.72h0Zm-1.88,5.78c.34,1.45,1.02,1.66.97,2.86-.2,4.66-1.39.85-2.13-.55-.91-1.74-1.14-5.23-.96-6.56.18-1.32.71-3.92,1.76-3.87,1.01.05,2.52,3.6,1.1,5.25-.37.43-1.09,1.42-.74,2.88h0Z"/><path class="cls-5" d="m56.54,60.64c-1.05-.05-1.58,2.55-1.76,3.87-.18,1.32.06,4.82.96,6.56.73,1.41,1.93,5.22,2.13.55.05-1.2-.63-1.4-.97-2.86-.35-1.45.37-2.44.74-2.88,1.42-1.65-.09-5.2-1.1-5.25h0Z"/><path class="cls-10" d="m99.97,62.7s0,.03-.01.05c-.5,1.68-.82,3.83-.98,6.19-.2,3.09-.68,5.38-.65,6.83.03,1.12.36,1.73,1.38,1.79,2.33.15,3.34-4.02,4.97-8.63,1.54-4.35.68-9.01-1.38-9.65-.12-.04-.25-.07-.38-.08-1.32-.09-2.3,1.29-2.96,3.49h0Zm2.8,8.64c-.75,1.4-1.98,5.2-2.13.53-.04-1.2.64-1.4,1-2.85.36-1.45-.35-2.45-.72-2.88-1.4-1.66.15-5.2,1.16-5.24,1.05-.04,1.56,2.56,1.72,3.89.16,1.33-.11,4.82-1.03,6.55h0Z"/><path class="cls-5" d="m102.09,60.9c-1.01.04-2.55,3.58-1.16,5.24.37.44,1.08,1.43.72,2.88-.36,1.45-1.04,1.65-1,2.85.15,4.66,1.39.87,2.13-.53.92-1.73,1.2-5.22,1.03-6.55-.16-1.33-.67-3.93-1.72-3.89h0Z"/><path class="cls-5" d="m92.41,99.94c-15.64,2.7-26.4-8.37-29.23-17.51,3.39,6.49,8.59,11.37,14.49,11.5,8.47.18,14.3-4.02,17.82-10.59-.24,2.82-.32,5.52-.3,8.16,0,.88.02,1.76.05,2.63-.75,2.06-1.72,4.01-2.83,5.82h0Z"/></g></g></g></svg>