<?xml version="1.0" encoding="UTF-8"?><svg id="_レイヤー_2" xmlns="http://www.w3.org/2000/svg" xmlns:xlink="http://www.w3.org/1999/xlink" viewBox="0 0 211.35 193.62"><defs><style>.cls-1{fill:none;}.cls-2{clip-path:url(#clippath);}.cls-3{fill:#e3dac2;}.cls-4{fill:#989382;}.cls-5{fill:#233e79;}</style><clipPath id="clippath"><path class="cls-4" d="m27.47,84.25C27.47,41.57,62.06,6.97,104.74,6.97s77.27,34.6,77.27,77.27-34.59,77.27-77.27,77.27S27.47,126.93,27.47,84.25m-2.73,0c0,44.11,35.89,80,80,80s80-35.89,80-80S148.86,4.25,104.74,4.25,24.74,40.13,24.74,84.25"/></clipPath></defs><g id="_レイヤー_1-2"><g><g><g><path class="cls-4" d="m27.47,84.25C27.47,41.57,62.06,6.97,104.74,6.97s77.27,34.6,77.27,77.27-34.59,77.27-77.27,77.27S27.47,126.93,27.47,84.25m-2.73,0c0,44.11,35.89,80,80,80s80-35.89,80-80S148.86,4.25,104.74,4.25,24.74,40.13,24.74,84.25"/><g class="cls-2"><rect class="cls-5" x="24.74" y="4.25" width="160" height="160"/></g></g><g><path class="cls-3" d="m185.53,135.36s0,0,.01,0c0,0,0,0-.01,0,0,0-.01,0-.02,0,0,0,.01,0,.02,0Z"/><path class="cls-3" d="m211.18,106.96c-.35-.08-.41.39-.56.61-.9,1.5-2.29,2.64-3.76,3.56-3.68,2.48-8.13,3.53-12.49,4.09.02,0,.03,0,.05,0-.08.01-.16.02-.25.03,0,0,.01,0,.02,0-3.02.35-6.26.84-8.53,3.05.49-1.32.97-2.65,1.43-3.98.83-2.54,1.59-5.1,2.32-7.68.14-.15.32-.29.51-.39.78-.43,1.66-.48,2.53-.52.9-.11,1.81-.29,2.68-.54,5.78-1.66,9.77-7.03,9.69-13.04.04-4.31-.62-8.59-1.11-12.86,0,0,0,0,0,0,0,0,0,0,0,.01-.08-.77-.17-1.55-.24-2.33-.02-.54-.06-1.08-.16-1.61,0-.16-.14-.29-.31-.26-.25.05-.22.3-.18.49.29,2.17.21,4.35-.51,6.43-.78,2.73-2.26,5.25-4.18,7.35-2.4,2.4-4.94,4.71-6.69,7.66.33-1.87.57-3.75.65-5.64.01-.2.02-1.32-.09-2.17.06-.09.1-.22.13-.31.2-.52.39-1.06.57-1.59.79-2.07,1.56-4.19,1.77-6.41.56-4.18-1.18-7.39-3.56-10.67-.99-1.37-2.17-2.58-3.41-3.74-.68-3-1.46-5.98-2.46-8.88-3.5-10.4-9-20.14-16.21-28.43C145.43,1.91,106.82-7.44,73.55,6.22,37.71,20.81,16.37,58.31,21.89,96.59c3.77,27.67,21.86,52.37,47.07,64.36,1.32.65,2.65,1.25,4,1.82-.45.47-.9.94-1.33,1.44-1.57,1.9-2.73,4.1-4.05,6.18-.25.67.86.9,1.28,1.23,1.41.79,2.79,1.64,4.15,2.51,2.74,1.75,5.44,3.58,8.36,5.02,1.94.94,3.95,1.74,5.99,2.43,2.27.79,4.62,1.32,7,1.58-.07.16-.13.32-.19.42-.69,1.41-.85,2.99-.78,4.54.02,1.57.27,3.18-.24,4.71-.12.28-.17.74.23.8.58,0,1.15-.11,1.73-.14,1.92-.13,3.8-.05,5.74-.05,8.03.35,16.5-1.82,21.2-8.84,1.43-2.2,2.87-4.55,3.25-7.19.32,1.05.75,2.07,1.26,3.03,1.42,2.51,4.09,4.01,6.86,4.56,1.84.39,3.76.33,5.57.9,2.41.9,4.46,1.13,6.86.03,2.6-1.4,4.6-3.78,5.84-6.44,2.46.27,4.85-.09,6.84-1.98,2.09-1.88,2.76-5.01,5.26-6.49,1.2-.75,2.56-1.27,4-1.28,1.02,0,2.03.16,3.05.05,2.84-.16,5.08-2.79,4.96-5.6-.03-2.08-.58-4.34-1.87-6.02.89.67,1.87,1.21,2.89,1.67.01.02.02.03.04.05.16.93.48,1.88,1.16,2.57.56.66,1.68.89,1.72-.26.01-.49-.13-.97-.34-1.42.88.26,1.77.47,2.66.64.06.24.18.47.25.71.24.61.47,1.33,1.09,1.64.27.17.65.22.84-.09.4-.62-.12-1.35-.55-1.81-.06-.04-.13-.12-.21-.2.17.03.33.05.5.08.82.12,1.64.23,2.47.32.38.85,1.01,1.71,1.9,2.06.32.14.83.04.93-.36.11-.67-.45-1.14-.95-1.52.87.08,1.73.14,2.6.17.3.57.51,1.21.99,1.67.35.35,1.09.73,1.2-.01,0-.63-.37-1.16-.81-1.62.59,0,1.17,0,1.76-.02.02,0,.03-.01.05-.02.17.21.61.16.85.23.61.08,1.43.11,1.75-.52.11-.25-.01-.53-.24-.66-.67-.41-1.59-.24-2.19.22-.09.08-.21.16-.28.25-.02,0-.03,0-.05,0-.71.04-1.42.03-2.14,0,.46-.31.97-.66,1.16-1.21.09-.71-.84-.49-1.18-.21-.25.17-.97.89-1.07,1.37-.16,0-.31-.02-.47-.02-.94-.08-1.89-.15-2.84-.24.56-.34,1.07-.73,1.4-1.31.14-.23.07-.62-.22-.69-.36-.03-.7.19-1.01.35-.25.09-1.19.97-1.42,1.53-1.05-.11-2.09-.25-3.13-.42.78-.31,1.53-.74,2.13-1.31.07-.09.13-.23.09-.35-.2-.79-2.08.22-2.5.49-.18.13-.83.59-.95.93-.89-.19-1.77-.41-2.62-.68.37-.2.7-.48.94-.83.7.41,1.68.93,2.05.17.22-1.24-1.47-2.11-2.76-2.54,1.71-.27,3.43-.7,5.14-1.26.8.64,3.35,2.06,4.02,1.12.18-.33-.02-.73-.25-.98-.5-.58-1.23-.74-1.97-.78,1.28-.49,2.55-1.04,3.79-1.65.92.38,3.34,1.3,4,.28.19-.35,0-.76-.28-1-.46-.38-1.03-.44-1.61-.37,1.15-.62,2.27-1.28,3.35-1.96.78.23,3.48.59,3.86-.24.15-.92-.93-1.12-1.88-1.05,1.47-1,2.85-2.04,4.12-3.06.06,0,.12-.01.18-.05.25-.18.5-.37.75-.55.55-.46,1.31-.95,1.38-1.73-.24-1.01-1.81-.01-2.11.53-.13.22-.58,1-.57,1.45-1.13.89-2.25,1.8-3.43,2.63-.44.3-.89.59-1.35.88.31-.64.74-1.34.62-2.06-.45-.86-1.38.73-1.58,1.16-.25.55-.39,1.15-.43,1.75-.24.15-.48.29-.73.44-1.12.67-2.29,1.33-3.48,1.95.36-.56.7-1.13.93-1.76.13-.31.13-.82-.28-.91-.88.02-1.42,1-1.66,1.74-.16.49-.14,1-.15,1.5-1.41.69-2.86,1.32-4.33,1.86.68-.78,1.52-1.58,1.68-2.63.02-.22-.08-.45-.31-.5-.59-.07-1,.52-1.37.89-.64.79-1.07,1.72-1.37,2.69,0,0,0,.02,0,.02-1.72.55-3.47.97-5.24,1.21,1.21-.81,2.37-1.81,3.11-3.07.18-.31.2-.79-.24-.87-1.03-.14-2.18,1.14-2.83,1.85-.58.68-1.04,1.48-1.49,2.25,0,0,0,0,0,0-1.41.11-2.83.09-4.24-.07-.03,0-.07,0-.11-.01,1.87-.89,3.71-2,4.88-3.73.69-1.02-.03-2.15-.93-2.73-.57-.42-1.24-.7-1.7-1.26-.31-.36-.36-.89-.14-1.31.24-.54.54-1.06.81-1.59.1.04.21.05.31.06.65.1,1.31.15,1.97.18,4.83.11,10.15-1.35,13.45-5.06,1.12-1.25,1.98-2.7,2.85-4.13,1.14-1.79,2.53-3.44,3.98-5,.09-.1.24-.23.25-.37,0-.17-.18-.31-.34-.25-.77.44-1.48.9-2.3,1.28-2.17,1.02-4.42,1.94-6.85,2.07-4.84.2-7.31-.72-10.81,3.5-.92.9-1.7,2.2-3.04,2.46-.12-.06-.23-.03-.3.05-.43-.24-.91-.43-1.43-.59,0-.01.02-.03.03-.04.54-.71,1.07-1.42,1.59-2.15,2.14-3.01,4.12-6.14,5.84-9.4.42-.81.83-1.64,1.22-2.47.09.07.22.08.32-.01.08-.11.21-.16.33-.21,1.2-.41,2.47.17,3.68.33,4.7.94,10.15.58,13.96-2.6,2.93-2.68,5.34-5.92,7.25-9.41,1.32-2.17,2.22-4.55,3.39-6.8.11-.16.11-.41-.1-.49Zm-14.93,54.96c-.41.43-1.1.2-1.62.15.45-.32,1.14-.48,1.62-.15Zm-3.88-1.13c-.21.31-.54.51-.84.72.22-.29.48-.58.84-.72Zm.25,3.16c-.6-.31-.8-.94-1.1-1.52.02,0,.05,0,.07,0,.45.42.91.9,1.03,1.52Zm-4.33-3.75c-.36.51-.85.84-1.41,1.14.34-.51.84-.91,1.41-1.14Zm-.88,1.97c.41.35.88.61,1.22,1.04.46.7-.27.42-.59.15-.41-.34-.74-.78-1-1.25.11.01.23.02.34.04,0,0,.01.02.02.02Zm-2.94-2.47c-.18.12-.37.23-.55.35-.43.28-.84.5-1.34.66.52-.5,1.19-.79,1.89-1.01Zm3.65-3.2c-.06.36-1.69-.26-1.91-.4-.56-.56-.14-.56.24-.54.63.03,1.45.27,1.66.93Zm15.36-12.75c-.3.68-.99,1.08-1.55,1.53.22-.73.76-1.41,1.55-1.53Zm-6.82,3.8c-.21.7-.5,1.36-.93,1.96.13-.72.43-1.42.93-1.96Zm.41,2.09c.56-.06,1.55-.28,1.91.28-.21.16-.51.12-.76.16-.67.04-1.34,0-2.01-.12.11-.07.23-.15.34-.22.16.02.37-.07.51-.1Zm-5.62.61c-.2.79-.7,1.51-1.14,2.19.03-.83.36-1.79,1.14-2.19Zm-4.83,1.99c-.28,1.01-1.14,1.78-1.82,2.57.39-.97.92-1.98,1.82-2.57Zm-5.08.83c-.13.4-.42.7-.68,1.02-.77.88-1.67,1.64-2.68,2.24.71-1.19,1.94-2.93,3.36-3.26Zm3.75-33.69c.45-.5.94-.96,1.48-1.37,2.81-2.17,6.56-2,9.89-2.63,4.56-.79,9.15-2.36,12.65-5.48-.19.26-.38.51-.6.74-2.95,3.06-6.58,5.47-10.51,7.07,0,0,0,0,0,0-2.21.84-4.49,1.59-6.77,2.25-2.63.64-5.25,1.49-7.53,2.98-.03.03-.09.07-.16.11.51-1.18.99-2.37,1.45-3.57.03-.03.06-.07.09-.09Zm-8.82-34.9c-.5-1.94-.93-3.92-1.03-5.93.41,1.13.88,2.25,1.26,3.39.37,1.13.95,2.16,1.55,3.18.67,1.2,1.36,2.41,2.22,3.5,1.44,1.85,3.17,3.45,4.58,5.32.99,1.37,1.93,2.79,2.62,4.33.49,1.2.77,2.5,1.06,3.78.16.77.33,1.54.33,2.32-.13-.49-.33-.96-.56-1.42-1.16-2.69-3.69-4.4-5.61-6.52-3.03-3.22-5.36-7.15-6.31-11.49-.04-.15-.08-.31-.12-.47,0,0,0,0,0,0Zm13.97,14.52s.01.06.02.09c0,.03.02.06.03.09-.1.49-.21.98-.31,1.47-.26,1.23-.55,2.46-.86,3.69-.03-1.46-.47-2.89-.8-4.3-.27-1.11-.67-2.18-1.25-3.16-.91-1.61-1.96-3.17-3.21-4.55-1.14-1.36-2.43-2.59-3.49-4.01-1.15-1.54-2.04-3.23-2.97-4.91-.76-1.71-1.34-3.49-2-5.24.77,1.15,1.39,2.38,2.15,3.53.84,1.27,1.79,2.46,2.84,3.56,1.1,1.19,2.36,2.25,3.47,3.43,1.25,1.35,2.43,2.85,3.56,4.31,1.34,1.79,2.1,3.9,2.84,6Zm13.71-10.79c.15,2.55.34,5.15-.37,7.65-1.44,5.15-5.96,8.7-11.22,9.32-.96.07-2.01.11-2.86.58.59-1.01,1.2-2.02,1.91-2.95,1.08-1.3,2.4-2.39,3.58-3.6,2.55-2.48,4.74-5.37,6.12-8.68,1.17-2.93,2.05-6.06,2.12-9.23.28,2.3.57,4.6.73,6.91Zm-12.93,10.21c.63-1.15,1.34-2.24,2.14-3.3,1.5-1.98,3.4-3.6,5.12-5.39,2.32-2.5,3.91-5.61,4.68-8.93,0,.59-.01,1.19-.06,1.78-.27,2.4-.88,4.76-1.71,7.02-1.02,2.7-2.57,5.2-4.46,7.38-1.74,2.02-3.83,3.69-5.57,5.71-.55.73-1.04,1.51-1.51,2.29.06-.21.12-.41.17-.62.53-1.66.68-3.4.99-5.11,0-.04,0-.08,0-.11.04-.22.09-.44.13-.66.03-.02.05-.04.07-.08Zm-2.46-15.67c-.91-1.13-1.82-2.21-2.89-3.21-1.7-1.63-3.65-3.24-4.35-5.59-.72-2.38-.75-4.9-.93-7.36-.16-2.08-.41-4.17-.91-6.2,2.51,3.31,3.54,7.47,4.83,11.35.61,1.88,1.41,3.71,2.36,5.44,1.61,2.85,3.59,5.54,4.39,8.77.14.54.27,1.08.37,1.63-.59-1.79-1.65-3.39-2.86-4.84Zm2.66-10.86c1.41,2.14,2.63,4.56,2.6,7.19,0,0,0-.03,0-.03.12,3.09-1.05,6.02-2.09,8.88-.05-.29-.11-.58-.16-.87-.64-3.6-2.72-6.65-4.55-9.74-1-1.8-1.84-3.68-2.47-5.64-1.23-3.77-2.27-7.71-4.55-11.02-.21-.3-.43-.59-.69-.85,0-.04-.02-.07-.03-.11,2.27,2.29,4.68,4.43,7.04,6.63,1.86,1.65,3.58,3.44,4.89,5.57ZM25.35,59.54c7.61-24.99,27.55-45.75,52.25-54.32,35.38-12.47,74.77.38,96.2,31.13,4.8,6.87,8.52,14.46,11.12,22.44.75,2.33,1.37,4.69,1.93,7.07-1.14-1.04-2.31-2.06-3.41-3.14-.95-.88-1.91-1.76-2.83-2.67-.5-.44-.91-1.01-1.45-1.4-.27-.11-.44.21-.34.44.5,1.74.87,3.5,1.06,5.3.49,3.54.13,7.29,1.53,10.66,1.09,2.39,3.33,3.95,5.08,5.82,1.51,1.69,3.03,3.43,4.08,5.45.26.56.48,1.18.68,1.8.05.1.07.23.1.37,0,.01,0,.03,0,.04.13.71.22,1.41.23,2.13-.02,2.52-.39,5.03-.87,7.52-.09-.21-.18-.4-.21-.51-.76-2.4-2.03-4.59-3.67-6.5-1.67-2.23-3.71-4.12-5.69-6.06-1.28-1.32-2.46-2.81-3.42-4.39-.64-1.06-1.22-2.16-1.94-3.18-.17-.2-.29-.53-.58-.57-.28-.02-.33.29-.3.51.02.54.04,1.07.07,1.61.12,1.75.5,3.47.92,5.16.28,1.15.57,2.32.96,3.44,1.12,3.39,3.2,6.4,5.59,9.02,1.5,1.63,3.22,3.03,4.62,4.75.72,1.11,1.41,2.33,1.65,3.64.05.37.04.81.02,1.19,0,.06,0,.12.03.16-1.28,4.59-2.89,9.09-4.84,13.43.25-1.21.39-2.45.44-3.68.12-2.05-.27-4.06-.71-6.05-.19-.92-.47-1.88-.82-2.76-.47-1.27-1.19-2.42-1.88-3.57-.72-1.18-1.4-2.38-2.27-3.46-.6-.79-1.27-1.51-1.94-2.24-.58-.67-1.28-1.25-1.79-1.99-.44-.64-.77-1.3-1.14-1.99-.23-.44-.66-.18-.67.2-.14,1.01-.25,2.03-.4,3.04-1.2,8.37-2.07,12.48,4.24,19.05,1.29,1.45,2.82,2.74,3.77,4.46,1,1.75.68,3.92-.22,5.64,0,.02,0,.04-.01.06-1.82,3.13-3.9,6.11-6.21,8.91-.92,1.15-1.79,2.34-2.75,3.45-.1.18-.53.49-.68.76-.13-.01-.25-.02-.38-.03.49-.55.98-1.11,1.45-1.67,2.29-2.62,3.93-5.89,4.18-9.4.18-2.58-.53-5.18-1.57-7.52-.66-1.35-1.68-2.49-2.7-3.57-1.58-1.7-2.89-3.66-3.36-5.96-.08-.21-.08-.5-.28-.64-.11-.07-.27-.04-.35.07-.2.48-.21,1.01-.33,1.53-.59,3.72-1.29,7.48-.97,11.26.24,2.17.73,4.32.82,6.51.05,2.25-.37,4.53-1,6.68-.27.8-.54,1.64-1.1,2.3-.07.1-.2.17-.24.29-.98-.04-1.95-.14-2.91-.34.55-.64.71-1.57.85-2.38.01-.14.02-.28.03-.42.05,0,.1-.01.15-.04.61-.48,1.24-1,1.68-1.64.49-.62.27-1.63-.67-1.33-.58.33-.87.99-1.13,1.61-.04-1.27-.25-2.52-.58-3.74,0-.03,0-.05-.02-.08,0-.02-.01-.05-.02-.07.82-.67,1.3-1.75,1.41-2.79.09-.67-.49-1.17-1.06-.67-.56.54-.65,1.33-.77,2.08-.47-1.36-1.06-2.69-1.69-3.97.51-.53.74-1.3.94-1.99.59-3.21-1.95-2.62-1.69.51-.72-1.41-1.45-2.83-2.1-4.27.53-.58.75-1.4.99-2.13.27-.75-.22-1.45-1-.97-.43.36-.61.91-.69,1.46-.4-.98-.75-1.98-1.04-3,.19-.16.33-.4.49-.59.4-.53.89-1.07.91-1.77.13-.61-.52-1.23-1.07-.8-.42.29-.63.75-.78,1.23-.17-1.07-.22-2.15-.15-3.23.2-.02.4-.14.57-.2.56-.25,1.25-.61,1.39-1.28.04-.23-.08-.48-.3-.56-.58-.16-1.05.21-1.48.59.11-.59.25-1.18.43-1.76.08-.04.14-.13.14-.22.17-.08.19-.3.25-.45.14-.5.36-.99.41-1.51.16-.71-.61-1.77-1.36-1.33-.67.68-.28,1.85-.09,2.67.06.19.14.37.22.55-.01.02-.03.04-.04.06-.18.65-.37,1.29-.49,1.95-.28-.76-.62-1.53-1.3-2-.23-.15-.57-.08-.68.18-.09.22.01.45.09.65.21.48,1.1,2.24,1.71,2.54-.11,1.39.01,2.76.3,4.11-.35-.41-.71-.81-1.1-1.18-.26-.23-.56-.56-.95-.51-.88.26.1,1.31.41,1.7.17.26,1.43,1.4,2.01,1.45.31,1.09.71,2.16,1.14,3.21-.69-.56-1.99-1.51-2.38-.66-.03.61,1.11,1.35,1.58,1.67.44.26.95.46,1.46.54.06.13.12.26.18.39.51,1.08,1.07,2.15,1.62,3.22-.69-.62-1.6-1.33-2.07-1.07-.3.3.02.68.23.93.44.53.88,1.07,1.45,1.48.44.31.93.53,1.41.77.02.03.05.05.07.07.55,1.14,1.06,2.3,1.48,3.49-.46-.48-.92-.96-1.46-1.36-.33-.28-1.09-.36-1.14.22.05.45.38.83.64,1.18.54.64,1.17,1.21,1.95,1.54.18.08.36.16.55.22.02.08.05.17.07.25.21.75.4,1.71.48,2.71-.33-.74-.73-1.52-1.45-1.72-.53-.08-.67.59-.55.99.3,1,1.14,1.7,2.03,2.17-.04,1.05-.24,2.05-.69,2.81-.11-1.9-.61-3.79-1.69-5.36-.88-1.26-2.27-1.94-3.68-2.42-1.2-.53-2.11-1.6-3.34-2.09-1.73-.81-3.8-.67-5.48.2-.2-.12-.53-.15-.7-.25-1.22-.49-2.56-.69-3.87-.4-3.02.39-5.68,2.35-6.94,5.13-.04.11-.11.22-.12.33-2.2-.46-4.14.7-5.29,2.71-.31.61-.56,1.25-.78,1.9-.36,0-.71,0-1.07.03-1.02.02-1.97.38-2.92.7-1.49.49-3,.99-4.39,1.75-1.08.63-2.26,1.23-3.24,2.04-.13-.12-.26-.25-.39-.37-1.69-1.51-3.63-2.7-5.56-3.88-6.76-4.11-14.38-6.77-22.22-7.83-2.54-.3-5.17-.37-7.66.33-1.01.22-.85.83-.81,1.65.35,5.84,1.46,11.76,4.4,16.9.21.39,1.46,2.41,2.35,3.22-3.42,1.08-6.69,2.66-9.6,4.75-1.94,1.42-3.81,2.95-5.52,4.65-39.78-16.45-61-60.96-48.03-102.81Zm156.58,64.25c.07-.78.13-1.56.16-2.34.2-4.22-1.87-8.03-3.79-11.64-1.39-2.48-2.59-5.08-3.34-7.83,0,0,0,0,0,0-.64-2.21-.88-4.51-1.16-6.8.32.59.66,1.17,1.09,1.69.7.77,1.43,1.5,2.13,2.28,1.93,2.06,3.31,4.56,4.72,7,1.23,2.42,1.73,5.15,2.07,7.83.19,3.33-.21,6.86-1.88,9.79Zm-8.38-28.45c.06.64.2,1.29.27,1.92.12.87.21,1.77.38,2.64.4,1.97.99,3.91,1.77,5.78,1.53,3.59,3.75,6.86,5.07,10.55.69,1.93.88,4,.76,6.05-.37-1.86-1.7-3.35-3.06-4.75-2.19-2.32-4.53-4.72-5.66-7.78-1.51-4.49-.05-9.75.46-14.41Zm-5.56,17.78c.05,1.15.14,2.3.24,3.44.32,2.69,1.36,5.24,1.61,7.95.25,4.14.17,8.48-1.33,12.39-.34.88-.64,1.77-.97,2.65-.61,0-1.21,0-1.82-.02.05-.06.09-.12.14-.18.51-.67.77-1.48,1.04-2.26.61-2,.98-4.11,1.04-6.21.01-2.48-.59-4.92-.85-7.37-.25-3.48.33-6.97.9-10.4Zm.2,25.39c.42-1.25.97-2.45,1.26-3.74.52-2.21.7-4.52.74-6.8,0-1.22,0-2.44-.12-3.65-.19-1.82-.71-3.57-1.14-5.34-.53-2.1-.62-4.28-.72-6.44,0-.04,0-.08,0-.12.52,1.76,1.48,3.35,2.69,4.73.84.98,1.77,1.87,2.51,2.94,1.59,2.44,2.5,6.01,2.18,8.92-.31,2.85-1.55,5.54-3.32,7.78-.62.81-1.27,1.53-1.96,2.31-.09.14-.31.32-.43.5-.43-.02-.85-.04-1.22-.05-.29,0-.57,0-.86,0,.13-.35.26-.7.39-1.05Zm-3.71-4.68c.08,0,.16.05.15.13-.12.68-.77,1.1-1.23,1.56.19-.49.41-.95.71-1.38.1-.13.2-.28.37-.31Zm-2.09-3.38c.15-.65.2-1.33.44-1.96.1-.22.21-.47.45-.55.06.07.08.15.07.23-.05.83-.42,1.65-.96,2.28Zm-.56.39c-1.03-.43-1.93-1.25-2.43-2.25.34.05.58.36.83.57.55.55,1.13,1.07,1.61,1.68,0,0,0,0,0,0Zm-2.26-5.47c-.11-.06-.23-.11-.34-.17-.69-.35-1.27-1.01-1.76-1.62.77.5,1.47,1.12,2.1,1.8Zm.53-2.05c.08-.79.72-2,.76-.38-.02.81-.36,1.58-.75,2.27-.02-.03-.05-.05-.07-.08.07-.05.11-.14.11-.23-.02-.54-.09-1.04-.05-1.58Zm-2.84-4.78c.08-.43.18-1.25.72-1.29.02.02.02.05.03.07,0,0,0,.03,0,.06,0,.01,0,.03,0,.04-.13.71-.4,1.42-.78,2.04-.02-.04-.03-.08-.05-.11.1-.22,0-.54.07-.81Zm-1.69-3.79c-.01-.05-.03-.1-.04-.15.04-.17.05-.37.11-.53.06-.25.14-.5.23-.75.07-.3.7-1.2.77-.47-.02.76-.62,1.32-1.06,1.9Zm-.3-5.28c.16-.17.35-.31.53-.46.23-.17.48-.41.79-.39-.2.57-.87.8-1.4,1.01,0-.04,0-.08.01-.12.03-.01.05-.02.07-.04Zm.38-3.32c-.19-.52-.28-1.07-.31-1.62.01-.22,0-.47.15-.65.31-.01.59.41.56.71,0,.54-.26,1.04-.4,1.56Zm-1.26,2.93c-.4-.6-.8-1.2-1.05-1.87.55.49.8,1.19,1.05,1.87Zm.44,5.77c-.72-.44-1.3-1.05-1.73-1.79.66.51,1.18,1.18,1.73,1.79Zm1.86,4.91c-.8-.24-1.49-.78-2.05-1.39.79.26,1.45.84,2.05,1.39Zm5.58,15.31c-.56-.38-1.36-1.14-1.23-1.87.65.39.9,1.22,1.23,1.87Zm2.69,17.06c-.56-.41-1.3-.38-1.88-.75-.97-.67-1.34-1.85-2.01-2.77,1.12-.19,2.27-.09,3.35.34,2.05.9,2.58,3.36,2.63,5.4.01.8-.17,1.59-.39,2.38,0-1.68-.18-3.63-1.7-4.59Zm-4.44-3.4c.34.39.54.87.81,1.31.51.87,1.13,1.82,2.17,2.09,2.04.34,2.54,2.01,2.64,3.84,0,0,0,0,0,0,0,0,0,0,0,0,.07.83-.04,1.66-.12,2.49.02.14-.02.35-.04.55-.17.5-.36.99-.6,1.46-.57,1.23-1.75,1.93-2.69,2.84-.56.59-.99,1.28-1.38,1.99-2.07,4.4-7.04,7.18-11.8,5.37-.63-.23-1.16-.65-1.64-1.11,0,0-.01-.01-.02-.02,1.5-.42,2.9-1.49,3.34-3.03.38-1,.02-2.29,1-3.01,0,0,0,0,0,0,2.69-.05,5.51-1.75,6.2-4.39.28-1.36-.84-2.34-1.63-3.28-.16-.2-.38-.5-.27-.79.46-1.01.89-2.23.01-3.18-.23-.28-.5-.51-.78-.73.03-.04.06-.08.09-.11,1.11-1.14,2.73-1.63,4.21-2.13.16-.06.33-.11.5-.15Zm-17.72,27.25c-.31,1.44-1.34,2.81-2.88,3.01-1.6.15-2.74-1.17-3.61-2.35-.84-1-1.98-1.9-3.28-2.23-.43-.09-.87-.11-1.31-.12-.1-.08-.23-.15-.32-.22-1.58-.98-2.69-2.63-3.22-4.41-.33-1.12-.08-2.31-.23-3.46-.09-1.07-.24-2.12-.37-3.19-.1-.83-.35-1.65-.29-2.49.03-.17.05-.36.13-.52,1.4-.68,2.98-.73,4.45.23.08.04.16.13.25.21-.76,1.21-1.21,2.57-1.18,3.92.11,1.44,1.57,2.33,2.9,2.41,1.2.13,2.34-.29,3.5-.51.62-.1,1.26-.13,1.89.04,1.06.26,2.05.86,3.18.85,2.32.12,3.51-2.45,3.58-4.45-.04-1.05-.06-2.1-.09-3.15,1.14,1.78,2.79,3.32,4.85,3.8.24.05.48.09.73.11-.3.36-.5.8-.53,1.27-.04,2.08-1.1,3.65-3.13,4.27-.27.09-.56.09-.84.11-1.53.23-2.92,1.32-3.61,2.69-.62,1.31-.26,2.79-.59,4.16Zm-17.74.56c-.87-.13-1.61-.7-2.35-1.16-3.27-1.85-5.88-5.13-6.5-8.89-.32-2.02.15-4.08.49-6.08.34-1.41.02-2.87.48-4.25.62-1.6,2.16-2.72,3.75-3.25.36-.08.71-.18,1.06-.27-.11.46-.11.94.04,1.42.53,1.45,1.67,2.65,2.97,3.46.93.66,2.06,1,2.94,1.73-.25.08-.49.18-.73.3-.05,0-.09.03-.13.07-.8.41-1.51,1-2.08,1.66-1.38,1.8-2.03,4.23-1.49,6.46.33,1.08.7,2.22,1.28,3.21-.03.11-.02.24-.04.35-.25,1.74-.11,3.52.31,5.23Zm-17.67,16.04c.12-.26.2-.56.31-.82.52-1.57.78-3.2.96-4.84.07-.73.03-1.46-.04-2.18,0-.03-.01-.05-.03-.06,3.29-2.46,6.36-5.3,8.56-8.72.14.44.17.9.18,1.37.12,4.11-.97,8.19-2.34,12.04-.13.34-.26.7-.43,1.03-2.24,1.1-4.69,1.81-7.17,2.2Zm9.63-16.91c-.28-.03-.89.16-1.42.36,1.15-1.2,2.15-2.53,2.6-3.87.13.17.27.34.41.51-.16.42-.36.84-.56,1.24-.31.61-.66,1.2-1.04,1.77Zm-15.02-7.18s-.05-.03-.08-.03c-2-1.19-4.09-2.24-6.25-3.11-3.11-1.39-6.31-2.56-9.62-3.38-3.2-.83-6.47-1.62-9.8-1.6,1.58-1.34,3.25-2.56,5.01-3.64.95-.58,1.94-1.11,2.95-1.59.31,0,.63.02.94.04,2.45.24,4.87.83,7.3,1.27,3.61.75,7.18,1.63,10.61,3,3.52,1.3,6.9,2.93,10.19,4.74.71.36,1.39.77,2.03,1.23.03.02.08.06.12.09,0,0,0,0,0,0-.51.15-1.02.29-1.53.42-2.64.68-5.31,1.27-7.98,1.82-1.29.26-2.59.49-3.89.72Zm-13.25-16.04c-.82-.87-1.5-1.83-2.09-2.85,3.15.36,6.33.63,9.51.43,2.72-.17,5.48-.47,8.1-1.26.05-.01.07-.04.08-.08,1.4,1.06,2.82,2.08,4.22,3.16-.12-.02-.24-.03-.36-.05-4.82-.59-9.74-.91-14.56-.12-1.54.26-3.07.61-4.57,1.05-.11-.08-.2-.18-.33-.29Zm29.95-8.88c.07-.08.08-.19.04-.28,1.04-.86,2.28-1.49,3.45-2.14,1.31-.67,2.72-1.12,4.11-1.59,1.13-.44,2.31-.69,3.52-.66-.39,1.35-.59,2.76-.6,4.17.02.13,0,.34,0,.55-1.72-.05-3.47.7-4.16,2.38-.31.72-.16,1.51-.3,2.26-.15.92-.93,1.54-1.49,2.23-.45.44-.84.97-1.09,1.56-1.53.3-3.03.91-4.17,1.99-.09-.18-.2-.36-.27-.55-.52-1.1-.89-2.28-1.06-3.49-.22-1.96-.06-4.11,1.11-5.78.18-.21.38-.41.59-.6.1.06.24.05.33-.04Zm25.45-6.9c.04.31.1.62.2.92-2.54-1.16-4.79-2.98-7.55-3.59-.09-.03-.17-.06-.26-.08.01-.02.02-.05.02-.08.11-.27.25-.52.39-.77.91-1.64,2.33-2.93,4.06-3.66,1.34-.47,2.78-.82,4.21-.65.52.09,1.09.27,1.6.46.08.01.17.05.27.1-.78.51-1.44,1.18-1.91,2-1.01,1.58-1.32,3.52-1.04,5.36Zm-.18,1.31c1.07.55,1.98.98,2.94,1.16,0,0,.02,0,.03.01.23.06.47.15.72.15,1.54.1,3.14-.25,4.66.19,1.13.3,2.1.97,2.87,1.87.41.53.56,1.22.77,1.85.33.89.78,1.77,1.49,2.42.08.07.19.17.31.22,0,.16.01.32.01.48,0,.93.09,1.87.03,2.8-.92.39-1.83.87-2.49,1.64-.02,0-.04.01-.06.02-.48-.34-.97-.67-1.36-1.12-.56-.48-.86-1.16-1.11-1.83-.59-1.14-1.22-2.46-2.51-2.93-2.45-1.04-5.12.68-6.06,2.99-.09-.23-.18-.46-.3-.69-1.15-2.16-2.21-4.67-4.46-5.87-.04-.04-.09-.06-.15-.07-.1-.05-.19-.1-.3-.14-2.39-1.02-5.59-.16-6.84,2.2-.15.3-.26.6-.34.89-.02,0-.03-.01-.05-.02-.37-.14-.76-.25-1.14-.34-.29-.09-.6-.15-.91-.19-.04-.65,0-1.31.05-1.96.11-.95.3-1.89.57-2.82.1-.03.18-.08.19-.21,0-.07-.02-.13-.06-.19.18-.56.4-1.1.66-1.63.91-1.72,2.86-3.15,4.87-2.52,2.92.53,5.31,2.4,7.95,3.65Zm6.3.77c1.12-.38,2.11-.79,3.33-.24,2.65,1.1,3.84,3.92,4.12,6.65-.96-.87-1.26-2.28-1.72-3.45-.75-1.49-2.31-2.46-3.9-2.81-.6-.15-1.21-.17-1.82-.15Zm7.63,19.89c.02.7-.37,1.33-.78,1.89-.89,1.23-2.28,1.93-3.72,2.32-2.81.68-5.15-.95-6.74-3.1.36.17.81.27,1.09.36,1.87.46,3.8.67,5.72.68-.04.41.48.54.64.16.07-.01.13-.05.16-.11.05-.08.07-.18.08-.27.06-.59.04-1.29-.34-1.78-.17-.18-.48-.11-.55.13-.12.44-.06.9-.08,1.35-1.68-.02-3.34-.18-4.99-.54-.29-.07-.59-.13-.88-.21,1.5.18,3.06.15,4.51-.27.09.13.3.13.4.01.03-.03.05-.07.06-.1.07-.04.12-.11.13-.19-.02-.63-.02-1.42-.54-1.86-.24-.15-.5.07-.47.33.02.46.2.88.19,1.35-1.83.44-3.85.49-5.66-.15.57-.25,1.14-.52,1.7-.8.07.06.15.1.26.11.14,0,.25-.08.3-.2.03-.07.04-.14.04-.2.18-.09.36-.18.55-.27.22.48,1.33,2.15,1.82,1.21.07-.47-.33-.85-.61-1.19-.27-.3-1.04-1.37-1.29-.54-.2.1-.41.19-.61.29,0,0,0,0,0,0-.15-.28-.3-.6-.55-.8-.02-.01-.03-.02-.05-.03.69-.23,1.38-.48,2.08-.67.14.27.29.64.59.76.16.02.35-.07.4-.23.19-.55-.86-2.2-1.15-1.02-1.49.43-2.89,1.01-4.41,1.36-.03,0-.06,0-.09,0,1.7-.75,3.4-1.67,5.13-2.4.02,0,.05,0,.08,0,.08-.02.14-.07.18-.14.04-.01.08-.04.12-.08.18-.24-.05-.55-.13-.79-.15-.3-.37-.84-.79-.71-.39.26-.1,1.04.05,1.39-1.34.54-2.6,1.25-3.92,1.83,1.15-1.1,2.27-2.23,3.33-3.4.14-.13.06-.33-.05-.45-.09-.19-.26-.35-.35-.55-.23-.38-.45-.92-.93-1.01-.22-.02-.38.22-.31.43.18.61.69,1.02,1.09,1.48-1.1,1.1-2.16,2.23-3.28,3.3.36-.6.85-1.15,1.1-1.79,0-.08-.02-.15-.06-.21.18-.31-.21-.6-.35-.86-.22-.27-.36-.65-.7-.79-.03-.01-.05-.02-.08-.02.31-.88.87-1.69,1.76-2.5.19.15.45.28.69.17.05.02.11.02.17,0,.11-.02.19-.13.2-.24.02-.21-.14-.39-.27-.54-.28-.39-.58-.89-1.06-1.03-.2-.04-.39.12-.41.32-.03.33.25.58.4.86-1.58,1.39-2.56,3.27-2.25,5.41.01.12.02.25.04.39-.37-1.76-.5-3.65-.09-5.43.52-2.31,2.78-4.43,5.25-3.78,1.47.33,2.16,1.76,2.76,3.01.23.7.61,1.33,1.16,1.82.74.84,1.89,1.3,2.59,2.19.69.79.17,1.79-.17,2.62-.36,1.44,1.94,2.21,1.91,3.76Zm-12.41,3.65c.02,1.52-.5,3.39-1.95,4.16-1.83.78-3.52-.87-5.37-.77-.09,0-.19,0-.28.02-.03,0-.07-.01-.11,0-1.57.25-3.22-.69-3.69-2.24-.42-1.3-.1-2.72.44-3.95.37-.63.76-1.41,1.39-1.84.04-.01.07-.03.1-.06.57-.27,1.18-.46,1.81-.54.05,0,.09-.02.12-.05,1.51.17,3.06-.06,4.57-.21.64-.09,1.28-.14,1.92-.23.04,0,.09-.02.13-.03.2.57.38,1.16.62,1.72.06.13.12.25.19.37,0,0,0,0,0,0,.08,1.22,0,2.44.12,3.66Zm-14.78-3.11c-.73-.22-1.47-.23-2.18-.08-.87-.89-2.1-1.24-3.12-1.92-.08-.05-.17-.1-.25-.16-.05-.08-.11-.15-.17-.21-1.08-1.52-1.39-3.61-.77-5.39.27-.86.93-1.61,1.02-2.55.01-.11.03-.23.02-.35,0-.02-.01-.03-.02-.05.15-.8.01-1.68.37-2.44.78-1.49,2.22-1.95,3.71-1.86.05.07.14.1.26.09.04,0,.08-.03.11-.06.71.08,1.42.28,2.07.54-.23,1.87.87,3.63,1.71,5.34.45.91-.43,1.28-.84,1.96-1.5,2.53,2.08,4.18,4.12,4.73-.34.1-.67.24-.99.39-.06.02-.13.05-.2.1-1.21.63-2.31,1.6-3.13,2.75-.42-.41-1.44-.77-1.71-.84Zm-6.5-8.99c-.09.17-.18.34-.25.51-.77,1.67-.74,3.71.03,5.38-.48-.47-.91-1.02-1.24-1.62-.96-1.71.37-3.03,1.46-4.28Zm15.89-7.8c1.71,1.39,2.57,3.59,3.57,5.51.11.17.15.56.3.77-.59,2.14-.4,5.03.39,7.01-.03.12,0,.24.04.35-1.14.18-2.3.28-3.46.4-1.75.23-3.59.14-5.24-.53-.03-.08-.1-.16-.17-.22-.2-.23-.27-.54-.21-.84.79-2.49,2.63-4.41.63-6.97-2.24-3.09-.53-5.86,3.11-6.1,0,0,0,0,0,0,.06.06.14.08.22.06.28.15.55.33.79.54Zm4.91,10.02c.22.4.54.74.85,1.08-.26.43-.54.83-.81,1.25-.13-.86-.15-1.62-.03-2.33Zm.74,5.84c-.1-.21-.18-.43-.26-.65.08-.03.16-.06.23-.09.54-.19,1.05-.44,1.57-.67.04.06.08.13.1.19.07.1.12.23.18.36-.6.3-1.2.59-1.81.86Zm-7.85-16.82c-1.03.25-2.05.78-2.74,1.6-1.05,1.35-.82,3.22.05,4.6.51.84,1.25,1.66,1.15,2.72-.09,1.36-.83,2.56-1.34,3.8-.19.42-.27.92-.15,1.35-.05-.03-.1-.06-.15-.09-.68-.42-1.48-.82-1.82-1.59-.73-2.11,2.25-2.05.8-4.44-1.37-2.41-2.49-5.14.14-7.18,1.21-.89,2.83-1.16,4.29-.8-.08.01-.15.03-.23.04Zm-3.44,17.16c-.93,1.48-1.39,3.35-.85,5.04.36,1.17,1.31,2.03,2.43,2.4-.54.13-1.08.24-1.64.25-1.05.03-2.29-.34-2.79-1.36-.42-1.07.02-2.24.44-3.25.56-1.16,1.39-2.25,2.41-3.09Zm-17.36-14.24c-1.14,1.98-1.23,4.43-.77,6.63.2.88.48,1.74.86,2.56.08.12.15.35.25.56,0,0-.02,0-.02,0-.27-.12-.54-.22-.81-.33-.16-1.43-.46-2.84-.74-4.25-.44-2.09-1.08-4.13-1.9-6.1-.63-1.52-1.2-3.1-2.11-4.47,1.58.93,3.13,1.91,4.6,3,.53.4,1.05.86,1.55,1.33-.34.32-.64.68-.89,1.08Zm-5.92-5.81s.08.05.13.08c.92,1.2,1.46,2.64,2.06,4.01.66,1.66,1.35,3.34,1.79,5.09.49,1.94.91,3.94,1.17,5.94-2.34-.87-4.78-1.37-7.25-1.72-.02-.02-.04-.03-.06-.05-.02-.01-.04-.03-.05-.04.04-.61-.19-1.24-.35-1.84-.39-1.33-.88-2.63-1.37-3.93-1.19-3.15-2.63-6.21-4.42-9.07-.62-1.07-1.22-2.16-1.98-3.15,3.59,1.21,7.06,2.77,10.33,4.68Zm-10.77-4.82s0,0,0,0c.94,1.15,1.63,2.48,2.39,3.75,1.95,3.14,3.42,6.53,4.69,10,.47,1.36,1.03,2.73,1.21,4.17-1.01-.78-2.06-1.56-3.09-2.31-2.12-1.6-4.24-3.2-6.39-4.75-.98-.71-1.94-1.46-2.88-2.22,0-.02-.01-.04-.03-.06-.53-1.94-1.16-3.87-2.08-5.66-.87-1.76-1.78-3.52-2.92-5.12,1.03.16,2.06.36,3.07.58,2.04.43,4.06.97,6.05,1.62Zm-9.48-2.26c1.77,2.49,3.17,5.26,4.27,8.12.32.81.51,1.65.76,2.48-.7-.57-1.41-1.15-2.11-1.72-2.21-1.75-4.48-3.42-6.74-5.1,0,0,0,0,.01.01-1.36-1.06-2.77-2.11-4.23-3.04-.11-.04-.36-.29-.56-.41.16-.11.39-.13.56-.19,2.63-.66,5.36-.54,8.04-.14Zm-6.18,2.32c1.34,1.01,2.68,2.01,4.02,3.02-.98.21-2.01.11-3.01,0-1.1-.15-2.25-.21-3.24-.75-.11-.94-.19-1.88-.26-2.82-.02-.4-.07-.79-.05-1.19.83.6,1.71,1.13,2.53,1.74Zm.1,3.16c1.38.17,2.83.4,4.2.06,1.73,1.29,3.45,2.59,5.13,3.93.92.78,1.86,1.54,2.81,2.27-.13.07-.27.12-.42.16-2.01.47-4.08.34-6.13.28-1.31,0-2.61-.14-3.91-.3-.9-.13-1.8-.15-2.68-.45,0,0-.01,0-.02,0-.61-2.13-1.01-4.32-1.27-6.52.69.36,1.52.48,2.28.58Zm1.33,6.61c1.44.19,2.88.33,4.34.35,2.19.01,4.63.31,6.7-.52,2.21,1.7,4.48,3.31,6.7,5,.07.06.15.11.22.17-1.95.62-4.01.86-6.04,1.09-3.79.42-7.6.15-11.38-.28-.07,0-.15-.03-.22-.04-.55-.98-1.03-2.01-1.48-3.05-.43-1.01-.79-2.04-1.1-3.09.73.23,1.5.28,2.26.37Zm9.9,8.34c5.02-.41,10.12.04,15.09.9,2.17.33,4.24,1.04,6.29,1.84-.69.84-1.04,1.9-1.05,2.98,0,.95-.05,1.91-.24,2.84-.28,1.6-.61,3.24-.58,4.88,0,0,0,0,0,0-4.72-3.05-9.95-5.31-15.26-7.14-2.62-.88-5.31-1.46-8.01-2.03-2.44-.44-4.89-1.05-7.37-1.25-.04,0-.12,0-.23,0,3.58-1.63,7.46-2.62,11.37-3.01Zm19.52,13.84c.03.44.08.88.18,1.31.35,1.68,1.09,3.26,2.08,4.65-.04.03-.08.08-.09.13-.11.38-.28.74-.45,1.1-.6,1.13-1.49,2.02-2.35,2.98-2.31,2.32-5.05,4.33-8.14,5.49-2.85.95-5.85,1.41-8.86,1.41,3.81-2.37,7.19-5.37,10.39-8.5,1.56-1.59,2.99-3.3,4.41-5.01.94-1.17,1.96-2.29,2.77-3.55.02,0,.04-.01.07-.02Zm8.5,2.27c-.69-2.27-.05-4.86,1.5-6.65.37-.38.77-.71,1.2-.99-.11.82.11,1.66.23,2.47.18,1.54.43,3.07.46,4.62-.23,2.45.96,4.8,2.75,6.43.16.14.34.26.51.38-.57-.03-1.13-.1-1.67-.34-1.25-.48-2.39-1.39-3.3-2.38-.8-1.05-1.27-2.3-1.68-3.54Zm34.23-19.58c-.04-1.27,0-2.54-.16-3.8-.25-1.43-.63-2.88-1.42-4.12-.87-1.18-2.02-2.26-3.47-2.64-1.15-.39-2.27.08-3.35.47-1.99.65-3.21.43-4.91-.41.05-.15-.1-.25-.14-.38-.24-.67-.28-1.42-.31-2.13-.03-2.09.88-4.24,2.56-5.52,1.65-1.18,3.9-1.53,5.77-.68,1.03.42,1.87,1.25,2.82,1.83,1.18.62,2.57.88,3.5,1.91,2.76,2.96,2.63,8.43.98,11.94-.56,1.2-1.19,2.38-1.87,3.51Zm-86.05,15.76c1.15-1.25,2.37-2.43,3.66-3.55.26-.01.52,0,.78,0,3.73.05,7.37,1.09,10.96,2.04,4,1.11,7.82,2.81,11.57,4.57.78.42,1.55.87,2.33,1.31-5,.86-10.05,1.5-15.11,1.91-.21-.18-.65-.38-.75-.47-.9-.58-1.82-1.12-2.8-1.56-3.64-1.7-7.57-2.82-11.59-3.04.31-.42.62-.83.97-1.22Zm-1.14,1.46c.15,0,.31.01.46.02,5.11.39,10.13,2.08,14.44,4.83-.52.04-1.05.08-1.57.12-3.75.27-7.52.23-11.26-.13-1.43-.12-2.87-.28-4.31-.13-.26.05-.61,0-.82.19,0,0,0,0,0,0-.01,0-.02-.01-.03-.02,1.05-1.61,1.98-3.32,3.1-4.89Zm-2.8,5.05c2.03-.35,4.09.02,6.13.14,2.01.14,4.03.26,6.04.2,1.91-.07,3.82-.18,5.72-.32-.08.1-.17.19-.26.29-2.19,2.35-4.82,4.22-7.55,5.9-3.39-2.03-6.64-4.3-10.1-6.22Zm12.01,7.33c-.56-.31-1.12-.63-1.67-.96,2.84-1.76,5.62-3.74,7.83-6.27.03-.03.04-.06.04-.09,4.99-.38,9.97-.99,14.91-1.85-1.04,1.44-2.24,2.8-3.34,4.2-2.79,3.1-5.87,5.97-9.25,8.43-2.94-.87-5.79-2.02-8.52-3.45Zm8.81,3.54c3.2-2.29,6.08-5.03,8.76-7.9.74-.8,1.37-1.68,2.06-2.52.63-.77,1.31-1.51,1.84-2.35,4.49-.79,8.95-1.77,13.35-2.95-1.78,2.39-3.73,4.66-5.69,6.9-1.53,1.71-3.24,3.25-4.96,4.77-2.1,1.89-4.33,3.62-6.74,5.11-.05.05-.18.12-.3.19-2.49-.03-4.98-.37-7.39-.99-.31-.08-.62-.17-.93-.26Zm5.71,1.66s.02-.03.03-.04c2.21.21,4.44.19,6.66-.07,3.9-.41,7.67-1.77,10.76-4.21.87-.66,1.87-1.49,2.81-2.4.48-.23.99-.42,1.52-.52.06-.02.12-.02.18-.03-.82,1.22-1.76,2.37-2.72,3.48-1.78,1.9-3.75,3.59-5.84,5.15-.37-.07-.76-.13-1.13-.17-1.79-.26-3.59-.01-5.38.1-2.61.25-5.22.62-7.76,1.27.13-.85.38-1.7.88-2.56Zm-.92,7.01c1.69-.47,3.47-.73,5.23-.69.45.02.89.06,1.34.11-1.25.71-2.52,1.37-3.83,1.96-1,.47-2.05.93-3.08,1.35.27-.91.34-1.82.34-2.73Zm6.96-.8c-2.32-.32-4.71-.09-6.96.54-.02-1.31-.15-2.62,0-3.93.02,0,.05-.02.07-.02,2.47-.59,4.99-1,7.52-1.23,1.9-.14,3.83-.39,5.73-.11.24.02.48.06.71.1-1.46,1.08-2.97,2.09-4.5,3.06-.85.55-1.71,1.08-2.58,1.59Zm-6.78,3.59c.89-.37,1.79-.77,2.66-1.17,1.43-.63,2.82-1.36,4.17-2.15.06,1.09-.08,2.2-.59,3.18-2.08-.03-4.16-.06-6.23.14Zm6.54-.13c.31-.67.57-1.96.55-2.19.04-.38-.01-.76-.01-1.14,1.34-.79,2.65-1.63,3.95-2.49,1.06-.71,2.13-1.45,3.18-2.23,0,0,.02,0,.02,0,.06.62.09,1.24.05,1.87-.23,2-.5,4.06-1.36,5.91-.6.09-1.19.16-1.79.21-1.52.09-3.06.08-4.59.06Zm23.85-14.33c-1,3.01-2.72,5.81-4.88,8.13-1.37,1.44-2.97,2.6-4.72,3.5.17-.38.31-.78.44-1.17,1.18-3.28,2.04-6.75,2.22-10.24,0-.46.08-2.59-.28-3.1.56-.9,1.06-1.83,1.49-2.82,1.1,1.24,2.42,2.29,3.85,3.08.67.43,1.42.96,2.22,1.08-.06.06-.09.15-.09.25-.06.43-.15.86-.26,1.28Zm25.24,3.18c-1.15,1.44-2.53,2.87-4.2,3.72-3.32,1.44-4.78.24-7.92-.44-4.68-.45-9.08-1.11-11.2-5.94-.76-1.89-1.3-3.91-1.32-5.98-.03-.5.03-.99.09-1.48.23.32.5.62.8.89,1.32,1.2,2.92,2.22,4.75,2.28.67.06,1.34-.04,2.01.08.93.2,1.76.74,2.47,1.38.66.58,1.14,1.38,1.75,2.03.82.8,2.04,1.44,3.21,1.18,1.54-.29,2.54-1.54,2.99-2.97.11.08.22.16.3.23,1.5,1.05,3.26,1.67,5.02,2.13.87.22,1.75.42,2.62.54-.39.81-.83,1.61-1.36,2.35Zm22.73-12.95c-1.57.75-3.32.39-4.99.41-2.24.13-4.39,1.25-5.83,2.97-2.04,2.67-2.69,5.4-6.31,6.56-1.1.3-2.39.34-3.72.2-.07-.05-.15-.06-.23-.02-2.28-.27-4.66-1.04-6.41-1.87-.58-.32-1.15-.63-1.64-1.08-.01-.02-.03-.03-.04-.04.07-.33.11-.67.12-1-.03-2.43.37-3.87,2.68-5.03.34-.17.7-.22,1.07-.26.37.4.79.77,1.24,1.07,2.73,1.55,6.36,1.32,8.99-.36,1.63-1.02,3.11-2.47,4-4.21.31-.59.62-1.18,1.02-1.75.81-1.22,2.25-1.85,3.02-3.1.35-.52.6-1.09.82-1.67.2-.07.43-.21.59-.24,1.69-.69,3.32-1.51,4.98-2.27.04-.02.09-.04.13-.06.03.04.08.08.15.11,2.1,1.43,2.96,4.11,3.11,6.55.18,2.05-.84,4.22-2.77,5.1Zm6.69-6.5c-.12.42-.66-.08-.82-.24-.52-.54-.8-1.27-.96-2,.42.17.85.33,1.28.47.3.54.58,1.14.5,1.77Zm4.22,0c.22.28.58.69.39,1.06-.75-.28-.92-1.16-1.18-1.86.03,0,.06,0,.08.01.01.29.55.55.7.79Zm-3.76-3.22c-.25.35-.6.6-1.01.75-.05.02-.08.06-.11.1-.24-.09-.49-.18-.73-.27.43-.27.89-.54,1.36-.72.06-.02.11-.06.15-.11.1.07.2.14.31.2.01,0,.03.02.05.03,0,0,0,.02,0,.03Zm2.02.24c-.28.14-.58-.12-.88-.22-.97-.5-1.93-1.09-2.63-1.94.92.11,3.55,1.05,3.5,2.16Zm10.15-6.41c.6-.13,1.6-.27,1.87.44-.18.64-2.17.03-2.96-.25,0,0,.02,0,.03-.01.25.12.8-.17,1.06-.17Zm-14.26,4.26c.32.53.78.95,1.28,1.33,0,0,0,0-.01,0-.53.29-1.11.52-1.56.93-1.34-.58-2.6-1.32-3.76-2.27,1.33.13,2.69.13,4.06.01Zm-3.07-9.26c-.24,2.07,2.7,2.18,3.17,3.9.02,1.64-2.9,3.25-4.17,4.01-1.82.87-3.67,1.67-5.49,2.54-.48.23-.96.42-1.45.61.09-.26.17-.53.25-.8.27-1,.59-2,.74-3.02.14-2.32-.34-5.09-2.45-6.44-1.21-.61-2.66-.87-3.99-.61-.79.15-1.56.39-2.32.67.31-.52.56-1.07.87-1.59,1.07-1.84,1.92-3.84,2.17-5.96.06-.52.09-1.05.1-1.58.47.09.94.17,1.41.26,1.63.27,3.29.13,4.94.18,2.47.14,8.36.05,7.95,3.71-.22,1.51-1.33,2.69-1.72,4.13Zm19.49-10.96c-.76,1.25-1.5,2.47-2.45,3.6-2.97,3.58-7.8,5-12.31,5.19-.77,0-1.61-.05-2.39-.13-.19-.03-.44-.05-.66-.09.07-.15.13-.29.19-.44.38-.92.46-1.68.33-2.32.14-.06.29-.11.43-.15,4.73-1.48,9.56-2.87,13.9-5.33,2.13-1.09,3.96-2.62,5.81-4.13-1.03,1.21-2.02,2.46-2.85,3.81Zm-16.54,3.15c2.57-2.68,3.94-4.91,8.08-4.75,1.82-.03,3.65.08,5.45-.25,1.92-.41,3.77-1.14,5.53-2.01-1.61,1.34-3.25,2.66-5.09,3.68-4.47,2.6-9.46,4.06-14.37,5.59-.07.04-.25.08-.41.13-.16-.51-.48-.93-.89-1.28.64-.13,1.28-.71,1.71-1.11Zm-2.2-2.89c-.54.73-1.05,1.48-1.61,2.19-.08.14-.35.4-.49.65-.53-.13-1.08-.22-1.63-.29,1.11-1.19,2.06-2.51,3.07-3.78,1.63-2.05,3.25-4.12,4.68-6.32,2.04-3.17,3.79-6.52,5.31-9.97-.86,2.2-1.8,4.37-2.81,6.5-1.82,3.87-4.09,7.51-6.53,11.02Zm24.73-13.67c-3.18,2.42-7.41,2.93-11.3,2.52-1.01-.13-2.02-.33-3.01-.54-.93-.18-2.15-.51-3.01,0,.31-.68.62-1.35.92-2.04,2.37-1.67,5.16-2.6,7.96-3.28,2.19-.63,4.36-1.35,6.5-2.14,3.66-1.41,8.73-4.51,11.37-7.87-2.31,4.96-5.27,9.71-9.42,13.34Z"/><path class="cls-3" d="m176.47,84.47s0,0,0,.01c0,0,0,0,0,0,0,0,0,0,0,0Z"/></g></g><rect class="cls-1" width="211.35" height="193.62"/></g></g></svg>