<?xml version="1.0" encoding="UTF-8"?><svg id="_レイヤー_2" xmlns="http://www.w3.org/2000/svg" viewBox="0 0 147.92 20.96"><defs><style>.cls-1{fill:#e3dac2;}</style></defs><g id="_レイヤー_1-2"><g><path class="cls-1" d="m71.96,14.67c-3.1,2.9-7.95-.67-11.44-4.98-1.19-1.47-4.3,2.05-5.85.97-1.38-.97-2.78-1.91-4.28-2.69-3.08-1.6-6.43-2.6-9.93-2.41-3.36.18-6.5,1.62-9.43,3.17-4.16,2.21-8.15,4.97-12.6,6.56.99-1.27,2.55-5.12-.38-6.63-1.35-.7-3.17-.59-3.96.87-.83,1.53.41,3.12,1.91,3.39.51.09.05-.34-.16-.42-1.16-.43-.85-1.82.62-2.43.26-.11-.97-.87-.14-1.24,1.24-.56,2.52.91,2.68,2.3,0,.1-.87-.78-1.16-.15.86.92.71,2.41.17,3.2-.74,1.08-1.5,1.65-2.77,2.01-3.21.62-6.14-.12-7.76-3.2-1.55-2.91.06-5.98,2.71-7.49,3.12-1.78,6.68-1.3,9.47,1.29.15.14.7.5.52-.12C18.48,1.43,12.55-.94,7.48.34,1.79,1.77-.86,6.73.25,12.46c1.17,6.04,7.3,8.48,13.11,8.49,4.52.01,8.77-1.69,12.82-3.79.88,1.87,4.42,2.23,5.69.09,1.67-2.78,4.03-4.66,6.55-1.91.73-.94.08-3.73-1.91-3.77,1.73-.8,3.52-1.41,5.39-1.78,4.16-.83,8.43,1.53,5.48,3.99-2.95,2.47,2.22,5.17,2.82,1.09.68-4.7-3.97-8.06-12.03-4.97-6.42,2.46-11.93,6.72-18.54,8.78-4.12,1.28-9.22,1.83-13.18-.28-2.57-1.37-3.71-3.92-4.31-6.73C.86,5.67,6.53.66,12.02.96c3.41.19,6.12,2.2,7.46,5.26-4.19-3.44-11.08-3.61-13.44,1.92-.98,2.29-.63,5.06,1.54,6.94,1.68,1.45,4.16,1.98,6.34,1.95,5.13-.07,10.03-3.13,14.33-5.61,3.13-1.8,6.3-3.67,9.8-4.66,4.27-1.21,8.56-.3,12.38,1.8,3.77,2.07,6.97,5.02,10.91,6.79,3.77,1.69,8.53,1.99,11.49-.18.71-.51.17-1.48-.85-.51Z"/><path class="cls-1" d="m75.95,14.67c3.09,2.9,7.95-.67,11.44-4.98,1.2-1.47,4.3,2.05,5.86.97,1.38-.97,2.78-1.91,4.28-2.69,3.08-1.6,6.43-2.6,9.93-2.41,3.36.18,6.5,1.62,9.43,3.17,4.16,2.21,8.15,4.97,12.6,6.56-.99-1.27-2.55-5.12.38-6.63,1.35-.7,3.17-.59,3.96.87.83,1.53-.41,3.12-1.91,3.39-.51.09-.05-.34.16-.42,1.16-.43.85-1.82-.62-2.43-.26-.11.97-.87.14-1.24-1.24-.56-2.52.91-2.68,2.3,0,.1.88-.78,1.16-.15-.86.92-.71,2.41-.17,3.2.75,1.08,1.51,1.65,2.78,2.01,3.21.62,6.13-.12,7.76-3.2,1.55-2.91-.06-5.98-2.71-7.49-3.12-1.78-6.67-1.3-9.48,1.29-.15.14-.7.5-.52-.12,1.69-5.24,7.61-7.61,12.69-6.33,5.69,1.43,8.34,6.39,7.23,12.12-1.17,6.04-7.3,8.48-13.12,8.49-4.52.01-8.77-1.69-12.82-3.79-.87,1.87-4.41,2.23-5.69.09-1.67-2.78-4.03-4.66-6.55-1.91-.73-.94-.08-3.73,1.91-3.77-1.73-.8-3.52-1.41-5.39-1.78-4.17-.83-8.43,1.53-5.49,3.99,2.96,2.47-2.22,5.17-2.82,1.09-.68-4.7,3.97-8.06,12.03-4.97,6.42,2.46,11.93,6.72,18.54,8.78,4.12,1.28,9.22,1.83,13.18-.28,2.57-1.37,3.71-3.92,4.31-6.73,1.28-6.02-4.38-11.03-9.87-10.72-3.42.19-6.12,2.2-7.46,5.26,4.2-3.44,11.08-3.61,13.44,1.92.98,2.29.63,5.06-1.54,6.94-1.67,1.45-4.16,1.98-6.34,1.95-5.13-.07-10.03-3.13-14.33-5.61-3.12-1.8-6.3-3.67-9.79-4.66-4.27-1.21-8.56-.3-12.39,1.8-3.77,2.07-6.97,5.02-10.91,6.79-3.77,1.69-8.53,1.99-11.49-.18-.7-.51-.17-1.48.85-.51Z"/></g></g></svg>