<?xml version="1.0" encoding="UTF-8"?><svg id="_レイヤー_2" xmlns="http://www.w3.org/2000/svg" xmlns:xlink="http://www.w3.org/1999/xlink" viewBox="0 0 246.08 179.54"><defs><style>.cls-1{fill:none;}.cls-2{clip-path:url(#clippath);}.cls-3{fill:#e3dac2;}.cls-4{fill:#989382;}.cls-5{fill:#233e79;}.cls-6{fill:#222a3d;}.cls-6,.cls-7,.cls-8,.cls-9,.cls-10{fill-rule:evenodd;}.cls-7{fill:#bdada8;}.cls-8{fill:#331a19;}.cls-9{fill:#fce6e0;}.cls-10{fill:#fefefe;}</style><clipPath id="clippath"><path class="cls-4" d="m49.07,84.77C49.07,42.1,83.66,7.5,126.34,7.5s77.27,34.6,77.27,77.27-34.59,77.27-77.27,77.27S49.07,127.45,49.07,84.77m-2.73,0c0,44.11,35.89,80,80,80s80-35.89,80-80S170.45,4.77,126.34,4.77,46.34,40.66,46.34,84.77"/></clipPath></defs><g id="_レイヤー_1-2"><g><g><g><path class="cls-4" d="m49.07,84.77C49.07,42.1,83.66,7.5,126.34,7.5s77.27,34.6,77.27,77.27-34.59,77.27-77.27,77.27S49.07,127.45,49.07,84.77m-2.73,0c0,44.11,35.89,80,80,80s80-35.89,80-80S170.45,4.77,126.34,4.77,46.34,40.66,46.34,84.77"/><g class="cls-2"><rect class="cls-5" x="46.34" y="4.77" width="160" height="160"/></g></g><g><path class="cls-10" d="m126.34,10.23c41.17,0,74.55,33.38,74.55,74.55s-33.38,74.55-74.55,74.55S51.79,125.95,51.79,84.77,85.17,10.23,126.34,10.23h0Z"/><path class="cls-8" d="m123.43,32.83c17.27-2.26,28.88,6.81,28.28,28.1-.82,28.95-11.42,33.05-23.59,33.38-16.05.43-23.31-13.22-24.26-27.19-1.13-16.55,5.93-34.25,19.58-34.29h0Z"/><path class="cls-9" d="m114.07,84.44s2.8,19.49-.46,24.96c-5.37,6.83-14.3,8.78-27.02,14.98,6.34,14.79,13.15,25.39,20.11,32.35,6.24,1.69,12.79,2.6,19.57,2.6,9.19,0,17.99-1.67,26.12-4.71,6.56-7.21,12.47-17.26,17.35-29.44-19.72-11.19-20.73-10.46-25.65-15.73-2.71-2.9-3.72-10.29-4.13-26.12l-25.88,1.11h0Z"/><path class="cls-7" d="m114.47,86.99l25.82,3.64c.53,10.89,1.61,16.4,3.86,18.82.06.07.13.13.19.2-17.81,5.6-26.52-6.22-29.28-16.03-.17-2.59-.4-4.95-.6-6.63h0Z"/><path class="cls-9" d="m106.32,65.53c-1.95,0-3.12,4.39-2.02,8.63,1.1,4.24,1.7,8.06,3.65,8.06,1.95,0,1.09-2.75,1.1-7.71.01-4.96-.79-8.98-2.74-8.99h0Z"/><path class="cls-7" d="m106.93,67.1c-.87-.1-1.44,2.21-1.65,3.39-.21,1.18-.18,4.34.49,5.95.54,1.3,1.36,4.79,1.75.61.1-1.07-.46-1.3-.67-2.62-.22-1.32.43-2.18.76-2.55,1.26-1.41.17-4.68-.67-4.78h0Z"/><path class="cls-9" d="m150.39,65.58c1.95,0,3.09,4.41,1.97,8.64-1.12,4.24-1.74,8.05-3.69,8.04-1.95,0-1.08-2.75-1.06-7.71s.83-8.98,2.79-8.97h0Z"/><path class="cls-7" d="m149.78,67.15c.87-.1,1.43,2.22,1.64,3.4.21,1.18.16,4.34-.52,5.95-.55,1.3-1.38,4.78-1.75.6-.09-1.07.46-1.29.69-2.62.22-1.32-.42-2.18-.75-2.55-1.25-1.42-.15-4.68.69-4.78h0Z"/><path class="cls-9" d="m128.26,39.89c22.25,0,20.32,13.23,20.27,31.34-.05,18.11-12.41,30.16-20.65,29.43-7.44-.26-19.85-10.77-19.8-28.88.04-13.84,1.4-26,11.01-30.58,2.96-1.41,3.93-1.31,9.17-1.31h0Z"/><path class="cls-8" d="m123.48,40.81c24.09-.18,26.09-22.69,3.71-22.61-11.28.02-25.81,14.3-3.71,22.61h0Z"/><path class="cls-6" d="m182.17,134.17c-1.97-4.43-6.87-8.71-11.5-10.56-7.23-3.51-12.43-4.72-19.05-8.56-8.01,33.07-44.02,23.32-45.45.16-9.5,3.48-10.91,4.54-20.73,8.34,0,0-9.79,3.19-12.89,12.83,13.57,14.13,32.65,22.93,53.79,22.93,22.22,0,42.17-9.73,55.83-25.15h0Z"/><path class="cls-8" d="m109.1,69.7c2.74-10.86,20.74-10.36,28.48-22.72,10.55,10.75,8.48,12.14,9.83,22.89,2.18-3.43,2.52-9.99,2.38-12.47-.38-11.96-10.68-23.07-21.75-21.69-15.79,3.14-18.55,8.79-23.47,27.82,2.98,1.93,3.3,2.8,4.54,6.17h0Z"/></g><path class="cls-3" d="m245.75,76.14c-.45.12-.73.58-1.08.87-.81.82-1.73,1.54-2.79,2.04-4.64,2.25-9.84,3.13-14.98,3.11-.11,0-.22-.02-.33-.03,1.56-1.52,3.15-3.01,4.65-4.6,1.55-1.66,3.21-3.48,3.52-5.82.2-1.6-.22-3.2-.61-4.75-.36-1.41-1.03-2.68-1.93-3.83-1.82-2.46-3.98-4.66-5.96-6.99-1.1-1.29-2.02-2.71-3.04-4.06-.16-.26-.53-.37-.68-.05-.21.93.04,1.92,0,2.86-.03,1.35-.12,2.71-.47,4.04-.2.67-.46,1.28-.8,1.91-.07-.2-.15-.39-.22-.58-.98-2.46-2.14-4.85-3.49-7.13-1.41-2.19-2.93-4.31-4.37-6.49-1.09-1.6-2.08-3.25-2.92-5-.29-.6-.54-1.22-.81-1.82-.13-.24-.23-.76-.6-.57-.11.06-.13.19-.1.3.09.27.21.53.3.79.32.83.63,1.66.87,2.52.75,3.35,1.31,6.96.62,10.36-2.17-2.55-4.53-4.94-6.83-7.37-1.31-1.44-2.36-3.09-3.61-4.57-.26-.21-.86-1.21-1.26-.83-.1.09-.09.24-.06.35.1.35.22.68.33,1.03.02.06.04.12.05.18-1-1.71-2.05-3.39-3.17-5.02-5.78-8.43-13.03-15.84-21.41-21.7-26.36-18.69-62.23-20.43-90.28-4.39-23.3,13.01-39.57,37.48-42.43,64.06-4.05,34.38,13.75,68.23,44.35,84.4,4.9,2.59,10.03,4.77,15.35,6.35.12.04.23.07.35.11,0,0,0,.02-.01.02-.01.04-.02.08-.04.12,0,.03-.01.07-.01.11,0,0,0,.01,0,.02.08.77.49,1.19,1.59,1.48,2.86,1.09,5.73,2.17,8.68,3.03,5.18,1.56,10.58,2.24,15.98,2.23,3.35.11,6.72.31,10.06,0,3.17-.36,6.31-.93,9.41-1.7.1.11.28.16.4,0,1.41-.37,2.85-.11,4.26.1,1.33.19,2.61.61,3.87,1.1,2.13.69,4.31,1.35,6.33,2.26,3.11,1.33,6.07,3.05,9.41,3.78,3.28.87,6.69,1.2,10.09,1.11,3.35-.03,6.65-.65,9.71-2.05,1.29-.57,2.51-1.18,3.69-1.98,2.53-1.87,4.66-4.26,6.62-6.71,1.65-2.17,3.29-4.36,4.78-6.65,2.09-3.29,3.86-6.77,5.57-10.27.03-.08.07-.16.07-.25,0-.18-.2-.34-.37-.25-.25.13-.37.42-.54.63-.73,1.11-1.56,2.17-2.53,3.09-3.17,2.92-7.16,4.74-11.16,6.24-5.89,2.13-12.16,3.08-18.02,5.33-3.59,1.31-6.86,3.31-10.33,4.87-1.19.55-2.4,1.04-3.64,1.48-1.09.43-2.28.54-3.33,1.07-1.91-.86-3.93-1.45-5.92-2.1-1.85-.76-3.79-1.23-5.78-1.44-.2-.03-.4-.05-.61-.07,4.22-1.22,8.34-2.81,12.28-4.76,2.84-1.53,5.68-3.08,8.46-4.72,1.57-.97,3.13-1.96,4.66-2.99.11.04.23-.02.33-.08.66-.36,1.32-.72,1.98-1.07,1.62-.82,3.37-1.48,5.05-2.13,3.13-1.13,6.47-1.65,9.77-2.13,3.97-.69,7.99-1.23,11.87-2.34,2.85-1.01,5.51-2.6,7.78-4.59,2.16-2.01,4-4.39,5.55-6.9,2.3-3.85,3.69-8.13,4.9-12.42.07-.23-.09-.53-.35-.46-.13.03-.21.14-.28.24-.3.48-.55.98-.82,1.47-1.01,1.8-2.14,3.56-3.4,5.2-3.62,4.64-8.19,8.61-13.55,11.1-2.43,1.19-4.92,2.28-7.47,3.18-2.46.93-5.02,1.61-7.39,2.76-2.5,1.13-4.76,2.7-6.89,4.44-1.42.51-2.81,1.08-4.17,1.72,3.92-2.79,7.68-5.81,11.18-9.1,3.74-3.52,6.91-7.6,9.87-11.79,4.45-6.27,8.57-12.91,10.75-20.35.58-2.01,1.27-4.07,1.66-6.14.29-1.63.34-3.3.4-4.95-.02-.13,0-.61.03-1.24.02-.47.04-1.03.04-1.58,0-.02,0-.03,0-.05,2.12.07,4.25-.48,5.9-1.89.92-.74,1.67-1.66,2.36-2.62.46-.69.97-1.41,1.15-2.24,0-.04,0-.09-.02-.12.43-.07.86-.15,1.29-.23,5.16-1.06,10.53-2.59,14.74-5.87,3.51-3,6.65-6.72,8.25-11.1.11-.24.02-.59-.28-.57Zm-36.69,80.25c-1.33,1.95-2.79,3.81-4.51,5.44-3.17,2.89-6.5,5.72-10.21,7.91-6.42,3.55-14.12,6.2-21.5,6.25-2.73-.15-5.51-.25-8.16-.98-.34-.11-.67-.27-1-.44.2.01.4.02.6.03,1.65-.02,3.29-.19,4.93-.34,2.03-.23,4.07-.39,6.07-.83,2.02-.44,4.01-1.02,6-1.58,7.11-2,13.87-5.2,19.97-9.36,2.64-1.83,5.34-3.65,7.63-5.92.07-.07.13-.15.2-.22,0,0-.01.02-.02.03Zm-42.79,19.41c-.08-.01-.22-.11-.37-.21,1.82.39,3.74.41,5.57.6,8.88.55,20.98-3.92,27.82-9.55,3.33-2.64,6.69-5.37,9.14-8.89.1-.15.21-.31.32-.46-.82,1.34-1.69,2.64-2.69,3.86-4.07,5.2-10.11,10.38-16.12,13.15-2.49,1.06-5.08,1.87-7.72,2.5-2.82.66-5.74,1.11-8.64.87-1.46-.09-2.88-.5-4.28-.88-1.01-.3-2.05-.54-3.02-.97Zm43.86-21.16c-.49.69-1.02,1.36-1.63,1.96-2.23,2.14-4.79,3.89-7.33,5.64-6.28,4.3-13.26,7.55-20.6,9.55-3.02.84-6.03,1.7-9.17,1.96-1.51.17-3.03.34-4.55.44-.99.07-1.99.17-2.99.12,1.79-.47,3.48-1.2,5.22-1.82,6.79-2.28,13.66-4.38,20.44-6.7,4.34-1.48,8.64-3.12,12.61-5.42,2.98-1.45,5.78-3.27,8-5.74Zm-6.98,11.67c-1.35,1.83-2.72,3.63-4.31,5.27-1.75,1.86-3.65,3.64-5.99,4.73-2.65,1.34-5.51,2.3-8.49,2.54-3.94.34-7.94.14-11.79-.8-1.34-.34-2.67-.69-3.96-1.2,1.76.5,3.54,1.03,5.39,1.09,5.51.31,12.75-1.75,17.68-4.2,4.98-2.74,9.41-6.47,13.19-10.7,1.24-1.45,2.38-2.98,3.43-4.57-.23.41-.47.82-.71,1.23-1.31,2.31-2.85,4.49-4.44,6.62Zm-26.52,2.21c3.52-1.67,7.27-2.8,11.03-3.77,5.17-1.34,10.4-2.62,15.19-5.04.06-.03.12-.06.18-.09-.55.29-1.1.58-1.65.86-3.45,2-7.19,3.4-10.95,4.73-7.06,2.45-14.21,4.63-21.3,7-.01,0-.02,0-.03.01,2.55-1.13,5-2.48,7.52-3.7Zm43.06-34.56c-1.75,4.15-4.28,7.98-7.53,11.12-2.08,1.89-4.54,3.35-7.14,4.42-3.39,1.15-7.01,1.58-10.53,2.24-3.3.56-6.64.91-9.86,1.85.27-.16.54-.31.82-.45,2.02-.99,4.18-1.75,6.37-2.31,4.61-1.19,9.48-1.89,13.59-4.45,4.09-2.61,7.97-5.64,11.2-9.28,1.33-1.64,2.52-3.4,3.49-5.29.6-1.28,1.15-2.61,1.64-3.94.03-.05.06-.1.09-.15-.67,2.09-1.31,4.2-2.14,6.24Zm-27.72,15.37c2.38-.85,4.79-1.63,7.15-2.55,3.73-1.5,7.42-3.2,10.74-5.49,4.43-3.19,8.21-7.31,11.05-11.99-.16.39-.33.78-.48,1.17-.56,1.39-1.31,2.68-2.16,3.92-.62.96-1.28,1.9-2.03,2.75-2.38,2.64-5.11,4.96-8.01,7-1.47,1.1-3,2.13-4.66,2.96-3.3,1.61-6.95,2.27-10.49,3.15-2.28.52-4.52,1.2-6.66,2.15-.53.22-1.04.48-1.54.75,2.17-1.6,4.57-2.88,7.09-3.84Zm-124.52-4.27c-15.62-15.01-25.02-36.19-25.58-57.86C40.33,41.15,76.82,2.1,122.91.57c23.33-.99,46.75,8.38,63.05,25.09,3.57,3.64,6.8,7.61,9.69,11.81,1.26,1.84,2.44,3.78,3.55,5.71.19.32.37.65.55.98.19.75.36,1.51.51,2.27.92,4.48.68,9.07.55,13.62-.09-.11-.18-.21-.28-.31-3.16-3.42-6.67-6.47-10.15-9.54-2.01-1.94-3.94-3.94-5.8-6.02-.25-.29-.5-.6-.77-.87-.09-.1-.23-.19-.37-.14-.23.07-.21.35-.1.52.75,1.43,1.6,2.82,2.15,4.36,1.2,3.31,2.25,6.64,2.79,10.13.43,2.46.7,4.95,1.07,7.42-.06-.02-.12-.03-.16-.05-2.75-.92-5.67-1.12-8.54-1.36-1.55-.17-3.07-.31-4.6-.71-1.01-.27-1.95-.77-2.92-1.15-.16-.05-.35.03-.39.2,0,.34.33.58.48.87.9,1.3,1.77,2.63,2.55,4.01,1.62,2.79,2.84,5.82,4.47,8.6,1.52,2.55,3.47,4.84,5.57,6.93.35.35.7.68,1.07,1-2.48.3-4.91.94-7.33,1.54-1.78.45-3.61.64-5.44.64-1.56,0-3.11-.58-4.67-.65-.32-.01-.53.32-.3.57.35.35.74.66,1.11.99,7.08,6.57,15.86,9.41,25.45,9,1.72-.06,3.42-.31,5.12-.48.46-.04.92-.07,1.38-.11.26,2.27,3.3,3.7,5.83,4.49.14,2.28.24,4.57-.06,6.84-.22,2.62-.77,5.19-1.55,7.69-.86,2.92-1.87,5.87-3.27,8.59-3.14,6.15-7.5,11.6-12.04,16.77-.86.97-1.78,1.88-2.71,2.77,2.82-4.42,4.22-9.64,4.44-14.86.1-3.2-.55-6.39-1.64-9.4-1.6-4.35-5.15-8.22-9.77-9.28-1.87-.44-3.88-.37-5.66.4-.21.09-.47.19-.57.41-.13.56.85,1.01,1.23,1.33,1.29.84,2.6,1.66,3.82,2.61,2.31,1.69,4.46,3.67,6.17,5.97,1.08,1.52,1.82,3.24,2.47,4.99.81,2.19,1.16,4.55,1.22,6.89.15,2.69.21,5.52-.88,8.03-.05.1-.07.23.01.33-.61,1.18-1.23,2.37-2.1,3.39-.27.32-.56.64-.87.95-.14.17-.53.48-.67.77-1.16,1.02-2.33,2.04-3.48,3.07-4.26,3.73-8.74,7.25-13.57,10.22-3.07,1.8-6.26,3.4-9.49,4.9-2.95,1.23-5.92,2.44-8.99,3.34-2.31.67-4.68,1.14-7.05,1.52,2.23-1.24,4.72-2.1,6.9-3.46,4.28-2.75,8.08-6.19,11.7-9.76,3.61-3.5,6.87-7.35,9.07-11.91,1.48-3.3,2.6-6.88,2.79-10.51.11-3.02-1.04-5.85-2.13-8.61-.82-2.05-1.74-4.04-2.46-6.13-.91-2.19-1.44-4.57-1.6-6.94,0-.33-.09-.83-.5-.56-.19.26-.1.62-.14.92.14,4.44-1.73,8.53-2.97,12.72-1.1,3.55-1.72,7.26-1.5,10.98.13,4.05.66,8.12.06,12.16-.62,3.26-1.63,6.48-3.14,9.45-.24.43-.67.78-1.03,1.11-1.74,1.62-3.58,3.12-5.46,4.56-1.86,1.48-3.91,2.7-6.07,3.7-1.39.69-2.92,1.18-4.19,2.08,0,0,0,0,0,0-.41.18-.82.33-1.24.46-1.4.19-2.8.36-4.2.52-3.45.33-6.98.48-10.45.42-5.11-.19-10.18-1.08-15.19-2.08-2.92-.59-5.82-1.24-8.72-1.95,0,0-.02,0-.03,0-.04.01-.08.03-.11.04,0,0,0,0,0,0-.03,0-.05.02-.08.03-.03-.03-.07-.06-.12-.07-.18-.05-.37-.11-.55-.17-12.76-3.9-24.6-10.83-34.18-20.14Zm150.24-50.57c.47-.06.94-.12,1.41-.19-1.21,1.94-2.99,3.52-5.02,4.57-1.11.57-2.37.74-3.6.87,0,0,0,0-.01,0,.16-.08.32-.17.48-.23,2.18-.92,4.03-2.65,4.89-4.87.61-.07,1.24-.11,1.85-.16Zm-12.97,3.39c-.91-.58-1.85-1.37-2.02-2.49.41-.03.82-.07,1.23-.11.5,1.11,1.41,1.96,2.3,2.77.59.55,1.25,1.04,1.97,1.39-1.27-.41-2.48-.95-3.47-1.56Zm2.09-2.89c.07.49.32.95.52,1.4.62,1.21,1.42,2.3,2.33,3.31-.07-.02-.14-.04-.21-.07-1.71-.42-3.01-1.67-4.21-2.9-.45-.42-.76-.94-1.05-1.48.87-.08,1.74-.17,2.61-.26Zm3.17,4.67s-.04-.04-.05-.06c-.36-.42-.75-.85-1.09-1.31-.51-.68-.96-1.4-1.34-2.16-.16-.38-.37-.76-.43-1.17.05,0,.09,0,.14-.01.68-.07,1.42-.22,2.06.09.01,0,.03.01.05.02-.06.31-.06.74-.09.88-.11,1.27.18,2.58.76,3.72,0,0,0,0,0,0Zm-2.24-5.3c-1.27.15-2.54.26-3.81.4-2.58.16-5.15.52-7.73.71-6.5.36-13.15-.84-18.9-3.96-2.72-1.49-5.11-3.46-7.43-5.51,1.41.2,2.86.63,4.31.62,4.52.1,8.76-1.83,13.22-2.24,3.06,2.57,6.67,4.44,10.27,6.15,1.79.84,3.58,1.72,5.44,2.39,1.41.53,2.89.86,4.33,1.3.13.04.25.09.37.13-.02,0-.05,0-.07,0Zm-18.97,24.77c-1.66-3.75-4.41-7.36-8.43-8.7-1.2-.49-2.49-.7-3.78-.72,4.47-1.48,9.46,1.22,12.08,4.91,2.43,3.44,3.47,7.74,3.69,11.91,0,3.18-.46,6.37-1.42,9.41.11-.7.19-1.4.21-2.12v.02c.04-4.98-.14-10.14-2.34-14.7Zm-12.98-9.12s.05-.02.08-.03c7.59-.28,12.1,6.24,13.99,12.86.68,2.49.86,5.09.94,7.66.09,1.79.13,3.58-.15,5.35.12-1.34.04-2.69-.02-4.03-.08-4.55-1.44-9.16-4.17-12.85-1.93-2.43-4.31-4.48-6.83-6.27-1.25-.95-2.68-1.64-3.87-2.67,0,0,.01-.02.02-.03Zm-13.08,26c-.16-2.77-.1-5.56.51-8.27.88-4.77,3.23-9.18,3.8-14.01.26,2.38-.21,4.84-.7,7.17-.32,1.85-.71,3.71-1.11,5.55-.57,2.65-.82,5.37-.86,8.08-.08,2.59.06,5.19-.24,7.77-.46,3.63-1.51,7.18-2.91,10.57.69-1.93,1.23-3.91,1.57-5.94.49-3.63.14-7.28-.05-10.91Zm6.94-14.75c2.54,7.48,2.07,15.98-1.84,22.92-1.94,3.64-4.27,7.06-6.85,10.28.31-.63.62-1.27.92-1.9,3.59-7.37,6.79-15.17,7.29-23.45h0c.11-2.45-.45-4.87-.81-7.28-.29-1.98-.52-3.96-.75-5.94.24.91.6,1.78.96,2.65.33.92.69,1.82,1.07,2.73Zm-1.1,3.24c.53,2.75.47,5.56-.04,8.31-.92,6.02-3.14,11.76-5.72,17.25-.38.82-.77,1.64-1.17,2.46,1.83-4.52,3.03-9.33,2.97-14.23,0-3.56.04-7.13.66-10.64.46-2.28.98-4.53,1.36-6.82.32-1.65.71-3.3.75-4.99.33,2.89.69,5.78,1.2,8.65Zm-7.07,29.72c2.57-3.21,4.84-6.67,6.76-10.3,2.05-3.87,3.23-8.2,3.24-12.59.08-2.69-.28-5.37-.96-7.98.29.69.57,1.39.82,2.09.91,2.19,1.63,4.49,1.6,6.89-.01,2.12-.58,4.19-1.13,6.22-.8,2.77-2.06,5.38-3.61,7.82-2.02,3.19-4.64,5.93-7.32,8.57.2-.24.4-.48.59-.72Zm50.35-53.12c0,1.51-.06,3-.14,4.51-.08,3-1.03,5.87-1.88,8.72-1.71,5.79-4.52,11.21-7.88,16.22-2.52,3.82-5.16,7.56-8.1,11.07-5.6,6.68-12.69,11.93-19.88,16.8-2.75,1.81-5.62,3.45-8.52,5.02-1.98,1.12-3.97,2.21-6.07,3.12-5.44,2.32-11.12,4.17-16.97,5.15-1.47.24-2.95.47-4.43.63-2.24.21-4.54.15-6.78.1-4.13-.19-8.29-.08-12.37-.83-5.58-.9-10.97-2.83-16.2-4.93-.2-.23-.27-.52-.28-.82.84.2,1.69.41,2.53.61,6.33,1.45,12.71,2.77,19.19,3.31,4.41.32,8.85.08,13.25-.33,4.28-.51,8.59-1.07,12.74-2.26,6.36-1.89,12.41-4.71,18.17-7.99,5.72-3.4,10.91-7.63,15.86-12.05.61-.53,1.22-1.06,1.83-1.6.04-.02.08-.04.1-.08,0-.01.02-.02.02-.03,2.62-2.32,5.14-4.74,7.35-7.47,4.23-5.01,8.25-10.31,11-16.3,1.21-2.67,2.09-5.49,2.89-8.31.88-3,1.28-6.13,1.42-9.25,0-1.35-.05-2.7-.13-4.06.6.17,1.16.31,1.63.41.53.12,1.08.2,1.63.25,0,.12,0,.25,0,.37Zm9.25-6.64c-.47.99-1.12,1.87-1.82,2.7-1.38,1.66-3.37,2.91-5.57,3.03-.47.04-.97.04-1.49.01-.09,0-.19-.01-.28-.02-.48-.04-.96-.1-1.45-.19,1.2-.08,2.42-.29,3.52-.79,2.23-1.09,4.18-2.83,5.46-4.96,0,0,0,0,0,0,0,0,0,0,0,.01,0,0,0,0,0-.01.6-.09,1.2-.18,1.8-.28-.06.16-.08.37-.17.49Zm16.22-6.95c-3.8,2.88-8.49,4.34-13.09,5.37-2.17.48-4.44.81-6.65,1.09-.4.07-3.42.09-3.12.68.04.16.23.22.37.16.24-.06.48-.1.72-.14,0,.02-.01.03-.02.04-.89,2.26-2.88,3.81-5.07,4.74.53-.56,1.05-1.13,1.57-1.69.84-.88,1.48-1.96,1.74-3.16,0,0,0-.02,0-.04.03-.17-.24-.2-.26-.04,0,.03,0,.04-.02.08-.42,1.98-2.02,3.34-3.34,4.78,0,0,0-.01,0-.02-.63-1.32-.83-2.85-.54-4.29.13.03.26.02.35-.13.09-.16-.04-.39-.23-.38-.18-.08-.38-.17-.59-.27-1.79-.86-3.82-1.16-5.68-1.85-3.92-1.51-7.71-3.39-11.38-5.44-3.88-2.28-7.19-5.42-9.86-9.03-2.36-3.12-3.74-6.85-5.64-10.25-.88-1.61-1.88-3.17-2.92-4.68,1.99,1,4.16,1.3,6.36,1.53,2.78.24,5.57.44,8.29,1.15.38.12.76.26,1.14.37.38,2.46.86,4.89,1.71,7.25,2.7,7.78,10.05,14.28,18.18,15.75.13-.02.23-.13.22-.27,0-.13-.12-.26-.26-.25-.29-.06-.58-.13-.88-.19-1.06-.2-2.07-.58-3.05-1-3.79-1.53-7.08-4.03-9.71-7.16-4.67-5.37-5.58-12.56-6.4-19.37-.5-3.54-1.17-7.06-2.36-10.44-.61-1.84-1.21-3.68-2.18-5.38,1.79,1.91,3.61,3.87,5.54,5.67,1.78,1.61,3.61,3.15,5.38,4.78,1.78,1.7,3.51,3.44,5.18,5.25,0,0,0,0,0,0-.02.62-.03,1.25-.03,1.87-.1,8.62,1.82,16,7.64,22.56,1.33,1.71,3.73,3.84,2.32,6.16-.08.2.11.41.31.36.1-.03.17-.11.19-.2.32-.55.5-1.18.45-1.81-.18-2.22-2.32-3.97-3.57-5.7-5.26-6.11-6.94-13.64-6.81-21.55,0-3.23.29-6.46.17-9.7-.1-3.85-.72-7.67-1.95-11.33,1.34,1.55,2.45,3.34,3.85,4.85,1.86,1.97,3.77,3.88,5.56,5.91,3.09,3.45,6.12,7.37,6.89,12.06.69,3.08.41,6.31-.29,9.38-.73,3.73-1.38,7.54-2.82,11.1-.13.33.35.5.48.2.58-1.46,1.06-2.95,1.43-4.47.58-2.22.96-4.44,1.41-6.71.36-1.66.65-3.34.7-5.04.08-3.06-.51-6.18-1.79-8.97-.9-1.81-2.03-3.53-3.27-5.13-.24-.3-.48-.59-.72-.88.81-3.39.29-6.95-.37-10.33,2.02,3.69,4.68,6.98,6.87,10.57,1.4,2.51,2.68,5.17,3.64,7.9,2.12,5.73,2.05,9.18-.81,14.64-1.79,3.54-3.97,6.91-5.23,10.69-.12.44-.87,2.51-.11,2.54.2,0,.31-.26.2-.41.14-1.9,1.04-3.62,1.79-5.35,2.21-4.76,5.73-9.19,6.17-14.57.13-2.74-.66-5.4-1.61-7.95.06-.08.11-.19.16-.28,1.51-2.58,1.45-5.69,1.32-8.59,2.45,3.75,5.72,6.84,8.47,10.36,1,1.25,1.86,2.66,2.23,4.23.37,1.48.77,3.01.55,4.55-.52,2.9-2.95,4.91-4.88,6.96-1.15,1.14-2.32,2.26-3.48,3.38-.06.02-.11.07-.14.14-1.27,1.23-2.55,2.46-3.8,3.71-1.8,1.81-3.81,3.37-5.73,5.04-.55.5-1.11,1-1.65,1.52-.16.13-.17.38.02.48.12.07.27,0,.34-.09,1.74-1.71,3.68-3.2,5.51-4.82,1.92-1.72,3.7-3.6,5.58-5.37.03-.03.07-.06.1-.1.12,0,.26,0,.37.03,1.32.12,2.67.01,3.99-.11,2.78-.19,5.57-.69,8.21-1.61,2.48-.79,4.93-1.87,6.71-3.84-1.7,4.1-4.66,7.63-8.05,10.45Z"/><path class="cls-3" d="m128.16,145.64c-15.09,0-27.93-10.96-31.25-26.79l.95-.4c3.23,15.36,15.7,26.19,30.3,26.19s27.09-10.83,30.32-26.19l.93.39c-3.33,15.83-16.17,26.8-31.26,26.8Z"/></g><rect class="cls-1" width="246.08" height="179.54"/></g></g></svg>