<?xml version="1.0" encoding="UTF-8"?><svg id="_レイヤー_2" xmlns="http://www.w3.org/2000/svg" xmlns:xlink="http://www.w3.org/1999/xlink" viewBox="0 0 200.05 200.09"><defs><style>.cls-1{fill:none;}.cls-2{clip-path:url(#clippath);}.cls-3{fill:#e3dac2;}.cls-4{fill:#989382;}.cls-5{fill:#233e79;}.cls-6{fill:#222a3d;}.cls-6,.cls-7,.cls-8,.cls-9,.cls-10{fill-rule:evenodd;}.cls-7{fill:#bdada8;}.cls-8{fill:#331a19;}.cls-9{fill:#fce6e0;}.cls-10{fill:#fefefe;}</style><clipPath id="clippath"><path class="cls-4" d="m20.78,85.17C20.78,42.5,55.38,7.9,98.06,7.9s77.27,34.6,77.27,77.27-34.59,77.27-77.27,77.27S20.78,127.85,20.78,85.17m-2.73,0c0,44.11,35.89,80,80,80s80-35.89,80-80S142.17,5.17,98.06,5.17,18.05,41.06,18.05,85.17"/></clipPath></defs><g id="_レイヤー_1-2"><g><g><path class="cls-4" d="m20.78,85.17C20.78,42.5,55.38,7.9,98.06,7.9s77.27,34.6,77.27,77.27-34.59,77.27-77.27,77.27S20.78,127.85,20.78,85.17m-2.73,0c0,44.11,35.89,80,80,80s80-35.89,80-80S142.17,5.17,98.06,5.17,18.05,41.06,18.05,85.17"/><g class="cls-2"><rect class="cls-5" x="18.05" y="5.17" width="160" height="160"/></g></g><g><path class="cls-10" d="m98.06,10.63c41.17,0,74.55,33.38,74.55,74.55s-33.38,74.55-74.55,74.55S23.51,126.35,23.51,85.17,56.88,10.63,98.06,10.63h0Z"/><path class="cls-8" d="m71.69,98.4c-7.67-29.84,2.22-74.75,23.35-71.4,30.48-9.29,41.68,37.68,31.06,69.47-.96-.1-33.81-13.03-54.4,1.93h0Z"/><path class="cls-9" d="m85.75,78.6s2.8,19.49-.46,24.96c-5.37,6.83-14.3,8.78-27.02,14.98,9.95,23.19,21.03,36.09,32.05,40.78,2.54.26,5.12.4,7.74.4,4.72,0,9.34-.44,13.82-1.28,11.41-5.79,21.78-19.74,29.53-39.1-19.72-11.19-20.73-10.46-25.65-15.73-2.71-2.9-3.72-10.29-4.13-26.12l-25.88,1.11h0Z"/><path class="cls-7" d="m86.07,81.16l25.82,3.64c.53,10.89,1.61,16.4,3.86,18.82.06.07.13.13.19.2-17.81,5.6-26.52-6.22-29.27-16.03-.17-2.59-.4-4.95-.6-6.63h0Z"/><path class="cls-9" d="m77.92,59.69c-1.95,0-3.12,4.39-2.02,8.63,1.1,4.24,1.7,8.06,3.65,8.06,1.95,0,1.09-2.75,1.1-7.71.01-4.96-.79-8.98-2.74-8.99h0Z"/><path class="cls-7" d="m78.53,61.27c-.87-.1-1.44,2.21-1.65,3.39-.21,1.18-.18,4.34.49,5.95.54,1.3,1.36,4.79,1.75.61.1-1.07-.46-1.3-.67-2.62-.22-1.32.43-2.18.76-2.55,1.26-1.41.17-4.68-.67-4.78h0Z"/><path class="cls-9" d="m121.99,59.74c1.95,0,3.09,4.4,1.97,8.64-1.12,4.24-1.74,8.05-3.69,8.04-1.95,0-1.08-2.75-1.06-7.71.01-4.96.83-8.98,2.79-8.97h0Z"/><path class="cls-7" d="m121.38,61.32c.87-.1,1.43,2.22,1.64,3.4.21,1.18.16,4.34-.52,5.95-.55,1.3-1.38,4.78-1.75.6-.09-1.07.46-1.29.69-2.62.22-1.32-.42-2.18-.75-2.55-1.25-1.42-.15-4.68.69-4.78h0Z"/><path class="cls-9" d="m99.85,34.05c22.25,0,20.32,13.23,20.27,31.34-.05,18.11-12.41,30.16-20.65,29.43-7.44-.26-19.85-10.77-19.8-28.88.04-13.84,1.4-26,11.01-30.58,2.96-1.41,3.93-1.31,9.17-1.31h0Z"/><path class="cls-8" d="m78.93,59.66c6.64-.24,17.86-1.33,31.26-.59.5-1.81.28-1.15.66-4.17.35,2.26.37,2.33.55,4.29,2.31.18,6.73.54,9.18.83,2.9-14.27-4.26-29.77-22.83-29.77-18.71,3.2-19.22,8.91-18.83,29.4h0Z"/><path class="cls-6" d="m155.01,133.27l-.48-2.59c-.99-5.2-6.81-10.73-12.25-12.91-7.23-3.51-12.43-4.72-19.05-8.56-8.01,33.07-44.02,23.32-45.45.16-9.5,3.48-10.91,4.54-20.73,8.34,0,0-10.54,3.43-13.21,13.95l-.9,3.69c13.63,14.97,33.28,24.36,55.12,24.36s43.28-10.27,56.95-26.45h0Z"/></g><g><path class="cls-3" d="m78.91,185.36s0,.01-.01.02c0,.01,0,.02-.01.03,0-.02.02-.03.03-.05Z"/><path class="cls-3" d="m199.8,95.67c-.03-.11-.11-.2-.25-.2-.32.07-.52.41-.78.6-.72.67-1.5,1.27-2.28,1.86-1.37,1.03-2.85,1.92-4.33,2.78-3.18,1.83-6.74,3.3-9.15,6.18-1.01,1.34-1.88,2.82-2.41,4.41-.41,1.42-.71,2.9-.84,4.38,0,.08,0,.17-.02.26-1.42,1.02-2.87,1.99-4.36,2.91-.02.02-.04.03-.06.05,2.07-4.33,3.76-8.84,5.25-13.39.38-1.32.7-2.66.99-4,1.27-1.35,2.66-3.05,4.01-4.93.26-.13.48-.39.73-.53,1.48-.89,3-1.76,4.25-2.98,4.37-4.38,4.74-10.97,4.12-16.79,0-.07,0-.15-.02-.21-.06-.23-.24-.38-.48-.18-.24.37-.44.78-.68,1.16-.81,1.34-1.8,2.63-2.85,3.83-1.89,2.17-3.79,3.9-4.32,6.89-.71,2.67-.2,5.55-1.16,8.17-.06.17-.19.33-.22.51,0,.03,0,.06,0,.09-.99,1.39-2.05,2.76-3.21,4.02.73-3.72,1.11-7.51,1.14-11.3,0,0,0,0,0,0,0,0,.02,0,.03,0,.29-.13.37-.51.52-.77.22-.5.39-.97.58-1.49.41-1.23.79-2.46,1.13-3.7,2.15-1.78,3.14-4.66,3.47-7.37.23-1.34.35-2.72,0-4.06-.21-1.01-.48-2.01-.89-2.95-.19-.47-.42-.94-.48-1.45-.04-.43.06-.86.17-1.28.03-.07.04-.15.02-.22-.03-.14-.15-.24-.32-.2-.19.05-.21.28-.24.44-.19.81-.51,1.59-.78,2.37-.42,1.23-1.12,2.33-1.6,3.53-.04-.41-.1-.8-.2-1.19-.53-2.09-1.89-3.93-3.13-5.67-.84-1.08-1.54-2.26-2.34-3.38-.13-.19-.25-.38-.37-.56C166.76,20.85,126.58-5.34,84.79.92,33.95,8.45,1.75,59.15,15.9,108.44c5.88,20.78,20.01,39.05,38.7,49.91,1.49.88,2.99,1.73,4.53,2.5,0,0,.02.01.03.02-.04.99,2.39,2.1,3.18,2.36,1.38.53,2.87.62,4.33.51.8.35,1.6.69,2.42.99,1.18.44,2.37.86,3.57,1.28-2.12.34-4.32.37-6.35,1.15-.3.13-.72.39-.58.78.05.12.16.2.29.25.54.16,1.12.23,1.69.19,1.7-.07,3.27-.78,4.81-1.44.36-.17.72-.32,1.08-.48.04-.02.08-.05.12-.08,2.44.82,4.91,1.56,7.41,2.19-2.29-.16-4.59.05-6.83.64-.58.19-1.17.46-1.57.93-.48.53-.33,1.23.37,1.44,2.16.65,4.44.03,6.57-.49,1.61-.41,3.31-.93,4.76-1.76,3.07.64,6.17,1.08,9.3,1.23-1.48.23-2.96.49-4.41.84-2.36.58-4.78,1.15-6.99,2.2-1.16.57-2.9,2.38-1.16,3.34,1.09.44,2.3.16,3.39-.14,2.91-.88,5.62-2.31,8.08-4.1.86-.62,1.76-1.21,2.48-1.99.05-.02.09-.05.12-.09,1.47.03,2.95,0,4.42-.12,1.34-.1,2.68-.15,4.01-.32-.41.39-.82.77-1.27,1.13-1.9,1.59-3.91,3.05-5.94,4.48-.39.27-.78.53-1.18.79-.37-.15-1.2.04-1.49,0-2.09.09-4.15.37-6.18.88-.98.31-2.13.56-2.83,1.36-.43,1.32,1.78,1.17,2.57,1.06,1.68-.17,3.26-.73,4.81-1.35-1.46.87-2.94,1.71-4.44,2.52-.07,0-.14.04-.2.11-.06.03-.13.07-.19.1-2.82-.01-5.67-.54-8.49-.12-.63.06-1.05.6-.54,1.12.54.52,1.35.62,2.07.67,0,0,0,0,0,0,0,0,0,0-.01,0,0,0,.02,0,.02,0,0,0,0,0,0,0,0,0,0,0,0,0,1.18.07,2.39.11,3.57-.02-1.71.75-3.46,1.4-5.24,1.95-.21-.18-.72-.25-.92-.35-1.7-.55-3.4-1.02-5.16-1.37-.84-.09-2.38-.62-3.03.05-.62.93.56,1.79,1.39,2.04,1.1.42,2.34.59,3.51.81.09,0,.21.04.35.07-1.12.7-3.41,2.56-2.41,3.53,2.16.51,5.21-2.67,6.44-4.26,0-.01.01-.02.02-.03,2.37-.75,4.68-1.68,6.92-2.75-1.35,1.15-2.71,2.3-3.76,3.73-.3.44-1.01,1.08-.54,1.61,1.99,1.01,5.47-4.8,6.35-6.37.98-.52,1.94-1.06,2.89-1.63,1.41-.81,2.8-1.65,4.17-2.53-.24.34-.49.67-.73,1-1.58,2.08-3.61,4.02-4.34,6.59-.5,2.57,1.54,1.61,2.47.27,1.89-2.59,2.78-5.71,3.87-8.69,1.88-1.25,3.71-2.59,5.46-4.02-.08.1-.16.2-.25.3-3.37,4.48-1.58,6.52-2.41,11.15-.26,1.23-.55,2.47-1.03,3.63-.1.2-.23.43-.37.65-.07.09-.04.25.07.34.06.05.14.06.22.04.13.02.27-.05.29-.19.18-.29.4-.54.62-.8,0,0,0,0,0,0,2.12-2.54,5.66-2.71,8.74-2.83,2.25-.12,4.99.3,6.83-1.21,0,.46.01.93.05,1.38.43,2.76,1.99,5.22,3.71,7.37,1.73,2.36,4.17,4.01,6.2,6.07.27.29.54.59.8.9.22.22.37.66.72.72.21,0,.3-.2.3-.38.11-1.39.73-2.67,1.47-3.83,1.36-2.01,2.7-4.03,3.95-6.1.86-1.47,1.42-3.11,1.57-4.78.12.05.26.08.36.11,2.69.9,5.34-.45,7.96-1.01,1.41-.32,2.9-.45,4.35-.34.29.04.57.14.85.24.2.17.39.23.53.08.06-.07.08-.16.06-.24,0,0,0-.01,0-.02,0-.03,0-.05,0-.08-.03-.11-.13-.21-.27-.2-1.4-1.65-2.07-3.79-2.78-5.81-.62-1.91-1.02-4.1-2.35-5.64,1.04.76,2.2,1.35,3.32,2,.19.12.39.23.58.34-.01.05-.01.11.02.17.42,1.13.84,2.27,1.42,3.33.37.67,1.75,2.95,2.35,1.37.03-.21,0-.47-.1-.74-.33-.99-1.33-2.27-2.01-3.16,1.13.63,2.29,1.22,3.46,1.78.5,1.2,1.12,2.4,2.01,3.35.43.36.91.88,1.49.94,1.17-.41-.4-2.25-1.57-3.41,1.28.55,2.57,1.07,3.88,1.54.2.41.54.75.78,1.13.69.85,1.72,2.54,2.93,2.51.81-.36.12-1.33-.34-1.71-.19-.14-.66-.7-1.14-1.18.91.28,1.84.52,2.78.68.78.76,1.58,1.54,2.55,2.05.31.18.69,0,.65-.37-.15-.69-.78-1.1-1.37-1.47.03,0,.07,0,.1,0,.27-.02.89.13,1.27.04.84.14,2.1.75,2.72-.09.04-.1.04-.19.02-.27-.08-.24-.42-.36-.68-.37-.73-.11-1.54-.16-2.2.23-.03,0-.05,0-.07,0-.67,0-1.33-.05-1.98-.13.32-.11.63-.24.94-.37.29-.12.73-.29.68-.68,0-.02,0-.04-.01-.05-.19-.57-1.38-.11-1.75.09-.36.19-.7.43-1.02.7-.04.04-.08.07-.12.11-1.15-.23-2.28-.55-3.4-.92.98-.04,2.36-.09,2.42-.8,0-.01,0-.03-.01-.04-.22-.65-1.75-.51-2.27-.35-.49.13-.93.41-1.4.6-.07,0-.13.04-.18.09-.62-.23-1.24-.47-1.86-.71-.92-.36-1.82-.74-2.72-1.15.82-.06,2.83.08,3.03-.65,0-.05,0-.09-.02-.13-.11-.34-.65-.36-.96-.45-1.09-.23-2.12.19-3.11.59-.08-.02-.15,0-.21.05-1.07-.52-2.11-1.07-3.15-1.65,1-.03,2.7.18,3.21-.84,0-.09,0-.17-.02-.23-.15-.45-.99-.3-1.39-.31-1.19-.02-2.36.24-3.53.37-.01,0-.02-.01-.03-.02-1.31-.78-2.67-1.41-3.89-2.36-.05-.04-.1-.08-.15-.11.22.05.44.1.67.13,2.21.26,4.44.37,6.66.36,1.95,2.69,5.14,4.16,8.25,5.08.74.19,3.47.86,3.85.03.29-1.26-1.15-2.43-2.16-2.96-2.29-1.1-4.77-1.69-7.25-2.22.01,0,.02,0,.03,0,2.35-.13,4.71-.35,7.05-.68,3.04,1.11,5.92,2.66,9.06,3.47.97.26,1.95.5,2.94.65.41.1,1.04.13,1.03-.45-.02-.11-.05-.21-.08-.31-.82-2.44-4.85-2.57-7-2.94-1.37-.24-2.77-.4-4.14-.7,2.72-.46,5.41-1.07,8.05-1.86.73.14,1.42.45,2.16.61,1.77.43,3.62.61,5.44.54.61-.07,2.7-.03,2.89-.66,0-.11-.01-.22-.04-.31-.52-1.54-5.53-1.15-6.78-1.13-.33.03-.65.05-.98.07.49-.17.98-.35,1.46-.54,1.59-.64,3.09-1.45,4.53-2.37.06.02.13.03.2.03.48.03.97,0,1.45-.04,1.4-.09,2.83-.28,4.11-.88.27-.14.69-.26.67-.63,0-.02-.01-.04-.02-.06-.4-1.18-2.5-.22-3.35-.05-.39.09-.78.21-1.15.34.2-.14.4-.28.59-.43.69-.52,1.41-.99,2.07-1.55.13-.13.33-.28.48-.44.07.02.15,0,.22-.05.37-.25.74-.51,1.09-.8.89-.85,3.23-2.27,3.28-3.52,0-.02,0-.03-.01-.05-.35-1.05-2.25.51-2.69.94-.83.78-1.49,1.73-1.99,2.74-.03.06-.06.12-.09.18-.2.15-.34.39-.55.54-1.11.86-2.23,1.7-3.39,2.5.09-.15.18-.3.26-.46.49-.93,1.14-1.82,1.32-2.88.04-.28-.04-.67-.36-.74-.85-.05-1.56,1.78-1.88,2.45-.11.32-.91,1.97-.72,2.53-1.01.63-2.06,1.21-3.14,1.73-1.34.58-2.79,1.11-4.3,1.6,1.73-1.52,3.26-3.3,4.32-5.35.16-.33.37-.95-.12-1.1-.93.02-2.43,1.98-3.05,2.7-.73.89-1.4,1.83-1.9,2.86-.08.25-.59.92-.6,1.3-2.64.77-5.46,1.39-8.34,1.85,1.41-1.03,2.82-2.05,4.15-3.18.96-.84,1.89-1.79,2.43-2.96.7-2.17-3.06.52-3.58.97-.87.71-1.59,1.6-2.28,2.48-.78.9-1.3,2-2.09,2.89-2.91.41-5.84.64-8.67.68,2.45-1.9,7.59-3.77,8.19-7.08,0-.05-.02-.09-.03-.13-.44-1.32-3.47.96-4.11,1.44-1.02.79-1.92,1.7-2.76,2.67-.8.92-1.56,1.86-2.23,2.88-.03.04-.08.11-.13.18-.01.01-.02.03-.03.05-2.29-.01-4.5-.16-6.53-.45.06-.04.12-.08.16-.11.49-.37,1.04-.7,1.47-1.12,0-.02,0-.03.01-.05,1.52-1.17,2.95-2.49,4-4.1.72-1.11,1.19-2.37,1.98-3.42.02-.06.02-.12,0-.18-.04-.15-.2-.26-.36-.29-.43-.11-.85-.23-1.25-.39-.83-.34-1.66-.85-2.41-1.34-1.69-1.06-3.09-2.54-4.77-3.61,2.15-1.41,4.37-2.73,6.34-4.39.05-.04.09-.07.14-.11.03.01.06.02.1.01.23-.02.48-.05.7-.08,1.75-.21,3.5-.38,5.24-.69.94-.15,1.88-.32,2.81-.5.07.12.19.22.28.31.31.31.57.62.91.93.87.75,1.63,1.68,2.73,2.1,3.64,1.38,7.82,1.52,11.52.29,4.07-1.54,7.54-4.45,10.13-7.93,2.03-2.68,3.56-5.7,5.01-8.71.92-1.91,1.8-3.86,3.1-5.55.03-.06.03-.11.02-.16-.03-.14-.18-.24-.33-.2,0,0,0,0,0,0-.06-.03-.13-.04-.2-.01-.18.08-.32.21-.45.36-.38.19-.77.34-1.18.5-3.54,1.39-7.3,2.08-11,2.9-9.63,1.79-13.13,3.63-19.24,11.46-.48.59-.77,1.32-1.17,1.95-1.92.44-3.87.76-5.82.45,3.79-3.17,7.43-6.52,10.81-10.13,4.33-4.76,8.2-9.96,11.39-15.55.32-.57.64-1.14.94-1.72.39-.25.77-.51,1.17-.75,2.05-1.3,4.06-2.69,6-4.15.6.41,2.75.5,3.15.48,2.97-.12,5.93-1.31,8.07-3.39.63-.69,1.24-1.41,1.81-2.16,0,0,.02,0,.02-.02.03-.02.04-.05.05-.08,1.36-1.82,2.51-3.81,3.28-5.94.09-.27.17-.54.24-.82,0,0,.02-.02.02-.02.05-.05.04-.1.02-.15.77-2.99.72-6.15,2.12-8.98.04-.08.05-.17.03-.26Zm-9.68-2.9c-1.09,1.06-2.43,1.81-3.72,2.62,1.45-2.14,2.82-4.45,3.89-6.73,1.28-1.5,2.89-2.82,3.88-4.54-.12.86-.3,1.72-.55,2.56,0,0,0,0,0,0-.64,2.26-1.81,4.42-3.49,6.09Zm4.09-15.91h0c.04.54.08,1.07.12,1.61.09,1.63.1,3.28-.07,4.91-.1.21-.2.41-.32.62-.85,1.49-2.14,2.63-3.29,3.87.86-1.94,1.48-3.84,1.72-5.54,0-.02,0-.05,0-.07-.03-.11-.13-.19-.25-.2-.14,0-.26.11-.26.25-.08.51-.19,1.01-.29,1.51-.26,1.1-.68,2.1-1.11,3.16-.44,1.04-.93,2.05-1.45,3.05.18-1.15.16-2.34.2-3.5,0-1.08-.22-2.16-.02-3.23,1.8-2.05,3.67-4.07,5.02-6.46Zm-5.58,7.11c.08-.09.16-.18.24-.27-.05.57,0,1.34.02,1.53.1,1.05.08,2.1,0,3.15-.05.81-.09,1.65-.3,2.44-.8,1.46-1.68,2.87-2.61,4.25.44-1.88.3-3.85.59-5.75.26-1.9.81-3.84,2.06-5.35Zm-117.22,82.88c-1.6.67-3.34,1.31-5.09.89,1.74-.73,3.67-.86,5.54-1.08-.15.06-.3.13-.45.19Zm11.27,2.76c-2.26.81-7.57,2.53-9.7,1.32,0-.01-.01-.03-.01-.04-.07-.28.26-.53.45-.7,1.2-.76,2.71-.79,4.07-1.06,1.96-.26,3.95.03,5.92.15-.24.12-.48.23-.73.33Zm7.14,4.31s0,0,0,0c-2.13,1.24-4.45,2.29-6.9,2.7-3.49.25-1.65-2.18.33-2.89,3.46-1.3,7.11-2.13,10.77-2.7-1.33,1.03-2.74,2.04-4.19,2.89Zm-1.53,5.3c-.79.09-2.42.52-3.06-.08,1.43-1.5,6.89-1.97,9.01-2.06-1.92.86-3.86,1.74-5.95,2.15Zm-6.4,8.34c.81-1.54,2.15-2.71,3.45-3.86,0,0,0,0,0,0,.48-.42.92-.81,1.42-1.24-.95,1.45-3.07,4.94-4.87,5.09Zm3.73-5.52c-1.66.55-3.44.45-5.18.37,0,0,0,0,0,0,0,0,0,0,0,0,0,0,0,0,0,0,0,0,0,0,0,0-.05,0-.1,0-.15-.01,0,0,0,0,0,0,0,0,0,0,0,0,0,0,0,0,0,0,0,0,0,0,0,0-.57-.07-1.28-.11-1.67-.6,0,0,0,0,0,0,0-.01-.01-.03-.01-.04.39-.2.87-.19,1.31-.24,1.12-.05,2.24-.03,3.35.05,1.03.11,2.1.12,3.16.17-.04.02-.08.04-.13.07-.16.08-.33.16-.49.24-.06-.02-.13-.03-.19,0Zm-13.15,3.08c-.72-.18-1.56-.37-2.16-.85-.81-.84-.06-.96.72-.86,2.34.29,4.66.94,6.91,1.69-.61.18-1.22.36-1.83.52-.11.05-.31.08-.49.13-.03-.03-.07-.05-.11-.05-.26-.03-.53-.08-.8-.14-.73-.17-1.51-.24-2.23-.43Zm5.49.62c-1.43,1.46-3.04,3.34-5.22,3.47h0c-.02-1.04,1.88-2.37,2.72-2.84.02-.01.03-.03.04-.04.04,0,.09-.02.12-.05.17-.05.35-.09.52-.14.64-.16,1.28-.34,1.92-.53-.04.04-.07.08-.11.13Zm12.49.36c-.37-.17.05-1.56.21-1.85,1.12-2.32,2.98-4.17,4.49-6.23-.65,1.94-2.62,7.62-4.7,8.09Zm63.84-5.16c-1.29-.68-1.99-2.01-2.62-3.27.11.09.22.19.32.29.01.01.02.02.03.04,0,0-.01-.01-.02-.02,0,0,0,0,0,0,.81.83,1.71,1.64,2.24,2.71.03.08.07.17.06.26Zm8.64.52c.47.29,1.02.59,1.37,1.06-.48-.29-.94-.68-1.37-1.06Zm4.06-.38c-.35.1-.72-.01-1.07-.08.35-.01.72.02,1.07.08Zm-7.22-2.29c-.63.19-1.3.17-1.95.23.6-.28,1.3-.39,1.95-.23Zm.51,3.94c-.52-.12-.91-.56-1.27-.93-.54-.61-1.02-1.26-1.49-1.92.05.02.11.04.16.05.08.16.35.27.48.4.47.4.91.9,1.36,1.35.27.32.75.6.76,1.05Zm-6.09-6.25c-.69.18-1.41.12-2.12.16.67-.25,1.41-.35,2.12-.16Zm-5.69,2.43c-.47-.5-.79-1.11-1.11-1.72-.38-.76-.66-1.55-.97-2.33.02,0,.04,0,.06,0,.02.01.04.03.07.04-.02.07-.02.15.04.23.9,1.22,2,2.44,2.46,3.9,0,.61-.36.04-.56-.13Zm1.73-4.86c-.56.36-1.26.34-1.89.35-.58,0-1.11.01-1.7-.05,0,0-.01,0-.02-.01,1.19-.21,2.41-.32,3.62-.29Zm10.53,2.43c.03.12.11.35-.07.38-.57.06-1.14.02-1.7-.06-3.29-.63-7.02-2.18-9.15-4.86,1.97.43,3.98.79,5.91,1.42,1.84.61,4.23,1.12,5.01,3.12Zm5.59-4.18c1.75.32,4.01.49,5.01,2.19.05.11.09.2.1.32-3.61-.44-6.99-1.91-10.3-3.34,1.72.32,3.46.58,5.2.82Zm8.92-3.75c1.16.06,2.61-.07,3.5.81-2.94.62-6.12.31-8.98-.61,1.82-.12,3.66-.24,5.48-.2Zm11.33-11.29c-.22.59-.75,1.03-1.2,1.44-.76.63-1.5,1.28-2.29,1.88.8-1.39,1.93-2.79,3.49-3.32Zm-7.15,3.23c-.07.76-.51,1.44-.87,2.11-.35.59-.62,1.2-1.03,1.77.45-1.35.91-2.81,1.9-3.87Zm1.87,3.42c.61-.15,1.26-.41,1.91-.28.05.01.1.03.13.07-1.4.76-3.03.93-4.59,1.02.81-.36,1.69-.56,2.55-.82Zm-3.1.84s0,0,0,0c0,0,0,0,0,0,0,0,0,0,0,0Zm-7.36.38c.8-.98,1.6-2.01,2.66-2.74-.75,1.72-2.01,3.21-3.31,4.55-.38.37-.78.73-1.17,1.08.51-1.02,1.09-2,1.82-2.89Zm-4.85-1.07c-1.27,2.67-4.16,4.2-6.39,6,1.65-2.51,3.52-4.9,6.39-6Zm-15.52,5.77c.33-.42.68-.84,1.04-1.24,0,0,0,0,0,0,1.2-1.39,2.59-2.66,4.18-3.61.5-.29,1-.55,1.56-.68.07,0,.17-.04.22.02-.71,2.98-5.43,4.74-7.73,6.49.23-.33.48-.65.73-.97Zm43.67-69.71c-.28.83-.44,1.69-.79,2.5-.62,1.59-1.47,3.09-2.56,4.39-.55.55-1.13,1.08-1.73,1.59-.99.91-2.01,1.77-3.06,2.61,1.31-1.85,1.89-4.33,2.54-6.42.21-.62.42-1.29.69-1.91.63-.35,1.27-.69,1.91-1.02,1.01-.56,2.02-1.13,3-1.74Zm-13,11.15c.91-2.44,2.42-4.71,4.58-6.2,1-.72,2.05-1.37,3.14-1.98-.58,1.49-1.44,4.7-1.57,4.89-.52,1.43-1.18,2.87-2.24,3.98-.69.54-1.39,1.06-2.1,1.58-.89.68-1.78,1.35-2.69,2.01.15-1.42.44-2.88.87-4.28Zm-4.43-40.66c0-.15.01-.3.02-.45.6.66,1.34,1.17,2,1.78.71.66,1.34,1.44,1.81,2.3.2.73.38,1.47.54,2.21-.13-.19-.27-.38-.43-.55-.16-.16-.96-.94-1.39-1.13-.25-.55-.52-1.09-.81-1.62-.49-.86-1.13-1.64-1.77-2.42.02-.03.04-.07.04-.12Zm.54,5.56c.27-1.21.41-2.49.1-3.7,0-.02-.01-.04-.02-.06.22.31.44.62.64.95.34.62.65,1.25.94,1.9.14.45.24.9.33,1.36.22,1.45.26,2.95.14,4.41,0,.09-.05.47-.08.85-.07-.14-.13-.28-.2-.42-.74-1.72-1.35-3.48-1.85-5.29Zm2.27.61c.4,1.08.72,2.2.95,3.32.29,1.43.34,2.93.14,4.39-.37-.69-.73-1.38-1.07-2.09.12-1.86.27-3.77-.02-5.63Zm-.07-1.56c.6.42,1.15.94,1.54,1.57.07.07.14.23.23.35.1.5.2,1,.29,1.5-.29-.31-.58-.58-.67-.71-.15-.17-.29-.33-.45-.48-.04-.03-.07-.05-.11-.05-.24-.74-.52-1.47-.83-2.19Zm-2.59-3.42c.39.97.46,2.01.36,3.05-.02.26-.07.52-.12.78-.25-.94-.47-1.89-.66-2.85-.09-.33-.58-.19-.5.13.49,2.52,1.22,5,2.13,7.4-.5-.39-.99-.78-1.4-1.27-.3-.37-.62-.76-.85-1.2-.02-.04-.05-.06-.09-.06-.64-2.7-.2-5.56-.69-8.3.56.81,1.21,1.56,1.82,2.33Zm1.02,8.68c.09.04.24.21.38.31.52,1.23,1.11,2.44,1.73,3.63-2.05-1.35-3.41-3.61-4.08-5.96.53.78,1.21,1.46,1.97,2.02Zm3.24,4.17c.25-1.78.14-3.64-.3-5.39-.02-.09-.04-.17-.06-.26-.05-.2-.11-.4-.16-.6.4.41.79.82,1.1,1.29.42,2.67.65,5.38.69,8.09-.45-.87-.92-1.73-1.38-2.6.1-.14.09-.38.12-.54Zm1.77,3.75c-.02-2.86-.23-5.71-.65-8.54,0-.02.01-.04.02-.06.14-.06.17-.26.23-.39.24-.7.51-1.36.76-2.07.1-.22.2-.45.29-.68-.12,1.41.01,2.83.29,4.22.07.39.2.77.32,1.15.17.52.34,1.03.37,1.58-.03.1-.06.21-.09.31-.47,1.51-.86,3.05-1.54,4.48Zm2.96-10.46c-.26,1.55-.61,3.08-1.02,4.59-.14-.4-.26-.79-.36-1.19-.66-2.61-.56-5.1.12-7.77.04.19.08.34.1.41.33,1.34,1.05,2.58,1.17,3.96Zm2.31-2.4c-.28,2.44-1.04,4.98-2.75,6.79.37-1.41.7-2.84.95-4.29.02-.12.04-.24.06-.36.28-.85.66-1.66,1.03-2.48.36-.81.64-1.66.81-2.54.11.95.1,1.92-.09,2.87Zm-1.31-7.54c.32.99.82,1.91,1.05,2.92.08.29.15.59.21.88-.1,1.68-.89,3.18-1.53,4.72.3-2.37.39-4.75.43-7.14,0-.02,0-.04,0-.07-.03-.11-.13-.2-.24-.2-.14,0-.26.11-.26.25,0,.3-.01.59-.02.89-.03,1.49-.09,2.99-.21,4.48-.07.79-.16,1.58-.28,2.37-.32-1.41-1.09-2.72-1.24-4.16,0-.03.02-.06.03-.1.57-1.68,1.57-3.17,2.08-4.87Zm-2.83,4.6c-.05,1.09-.4,2.16-.69,3.21-.44,1.03-.83,2.09-1.23,3.15-.12-.71-.24-1.42-.38-2.13-.02-.1-.04-.21-.06-.31.02-1.3.24-2.59.54-3.85.34-1.57.39-3.2.17-4.8.91,1.45,1.62,3,1.66,4.73Zm-2.06-5.35c.2.68.23,1.4.27,2.11.1,1.74-.32,3.43-.69,5.12-.04.36-.07.72-.1,1.08-.03-.14-.07-.29-.1-.43-.29-1.16-.66-2.3-1.03-3.43.31-.75.4-1.57.45-2.38.09-1.32-.05-2.66-.42-3.93-.06-.24-.12-.47-.2-.71.17.24.34.49.52.73.43.6.87,1.21,1.3,1.83Zm-2.33-3.31c.77,2.05,1.12,4.26.78,6.45-.05.31-.12.61-.22.91-.45-1.38-.9-2.76-1.23-4.17-.06-.13-.2-.2-.33-.14-.13.05-.18.19-.15.32.09.33.18.66.26.99.13.51.25,1.02.42,1.51.43,1.17.81,2.35,1.16,3.55-.14-.2-.29-.39-.43-.57-.87-1.18-2.18-1.89-3.11-3.01.05-1,.11-1.99.12-2.99-.02-2.46.28-4.97-.28-7.39.97,1.52,1.98,3.05,3.02,4.55Zm-118.85,98c-.39-.24-.81-.49-1.05-.89,0,0,0-.02-.01-.03.03-.02.07-.05.09-.09.05-.1.04-.17,0-.23.14-.11.37-.13.53-.13.67-.05,1.28.22,1.87.51,1.33.58,2.54,1.4,3.74,2.2-1.82.11-3.62-.41-5.18-1.33Zm11.74,3.25c-1.08-1.23-4.08-3.38-3.71-5.13.92.22,1.69.85,2.29,1.57,1.03,1.13,1.65,2.5,1.96,3.98-.02,0-.04-.01-.06-.02-.1-.16-.37-.26-.49-.41Zm10.75,3.35c-.45-.25-.89-.52-1.32-.82-2.06-1.57-4.35-2.75-6.2-4.61-.51-.54-1.5-1.89-.71-2.55.91-.36,1.79.35,2.54.8,2.49,1.85,4.22,4.54,5.77,7.2-.03,0-.05-.01-.08-.02,0,0,0,0,0,0Zm11.11,1.31c-3.4-1.39-6.67-3.61-8.45-6.93-.11-.17-.21-.4-.27-.64-.17-.66-.06-1.41.82-1.19,1.42.5,2.56,1.59,3.63,2.64,1.79,1.78,3.07,3.98,4.34,6.15-.02,0-.05-.02-.07-.02Zm.81.26c-.9-1.5-1.74-3.06-2.78-4.47-.97-1.31-2.08-2.54-3.34-3.59-.95-.69-2.91-2.43-3.86-.95-.56,1.39.7,2.75,1.42,3.84,1.54,2.02,3.69,3.5,5.94,4.65.29.16.59.31.89.44-3.17-.19-6.32-.66-9.42-1.33-1.51-2.62-3.16-5.2-5.44-7.22-1.01-.77-2.94-2.31-4.11-1.12-1.36,2.26,3.21,5.03,4.78,6.13.86.49,1.63,1.12,2.44,1.68-2.73-.67-5.42-1.48-8.08-2.37-.4-2.2-1.54-4.3-3.36-5.64-.48-.27-1.64-1.05-1.96-.26-.42,1.82,1.69,3.46,2.82,4.64.12.08.35.34.61.62-.61-.22-1.22-.43-1.83-.66-.67-.25-1.35-.51-2.01-.79-.32-.14-.66-.28-1-.43-.04-.05-.08-.1-.13-.13-.35-.22-.7-.42-1.04-.65-.83-.6-1.74-1.13-2.65-1.6-1.01-.48-2.1-1.1-3.25-.79-.19.1-.33.2-.44.3-.88-.46-1.75-.92-2.61-1.4-2.66-1.47-5.24-3.1-7.73-4.85-10.48-7.33-19.22-17.12-25.4-28.32C-2.98,77.28,22.96,16.56,76.85,3.03c31.74-8.03,65.78,3.73,86.08,29.37,4.52,5.69,8.32,11.97,11.24,18.63,1.25,2.84,2.33,5.76,3.28,8.72-.44-.68-.89-1.36-1.33-2.04-.07-.17-.24-.33-.43-.23-.18.09-.16.31-.06.44.11.19.19.4.25.61.56,1.85.58,3.77.54,5.69-.01,1.98-.08,3.96-.18,5.93-.12-.15-.24-.31-.36-.46-.27-.36-.53-.73-.8-1.09-.13-.2-.38-.47-.61-.24-.14.17-.03.39-.01.59.13.82.25,1.65.31,2.48.12,2.23-.03,4.49.54,6.68.63,2.65,2.16,5.26,4.48,6.78.2.09.44.3.68.39.64,1.2,1.29,2.38,1.94,3.58,0,1.8-.09,3.6-.26,5.39-.02,0-.05.02-.07.03-.19.05-.25.32-.1.44-.35,1.87-.4,3.78-.92,5.61-.45,1.78-1.12,3.56-1.79,5.28-.03.08-.06.15-.08.23-.21-.39-.42-.77-.61-1.17-.4-.86-.79-1.72-1.17-2.59.3-.45.4-.99.61-1.48.33-.93.68-1.87.89-2.84.39-2.13,0-4.31-.5-6.4-.04-.2-.08-.39-.13-.59-.63-2.49-2.04-4.7-3.68-6.69-1.34-1.71-2.98-3.17-4.03-5.09-.2-.42-.62-.21-.57.19-.02,1.08-.08,2.15-.25,3.21-.36,2.1-.83,4.21-.62,6.36.31,3.88,1.63,7.76,4.04,10.84.69.89,1.52,1.68,2.48,2.28.43.28.89.51,1.35.72.02.02.05.03.08.04.34.77.68,1.53,1.05,2.29.25.5.51,1,.79,1.49.01.02.03.04.05.05-2.18,5.92-5.18,11.51-8.65,16.79-1.51,2.37-2.94,4.79-4.62,7.05-.3.41-.61.82-.92,1.22-.03-.09-.07-.18-.11-.27-.28-.89-.53-1.79-.75-2.7.08-.05.16-.11.22-.16,4.05-3.51,4.67-9.43,4.13-14.47-.12-1-.3-2-.55-2.98-.42-1.64-1.02-3.23-1.83-4.72-.69-1.41-1.74-2.61-2.24-4.11-.09-.23-.2-.63-.52-.53-.1.03-.16.12-.19.22-.1.48-.15.97-.28,1.45-.38,1.5-1,2.95-1.78,4.29,0,0,0,0,0,0-1.33,2.28-2.89,4.53-3.5,7.14-.82,3.25.07,6.69,1.27,9.74.76,1.81,1.88,3.69,3.61,4.73,0,0,0,0,.01,0,.21,1.1.46,2.2.74,3.29.04.08.07.2.1.34.05.21.11.45.22.59-1.19,1.47-2.44,2.91-3.72,4.29-2.01,2.12-4.29,3.99-6.51,5.9-1.7,1.47-3.32,3.01-5.01,4.49-.53.47-1.07.93-1.61,1.38-.05-.18-.09-.35-.12-.53-.06-.39-.12-.77-.18-1.16.23-.07.44-.43.64-.54,1.01-.82,1.89-1.87,2.54-3,3.58-5.98,4.72-12.4,3.13-19.21-.09-.51-.21-1.02-.33-1.52-.67-2.63-1.75-5.13-2.57-7.72-.18-.6-.35-1.18-.42-1.81-.02-.17-.02-.38-.2-.46-.22-.1-.37.12-.4.32-.09.31-.18.62-.27.93-.29.98-.64,1.94-1.07,2.87-1.2,2.77-3.03,5.2-4.45,7.85-3.62,6.7-4.48,14.8.38,21.14.15.18.8,1.17,1.26,1.48.1.63.24,1.25.42,1.86.06.22.14.44.19.66,0,.01,0,.02,0,.04-1.25,1.01-2.53,1.98-3.83,2.93-.81.57-1.61,1.17-2.43,1.73-1.81-.59-3.92-.59-5.56.4.33-1.42.42-2.9.19-4.4-.05-.32-.11-.63-.19-.94-.08-.3-.17-.6-.28-.89.09-.05.14-.16.12-.26-.07-.27-.1-.55-.14-.82-.07-.44-.1-.89-.12-1.34.07-.01.13-.05.16-.11.48-.47.97-.92,1.43-1.4,1.46-1.61,3.9-4.45,4.23-6.59.02-1.07-1.26-.61-1.78-.22-.59.41-1.06,1.02-1.45,1.62-1.06,1.59-1.94,3.29-2.67,5.06-.05-2.11-.07-4.22-.03-6.33,2.39-1.72,4.57-4.53,5.19-7.44,0-.07-.01-.13-.03-.18-.21-.81-1.5.49-1.79.84-.8.94-1.36,2.11-2,3.16-.49.75-.91,1.53-1.34,2.31,0-.26.02-.51.03-.77.15-2.34.48-4.65.91-6.95.86-.79,1.85-1.48,2.68-2.32,1.12-1.23,2.09-2.7,2.64-4.28-.55-1.54-3.58,2.54-4.9,4.44.04-.2.08-.4.12-.6.4-1.82.96-3.61,1.6-5.37.05-.04.1-.09.15-.12.44-.36.88-.69,1.3-1.09,1.29-1.26,2.71-2.44,3.62-4.03.12-.18.15-.34.12-.47-.06-.25-.39-.36-.76-.21-.77.31-1.33.98-1.87,1.59-.56.63-1.1,1.28-1.63,1.93.56-1.37,1.14-2.72,1.73-4.07.35-.13.72-.98.87-1.21.61-1.21,1.18-2.48,1.31-3.84.01-.14,0-.33-.04-.5-.08-.31-.27-.59-.62-.48-.58.45-.9,1.21-1.21,1.87-.33.77-.49,1.6-.58,2.44,0,.35-.1.74-.05,1.1-.02.03-.03.06-.05.09-.61,1.4-1.17,2.82-1.76,4.23-.18.44-.36.89-.54,1.34-.01-1.63.06-3.28-.22-4.89-.02-.06-.03-.14-.05-.23-.11-.49-.29-1.29-.83-.95-.24.39-.18.9-.27,1.35-.2,1.56-.09,3.15.41,4.64.06.15.1.32.14.5.07.3.15.6.3.81,0,.05,0,.09.01.13-.68,1.85-1.27,3.74-1.66,5.67-.06.27-.11.54-.17.81-.18-1.46-.34-2.92-.7-4.35-.17-.49-.95-3.64-1.69-2.39-.3,2.14,0,4.41.9,6.38.31.63.67,1.19.94,1.83.06.12.1.25.16.36,0,.01.02.02.03.04-.41,2.24-.74,4.5-.87,6.78-.01.31-.02.63-.03.94-.48-1.31-1.18-2.53-1.79-3.78-.52-.94-.93-2-1.78-2.7-.21-.18-.55-.33-.78-.12-.4.5.09,1.71.28,2.28.5,1.32,1.31,2.49,2.14,3.62.57.74,1.15,1.53,1.89,2.11-.04,1.92-.02,3.84.04,5.75-.01-.03-.03-.07-.04-.1-.21-.59-.41-1.23-.63-1.83-.5-1.42-.85-2.95-1.8-4.14-.19-.24-.53-.46-.83-.28-.56.57-.15,2.29.09,2.99.34,1.04.95,1.97,1.63,2.82.49.6.93,1.27,1.55,1.73,0,0,0,.01,0,.02.02.04.04.07.07.09.03.32.04,1.05.1,1.73-.49-.97-1.11-1.88-1.79-2.73-1-1.28-2.21-2.45-2.66-4.06-.48-.5-.8.68-1.09.97-.38.58-.91,1.13-1.44,1.59-1.59,1.4-3.7,2.09-5.41,3.33-.07-.11-.14-.21-.18-.3-.84-1.48-2.29-2.51-3.88-3.08-2.96-1.02-6.72.13-9.32-1.91-.19-.17-.37-.39-.56-.61-.13-.14-.3-.36-.52-.31-.04,0-.07.03-.1.05-.07.03-.13.09-.15.16-.02.12.03.22.09.33.05.08.09.16.1.25.44,1.23.36,2.56.08,3.81-.56,2.63-2.12,5.43-.95,8.1.18.4.38.78.65,1.12-3.67.69-7.03,2.65-10.45,4.09-.73.32-1.44.69-2.19.95-.11.05-.24.08-.35.14-.15.04-.31.09-.36.25-.06.22.19.39.37.33.07,0,.12-.04.17-.1,2.83-.4,5.18,1.8,6.98,3.72,1.53,1.74,2.77,3.78,4.41,5.43-.54.06-1.08.12-1.62.16-2.35.18-4.68.35-7.03.31Zm82.08-80.77c.85,2.56,1.5,5.31,1.18,8.03-.18,1.08-.61,2.17-.98,3.21-.12.3-.21.62-.34.91-.39-.87-.76-1.75-1.13-2.63.06-.11.11-.24.15-.3.67-1.4.92-2.97,1.25-4.47.23-1.57.12-3.2-.14-4.77,0,0,0,.02.01.03Zm-.38,5.92c-.25,1.11-.5,2.25-1.02,3.28-.8-1.95-1.56-3.92-2.22-5.92,0,0,0,0,0,0-.29-.89-.58-1.8-.84-2.72-.18-2.24.71-4.48.25-6.72,0-.03-.01-.06-.02-.09,1.38,1.61,2.75,3.22,3.71,5.11.58,2.29.73,4.76.14,7.06Zm-4.21-12.59c.59,2.04-.06,4.13-.14,6.21-.13-.52-.25-1.04-.34-1.56-.27-1.41-.33-2.85-.49-4.27-.03-.31-.51-.29-.51.02,0,.09.02.19.03.28.16,3.06.83,6.03,1.76,8.93-.39-.34-.8-.65-1.18-1-.87-.86-1.59-1.88-2.21-2.94-.12-2.83.83-5.59.89-8.43.67.96,1.43,1.87,2.2,2.77Zm-2.45,9.63c-.25-.98-.43-1.96-.55-2.88-.03-.17-.04-.34-.06-.51.2.29.4.56.45.66.77,1.3,1.93,2.24,3.06,3.21.54,1.64,1.16,3.26,1.81,4.87-.06-.03-.12-.06-.18-.1-1.42-.85-2.76-1.86-3.88-3.09-.26-.71-.48-1.43-.66-2.15Zm3.67,5.01c.39.27.8.49,1.2.72.14.34.28.68.42,1.02.41.96.81,1.91,1.23,2.87-2.63-1.33-4.45-3.95-5.61-6.83.83.84,1.78,1.56,2.76,2.22Zm-10.66,28.19s.02-.06.04-.08c.14-.21.28-.42.41-.63.73-1.17,1.62-2.26,2.27-3.49.82-1.62,1.56-3.34,1.93-5.13.16,4.36-.79,8.91-4.08,11.83-.01,0-.03.02-.04.03-.2-.84-.38-1.68-.54-2.52Zm4.22-13.31c.16.89.29,1.83.37,2.78-.06.62-.17,1.24-.34,1.85-.37,1.29-.87,2.56-1.44,3.77-.63,1.34-1.55,2.5-2.36,3.74-.17.25-.33.5-.5.76,0,.01-.01.02-.02.04-.33-1.75-.6-3.5-.86-5.25-.09-.58-.16-1.16-.2-1.73,1.38-1.68,2.55-3.72,3-5.86.32-1.68.26-3.43.67-5.1.78,1.59,1.33,3.27,1.68,5.01Zm-2.39-1.41c-.16,2.59-1.42,4.96-2.98,7-.13-2.13.03-4.28.22-6.41.16-.86.34-1.7.56-2.55,0-.03,0-.06,0-.09-.07-.26-.49-.24-.51.05-.13.56-.28,1.11-.4,1.67-.16.14-.1.47-.14.67,0,.01,0,.02,0,.04-.02.09-.04.18-.05.27-.29,1.66-.46,3.33-.54,5.01-.65-1.66-1.7-3.17-2.07-4.93.7-1.34,1.52-2.61,2.27-3.92.87-1.51,1.54-3.19,1.88-4.91.59,1.45,1.62,2.67,2.29,4.08,0,.01.01.03.02.04-.31,1.09-.56,3.76-.53,3.96Zm-6.1,1.1c.21.79.52,1.55.87,2.29.36.69.78,1.35,1.02,2.1.12.31.23.62.33.94-.05,1.65,0,3.31.14,4.96.02.3.05.6.08.89-.96-2.06-2.71-3.68-3.85-5.64,0-1.43.29-2.86.8-4.2.18-.46.39-.91.61-1.35Zm-1.28,7.1c-.06-.34-.09-.68-.11-1.03,1.11,1.76,2.63,3.25,3.57,5.13.14.28.26.57.35.87.16,1.51.37,3.02.64,4.52-.18-.15-.35-.32-.52-.47-.62-.57-1.16-1.23-1.58-1.95-1.26-2.17-1.97-4.6-2.35-7.08Zm6.01,13.93c-.06-.19-.13-.37-.18-.56-.92-3.53-1.47-7.15-1.71-10.79-.06-.85-.1-1.71-.12-2.56.09.8.21,1.6.32,2.4.41,2.78.96,5.55,1.64,8.29.17.8.43,1.58.74,2.34-.23.3-.47.59-.7.89Zm-18.17,9.05c.05-.06.07-.17.1-.25.6-1.97,1.79-3.66,2.81-5.44,1.59-2.61,3.22-5.3,4.05-8.26.4,3.51.14,7.13-1.04,10.47-.92,2.38-1.91,4.8-3.48,6.83-.39.49-.8.91-1.3,1.34-.1.11-.37.3-.58.49-.26-1.72-.47-3.45-.56-5.18Zm6.73-15.55c.05.3.1.61.14.92-.42,1.73-1.17,3.44-1.96,5.02-.94,1.75-2.01,3.42-3.01,5.14-.74,1.2-1.45,2.43-1.92,3.78-.05-2.58.03-5.15.17-7.73.06-.89.05-1.79.06-2.69.9-1.81,2.2-3.42,3.39-5.06.81-1.18,1.71-2.4,2.07-3.8.43,1.45.77,2.95,1.05,4.42Zm-3.34-.78c-.98,1.33-2,2.65-2.86,4.08-.11.18-.21.35-.31.53.03-1.08.12-2.16.41-3.22,0-.03,0-.06,0-.09.02-.07.03-.15.05-.22.38-1.32,1.02-2.55,1.57-3.8.03-.06.03-.12.02-.17-.05-.2-.37-.28-.49-.05-.3.64-.56,1.29-.86,1.93-.99,2.08-1.25,4.37-1.54,6.63-.61-2.1-1.16-4.24-1.18-6.43,1.87-3.23,4.07-6.33,5.06-9.98.49,2.03,1.33,3.95,2.02,5.92.08.24.16.47.23.71-.25,1.55-1.25,2.88-2.13,4.17Zm-5.14,2.23c.24,1.38.7,2.69,1.04,4.04-.04.34-.09.67-.14,1-.35,2.61-.52,5.24-.57,7.88-.53-1.42-1.43-2.7-2.09-4.06-.62-1.19-1.09-2.45-1.41-3.75.43-2.4,1.33-4.72,2.42-6.89.15-.28.3-.55.46-.83.05.99.27,2.5.3,2.61Zm-3.28,5.73c.4,1.43,1.01,2.8,1.73,4.1.67,1.28,1.54,2.52,1.86,3.94,0,.13,0,.26,0,.39.01,1.72,0,3.46.21,5.17-1.02-1.21-1.9-2.6-2.59-4.03-1.28-2.64-1.56-5.67-1.32-8.58.03-.33.07-.66.12-.99Zm4.97,16.65c-.02-.08-.05-.16-.08-.23-.05-.15-.1-.28-.11-.39-.56-1.88-.6-3.84-.67-5.79-.04-3.24.07-6.48.43-9.71.04-.3.08-.61.12-.91-.15,3.19-.32,6.38-.11,9.56.19,2.36.47,4.7.97,7.01,0,0,0,0,0,0-.18.15-.37.3-.56.45Zm-22.56,21.53c-1.38.29-2.7.03-3.47-1.26-.18-.26-.31-.56-.38-.86-.18-.73-.1-1.53.1-2.24.42-1.05,1.33-1.81,2.38-2.21,1.56-.59,3.6.16,4.03,1.86.69,1.94-.72,4.18-2.65,4.71Zm-4.95-1.83c-3.23.9-6.92,2.37-10.27,1.41-3.28-.97-4.88-3.63-6.84-6.2-1.4-1.82-3.07-3.51-5.13-4.57-.62-.33-1.3-.54-1.99-.61.83-.36,1.65-.75,2.47-1.11,3.35-1.47,6.66-3.31,10.35-3.71,2.54-.16,5.17.02,7.6.85.65.2,1.27.47,1.91.71.18,2.34.98,4.61,2.41,6.49.52.73,1.02,1.47,1.61,2.14.02.02.03.03.04.05-.21.16-.41.34-.58.53.12-.93-5.51-5.71-6.25-6.21-.13-.11-.29.1-.16.2,1.9,1.48,3.69,3.11,5.36,4.84.31.35.56.72.79,1.13.03.06.08.14.16.15-.13.16-.26.33-.37.5-.94-.94-6.67-3.63-7.15-3.93-.15-.07-.25.17-.1.24,2.39,1.24,4.92,2.39,7.14,3.89-.07.12-.13.24-.18.36-.23-.04-.46-.1-.69-.16-.55-.17-1.08-.38-1.62-.6-.07-.03-.14,0-.17.07-.03.06,0,.14.07.17.75.28,1.52.65,2.32.77-.03.07-.05.15-.07.22,0,0-.02,0-.03,0-.25.02-.49.04-.74.05-3.3.03-6.64-.64-9.69-1.92-.15-.07-.25.17-.1.24,3.14,1.33,7.07,2.14,10.48,1.89-.01.06-.03.12-.04.19,0,0,0,0-.01,0-.39.14-.79.23-1.2.32-1.26.24-2.56.25-3.85.16-.07,0-.13.06-.13.13,0,.07.06.13.13.13,1.68.11,3.41.08,5.02-.45-.02.14-.03.27-.03.41-.04.01-.08.03-.12.05-1.64.89-3.5,1.39-5.37,1.5-.07,0-.12.07-.11.14,0,.07.07.12.14.11,1.9-.11,3.78-.64,5.46-1.53.01.25.05.51.11.76-.19.05-.41.2-.58.24Zm-12.46-22.3c.54-1.8,1.07-3.61.62-5.36,0-.02,0-.03-.01-.05,0-.03-.02-.07-.03-.1.07.07.14.15.22.21,1.64,1.34,3.88,1.33,5.9,1.47,1.9.05,3.81.29,5.41,1.45.65.44,1.19,1.05,1.62,1.72.1.11.2.35.31.55,0,0-.01,0-.02.01-2.49,1.89-3.65,5.04-3.51,8.12,0,.16,0,.31,0,.47-.14-.05-.29-.08-.39-.14-2.69-1.14-5.63-1.52-8.55-1.39-.43.02-.86.08-1.28.14-1.8-2.18-1.05-4.62-.31-7.09Zm19.44,17.62s.01-.01.02-.02c1.6-1.93,2.88-4.15,3.87-6.45.73-1.85,1.1-3.83,1.57-5.76.01-.07-.03-.14-.1-.15-.07-.01-.14.03-.15.1-.05.24-.11.48-.16.72-.27,1.15-.54,2.3-.85,3.44-.84,2.81-2.4,5.4-4.17,7.73-.07.09-.15.16-.22.24-.13-.09-.26-.17-.41-.24,0,0,.01-.01.01-.02.2-.4.38-.81.52-1.23.34-1.04.75-2.06,1.14-3.09.02-.07-.01-.14-.08-.17-.07-.02-.14.01-.16.08-.07.2-.15.4-.23.6-.5,1.23-.88,2.52-1.42,3.73-.12-.05-.25-.09-.37-.13,0-.01,0-.03,0-.04.12-.62.23-1.24.38-1.85.53-2.13.99-4.29,1.24-6.48.13-1.26.21-2.51.42-3.76.03-.16-.22-.22-.25-.05-.21,1.28-.29,2.59-.43,3.88-.3,2.79-1.08,5.5-1.62,8.24-.21-.05-.44-.07-.66-.08,0,0,.02-.02.02-.03.11-1.13.23-2.27.46-3.39.01-.07-.03-.14-.1-.15-.15-.03-.16.13-.18.24-.19,1.06-.36,2.12-.41,3.19-.03.06-.01.11.03.15-.18,0-.36.02-.54.05.07-.64-.19-2.16-.17-2.36-.26-2.73-.9-5.43-.89-8.19,0-.17-.27-.15-.26.02,0,.5.02,1.01.05,1.51.24,3.03.95,6.02,1.01,9.07-.16.04-.33.08-.49.14-.03,0-.06.02-.08.03-1.14-1.91-1.71-4.18-1.91-6.41-.01-.17-.27-.15-.26.02.14,1.67.51,3.32,1.13,4.88.06.15.45,1.15.79,1.61-.16.07-.31.15-.46.24-.09-.11-.22-.22-.3-.34-.93-1.2-1.85-2.43-2.55-3.78-1.55-3.25-1.75-8.06.36-11.11,2.45-3.69,7.38-3.84,9.55-7.86.49,1.41,1.62,2.45,2.5,3.61.93,1.18,1.79,2.46,2.32,3.87,2.12,5.95-1.72,12.23-6.58,15.56-.14.14-.49.27-.62.46-.09-.09-.18-.17-.28-.24Zm8.01-19.05c.63-1.69,3.19-7.54,5.14-7.43v.03s.01.04.01.06c-.43,2.32-3.43,5.71-5.16,7.34Zm.21-8.18c.36-.71.75-1.4,1.19-2.07.7-1.12,1.24-2.33,2.1-3.35.25-.28.55-.58.87-.8-.28,1.07-.73,2.07-1.35,3-.82,1.17-1.65,2.34-2.8,3.22Zm-.15-9.26c-.54-.87-.92-1.81-1.17-2.8-.33-1.28-.42-2.63-.3-3.95.34.73.6,1.51.8,2.29.33,1.47.49,2.97.68,4.46Zm.83.4c.66-1.04,1.39-2.05,2.15-3.04.71-.88,1.4-1.81,2.36-2.43-.61,1.28-1.34,2.52-2.3,3.56-.66.71-1.47,1.27-2.2,1.91Zm1.3-9.6c-.35-1.37-.35-2.83-.14-4.23.37,1.56.26,3.19.3,4.78-.06-.18-.11-.36-.16-.54Zm1.2,1.22c.72-.84,1.36-1.73,2.11-2.54.58-.64,1.12-1.39,1.94-1.78-1.04,1.69-2.6,2.99-4.05,4.33Zm2.33-6.43c.08-1.55.47-3.14,1.44-4.39.09,1.55-.74,3.03-1.44,4.39Zm-6.89,23.85c-1.37-1.63-2.87-3.49-3.4-5.6-.07-.29-.13-.58-.16-.87,1.01.81,1.43,2.13,2.06,3.23.54,1.07,1.1,2.12,1.51,3.24Zm-.17,6.72c-.12-.14-.23-.29-.35-.43-1.22-1.47-2.33-3.32-2.06-5.32.51.51.82,1.2,1.07,1.86.48,1.28.89,2.6,1.34,3.89Zm-17.29,38.07c-.34.41-.82.67-1.32.84-2.28.75-4.73.33-7.08.57-2.53.15-5.28.64-7.11,2.51.32-.96.52-1.97.74-2.95.43-1.85.13-3.75.23-5.62.16-3.29,2.45-5.93,4.73-8.11,1.32,1.01,2.98,1.73,4.65,1.9,2.12.15,4.23-.38,6.26-.93,1.1-.34,2.23-.58,3.29-1.04.02.05.04.1.07.15-.04,0-.09,0-.11.04,0,0,0,0,0,0,0,0,0,0,0,0-.76.57-1.52,1.12-2.33,1.62-.14.09.01.31.15.21.74-.5,1.75-1.08,2.36-1.7.04.07.08.14.12.21-.03.03-.06.06-.1.08-1.62,1.37-3.25,2.77-4.57,4.44-.11.13.09.29.2.17,1.32-1.7,3.01-3.07,4.6-4.49.05.08.11.15.17.23-.62.42-1.6,1.92-1.85,2.22-.97,1.32-1.55,2.9-2.08,4.43-.56,1.63-.88,3.39-.95,5.14-.03.02-.05.04-.07.07Zm13.8,11.23c-1.06,1.53-2.18,3.13-2.43,5.02-1.62-2.12-3.89-3.56-5.7-5.49-2.21-2.43-4.3-5.19-5-8.47-.29-2.45.05-5.03.85-7.38.52-1.47,1.08-3.01,2.02-4.28.42-.6.88-1.2,1.37-1.75.08-.12.27-.24.39-.36.19.18.4.34.64.49-.08.07-.14.16-.21.25-1.62,2.23-2.58,4.98-2.69,7.74-.01.28-.02.56-.03.84,0,.07.05.13.12.14.07,0,.13-.05.14-.12,0-3.08.94-6.22,2.85-8.66.03-.02.05-.05.05-.08.22.09.45.16.68.21-.41.99-.68,2.03-.82,3.1-.03.16.22.21.25.05.13-1.07.43-2.1.82-3.1.2.03.41.04.61.04-.04.12,0,.28-.01.4.02.79.14,1.57.22,2.36,0,.07.07.12.14.12.07,0,.13-.07.12-.14-.08-.89-.24-1.78-.21-2.68.01-.03.01-.06,0-.08.13-.01.25-.03.38-.05.51.76.79,1.64,1.08,2.51.02.07.1.1.16.08.07-.02.1-.1.08-.16-.23-.7-.47-1.41-.81-2.06-.08-.14-.16-.28-.25-.42.22-.06.44-.13.65-.22,0,0,0,0,0,.01.61.61,1.21,1.24,1.63,2,.17.29.34.58.52.87.04.06.12.07.18.03.06-.04.07-.12.03-.18-.37-.6-.7-1.23-1.14-1.79-.29-.39-.66-.72-.99-1.07.27-.14.53-.3.77-.49,0,0,0,0,0,0,1.83,1.15,3.14,2.94,4.22,4.78.38.65.66,1.35.92,2.06.02.07.1.1.16.08.07-.02.11-.1.08-.16-.27-.75-.56-1.48-.98-2.17-1.08-1.82-2.4-3.61-4.21-4.77.21-.18.4-.39.57-.6.19.19.51.36.64.52.61.58,1.16,1.22,1.7,1.87,2.27,2.77,4.18,5.98,4.82,9.55.92,4.41-2.18,8.14-4.4,11.62Zm17.29-12.09c.1.16.37.67.67,1.13-.28-.06-.56-.09-.85-.09-1.73-.02-3.46.22-5.13.71-2.13.56-4.3,1.45-6.5.69-.11-.02-.28-.11-.42-.13.03-.88-.06-1.76-.28-2.64-.02-.08-.04-.16-.06-.23-.8-3.28-2.6-6.25-4.73-8.84-.12-.13-.47-.56-.89-1.03.84.7,1.68,1.39,2.56,2.03.18.08.63.62.78.41.04-.06.02-.14-.04-.18-.39-.29-.78-.58-1.17-.87-.92-.68-1.78-1.47-2.68-2.19.39.23.78.46,1.19.67,1.23.68,2.44,1.37,3.68,2.04.47.26.95.52,1.43.77.06.03.14.02.18-.05.03-.06.02-.14-.05-.18-.57-.3-1.13-.61-1.69-.92-1.9-1.03-3.77-2.11-5.65-3.15,0,0,0,0,0,0,.06.04.12.07.17.09,0,0,0,0,.02.01.01,0,.06.03.08.05,0,0-.02-.01-.03-.02,3.04,1.5,6.37,2.52,9.79,2.54,1.68.01,3.32-.41,4.84-1.11,0,0,0,0,0,0,1.94,1.38,2.33,3.94,3.03,6.06.47,1.51,1.04,3,1.76,4.42Zm3.79-20c-.89,1.21-1.33,2.66-2.29,3.85-1.22,1.53-2.76,2.87-4.38,3.99-1.97,1.38-4.3,2.29-6.74,2.28-3.3,0-6.66-1.05-9.55-2.47,0,0-.01,0-.02-.01,0,0,0,0,0,0-.08-.05-.17-.09-.25-.14,0-.02.01-.03.02-.05,1.66.57,3.37,1.03,5.1,1.34,1.29.19,2.6.14,3.9.1.56-.02,1.11-.05,1.67-.05.07,0,.13-.05.13-.13,0-.07-.06-.13-.13-.13-1.44.02-2.88.15-4.32.08-2.11-.13-4.18-.77-6.18-1.42,4.56,1.07,9.33.4,13.64-1.3.16-.06.05-.3-.1-.24-.57.2-1.14.41-1.71.61-.8.27-1.63.48-2.46.67-3.09.71-6.31.72-9.39,0,.04-.18.08-.36.09-.54.08,0,.16-.01.23-.01.96-.08,1.92-.27,2.86-.49.16-.04.1-.29-.06-.25-.99.22-1.98.43-3,.49,0,0-.01,0-.02,0,.01-.22,0-.44-.02-.65,1.91-.59,3.8-1.3,5.78-1.65.87-.85-4.63,1.02-5.81,1.4-.02-.09-.03-.18-.06-.27-.01-.04-.02-.08-.04-.12,1.18-.73,2.43-1.49,3.77-1.95.16-.05.08-.3-.07-.25-1.33.49-2.61,1.15-3.77,1.97-.03-.09-.07-.18-.11-.26.03-.01.06-.03.07-.07,1.05-.79,2.07-1.63,3.26-2.21,1.29-.61,2.68-.98,4.05-1.35.16-.04.09-.29-.06-.25-1.47.4-2.96.79-4.32,1.48-1.12.59-2.14,1.37-3.12,2.17-.08-.15-.17-.29-.27-.42,0,0,0,0,.01,0,.34-.22.67-.46.99-.7,2.9-2.11,5.4-5.21,6.46-8.7.08-.01.16-.07.2-.19,2.34-1.56,5.47-.88,7.69.6,2.68,1.85,4.99,4.45,8.31,5.29Zm22.45-8.43c-2.74.94-5.74,1.01-8.58.47-1.16-.24-2.34-.51-3.36-1.15-.87-.66-1.65-1.43-2.41-2.21-.11-.13-.23-.25-.35-.37,1.61-.32,3.2-.7,4.78-1.13,1.35-.18,2.74-.22,4.07.11,2,.55,3.9,1.47,5.91,2.01,1.17.33,2.39.55,3.59.4-1.15.74-2.36,1.36-3.64,1.85Zm4.18-2.21s-.06.01-.08.02c-.63.11-1.29.19-1.94.11-2.74-.32-5.2-1.64-7.82-2.4-.96-.25-1.95-.32-2.94-.28,1-.3,2-.63,2.98-.99,1.87-.67,3.72-1.36,5.55-2.1,3.03.64,6.26.27,9.11-.92.78-.34,1.6-.68,2.32-1.15-.3.48-.61.95-.94,1.41-1.69,2.43-3.8,4.62-6.24,6.3Zm10.6-14.06c-.95,1.97-1.94,3.93-3.07,5.8-2.12,1.45-4.65,2.33-7.2,2.59-1.3.09-2.61.09-3.91-.08-.09-.01-.18-.03-.27-.05,1.68-.69,3.35-1.43,4.99-2.24.97-.49,1.89-1.05,2.77-1.66.06-.03.13-.06.19-.09.07-.04.1-.09.12-.14,3.11-2.23,5.73-5.11,8.31-7.95-.72,1.23-1.28,2.55-1.92,3.82Zm1.89-4.54c-.66.74-1.35,1.45-2,2.19-1.63,1.76-3.31,3.48-5.16,5-.54.45-1.11.87-1.69,1.27-.4.19-.81.35-1.22.53-1.32.58-2.69,1.08-4.06,1.55-1.62.58-3.23,1.17-4.85,1.75,1.78-1,3.39-2.27,4.72-3.83,1.73-1.95,3.15-4.2,5.14-5.92,3.09-.67,6.2-1.37,9.14-2.55Zm-11.4,3.04c.58-.13,1.17-.25,1.76-.38-2.01,1.86-3.47,4.23-5.35,6.22-1.35,1.41-2.94,2.61-4.69,3.5-.46.24-.93.45-1.41.65-1.88.64-3.78,1.24-5.71,1.72.56-.36,1.12-.78,1.32-.92,3.6-2.61,5.5-6.85,8.92-9.64,1.7-.46,3.44-.8,5.17-1.16Zm-19.7,12.66c.17-.33.35-.66.55-.98.49-.73,1.05-1.4,1.61-2.07,2.24-2.64,4.7-5.21,7.82-6.79,1.26-.63,2.57-1.1,3.92-1.49-.79.71-1.91,1.95-2,2.08-2.59,3.13-4.9,6.84-8.73,8.57-.04.01-.09.02-.13.03-.05-.02-.1-.01-.14.02,0,0,0,0,0,.01-.19.04-.39.09-.58.13-.78.17-1.56.37-2.35.56.01-.02.02-.04.03-.06Zm-6.91,1.14c1.85.39,3.74.11,5.57-.27,2.51-.51,5.01-1.13,7.49-1.79,3-.8,5.9-1.93,8.82-2.99,1.31-.46,2.62-.92,3.92-1.4-1.93.96-3.95,1.76-5.94,2.56-5.01,2.05-10.2,3.65-15.55,4.51-2.1.4-4.23.64-6.36.89.64-.51,1.27-1.03,1.9-1.55.05.01.11.02.16.03Zm.15-.96c-1.77,1.47-3.55,2.93-5.4,4.3-1.4,1.04-2.94,1.87-4.37,2.87-.04.03-.08.07-.1.11-.31-.18-.63-.34-.97-.48-.08-.04-.17-.07-.25-.11,0,0,.01,0,.02-.01.61-.43,1.22-.88,1.83-1.31,2.33-1.67,4.59-3.44,6.75-5.33,1.69-1.45,3.31-2.98,4.98-4.46,2.17-1.88,4.41-3.69,6.43-5.73,4.4-4.51,8.06-9.58,11.29-14.97,3.45-5.29,6.54-10.86,8.69-16.81.4-1.03.8-2.06,1.17-3.1-1.04,3.97-2.63,7.81-4.17,11.61-5.46,13.2-14.92,24.4-25.88,33.42Zm23.84-27.84c.22-.43.43-.85.65-1.29.05,0,.11,0,.15-.03,3.18-1.93,6.16-4.13,9.12-6.38,1.76-1.32,3.47-2.71,5.11-4.18-4.52,4.53-9.62,8.46-15.03,11.87Zm17.95-7.67c-1.73,1.92-4.17,3.07-6.7,3.53-1.35.23-2.77.16-4.11-.19.79-.6,1.58-1.22,2.35-1.85.01,0,.02,0,.03.01.46-.09.89-.35,1.34-.48.74-.26,1.54-.33,2.31-.44,1.8-.29,3.7-.57,5.38-1.33-.2.25-.4.5-.61.74Zm.95-1.17c-.69.34-1.44.55-2.18.8-1.33.36-2.68.6-4.05.77-.92.08-1.8.34-2.66.67,1.65-1.37,3.24-2.8,4.78-4.3.42-.4.83-.82,1.23-1.25.97-.3,2.05-.4,3-.83,1.3-.52,2.49-1.28,3.54-2.2-.83,2.31-2.15,4.41-3.66,6.34Zm3.81-6.82c-.23.21-.46.4-.7.59-1.61,1.4-3.61,2.14-5.67,2.57,1.06-1.18,2.04-2.43,3.01-3.69.03-.03.05-.06.08-.09,0,0,0,0,0,0,.07-.04.1-.1.11-.16.06-.07.11-.15.17-.22.66-.94,1.45-1.77,2.01-2.78.09-.07.12-.17.1-.26-.04-.15-.22-.27-.39-.17-.19.14-.27.38-.4.57-.2.34-.45.67-.71.98-.45.58-.89,1.16-1.33,1.74-.08.09-.16.18-.24.26-.3.34-.61.67-.92,1,.59-.93,1.09-1.92,1.5-2.94.39-.92.54-1.89.9-2.82,1.55-.97,3.04-2.04,4.41-3.26-1.16,2.76-1.05,5.82-1.9,8.66Z"/><path class="cls-3" d="m119.41,150.46c-.18.68-.25,1.42-.36,2.12-.17,1.26-.16,2.56-.04,3.83,0,.17.27.15.26-.02-.21-1.93-.02-3.86.35-5.76.05-.13-.09-.28-.21-.18Z"/><path class="cls-3" d="m120.01,177.28c-.11,1.65.1,3.31.32,4.95.03.16.29.11.25-.05-.19-1.75-.53-3.55-.23-5.3.04-.06.02-.14-.04-.18-.28-.11-.26.4-.3.57Z"/><path class="cls-3" d="m126.28,175.79c-.06.04-.07.11-.04.17.64,1.24,1.21,2.51,1.67,3.84.18.51.33,1.03.47,1.54.02.07.1.1.16.08.07-.02.1-.1.08-.16-.43-1.69-1.11-3.31-1.88-4.87-.12-.15-.23-.73-.47-.6Z"/><path class="cls-3" d="m124.22,176.13c.54,1.66,1.04,3.32,1.31,5.05.03.17.29.11.25-.05-.27-1.72-.76-3.4-1.31-5.05-.03-.17-.29-.11-.25.05Z"/><path class="cls-3" d="m122.58,176.86c-.07,0-.12.07-.12.14.03.31.09.62.13.93.1.84.19,1.68.36,2.51.01.07.08.12.15.1.07-.01.11-.08.1-.15-.22-1.13-.31-2.28-.48-3.41,0-.07-.07-.13-.14-.12Z"/><path class="cls-3" d="m135.85,165.96c-1.03.39-2.05.84-3.1,1.18-.75.29-1.59.34-2.34.59-.13.12.07.33.19.19,1.92-.29,3.69-1.07,5.48-1.77.07-.03.1-.1.07-.17-.06-.13-.2-.06-.3-.02Z"/><path class="cls-3" d="m135.1,163.63c.07-.01.12-.08.11-.15-.01-.07-.08-.12-.15-.11-1.24.24-2.49.42-3.66.95-.11,0-.17.13-.1.21.07.09.2.03.28,0,1.12-.5,2.32-.66,3.52-.9Z"/><path class="cls-3" d="m131.77,161.54c-.41.2-.8.44-1.19.69-.17.15-1.14.62-.92.86.05.05.13.04.18,0,.6-.52,1.32-.94,2.03-1.31.06-.03.09-.11.06-.17-.03-.06-.11-.09-.17-.06Z"/><path class="cls-3" d="m93.2,168.84c.11.14.23.28.33.43.04.11.21.1.24-.01.02-.08-.04-.15-.09-.21-.21-.28-.44-.55-.67-.82-.14-.17-.28-.34-.42-.5-.04-.05-.13-.05-.18,0-.05.05-.05.13,0,.18.26.32.53.63.79.95Z"/><path class="cls-3" d="m90.2,165.05c.32.36.65.71.96,1.09.11.13.21.27.32.4.04.06.12.07.18.03.17-.16-.12-.33-.2-.46-.33-.42-.71-.83-1.07-1.23-.11-.12-.3.05-.19.18Z"/><path class="cls-3" d="m88.22,162.54c-.31-.28-.64-.54-.96-.81-.13-.11-.29.09-.16.2.66.53,1.29,1.09,1.87,1.7.05.05.13.05.18,0,.05-.05.05-.13,0-.18-.3-.31-.61-.62-.93-.91Z"/><path class="cls-3" d="m80.91,165.63c-.05.05-.05.13,0,.18.14.16.28.33.41.49.26.32.5.66.72,1.01.04.06.11.08.17.05.31-.16-.95-1.5-1.11-1.73-.05-.05-.13-.05-.18,0Z"/><path class="cls-3" d="m78.66,162.75c-.05-.05-.14-.03-.18.02-.1.14.08.23.16.32.4.38.8.81,1.17,1.23.09.1.24.33.37.16.04-.06.02-.13-.03-.17-.49-.53-.96-1.07-1.5-1.56Z"/><path class="cls-3" d="m77.03,161.39c-.42-.24-.83-.52-1.27-.73-.15-.07-.26.17-.11.23.31.15.6.33.89.51.27.17.55.31.8.5.05.04.12.04.17,0,.18-.22-.35-.39-.48-.51Z"/><path class="cls-3" d="m72.42,164.06c-.09-.18-.18-.36-.28-.53-.04-.06-.11-.09-.17-.05-.06.03-.09.11-.05.17.17.28.31.58.45.88.03.08.09.2.2.16.22-.11-.09-.45-.14-.63Z"/><path class="cls-3" d="m70.52,161.7c.26.27.53.53.72.86-.01.16.22.19.26.04-.06-.43-.52-.75-.79-1.07-.11-.12-.3.05-.19.17Z"/><path class="cls-3" d="m69.17,160.39c-.04.06-.02.14.04.18.16.12.34.24.47.4,0,0,0,0,0-.02.03.06.1.1.17.08.19-.09,0-.29-.1-.37-.15-.09-.4-.46-.57-.27Z"/><path class="cls-3" d="m63.74,162.34c.34.16.66.34.99.53.06.03.14,0,.17-.06.03-.06,0-.14-.06-.17-.32-.19-.65-.37-.99-.53-.15-.07-.26.17-.11.24Z"/><path class="cls-3" d="m61.43,161.03c-.16-.03-.44-.24-.54-.03-.02.07.02.14.09.16.5.15.99.35,1.46.58.07.06.19.07.23-.03.03-.06,0-.14-.06-.17-.37-.2-.78-.37-1.17-.51Z"/><path class="cls-3" d="m88.56,177.9s-.08.02-.14.04c-.7.17-1.41.39-2.08.68-.11.1,0,.27.14.22.76-.31,1.53-.53,2.34-.74.1-.04.33-.04.3-.2-.08-.23-.39,0-.56,0Z"/><path class="cls-3" d="m91.49,177.45c-.35.04-.71.07-1.06.11-.07.02-.12.08-.1.15.01.06.07.11.13.1.36-.05.73-.07,1.1-.12.12-.03.39.02.39-.17-.03-.22-.31-.08-.46-.08Z"/><path class="cls-3" d="m85.23,181.75c-.3,0-.59-.01-.89-.02-.26-.01-.55-.02-.81-.03-.07,0-.13.07-.12.13,0,.07.06.12.13.13.28,0,.56.01.84.03.29,0,.57.02.86.02.07,0,.13-.06.13-.13,0-.07-.06-.13-.13-.13Z"/><path class="cls-3" d="m82.31,181.61c-.52,0-1.04-.05-1.57-.03-.07,0-.13.06-.12.13.04.22.34.09.5.12.36,0,.7.02,1.07.03.11,0,.29,0,.27-.15-.01-.07-.08-.12-.15-.11Z"/><path class="cls-3" d="m76.82,184.98c-.07-.13-.26-.12-.38-.19-.4-.15-.81-.29-1.23-.4-.07-.02-.14.03-.16.1-.02.07.03.14.1.16.54.12,1.05.4,1.59.5.07-.02.11-.1.08-.16Z"/><path class="cls-3" d="m71.96,183.63c-.07-.01-.13.05-.14.11,0,.07.04.13.12.14.32.04.61.1.93.16.32.06.64.14.95.26.06.03.14,0,.17-.05.16-.36-1.74-.55-2.03-.62Z"/></g><path class="cls-3" d="m99.87,139.81c-15.09,0-27.93-10.96-31.25-26.79l.95-.4c3.23,15.36,15.7,26.19,30.3,26.19s27.09-10.83,30.32-26.19l.93.39c-3.33,15.83-16.17,26.8-31.26,26.8Z"/></g><rect class="cls-1" width="200.05" height="200.05"/></g></svg>