<?xml version="1.0" encoding="UTF-8"?><svg id="_レイヤー_2" xmlns="http://www.w3.org/2000/svg" viewBox="0 0 22.7 29.19"><defs><style>.cls-1{fill:#e3dac2;}</style></defs><g id="_レイヤー_1-2"><g><g><path class="cls-1" d="m9.34,12.24v6.98c0,.37.02.62.06.75s.11.25.2.34c.09.1.21.16.34.21.14.04.37.06.71.06h.3v.77h-4.77v-.77h.4c.37,0,.62-.03.74-.1.16-.09.28-.22.36-.38.08-.16.12-.46.12-.88v-5.44h-1.6v-.77c.45-.04.85-.11,1.2-.22.35-.11.75-.3,1.2-.55"/><path class="cls-1" d="m15.94,8.25c-.38-.28-.91-.42-1.58-.42-1.01,0-1.84.3-2.47.91-.63.61-.95,1.38-.95,2.34v8.17c0,.49-.02.81-.08.95-.06.14-.15.24-.29.3-.13.06-.44.09-.93.09h-.29v.77h4.75v-.77h-.38c-.45,0-.73-.03-.86-.08-.12-.06-.22-.15-.28-.29-.06-.14-.09-.41-.09-.83v-8.69c0-.5.04-.88.13-1.12.09-.24.22-.43.38-.55.16-.13.35-.19.55-.19.3,0,.61.15.93.46.31.3.53.48.68.55s.32.11.53.11c.23,0,.42-.08.57-.23s.23-.34.23-.56c0-.33-.19-.64-.57-.92Z"/><path class="cls-1" d="m11.09,13.29c.6-.33,1.23-.54,1.89-.61.65-.08,1.19-.03,1.62.14s.72.4.88.7c.17.3.19.59.08.88-.08.21-.24.35-.46.45s-.45.09-.68,0c-.1-.04-.19-.09-.25-.15-.06-.06-.15-.16-.25-.32-.23-.33-.45-.54-.66-.62-.29-.11-.65-.12-1.09-.02-.56.13-1.02.3-1.38.5"/><path class="cls-1" d="m11.09,13.29l-.31.94s-.47.2-2.63,1.56c0-.11.08-.53.12-.68,1.5-1.16,2.82-1.82,2.82-1.82Z"/></g><path class="cls-1" d="m11.35,29.19C5.09,29.19,0,22.64,0,14.59S5.09,0,11.35,0s11.35,6.55,11.35,14.59-5.09,14.59-11.35,14.59ZM11.35.4C5.31.4.4,6.77.4,14.59s4.91,14.2,10.95,14.2,10.95-6.37,10.95-14.2S17.39.4,11.35.4Z"/><path class="cls-1" d="m11.35,26.58c-4.74,0-8.74-5.49-8.74-11.98S6.61,2.61,11.35,2.61s8.74,5.49,8.74,11.98-4,11.98-8.74,11.98Zm0-23.18c-4.31,0-7.95,5.13-7.95,11.19s3.64,11.19,7.95,11.19,7.95-5.13,7.95-11.19S15.66,3.4,11.35,3.4Z"/><path class="cls-1" d="m11.35,28.46C5.49,28.46.73,22.24.73,14.59S5.49.73,11.35.73s10.62,6.22,10.62,13.87-4.77,13.87-10.62,13.87Zm0-26.55C6.15,1.92,1.92,7.6,1.92,14.59s4.23,12.68,9.43,12.68,9.43-5.69,9.43-12.68S16.55,1.92,11.35,1.92Z"/></g></g></svg>