<?xml version="1.0" encoding="UTF-8"?><svg xmlns="http://www.w3.org/2000/svg" xmlns:xlink="http://www.w3.org/1999/xlink" viewBox="0 0 375 48.88"><defs><style>.cls-1,.cls-2{fill:none;}.cls-3{clip-path:url(#clippath);}.cls-4{fill:#95938d;}.cls-5{mix-blend-mode:hard-light;}.cls-6{fill:url(#_名称未設定グラデーション_10);}.cls-2{stroke:#e3dac2;stroke-miterlimit:10;stroke-width:2px;}.cls-7{isolation:isolate;}</style><linearGradient id="_名称未設定グラデーション_10" x1="187.5" y1="0" x2="187.5" y2="47.88" gradientUnits="userSpaceOnUse"><stop offset="0" stop-color="#232331"/><stop offset="1" stop-color="#233e79"/><stop offset="1" stop-color="#000"/></linearGradient><clipPath id="clippath"><rect class="cls-1" y="0" width="375" height="47.88"/></clipPath></defs><g class="cls-7"><g id="_レイヤー_2"><g id="_レイヤー_1-2"><g><rect class="cls-6" y="0" width="375" height="47.88"/><g class="cls-5"><g class="cls-3"><path class="cls-4" d="m87.07,69.35c.67-.65,1.28-1.36,1.78-2.17,2.29-3.96,2.46-8.89,1.53-13.28-.39-1.76-.96-3.48-1.71-5.12-.16-.24-.31-.7-.49-1.13.01,0,.03.01.05.02.54.23,1.08.45,1.63.66.09.09.37.16.54.21,4.68,1.74,9.58,2.75,14.52,3.45.04.03.69.12,1.03.14.24.03.47.06.71.09,9.65,1.17,19.51,1.83,29.16.23,3.09-.51,6.15-1.22,9.16-2.11.3-.16.78-.17,1.19-.36,6.86-2.16,13.4-5.33,19.24-9.52,3.88-2.85,7.64-5.91,11.06-9.31.13-.14.57-.58.82-.84.91-.93,1.8-1.89,2.66-2.88,3.15-3.81,5.46-8.22,8.12-12.37.5-1.34-1.72-1.81-2.56-2.46-2.83-1.59-5.59-3.28-8.32-5.03-5.48-3.52-10.91-7.17-16.76-10.06-3.89-1.88-7.91-3.48-12-4.87-4.55-1.58-9.25-2.64-14.02-3.16.14-.32.26-.64.38-.84,1.37-2.83,1.7-5.99,1.57-9.1-.04-3.14-.54-6.37.48-9.44.24-.57.35-1.49-.45-1.6-1.16.01-2.31.23-3.46.28-3.84.25-7.61.1-11.5.1-16.1-.7-33.05,3.65-42.48,17.71-2.87,4.4-5.75,9.12-6.51,14.41-.65-2.11-1.5-4.15-2.53-6.08-2.85-5.03-8.19-8.03-13.74-9.14-3.69-.79-7.53-.65-11.15-1.79-4.82-1.81-8.93-2.27-13.74-.07-5.21,2.8-9.23,7.58-11.7,12.9-4.92-.53-9.71.19-13.71,3.96C1.69,4.55.34,10.81-4.68,13.79c-2.4,1.5-5.13,2.55-8.01,2.56-2.04,0-4.07-.33-6.11-.09-5.69.32-10.17,5.59-9.94,11.22.05,4.16,1.16,8.7,3.74,12.07-1.79-1.34-3.75-2.43-5.79-3.34-.02-.03-.04-.06-.07-.09-.33-1.87-.97-3.76-2.32-5.14-1.12-1.32-3.37-1.78-3.44.53-.03.99.27,1.94.69,2.84-1.75-.52-3.54-.93-5.32-1.28-.12-.49-.36-.95-.51-1.43-.48-1.21-.94-2.67-2.19-3.28-.54-.34-1.31-.45-1.69.18-.8,1.25.23,2.71,1.1,3.63.13.09.27.23.42.39-.33-.05-.67-.11-1-.16-1.64-.23-3.29-.45-4.95-.65-.76-1.71-2.02-3.43-3.8-4.14-.64-.28-1.66-.07-1.86.72-.23,1.35.9,2.29,1.9,3.04-1.73-.16-3.47-.27-5.21-.34-.59-1.14-1.03-2.43-1.98-3.34-.69-.69-2.18-1.47-2.41.03-.02,1.26.75,2.32,1.61,3.24-1.17-.01-2.34,0-3.52.04-.04,0-.06.02-.09.03-.33-.43-1.21-.31-1.7-.45-1.21-.15-2.87-.21-3.51,1.04-.22.49.02,1.06.48,1.32,1.34.82,3.19.48,4.4-.44.18-.15.41-.32.56-.5.03,0,.06,0,.09,0,1.42-.07,2.85-.06,4.29-.01-.93.62-1.95,1.33-2.32,2.43-.19,1.41,1.68.98,2.36.42.5-.34,1.95-1.78,2.14-2.75.31.02.62.03.93.05,1.87.15,3.78.3,5.7.47-1.11.67-2.15,1.47-2.81,2.63-.29.47-.15,1.24.44,1.38.72.07,1.41-.38,2.03-.71.5-.17,2.39-1.94,2.85-3.06,2.1.22,4.2.49,6.27.85-1.56.62-3.06,1.49-4.28,2.62-.14.18-.26.47-.18.71.41,1.58,4.17-.43,5.02-.98.35-.26,1.67-1.19,1.91-1.87,1.78.37,3.54.82,5.26,1.37-.75.4-1.4.96-1.88,1.67-1.41-.83-3.36-1.87-4.1-.34-.43,2.49,2.94,4.22,5.52,5.09-3.43.54-6.88,1.4-10.3,2.53-1.61-1.29-6.71-4.13-8.05-2.25-.35.67.03,1.46.49,1.97,1.01,1.15,2.47,1.49,3.95,1.56-2.56.98-5.1,2.09-7.59,3.3-1.84-.76-6.7-2.6-8.01-.57-.38.7-.02,1.53.56,2,.93.76,2.07.88,3.22.75-2.3,1.25-4.55,2.56-6.71,3.93-1.56-.45-6.98-1.19-7.73.49-.3,1.84,1.87,2.24,3.78,2.11-2.94,2.01-5.71,4.08-8.25,6.13-.12,0-.25.03-.36.1-.5.36-1,.73-1.5,1.1-1.1.92-2.63,1.91-2.76,3.46.48,2.02,3.63.02,4.24-1.06.27-.43,1.16-2.01,1.15-2.9,2.26-1.79,4.51-3.61,6.86-5.27.88-.61,1.78-1.19,2.7-1.77-.62,1.28-1.49,2.69-1.25,4.13.89,1.72,2.77-1.47,3.16-2.32.51-1.1.78-2.31.85-3.51.49-.29.97-.59,1.46-.88,2.25-1.35,4.58-2.67,6.97-3.91-.71,1.12-1.39,2.27-1.85,3.52-.26.63-.25,1.64.56,1.82,1.76-.03,2.85-2,3.32-3.49.32-.98.29-2,.3-3.01,2.82-1.38,5.72-2.64,8.68-3.72-1.37,1.57-3.05,3.17-3.36,5.27-.04.43.16.89.61.99,1.18.13,2-1.03,2.75-1.78,1.29-1.58,2.15-3.44,2.75-5.39,0-.01,0-.03.02-.05,3.44-1.11,6.95-1.95,10.49-2.42-2.43,1.63-4.76,3.62-6.22,6.16-.36.63-.41,1.57.48,1.74,2.07.27,4.37-2.29,5.67-3.7,1.17-1.37,2.08-2.96,2.99-4.51,0,0,0,0,0,0,2.83-.22,5.67-.19,8.5.14.07,0,.14.01.22.03-3.75,1.77-7.43,4.01-9.77,7.46-1.38,2.05.06,4.3,1.87,5.47,1.15.83,2.47,1.4,3.4,2.51.62.73.73,1.78.28,2.63-.49,1.09-1.08,2.13-1.63,3.19-.19-.08-.42-.1-.62-.12-1.31-.2-2.62-.3-3.95-.36-9.69-.21-20.33,2.7-26.95,10.13-2.24,2.51-3.97,5.41-5.72,8.27-2.29,3.59-5.07,6.89-7.97,10.01-.19.2-.49.46-.49.75,0,.34.36.62.69.49,1.54-.88,2.96-1.8,4.61-2.57,4.34-2.03,8.86-3.89,13.73-4.15,9.7-.39,14.64,1.45,21.65-7.02,1.84-1.8,3.41-4.4,6.1-4.93.24.13.46.06.6-.09.85.48,1.82.87,2.86,1.18-.02.03-.04.06-.06.09-1.08,1.42-2.14,2.85-3.18,4.3-4.29,6.02-8.25,12.29-11.7,18.84-.85,1.63-1.65,3.29-2.44,4.95-.18-.13-.44-.16-.64.02-.16.22-.42.32-.66.43-2.41.83-4.95-.35-7.37-.66-9.41-1.89-20.33-1.17-27.97,5.2-5.87,5.38-10.7,11.86-14.52,18.85-2.64,4.36-4.45,9.12-6.8,13.63-.22.32-.22.83.2.97.7.16.82-.79,1.12-1.23,1.8-3.01,4.59-5.28,7.53-7.13,7.38-4.97,16.29-7.06,25.02-8.19-.03,0-.07,0-.1.01.16-.02.32-.04.5-.06-.01,0-.02,0-.03,0,6.06-.69,12.54-1.67,17.08-6.1-.99,2.64-1.95,5.3-2.87,7.97-1.67,5.09-3.18,10.23-4.65,15.38-.28.29-.65.57-1.02.79-1.55.86-3.32.95-5.06,1.05-1.81.21-3.62.59-5.37,1.08-11.57,3.33-19.57,14.08-19.42,26.13-.08,8.63,1.23,17.2,2.22,25.76.16,1.54.34,3.09.49,4.65.03,1.08.12,2.16.31,3.23.01.32.29.59.62.53.51-.1.43-.6.36-.99-.59-4.34-.43-8.72,1.02-12.89,1.57-5.48,4.54-10.51,8.38-14.73,4.8-4.81,9.89-9.44,13.4-15.34-.66,3.74-1.14,7.5-1.29,11.31-.02.41-.04,2.64.17,4.35-.12.19-.2.43-.26.63-.41,1.04-.78,2.12-1.15,3.19-1.59,4.15-3.13,8.38-3.55,12.84-1.12,8.38,2.36,14.8,7.13,21.38,1.98,2.75,4.35,5.17,6.82,7.49.07.31,1.38,1.4,1.34,1.24,2.29,2.09,4.63,4.13,6.82,6.29,1.91,1.76,3.82,3.53,5.67,5.36,1,.89,1.82,2.02,2.9,2.8.54.22.88-.42.68-.87-.99-3.48-1.74-7.02-2.12-10.62-.98-7.1-.26-14.61-3.06-21.35-2.18-4.79-6.67-7.91-10.18-11.66-3.02-3.38-6.07-6.86-8.18-10.92-.51-1.12-.97-2.37-1.37-3.6-.09-.2-.14-.47-.19-.74,0-.03,0-.06,0-.09-.26-1.42-.44-2.83-.46-4.28.04-5.04.78-10.08,1.75-15.06.18.42.36.8.42,1.02,1.53,4.8,4.07,9.2,7.36,13.02,3.35,4.47,7.43,8.25,11.4,12.15,2.56,2.65,4.94,5.63,6.85,8.8,1.28,2.13,2.45,4.33,3.89,6.37.34.4.59,1.06,1.16,1.14.57.04.65-.59.6-1.02-.03-1.07-.08-2.15-.14-3.22-.23-3.51-.99-6.95-1.85-10.35-.56-2.3-1.13-4.64-1.93-6.88-2.24-6.79-6.4-12.83-11.19-18.08-3-3.26-6.45-6.07-9.26-9.51-1.44-2.23-2.83-4.66-3.31-7.3-.1-.74-.09-1.63-.04-2.39.02-.12,0-.24-.06-.33,2.56-9.19,5.8-18.2,9.69-26.91-.51,2.43-.78,4.91-.89,7.37-.24,4.1.55,8.14,1.41,12.13.37,1.85.93,3.76,1.64,5.52.93,2.55,2.38,4.84,3.77,7.16,1.44,2.36,2.81,4.77,4.54,6.94,1.21,1.58,2.54,3.02,3.89,4.48,1.17,1.34,2.56,2.51,3.58,3.99.88,1.28,1.55,2.61,2.28,4,.46.88,1.32.37,1.35-.41.27-2.03.51-4.07.8-6.09,2.4-16.78,4.16-25-8.5-38.17-2.59-2.9-5.65-5.49-7.55-8.93-2.01-3.51-1.36-7.85.44-11.29.02-.05.02-.09.02-.13,3.64-6.28,7.81-12.24,12.43-17.85,1.84-2.3,3.58-4.68,5.5-6.91.2-.37,1.07-.98,1.36-1.52.26.02.51.05.76.07-.98,1.11-1.96,2.22-2.91,3.35-4.59,5.25-7.87,11.8-8.37,18.82-.35,5.16,1.06,10.37,3.15,15.07,1.32,2.71,3.37,4.98,5.42,7.16,3.16,3.41,5.78,7.33,6.72,11.95.16.43.16,1,.55,1.28.22.13.54.08.69-.14.4-.96.42-2.03.66-3.06,1.18-7.45,2.58-14.98,1.95-22.55-.49-4.35-1.46-8.65-1.64-13.04-.1-4.51.73-9.07,2-13.39.55-1.6,1.08-3.29,2.21-4.6.14-.21.39-.34.47-.58,1.96.09,3.9.27,5.84.68-1.1,1.28-1.42,3.14-1.7,4.77-.03.28-.04.56-.06.84-.1,0-.2.02-.29.08-1.22.96-2.48,2-3.37,3.29-.98,1.25-.54,3.27,1.34,2.67,1.17-.66,1.74-1.99,2.27-3.22.08,2.54.51,5.04,1.17,7.5,0,.06.02.11.04.16.01.05.02.09.04.14-1.64,1.34-2.6,3.52-2.82,5.6-.18,1.35.99,2.34,2.13,1.33,1.12-1.08,1.29-2.67,1.55-4.16.94,2.73,2.12,5.38,3.38,7.95-1.02,1.06-1.47,2.61-1.89,3.99-1.19,6.44,3.9,5.26,3.39-1.03,1.45,2.83,2.9,5.67,4.21,8.56-1.07,1.16-1.51,2.8-1.98,4.27-.54,1.5.45,2.9,2,1.94.87-.73,1.23-1.82,1.38-2.93.79,1.97,1.5,3.97,2.07,6.02-.39.32-.66.8-.99,1.17-.8,1.06-1.78,2.14-1.82,3.54-.26,1.22,1.03,2.46,2.15,1.61.84-.59,1.27-1.49,1.57-2.45.35,2.14.45,4.31.29,6.47-.39.05-.79.28-1.14.41-1.13.51-2.51,1.22-2.78,2.56-.08.45.16.96.61,1.12,1.16.32,2.1-.42,2.96-1.19-.21,1.19-.5,2.37-.87,3.53-.16.09-.28.25-.28.44-.34.15-.38.6-.51.91-.28,1-.72,1.99-.82,3.03-.32,1.42,1.22,3.54,2.73,2.67,1.35-1.35.56-3.71.18-5.35-.11-.38-.27-.75-.43-1.11.03-.04.05-.07.07-.12.35-1.3.73-2.59.98-3.91.56,1.52,1.24,3.07,2.6,4.01.45.3,1.13.17,1.35-.35.19-.43-.02-.91-.18-1.31-.42-.97-2.21-4.49-3.43-5.09.22-2.78-.03-5.53-.59-8.23.71.81,1.43,1.62,2.21,2.36.51.47,1.13,1.12,1.9,1.02,1.75-.53-.19-2.62-.81-3.41-.34-.51-2.86-2.8-4.02-2.9-.63-2.18-1.42-4.33-2.28-6.43,1.38,1.11,3.99,3.02,4.76,1.33.06-1.22-2.22-2.71-3.18-3.35-.88-.51-1.91-.92-2.92-1.08-.12-.26-.23-.53-.35-.79-1.03-2.17-2.14-4.31-3.24-6.46,1.39,1.24,3.21,2.67,4.15,2.15.6-.59-.05-1.36-.46-1.85-.88-1.06-1.77-2.15-2.9-2.96-.88-.62-1.86-1.06-2.82-1.53-.04-.06-.09-.1-.15-.13-1.1-2.28-2.12-4.6-2.96-6.99.92.96,1.85,1.92,2.92,2.72.67.56,2.19.72,2.28-.43-.09-.91-.76-1.66-1.29-2.37-1.07-1.28-2.35-2.42-3.9-3.08-.36-.16-.72-.32-1.1-.45-.04-.17-.09-.34-.13-.51-.42-1.5-.79-3.42-.96-5.43.66,1.48,1.46,3.05,2.9,3.45,1.05.16,1.33-1.18,1.1-1.98-.6-2-2.28-3.4-4.07-4.34.08-2.1.47-4.11,1.38-5.63.22,3.81,1.22,7.59,3.38,10.74,1.76,2.52,4.55,3.89,7.38,4.84,2.4,1.06,4.23,3.21,6.69,4.19,3.47,1.63,7.61,1.33,10.98-.4.39.24,1.06.31,1.4.5,2.44.99,5.13,1.37,7.75.79,6.06-.77,11.39-4.7,13.9-10.28.09-.22.22-.43.24-.66,4.42.93,8.3-1.4,10.59-5.43.61-1.23,1.13-2.5,1.56-3.8.71,0,1.43,0,2.14-.05,2.04-.04,3.94-.76,5.85-1.41,3-.99,6.02-1.98,8.79-3.52,2.15-1.27,4.53-2.46,6.49-4.08M-69.68,32.01c.81-.86,2.21-.4,3.25-.3-.9.63-2.29.95-3.25.3Zm7.77,2.26c.43-.61,1.07-1.02,1.69-1.43-.44.58-.97,1.17-1.69,1.43Zm1.57-3.3c-.89-.85-1.83-1.81-2.06-3.04,1.19.62,1.61,1.89,2.2,3.04-.05,0-.09,0-.14,0Zm5.91-1.55c-.92-1.41.53-.85,1.18-.3.83.69,1.48,1.56,2,2.5-.23-.02-.45-.05-.68-.07-.02-.01-.02-.03-.04-.05-.82-.71-1.77-1.22-2.45-2.08Zm.69,6.03c.72-1.02,1.71-1.69,2.82-2.28-.69,1.01-1.68,1.83-2.82,2.28Zm9.74-4.22c-.43-.55-1.17-1.38-.79-2.12,1.5.56,1.84,2.32,2.36,3.73-.06,0-.11-.02-.17-.03-.02-.59-1.11-1.11-1.4-1.58Zm-2.1,5.22c.36-.24.73-.47,1.11-.7.86-.55,1.67-.99,2.68-1.32-1.03,1-2.39,1.59-3.79,2.01Zm-38.08,31.95c.59-1.35,1.98-2.16,3.11-3.06-.45,1.46-1.53,2.82-3.11,3.06Zm13.87-12.02c-.31-.03-.74.14-1.03.2-1.12.11-3.11.55-3.83-.56.41-.32,1.03-.25,1.53-.33,1.34-.08,2.69.02,4.02.24-.23.15-.46.3-.69.45Zm-.2,4.4c.42-1.4,1.01-2.72,1.86-3.93-.26,1.45-.87,2.84-1.86,3.93Zm9.66-10.74c-1.19.26-3.2.54-3.75-.88.35-1.29,4.35-.05,5.92.5l-.06.03c-.49-.25-1.61.35-2.12.35Zm.78,5.32c.39-1.59,1.41-3.02,2.28-4.4-.06,1.67-.71,3.58-2.28,4.4Zm9.99-10.64c-1.26-.06-2.91-.53-3.33-1.87.12-.73,3.38.52,3.82.79,1.12,1.13.29,1.11-.49,1.07Zm-.32,6.66c.57-2.03,2.28-3.57,3.65-5.14-.79,1.95-1.85,3.97-3.65,5.14Zm14.24,185.45c-4.56-4.58-9.38-8.88-14.1-13.29-3.72-3.3-7.17-6.9-9.8-11.16-2.82-4.29-5.28-9.13-5.21-14.4v.07c-.25-6.2,2.1-12.05,4.19-17.79.1.58.21,1.17.32,1.75,1.27,7.22,5.45,13.33,9.11,19.52,2,3.6,3.68,7.38,4.95,11.3,2.47,7.56,4.54,15.45,9.11,22.07.42.59.87,1.19,1.37,1.71.02.07.04.14.06.21Zm-18.57-46.2c1.83,2.26,3.64,4.43,5.8,6.44,3.41,3.26,7.32,6.5,8.71,11.2,1.44,4.77,1.5,9.81,1.86,14.75.33,4.17.82,8.35,1.83,12.42-5.04-6.63-7.09-14.96-9.68-22.75-1.22-3.76-2.82-7.43-4.72-10.91-3.22-5.72-7.19-11.1-8.79-17.58-.27-1.08-.54-2.17-.73-3.26,1.19,3.59,3.31,6.79,5.72,9.7Zm-29.36,2.88c-.57-4.6-1.15-9.21-1.47-13.84-.3-5.11-.69-10.33.73-15.33,2.89-10.31,11.95-17.43,22.48-18.68,1.93-.14,4.02-.22,5.74-1.16-1.19,2.02-2.4,4.05-3.82,5.92-2.16,2.61-4.8,4.78-7.17,7.22-5.11,4.98-9.5,10.76-12.25,17.38-2.35,5.87-4.11,12.14-4.25,18.49Zm24.83-35.76c-.09.44-.18.88-.27,1.31-.05.04-.1.09-.14.16-1.26,2.29-2.69,4.49-4.29,6.61-3,3.98-6.82,7.22-10.25,10.81-4.65,5.01-7.84,11.24-9.38,17.89,0-1.19.03-2.38.11-3.57.53-4.81,1.76-9.54,3.43-14.07,2.04-5.41,5.14-10.42,8.93-14.79,3.48-4.05,7.68-7.39,11.16-11.45,1.1-1.46,2.08-3.02,3.02-4.59-.12.41-.23.82-.35,1.23-1.06,3.32-1.36,6.82-1.98,10.23-.02.08-.01.15,0,.22Zm26.64,34.98c-1.68-2.55-3.59-4.93-5.7-7.13-2.21-2.39-4.73-4.5-6.96-6.87-2.5-2.7-4.86-5.71-7.13-8.64-2.68-3.59-4.21-7.82-5.68-12.03-.01-.06-.03-.12-.04-.18,0-.07-.04-.13-.07-.18.2-.99.41-1.97.63-2.95.53-2.47,1.11-4.93,1.73-7.38.05,2.92.93,5.78,1.6,8.61.54,2.21,1.35,4.37,2.51,6.33,1.83,3.22,3.94,6.36,6.44,9.12,2.28,2.72,4.87,5.18,7,8.03,2.31,3.08,4.09,6.48,5.95,9.84,1.53,3.42,2.69,6.99,4.02,10.5-1.53-2.3-2.78-4.77-4.3-7.07Zm-21.59-42.61c2.33,5.4,7.39,8.81,11.24,13.07,6.08,6.45,10.74,14.33,12.65,23.02.08.31.15.63.24.95,0,0,0-.01,0-.02,1,3.89,1.86,7.85,2.06,11.88-.82-2.26-1.76-4.51-2.53-6.79-.74-2.27-1.9-4.33-3.1-6.37-1.33-2.4-2.73-4.83-4.44-7.01-2.89-3.7-6.35-6.92-9.19-10.66-1.98-2.74-3.88-5.59-5.25-8.68-.99-2.41-1.55-5.02-2.13-7.56-.31-1.54-.65-3.09-.66-4.66.27.98.65,1.93,1.13,2.84ZM-5.29,87.67c-.2.25-.4.56-.74.62-.16.02-.31-.1-.3-.26.25-1.36,1.55-2.2,2.46-3.12-.37.98-.82,1.9-1.43,2.77Zm17.24,60.6c-.62.03-1.18-.83-1.11-1.41.02-1.08.51-2.09.8-3.13.38,1.04.56,2.14.63,3.24-.02.43.01.95-.31,1.3Zm.59-11.28c-.05.02-.1.04-.14.09-.33.34-.69.62-1.06.92-.45.34-.96.83-1.58.77.39-1.13,1.75-1.61,2.81-2.03,0,.08-.02.17-.03.25Zm3.73,4.6c-1.1-.98-1.61-2.39-2.11-3.75.79,1.19,1.59,2.41,2.11,3.75Zm.48-11.71c-1.32-1.02-2.36-2.36-3.47-3.59,1.45.89,2.61,2.11,3.47,3.59Zm-4.87-3.08c-.09.35-.1.73-.22,1.07-.12.5-.27,1-.45,1.49-.13.59-1.41,2.41-1.54.94.03-1.52,1.24-2.65,2.13-3.8.03.1.06.2.08.3Zm1.77-7.56c-1.57-.51-2.9-1.69-4.11-2.79,1.61.49,2.99,1.56,4.11,2.79Zm-5.2-2.17c.03.08.07.15.1.23-.2.45,0,1.08-.14,1.61-.17.86-.36,2.5-1.44,2.59-.03-.04-.04-.1-.06-.15,0,0,0-.06-.02-.12,0-.03,0-.06,0-.09.26-1.43.8-2.84,1.56-4.08Zm-3.99-11.5c1.38.7,2.54,2.02,3.53,3.25-1.55-1.01-2.95-2.25-4.21-3.6.23.11.45.23.67.35Zm-1.62.14c-.14.1-.23.27-.22.46.04,1.07.19,2.08.1,3.17-.16,1.58-1.44,4-1.52.76.04-1.62.71-3.16,1.5-4.55.05.05.1.11.14.16Zm1.3-6.93c-.67-.11-1.15-.72-1.66-1.13-1.09-1.1-2.26-2.15-3.22-3.37,0,0,0,0,0,0,2.07.87,3.86,2.5,4.88,4.51Zm-6.87.21c-.2.43-.42.94-.9,1.11-.12-.13-.15-.3-.15-.47.1-1.66.85-3.31,1.92-4.57-.31,1.31-.4,2.67-.87,3.93Zm3.55-9.47c-1.31-.78-1.8-2.45-2.47-3.75,1.11.76,2.73,2.28,2.47,3.75ZM186.52,14.36c-4.07.7-8.2-.04-12.29-.29-4.03-.28-8.07-.52-12.11-.4-3.82.14-7.65.36-11.47.64.16-.2.35-.38.51-.58,4.38-4.7,9.67-8.46,15.12-11.83,6.8,4.06,13.3,8.61,20.23,12.45ZM162.46-.31c1.13.62,2.24,1.27,3.35,1.92-5.69,3.53-11.26,7.49-15.69,12.56-.05.05-.07.12-.08.19-10,.75-19.98,1.99-29.87,3.7,2.09-2.89,4.49-5.6,6.7-8.41,5.59-6.21,11.76-11.97,18.53-16.88,5.9,1.74,11.61,4.05,17.07,6.92Zm-19.52-7.61c.62.17,1.24.35,1.86.52-6.41,4.59-12.18,10.08-17.55,15.83-1.48,1.6-2.75,3.36-4.12,5.05-1.26,1.54-2.62,3.02-3.69,4.7-9,1.58-17.93,3.55-26.75,5.91,3.56-4.8,7.46-9.35,11.41-13.83,3.06-3.43,6.48-6.52,9.93-9.55,4.2-3.79,8.67-7.26,13.5-10.24.11-.11.37-.24.61-.39,4.99.07,9.98.75,14.8,1.98Zm-55.44,20.03c.21-.76.56-1.49.9-2.21,1.19-2.27,2.99-4.05,4.7-5.97,4.62-4.65,10.12-8.68,16.32-11,5.71-1.91,11.73-2.81,17.76-2.83-7.63,4.75-14.4,10.76-20.82,17.03-3.13,3.18-5.99,6.61-8.83,10.05-1.88,2.34-3.94,4.59-5.55,7.11-.04.01-.09.02-.13.03-.06-.88-.17-1.75-.35-2.63-.71-3.38-2.18-6.53-4.17-9.32.08-.07.15-.15.18-.26Zm-.86-.64c-.27-.34-.55-.68-.83-1.01.32-.84.72-1.67,1.12-2.48.63-1.22,1.33-2.4,2.08-3.55.57.05,1.79-.32,2.84-.72-2.3,2.4-4.3,5.07-5.21,7.76Zm46.72-22.18s-.04.05-.06.08c-4.43-.41-8.91-.37-13.34.14-7.81.82-15.37,3.54-21.55,8.44-1.74,1.32-3.74,2.98-5.62,4.82-.97.46-1.99.83-3.04,1.05-.11.04-.24.05-.37.05,1.65-2.45,3.53-4.75,5.45-6.98,3.56-3.81,7.52-7.2,11.69-10.31.74.14,1.51.26,2.26.34,3.58.52,7.2.03,10.79-.21,5.22-.5,10.45-1.25,15.54-2.54-.25,1.71-.76,3.41-1.76,5.12Zm1.83-5.64s-.09.03-.14.04c-4.95,1.17-9.99,2-15.06,2.46-3.82.28-7.67.79-11.48.21-.48-.05-.95-.12-1.43-.2,2.92-2.16,5.95-4.19,9.01-6.13,1.7-1.1,3.42-2.17,5.17-3.19,4.65.64,9.43.17,13.94-1.08.03,2.63.29,5.26-.01,7.88Zm.01-8.41c-3.39.94-6.96,1.46-10.48,1.39-.91-.05-1.79-.12-2.69-.22,2.5-1.43,5.05-2.75,7.67-3.92,2-.94,4.1-1.86,6.18-2.71-.54,1.82-.68,3.65-.68,5.47Zm-.35-5.59c-1.79.75-3.58,1.53-5.32,2.35-2.87,1.27-5.64,2.73-8.35,4.31-.11-2.18.15-4.41,1.19-6.38,4.17.05,8.34.11,12.48-.28Zm-22.3.39c3.05-.18,6.12-.16,9.19-.12-.63,1.33-1.14,3.93-1.09,4.4-.07.76.02,1.52.03,2.28-2.69,1.58-5.32,3.27-7.92,4.98-2.13,1.42-4.27,2.9-6.36,4.46-.02,0-.03,0-.05,0-.13-1.24-.17-2.48-.09-3.74.45-4.01,1-8.14,2.72-11.83,1.2-.17,2.39-.31,3.58-.42Zm-4.24.51c-.25.53-.41,1.12-.62,1.65-1.04,3.14-1.57,6.42-1.92,9.7-.14,1.45-.06,2.92.08,4.37,0,.05.03.09.05.13-6.59,4.94-12.75,10.61-17.15,17.48-.28-.88-.35-1.81-.36-2.75-.24-8.24,1.94-16.41,4.69-24.12.26-.68.52-1.41.87-2.06,4.49-2.21,9.4-3.63,14.36-4.4ZM73.45,1.19c.12-.87.3-1.72.52-2.57,2.01-6.04,5.45-11.63,9.78-16.29,2.74-2.89,5.95-5.2,9.45-7.01-.34.76-.62,1.56-.89,2.35-2.37,6.58-4.09,13.52-4.44,20.52-.02.93-.16,5.2.55,6.22-1.12,1.8-2.12,3.67-2.98,5.64-2.2-2.48-4.84-4.58-7.72-6.18-1.35-.86-2.84-1.92-4.45-2.17.12-.12.19-.31.17-.5Zm4.17,3.81c6.54,3.71,11.78,10.27,13.02,17.81.64,4.05-.3,8.18-.98,12.17-.68,2.82-.05,5.76-.96,8.52-1.24,3.2-4.32,5.46-7.52,6.51-.72.17-1.42.36-2.13.54.21-.93.22-1.89-.08-2.85-1.06-2.91-3.34-5.31-5.95-6.92-1.87-1.33-4.14-2.01-5.89-3.47.5-.17.99-.37,1.47-.6.09-.01.18-.06.26-.14,1.59-.83,3.03-2,4.17-3.33,2.76-3.61,4.07-8.47,2.98-12.94-.66-2.17-1.41-4.44-2.56-6.44.05-.22.05-.48.08-.71.5-3.49.23-7.05-.62-10.49,1.74.26,3.23,1.41,4.71,2.33Zm-5.12,53.82s.02.06.03.09c-.29,1.6-.02,3.37-.74,4.89-1.57,2.99-4.44,3.91-7.43,3.74-.11-.13-.27-.21-.52-.18-.08.02-.15.06-.21.12-1.42-.17-2.85-.56-4.15-1.08.45-3.75-1.75-7.28-3.43-10.7-.91-1.83.87-2.57,1.69-3.93,3.01-5.07-4.16-8.37-8.26-9.47.67-.21,1.34-.47,1.99-.79.13-.04.27-.11.41-.21,2.43-1.27,4.62-3.21,6.26-5.51.84.82,2.88,1.55,3.43,1.68,1.46.44,2.94.45,4.37.16,1.75,1.78,4.21,2.48,6.25,3.85.17.1.33.21.5.31.09.15.22.3.33.42,2.17,3.05,2.79,7.24,1.54,10.8-.54,1.73-1.87,3.23-2.04,5.12-.02.23-.06.47-.03.7Zm-38.28-14.36c.05-.23,0-.47-.09-.71,2.29-.37,4.62-.57,6.93-.81,3.52-.47,7.2-.27,10.49,1.07.06.17.2.32.34.43.4.45.55,1.09.41,1.68-1.59,5-5.27,8.84-1.27,13.96,4.48,6.18,1.05,11.75-6.23,12.22,0,0,0,0,0,0-.12-.11-.28-.15-.44-.13-.56-.31-1.1-.67-1.59-1.09-3.43-2.79-5.14-7.2-7.16-11.04-.22-.33-.3-1.13-.59-1.54,1.18-4.29.8-10.08-.79-14.04ZM.24,55.77c-1.03-1.75-2.27-3.64-4.35-4.19-4.09-.68-5.08-4.03-5.28-7.7,0,0,0,0,0,0,0,0,0,0,0,.01-.13-1.67.09-3.33.23-4.99-.03-.28.05-.7.08-1.1.34-1,.71-1.98,1.21-2.93,1.14-2.46,3.5-3.87,5.39-5.69,1.12-1.17,1.99-2.56,2.76-3.99,4.15-8.83,14.11-14.39,23.64-10.76,1.26.47,2.33,1.3,3.29,2.22.01.01.03.02.04.03-3.01.83-5.8,2.99-6.69,6.07-.77,2.01-.05,4.58-2,6.02,0,0,0,.01-.02.02-5.39.1-11.05,3.51-12.41,8.79-.56,2.73,1.68,4.68,3.27,6.56.32.41.77,1,.54,1.59-.92,2.03-1.78,4.46-.02,6.36.46.56,1,1.03,1.57,1.47-.07.07-.13.15-.18.22-2.23,2.29-5.47,3.27-8.44,4.28-.33.11-.66.21-1,.3-.68-.78-1.08-1.75-1.63-2.62Zm.53,2.86c-2.23.38-4.55.18-6.71-.67-4.1-1.81-5.16-6.73-5.27-10.82-.03-1.61.34-3.19.78-4.76-.02,3.36.36,7.27,3.4,9.2,1.13.82,2.61.77,3.77,1.5,1.94,1.34,2.68,3.71,4.02,5.55Zm68.16-28.5c-.37-3.08-.85-6.16-.92-9.26.47-4.9-1.93-9.63-5.5-12.88-.33-.28-.67-.53-1.03-.77,1.14.06,2.26.21,3.35.69,2.5.97,4.8,2.78,6.61,4.76,1.6,2.1,2.54,4.6,3.37,7.1,1.39,4.55.09,9.74-3.01,13.33-.74.76-1.54,1.42-2.4,1.98.23-1.65-.22-3.32-.47-4.94Zm-2.29-13.7c.66,2.24.16,4.63.47,6.93.17,2.13.49,4.25.73,6.38.2,1.67.69,3.3.57,4.99-.05.35-.11.72-.26,1.04-2.8,1.36-5.97,1.46-8.92-.47-.17-.09-.33-.26-.5-.41,1.52-2.42,2.42-5.15,2.37-7.84-.23-2.88-3.14-4.67-5.81-4.83-2.4-.26-4.69.58-7.02,1.02-1.24.2-2.53.26-3.8-.08-2.13-.53-4.11-1.72-6.37-1.71-4.65-.25-7.04,4.92-7.17,8.92.08,2.1.12,4.21.17,6.32-2.28-3.56-5.59-6.65-9.72-7.61-.48-.11-.96-.18-1.46-.22.6-.72,1-1.61,1.07-2.55.09-4.17,2.2-7.31,6.26-8.55.55-.18,1.11-.17,1.68-.23,3.06-.46,5.85-2.65,7.24-5.38,1.23-2.63.51-5.58,1.17-8.34.63-2.88,2.67-5.63,5.78-6.04,3.21-.3,5.49,2.35,7.22,4.71,1.69,2.01,3.97,3.8,6.56,4.46.86.17,1.74.22,2.63.23.2.17.46.3.64.43,3.17,1.97,5.4,5.27,6.45,8.83Zm-34.07,22.87c-.12-.25-.25-.5-.38-.75,0,0,0,0,0,0-.15-2.43,0-4.89-.23-7.32-.03-3.05,1.01-6.79,3.9-8.33,3.68-1.56,7.06,1.75,10.75,1.54.19,0,.37-.02.56-.03.07.02.14.02.23.01,3.15-.5,6.46,1.38,7.4,4.48.85,2.61.21,5.46-.87,7.92-.75,1.27-1.53,2.83-2.78,3.69-.08.02-.14.06-.2.11-1.14.54-2.36.92-3.64,1.09-.09,0-.18.04-.25.1-3.03-.35-6.12.12-9.15.42-1.28.19-2.57.27-3.85.47-.08.02-.17.04-.26.05-.41-1.15-.77-2.32-1.24-3.45Zm.36,11.72c-.43-.8-1.09-1.49-1.69-2.16.51-.85,1.09-1.67,1.63-2.51.27,1.72.31,3.25.07,4.67Zm-.95-10.4c-.16.05-.32.12-.46.18-1.08.38-2.11.88-3.15,1.35-.08-.13-.16-.25-.2-.37-.13-.21-.24-.47-.35-.73,1.21-.59,2.41-1.18,3.63-1.72.19.43.37.86.53,1.3Zm23.79-12.08c-.72-2.34-2.63-4.07-4.88-4.82,1.08-.26,2.17-.49,3.29-.5,2.1-.07,4.58.69,5.59,2.72.85,2.14-.04,4.49-.88,6.51-1.12,2.31-2.78,4.51-4.82,6.2,1.86-2.97,2.78-6.72,1.71-10.1ZM10.6,51.32c-1.37-1.58-.33-3.59.33-5.24.72-2.88-3.89-4.43-3.83-7.54-.04-1.41.74-2.67,1.55-3.78,1.79-2.47,4.56-3.86,7.46-4.65,5.63-1.37,10.32,1.89,13.51,6.21-.73-.34-1.62-.54-2.18-.72-3.75-.91-7.61-1.35-11.47-1.35.07-.82-.96-1.08-1.29-.33-.13.03-.25.11-.32.22-.11.16-.14.35-.17.54-.13,1.19-.09,2.58.68,3.56.34.36.97.23,1.1-.25.25-.88.12-1.81.16-2.71,3.36.03,6.69.36,10,1.09.58.14,1.18.26,1.76.43-3-.35-6.13-.3-9.05.55-.18-.25-.6-.26-.8-.03-.05.06-.09.13-.12.21-.14.08-.24.21-.26.39.04,1.26.03,2.85,1.08,3.73.48.3,1.01-.14.94-.67-.04-.93-.39-1.75-.38-2.71,3.67-.88,7.72-.99,11.34.3-1.15.49-2.28,1.04-3.41,1.61-.14-.12-.31-.2-.51-.22-.27,0-.5.16-.61.4-.06.13-.08.27-.07.41-.36.18-.73.36-1.09.54-.45-.96-2.66-4.31-3.65-2.42-.14.95.66,1.71,1.22,2.38.55.6,2.07,2.75,2.59,1.08.41-.19.82-.39,1.22-.59,0,0,0,0,0,.01.31.57.61,1.2,1.11,1.61.03.02.07.04.1.06-1.38.47-2.76.96-4.17,1.35-.29-.55-.58-1.27-1.17-1.53-.32-.05-.7.14-.81.46-.38,1.1,1.72,4.42,2.3,2.05,2.99-.85,5.8-2.03,8.84-2.73.06.01.12.01.18,0-3.41,1.51-6.82,3.34-10.28,4.81-.05,0-.1,0-.15,0-.15.03-.29.14-.36.28-.09.03-.17.08-.23.15-.35.49.1,1.1.26,1.58.29.6.74,1.69,1.57,1.42.78-.51.2-2.09-.11-2.78,2.69-1.08,5.22-2.5,7.86-3.68-2.3,2.2-4.56,4.47-6.67,6.82-.29.27-.12.66.11.91.18.39.52.7.7,1.11.46.76.9,1.84,1.86,2.03.45.04.76-.45.62-.85-.37-1.22-1.38-2.04-2.18-2.96,2.2-2.19,4.32-4.47,6.57-6.61-.73,1.2-1.7,2.3-2.21,3.59,0,.16.04.29.12.41-.37.62.43,1.21.7,1.72.44.55.73,1.31,1.41,1.58.05.02.1.03.16.04-.62,1.77-1.75,3.39-3.53,5.02-.38-.29-.91-.55-1.39-.34-.11-.03-.22-.04-.34-.01-.22.05-.38.25-.41.47-.05.42.28.78.53,1.08.55.77,1.17,1.78,2.12,2.07.41.07.78-.24.82-.65.05-.66-.51-1.17-.8-1.71,3.17-2.79,5.12-6.55,4.51-10.84-.02-.24-.05-.51-.07-.78.74,3.52,1,7.31.19,10.88-1.04,4.62-5.56,8.87-10.52,7.57-2.95-.65-4.33-3.52-5.53-6.03-.45-1.4-1.22-2.66-2.32-3.65-1.48-1.68-3.78-2.61-5.18-4.39Zm36.57,21.7c2.07-.5,4.1-1.56,5.5-3.2,2.09-2.7,1.64-6.45-.1-9.21-1.02-1.69-2.5-3.33-2.31-5.44.18-2.73,1.67-5.12,2.68-7.61.38-.84.55-1.83.31-2.7.1.06.21.11.31.17,1.36.84,2.96,1.65,3.64,3.19,1.46,4.22-4.51,4.11-1.61,8.9,2.74,4.83,4.98,10.3-.29,14.38-2.42,1.79-5.67,2.33-8.59,1.6.15-.03.31-.05.46-.09Zm27.93-18.57c1.55-3.35,1.48-7.43-.07-10.79.97.95,1.81,2.04,2.49,3.25,1.93,3.42-.73,6.07-2.93,8.57.18-.34.35-.68.51-1.02ZM23.4-7.75c2.3-2.89,5.07-5.76,8.42-7.45,6.64-2.89,9.58-.48,15.86.88,9.38.9,18.2,2.23,22.45,11.89,1.53,3.79,2.6,7.83,2.65,11.99.06.99-.07,1.98-.19,2.97-.47-.64-1-1.25-1.59-1.79-2.65-2.4-5.85-4.46-9.52-4.56-1.34-.12-2.69.09-4.02-.17-1.86-.4-3.54-1.49-4.94-2.76-1.31-1.15-2.29-2.76-3.51-4.06-1.65-1.6-4.08-2.88-6.42-2.36-3.08.58-5.08,3.09-5.99,5.95-.22-.17-.45-.32-.6-.45-3.01-2.11-6.53-3.35-10.06-4.27-1.74-.45-3.5-.84-5.26-1.09.78-1.63,1.67-3.23,2.72-4.71ZM-35.55,31.22c.24-.84,1.31.15,1.65.49,1.03,1.09,1.61,2.54,1.91,4-.84-.34-1.69-.65-2.56-.94-.61-1.09-1.17-2.29-1-3.55Zm-.91,6.46c.5-.71,1.21-1.2,2.03-1.5.1-.04.17-.12.22-.21.49.17.98.36,1.46.55-.87.53-1.78,1.08-2.72,1.45-.12.04-.22.12-.3.21-.2-.14-.41-.27-.61-.4-.03-.01-.06-.03-.09-.05,0-.02.01-.03.01-.05Zm-4.04-.48c.57-.28,1.17.25,1.75.45,1.94,1,3.87,2.17,5.27,3.88-1.85-.22-7.11-2.09-7.02-4.33Zm.29,12.52c.27-.8.84-1.4,1.37-2.05,1.55-1.75,3.34-3.29,5.37-4.48-1.43,2.38-3.89,5.87-6.74,6.53Zm7.95-8.21c-.65-1.06-1.57-1.91-2.57-2.66,0,0,.02,0,.02-.01,1.06-.58,2.22-1.05,3.13-1.86,2.68,1.17,5.22,2.65,7.54,4.55-2.66-.26-5.38-.26-8.13-.03Zm4.58-13.1c-.37-4.12,1.69-8.45,5.54-10.22,3.15-1.51,6.65-.78,9.99-.82,4.48-.26,8.8-2.51,11.68-5.95C3.61,6.08,4.92.6,12.17-1.73c2.21-.61,4.78-.68,7.44-.4.13.09.3.13.47.05C24.66-1.54,29.43,0,32.92,1.66c1.16.64,2.3,1.26,3.28,2.17.03.03.05.06.09.09-.14.67-.23,1.34-.25,2.01.06,4.86-.73,7.76-5.38,10.07-.68.35-1.41.45-2.15.53-.75-.79-1.58-1.53-2.48-2.15-5.48-3.11-12.74-2.64-18.01.72C4.76,17.15,1.79,20.04.01,23.53c-.63,1.18-1.24,2.36-2.04,3.5-1.62,2.45-4.5,3.71-6.06,6.22-.69,1.04-1.21,2.18-1.65,3.34-.41.13-.85.42-1.19.49-3.38,1.38-6.66,3.02-9.97,4.55-.09.04-.18.08-.26.12-.06-.08-.15-.16-.29-.22-4.2-2.87-5.93-8.23-6.23-13.13Zm-37.46,53.61c1.53-2.5,3-4.95,4.9-7.21,5.95-7.17,15.62-10.01,24.65-10.39,1.54,0,3.23.09,4.79.26.39.05.88.11,1.32.19-.14.29-.27.59-.38.88-.76,1.84-.93,3.37-.66,4.64-.29.11-.58.22-.87.31-9.48,2.97-19.15,5.74-27.84,10.67-4.27,2.18-7.94,5.26-11.63,8.27,2.06-2.42,4.05-4.92,5.72-7.63Zm33.14-6.31c-5.15,5.36-7.88,9.85-16.19,9.52-3.64.05-7.32-.16-10.92.51-3.85.81-7.55,2.28-11.07,4.02,3.22-2.69,6.51-5.33,10.19-7.38,8.96-5.22,18.96-8.14,28.79-11.2.15-.08.51-.16.83-.27.33,1.02.95,1.87,1.79,2.56-1.29.26-2.55,1.42-3.43,2.23Zm-45.13,33.17c6.37-4.85,14.84-5.87,22.63-5.04,2.01.27,4.04.67,6.04,1.07,1.87.36,4.3,1.02,6.03,0-.63,1.35-1.24,2.71-1.83,4.08-4.74,3.35-10.34,5.21-15.94,6.57-4.39,1.27-8.74,2.71-13.02,4.29-7.34,2.83-17.48,9.03-22.78,15.76,4.63-9.94,10.56-19.46,18.87-26.74Zm29.41,8.33c-.9,1.01-1.89,1.92-2.96,2.74-5.63,4.34-13.14,4.01-19.82,5.26-9.14,1.58-18.33,4.72-25.34,10.99.37-.52.76-1.02,1.2-1.48,5.92-6.13,13.18-10.96,21.06-14.17,0,0,0,0-.02,0,4.43-1.69,8.99-3.18,13.55-4.51,5.28-1.28,10.51-2.99,15.09-5.96.06-.06.17-.14.32-.22-1.01,2.37-1.98,4.75-2.91,7.16-.06.07-.13.13-.19.18Zm20.83,45.09c-1.4-1.54-2.87-3.01-4.26-4.57-3.88-4.13-6.64-9.15-9.45-14.03-2.47-4.85-3.46-10.32-4.15-15.69-.38-6.67.42-13.75,3.77-19.62-.15,1.56-.26,3.12-.32,4.69-.4,8.45,3.74,16.08,7.6,23.32,2.78,4.97,5.19,10.17,6.68,15.68,0,0,0-.01,0-.02,1.29,4.43,1.76,9.04,2.32,13.62-.63-1.19-1.32-2.35-2.18-3.39Zm-7.71-41.36c4.38,4.65,9.08,9.46,11.33,15.58,3.03,9,.1,19.54-.92,28.87-.12-1.28-.41-2.58-.53-3.85-.23-1.75-.42-3.54-.77-5.29-.81-3.96-1.98-7.84-3.55-11.57-3.06-7.2-7.52-13.74-10.16-21.13-1.37-3.87-1.75-8.02-1.53-12.12.74,3.73,3.4,6.71,6.13,9.51Zm8.33-36.97c-3.27,4.11-6.52,8.25-9.37,12.66-4.09,6.36-7.59,13.06-10.64,19.97,1.73-4.41,3.6-8.76,5.62-13.03,3.66-7.75,8.2-15.05,13.07-22.08,1.08-1.46,2.11-2.96,3.22-4.4.16-.28.69-.81.97-1.3,1.06.26,2.17.45,3.27.59-2.22,2.37-4.12,5.04-6.15,7.58Zm12.77,47.18c-1.04-3.52-2.97-6.71-5.39-9.48-1.67-1.96-3.55-3.76-5.03-5.89-3.19-4.89-5-12.03-4.37-17.88.62-5.72,3.1-11.1,6.66-15.6,1.25-1.61,2.55-3.07,3.92-4.62.19-.29.63-.64.85-1,.87.05,1.69.08,2.44.09.58,0,1.15.01,1.73.02-.26.7-.52,1.4-.77,2.11-.85,2.5-1.95,4.9-2.53,7.48-1.04,4.43-1.41,9.05-1.48,13.61-.02,2.44-.02,4.88.24,7.31.38,3.64,1.41,7.15,2.28,10.7,1.06,4.21,1.25,8.58,1.45,12.9,0,.08,0,.17,0,.25Zm4.72-53.96c-1.02,1.34-1.54,2.96-2.08,4.53-1.21,4-1.95,8.24-2.08,12.43-.03,4.96,1.18,9.85,1.7,14.77.49,6.97-.66,13.96-1.8,20.85-.1-2.3-.27-4.61-.47-6.9-.63-5.4-2.72-10.49-3.22-15.92-.5-8.29-.34-17,2.66-24.83.67-1.76,1.28-3.55,1.94-5.32,1.21,0,2.43,0,3.64.04-.09.12-.18.25-.28.35Zm7.9-.54c-.94-.18-1.89-.34-2.83-.52-3.27-.54-6.6-.26-9.9-.36-4.95-.27-16.75-.11-15.92-7.42.44-3.02,2.66-5.4,3.44-8.28.48-4.14-5.41-4.36-6.34-7.81-.03-3.29,5.81-6.5,8.34-8.03,3.64-1.74,7.35-3.34,10.99-5.09.95-.46,1.93-.84,2.91-1.23-.17.53-.34,1.06-.5,1.6-.54,2-1.18,4-1.48,6.06-.28,4.65.69,10.2,4.9,12.9,2.42,1.23,5.33,1.74,8,1.23,1.59-.3,3.13-.78,4.65-1.35-.62,1.04-1.12,2.15-1.74,3.19-2.15,3.68-3.84,7.69-4.34,11.95-.12,1.04-.18,2.1-.19,3.16Zm18,20.82c-2.07-.84-3.75-2.5-5.65-3.66-2.36-1.24-5.16-1.76-7.01-3.83-5.53-5.93-5.27-16.9-1.97-23.92,1.12-2.4,2.39-4.76,3.75-7.04.07,2.54.01,5.08.33,7.61.5,2.87,1.27,5.78,2.85,8.25,1.73,2.36,4.06,4.53,6.95,5.29,2.31.78,4.55-.16,6.71-.93,3.98-1.31,6.42-.87,9.84.81-.1.31.2.5.29.76.48,1.35.57,2.84.61,4.26.06,4.18-1.75,8.49-5.13,11.05-3.3,2.36-7.81,3.07-11.57,1.36Zm-9.64-31.92c1.92,1.74,2.52,4.56,3.45,6.9,1.49,2.98,4.63,4.92,7.82,5.63,1.2.3,2.42.34,3.64.3-2.24.77-4.23,1.58-6.67.48-5.31-2.2-7.7-7.85-8.25-13.32Zm42.38,22.67c-.23.53-.5,1.05-.78,1.55-1.81,3.29-4.67,5.86-8.13,7.33-2.69.94-5.57,1.65-8.44,1.31-1.05-.17-2.19-.55-3.21-.92-.16-.02-.35-.1-.55-.19,1.56-1.02,2.89-2.37,3.82-4,2.02-3.17,2.65-7.05,2.09-10.74-.08-.62-.2-1.25-.41-1.85,5.08,2.32,9.59,5.96,15.13,7.2.18.07.35.11.52.17-.02.05-.04.1-.04.16Zm12.41-10.11c-.2.05-.35.17-.37.43-.01.13.04.27.12.37-.37,1.12-.8,2.21-1.32,3.27-1.82,3.45-5.73,6.3-9.75,5.06-5.85-1.05-10.64-4.8-15.94-7.31-2.14-1.1-3.97-1.96-5.89-2.32-.02,0-.03-.02-.05-.02-.47-.13-.94-.29-1.44-.3-3.09-.2-6.3.5-9.34-.38-2.26-.6-4.21-1.94-5.75-3.75-.82-1.06-1.13-2.45-1.55-3.7-.67-1.78-1.57-3.55-2.98-4.86-.16-.15-.39-.33-.63-.45-.01-.33-.03-.65-.03-.97,0-1.87-.18-3.74-.06-5.61,1.85-.78,3.66-1.74,4.98-3.28.04-.01.08-.03.11-.05.96.69,1.94,1.35,2.73,2.24,1.12.96,1.71,2.32,2.22,3.67,1.19,2.29,2.45,4.93,5.03,5.88,4.91,2.09,10.26-1.36,12.14-5.99.18.47.36.93.59,1.37,2.31,4.33,4.42,9.35,8.93,11.77.08.07.18.12.3.14.2.1.39.2.6.29,4.78,2.04,11.2.33,13.71-4.41.3-.6.52-1.19.67-1.78.03.01.07.02.1.04.74.28,1.52.49,2.29.69.59.18,1.2.31,1.81.39.08,1.3,0,2.63-.09,3.93-.22,1.89-.59,3.79-1.14,5.64Zm23.29-8.82c-2.09,1.72-4.57,2.98-6.92,4.3-2.62,1.35-5.45,2.25-8.24,3.18-2.26.88-4.62,1.39-7.05,1.33.79-2.71,1.19-5.53,1.19-8.36-.04-.25,0-.68.02-1.1,3.45.1,6.95-1.41,8.33-4.78.61-1.43.33-3.02.6-4.52.3-1.84,1.85-3.09,2.99-4.47.89-.88,1.69-1.95,2.18-3.12,3.07-.6,6.08-1.82,8.36-3.98.18.36.4.73.54,1.11,1.05,2.21,1.78,4.57,2.12,7,.44,3.93.11,8.23-2.23,11.58-.37.43-.77.82-1.18,1.2m44.66-16.59c-10.07.83-20.28-.08-30.22-1.8-4.34-.66-8.5-2.09-12.59-3.7,1.37-1.68,2.08-3.81,2.11-5.96,0-1.91.11-3.82.48-5.7.57-3.21,1.23-6.5,1.15-9.77,0,0,0,0,.01,0,9.46,6.12,19.94,10.64,30.58,14.3,5.24,1.75,10.64,2.92,16.04,4.07,4.89.88,9.8,2.11,14.76,2.51.07-.01.24,0,.46.02-7.17,3.26-14.94,5.24-22.78,6.04Zm29.7-9.7c-1.91,1.17-3.89,2.23-5.91,3.19-.63-.02-1.25-.04-1.88-.08-4.92-.48-9.77-1.66-14.62-2.55-7.22-1.49-14.39-3.27-21.26-6.01-7.05-2.6-13.83-5.88-20.41-9.5-1.41-.72-2.78-1.54-4.07-2.47-.07-.05-.16-.12-.25-.18,0,0,0,0,.01-.01,1.01-.3,2.04-.57,3.06-.84,5.29-1.36,10.63-2.54,15.99-3.64,2.59-.51,5.19-.98,7.79-1.44.04.03.09.06.16.05,4.01,2.39,8.19,4.48,12.52,6.23,6.23,2.79,12.64,5.13,19.28,6.77,6.42,1.67,12.96,3.24,19.63,3.2-3.16,2.68-6.51,5.13-10.03,7.3Zm17.97-14.93c-2.3,2.51-4.75,4.88-7.33,7.1-.52.03-1.04,0-1.55,0-7.48-.11-14.77-2.17-21.95-4.09-8.02-2.22-15.66-5.63-23.17-9.16-1.56-.84-3.11-1.75-4.66-2.62,10.03-1.72,20.13-3.01,30.27-3.82.43.36,1.29.75,1.5.93,1.8,1.16,3.66,2.24,5.62,3.12,7.3,3.4,15.16,5.66,23.22,6.09-.61.84-1.25,1.66-1.93,2.45Zm2.29-2.93c-.31,0-.62-.02-.93-.04-10.24-.77-20.29-4.16-28.93-9.68,1.05-.08,2.1-.17,3.15-.24,7.51-.53,15.06-.46,22.56.26,2.87.24,5.76.55,8.64.25.53-.11,1.23,0,1.64-.38,0,0,0,0,0,0,.02.01.04.03.07.04-2.11,3.22-3.97,6.64-6.2,9.79Z"/><path class="cls-4" d="m487.32-29.14c-.57-.44-1.07.38-1.52.66-2.87,2.01-6.35,2.94-9.79,3.42-8.77,1.51-17.75-.22-26.18-2.77.03.01.06.02.09.03-.16-.05-.31-.09-.49-.15,0,0,.02,0,.03,0-5.81-1.85-12.13-3.61-18.08-1.42,1.99-2.01,3.94-4.04,5.88-6.09,3.61-3.96,7.09-8.03,10.53-12.13.38-.15.83-.26,1.25-.3,1.77-.15,3.42.49,5.05,1.11,1.74.55,3.54.94,5.34,1.22,11.93,1.7,23.62-4.84,28.41-15.9,3.61-7.84,5.91-16.2,8.52-24.41.48-1.48.96-2.96,1.46-4.44.41-1,.78-2.02,1.04-3.07.12-.3-.02-.65-.35-.73-.5-.12-.64.37-.73.75-1.24,4.2-3.18,8.13-6.2,11.35-3.67,4.35-8.44,7.73-13.67,10.01-6.35,2.43-12.89,4.57-18.5,8.51,2.13-3.14,4.11-6.38,5.81-9.79.19-.36,1.11-2.39,1.62-4.04.19-.12.36-.31.49-.47.8-.78,1.58-1.62,2.35-2.44,3.15-3.13,6.29-6.37,8.49-10.27,4.45-7.19,3.9-14.47,2.25-22.42-.68-3.32-1.85-6.5-3.16-9.63.06-.31-.69-1.84-.72-1.68-1.23-2.84-2.54-5.66-3.65-8.53-1.02-2.39-2.04-4.78-2.98-7.21-.55-1.22-.84-2.59-1.5-3.74-.4-.42-.98.03-.98.52-.52,3.58-1.29,7.12-2.41,10.56-2.02,6.88-5.74,13.44-5.94,20.73.03,5.27,2.85,9.94,4.52,14.8,1.37,4.32,2.73,8.75,2.99,13.31,0,1.23-.09,2.56-.22,3.84,0,.22-.07.48-.12.75-.01.03-.03.05-.03.08-.34,1.4-.75,2.76-1.33,4.09-2.1,4.58-4.84,8.88-7.76,13.02,0-.46,0-.87.04-1.1.58-5.01.06-10.06-1.39-14.89-1.23-5.45-3.4-10.57-5.43-15.75-1.25-3.47-2.2-7.16-2.65-10.84-.3-2.47-.46-4.96-.94-7.4-.15-.5-.1-1.21-.59-1.52-.5-.26-.84.27-.97.69-.41.99-.81,1.99-1.19,2.99-1.22,3.29-1.94,6.74-2.55,10.2-.43,2.33-.87,4.7-1.05,7.07-.74,7.11.59,14.32,2.81,21.07,1.4,4.2,3.4,8.17,4.56,12.47.4,2.62.68,5.41.03,8.01-.21.72-.59,1.52-.94,2.2-.07.11-.09.22-.08.33-6.1,7.34-12.74,14.24-19.86,20.58,1.46-2,2.72-4.16,3.83-6.36,1.9-3.64,2.84-7.65,3.68-11.64.41-1.84.69-3.81.76-5.71.19-2.7-.19-5.39-.51-8.07-.35-2.74-.61-5.51-1.31-8.19-.46-1.94-1.08-3.79-1.72-5.68-.52-1.7-1.31-3.33-1.64-5.1-.28-1.53-.35-3.02-.44-4.58-.06-.99-1.05-.88-1.4-.18-1.08,1.74-2.13,3.5-3.22,5.23-9.06,14.32-14.02,21.11-7.87,38.3,1.17,3.71,2.91,7.32,3.23,11.24.39,4.03-1.97,7.72-5.02,10.13-.03.04-.05.07-.07.11-5.89,4.24-12.14,7.97-18.65,11.19-2.62,1.34-5.18,2.8-7.85,4.05-.34.25-1.37.46-1.86.83-.22-.13-.45-.25-.67-.37,1.35-.61,2.69-1.23,4.03-1.87,6.34-2.91,12.01-7.54,15.34-13.75,2.44-4.57,3.28-9.9,3.3-15.04-.09-3.02-1.03-5.92-2.01-8.75-1.49-4.4-2.28-9.05-1.24-13.65.03-.46.27-.97.02-1.4-.15-.21-.47-.29-.69-.16-.76.71-1.22,1.68-1.85,2.52-4.13,6.32-8.48,12.61-11.01,19.78-1.34,4.17-2.2,8.49-3.84,12.57-1.76,4.15-4.38,7.98-7.31,11.39-1.15,1.24-2.33,2.56-3.9,3.3-.21.14-.5.15-.67.34-1.75-.88-3.45-1.85-5.05-3.01,1.52-.72,2.58-2.29,3.51-3.65.14-.24.27-.49.4-.74.09.04.19.06.3.05,1.51-.38,3.08-.81,4.42-1.62,1.41-.74,1.83-2.76-.13-2.98-1.34.12-2.41,1.1-3.39,2.01.96-2.35,1.6-4.81,2-7.32.02-.05.03-.11.03-.16,0-.05.01-.09.02-.14,2.04-.55,3.81-2.14,4.87-3.95.71-1.16.06-2.54-1.4-2.09-1.46.52-2.28,1.91-3.12,3.16.26-2.87.27-5.78.17-8.64,1.36-.55,2.41-1.78,3.36-2.87,3.72-5.39-1.41-6.39-3.51-.45-.16-3.18-.32-6.36-.33-9.54,1.45-.62,2.52-1.93,3.55-3.08,1.1-1.14.78-2.83-1.03-2.59-1.09.31-1.87,1.16-2.46,2.11.08-2.12.26-4.23.57-6.34.49-.13.93-.46,1.38-.66,1.16-.64,2.5-1.23,3.11-2.48.74-1.01.06-2.67-1.3-2.35-1,.2-1.77.84-2.43,1.6.56-2.09,1.36-4.11,2.38-6.02.38.12.84.07,1.21.1,1.24,0,2.78-.08,3.59-1.19.25-.38.25-.94-.1-1.27-.92-.76-2.09-.47-3.19-.13.68-1,1.43-1.96,2.24-2.86.18-.02.36-.12.43-.29.37,0,.59-.39.84-.62.67-.8,1.47-1.52,1.99-2.42.88-1.16.33-3.73-1.4-3.55-1.78.68-2.03,3.16-2.35,4.8-.05.4-.06.79-.06,1.19-.04.02-.08.04-.12.08-.85,1.04-1.73,2.06-2.5,3.16.11-1.62.13-3.31-.73-4.72-.29-.46-.96-.62-1.38-.23-.35.32-.35.84-.37,1.27,0,1.06.18,5,1.05,6.05-1.34,2.45-2.23,5.05-2.83,7.75-.32-1.03-.64-2.07-1.05-3.06-.28-.64-.57-1.48-1.31-1.71-1.82-.23-.9,2.47-.65,3.44.1.61,1.46,3.72,2.48,4.29-.32,2.25-.48,4.53-.55,6.81-.8-1.58-2.4-4.39-3.8-3.16-.56,1.09.92,3.38,1.53,4.35.6.83,1.37,1.62,2.22,2.18,0,.29,0,.58,0,.86.05,2.4.19,4.81.32,7.22-.76-1.7-1.84-3.75-2.91-3.66-.79.29-.52,1.26-.34,1.88.37,1.33.73,2.69,1.43,3.89.54.93,1.26,1.73,1.95,2.55.01.07.04.13.08.18.07,2.53.06,5.06-.15,7.59-.45-1.26-.9-2.51-1.55-3.68-.38-.79-1.71-1.55-2.25-.54-.29.87.01,1.83.21,2.69.45,1.61,1.16,3.17,2.3,4.41.26.3.53.59.82.86-.03.17-.05.35-.09.52-.23,1.54-.68,3.45-1.35,5.35,0-1.62-.09-3.38-1.23-4.34-.9-.57-1.7.53-1.81,1.35-.27,2.06.69,4.03,1.93,5.62-.93,1.89-2.11,3.56-3.56,4.57,1.36-3.57,1.99-7.43,1.31-11.18-.58-3.02-2.56-5.41-4.75-7.44-1.76-1.95-2.55-4.66-4.39-6.56-2.5-2.91-6.4-4.33-10.18-4.12-.26-.38-.84-.71-1.07-1.03-1.82-1.9-4.12-3.35-6.74-3.89-5.84-1.77-12.32-.37-16.89,3.69-.17.16-.38.3-.49.51-3.65-2.65-8.15-2.12-11.89.61-1.06.87-2.05,1.82-2.98,2.83-.65-.3-1.3-.58-1.97-.83-1.88-.8-3.91-.92-5.92-1.11-3.14-.32-6.3-.65-9.46-.39-2.49.28-5.14.39-7.59,1.07-.13-.33-.27-.66-.41-.99-1.84-4.15-4.43-7.92-6.99-11.66-9-13.05-20.74-24.17-34.2-32.54-4.41-2.63-9.14-4.92-14.27-5.68-2.02-.43-2.23.81-2.83,2.35-4.15,10.97-6.99,22.7-5.81,34.5.07.9.69,5.6,1.65,7.81-7.14-.83-14.4-.62-21.45.81-4.7,1.01-9.39,2.27-13.91,3.97-.18.08-.76.29-1.09.43-1.21.48-2.42.98-3.6,1.54-4.43,2.19-8.35,5.27-12.47,7.96-1,1.02.83,2.36,1.33,3.29,1.93,2.61,3.76,5.28,5.54,8,3.56,5.45,7.01,11.01,11.17,16.04,2.78,3.31,5.79,6.42,8.96,9.35,3.5,3.3,7.36,6.19,11.49,8.63-.26.23-.5.48-.69.61-2.41,2.01-4,4.77-5.16,7.66-1.25,2.88-2.11,6.03-4.3,8.41-.45.42-.93,1.22-.24,1.65,1.06.46,2.2.74,3.28,1.16,3.61,1.34,6.98,3.03,10.53,4.61,14.4,7.22,31.65,10.2,46.01,1.23,4.42-2.84,8.98-5.97,11.84-10.48-.27,2.19-.33,4.4-.18,6.58.54,5.76,4.18,10.68,8.8,13.97,3.05,2.23,6.61,3.68,9.44,6.2,3.66,3.62,7.22,5.73,12.51,5.69,5.9-.42,11.52-3.14,15.95-6.99,4.27,2.5,8.94,3.81,14.13,2,5.36-1.73,9.15-6.89,14.95-7.55,2.8-.39,5.73-.23,8.35.94,1.86.84,3.58,1.97,5.54,2.58,5.32,2.04,11.57-.93,13.66-6.17,1.66-3.82,2.5-8.41,1.52-12.54,1.09,1.95,2.42,3.75,3.92,5.42,0,.04.01.08.03.11-.46,1.84-.66,3.83,0,5.64.48,1.66,2.35,3,3.35.92.43-.89.55-1.88.53-2.87,1.39,1.19,2.85,2.3,4.33,3.35-.08.49-.06,1.01-.12,1.51-.06,1.3-.23,2.82.66,3.89.35.53,1.01.95,1.62.53,1.25-.81.9-2.57.48-3.76-.08-.13-.15-.32-.22-.53.28.19.56.37.85.55,1.4.89,2.82,1.76,4.25,2.61,0,1.88.44,3.96,1.78,5.33.47.52,1.49.75,1.99.11.76-1.13.11-2.46-.49-3.55,1.52.85,3.06,1.67,4.61,2.44.07,1.29-.06,2.63.44,3.86.35.91,1.38,2.23,2.21.96.53-1.14.26-2.42-.15-3.62,1.07.49,2.14.97,3.22,1.41.04,0,.06,0,.1,0,.13.53.98.78,1.37,1.11,1.04.64,2.53,1.37,3.63.49.4-.36.41-.97.11-1.4-.89-1.3-2.71-1.74-4.19-1.4-.23.07-.51.12-.72.22-.03-.01-.05-.03-.09-.03-1.32-.51-2.63-1.11-3.92-1.74,1.1-.19,2.32-.41,3.11-1.26.75-1.21-1.13-1.59-1.99-1.35-.6.1-2.51.83-3.08,1.63-.28-.14-.56-.28-.83-.43-1.65-.9-3.33-1.82-5-2.76,1.29-.16,2.56-.46,3.64-1.25.45-.31.65-1.07.17-1.44-.63-.36-1.44-.23-2.14-.18-.53-.05-2.97.79-3.85,1.62-1.82-1.06-3.63-2.17-5.38-3.34,1.68.07,3.4-.1,4.97-.64.2-.11.43-.32.45-.57.27-1.61-3.98-1.31-4.98-1.16-.43.09-2.01.4-2.5.93-1.47-1.07-2.89-2.2-4.24-3.4.85-.05,1.66-.3,2.4-.75.95,1.34,2.3,3.08,3.6,1.99,1.42-2.09-.95-5.05-2.96-6.9,3.35.91,6.85,1.54,10.43,1.91.94,1.84,4.43,6.51,6.42,5.35.59-.47.56-1.34.36-2-.45-1.47-1.64-2.37-2.97-3.04,2.74.16,5.51.18,8.28.1,1.37,1.45,5.05,5.11,7.08,3.8.63-.48.64-1.39.31-2.05-.53-1.08-1.52-1.65-2.63-2,2.61-.2,5.2-.48,7.73-.83,1.24,1.05,5.88,3.94,7.25,2.72,1.03-1.55-.79-2.81-2.58-3.47,3.51-.63,6.88-1.38,10.04-2.22.11.06.24.08.37.05.61-.13,1.21-.26,1.82-.39,1.38-.39,3.18-.67,3.93-2.03.39-2.04-3.3-1.51-4.3-.76-.42.28-1.88,1.36-2.23,2.18-2.8.71-5.59,1.44-8.42,2-1.05.2-2.12.36-3.18.51,1.09-.91,2.46-1.84,2.83-3.26-.11-1.94-3.13.21-3.84.83-.91.8-1.66,1.79-2.22,2.86-.56.07-1.13.14-1.69.21-2.61.31-5.27.56-7.96.71,1.11-.73,2.2-1.5,3.13-2.45.5-.47.9-1.39.24-1.89-1.62-.69-3.42.65-4.46,1.83-.7.76-1.08,1.71-1.51,2.63-3.14.1-6.3.07-9.45-.16,1.89-.87,4.08-1.64,5.22-3.43.21-.38.22-.88-.15-1.16-1.02-.6-2.25.12-3.24.5-1.82.91-3.37,2.26-4.71,3.79-.01,0-.02.02-.03.03-3.59-.4-7.14-1.07-10.57-2.09,2.88-.5,5.82-1.36,8.2-3.07.58-.43,1.02-1.27.28-1.78-1.77-1.1-4.93.3-6.69,1.05-1.63.77-3.11,1.85-4.57,2.89,0,0,0,0,0,0-2.67-.96-5.25-2.15-7.7-3.6-.06-.03-.12-.07-.19-.12,4.15-.08,8.42-.62,11.97-2.81,2.1-1.3,1.71-3.95.54-5.76-.71-1.23-1.69-2.29-2.07-3.69-.27-.92.07-1.92.82-2.51.89-.79,1.86-1.5,2.79-2.24.14.15.34.27.51.37,1.11.71,2.27,1.35,3.45,1.95,8.75,4.16,19.66,5.86,28.73,1.79,3.07-1.37,5.83-3.31,8.6-5.2,3.56-2.34,7.44-4.21,11.37-5.87.25-.11.63-.22.76-.48.13-.31-.08-.71-.43-.73-1.76.18-3.44.43-5.26.46-4.8.08-9.68-.08-14.22-1.83-9.01-3.61-12.76-7.31-22.63-2.46-2.41.89-4.91,2.62-7.58,2-.17-.22-.39-.24-.58-.16-.58-.79-1.31-1.54-2.13-2.25.03-.02.06-.04.09-.06,1.56-.86,3.12-1.73,4.66-2.63,6.38-3.74,12.56-7.84,18.39-12.39,1.44-1.14,2.85-2.32,4.25-3.51.11.2.34.33.59.24.24-.13.51-.12.77-.12,2.54.23,4.37,2.34,6.45,3.62,7.82,5.58,18.07,9.39,27.65,6.7,7.56-2.5,14.62-6.44,20.96-11.26,4.19-2.89,7.8-6.5,11.78-9.65.33-.2.54-.67.21-.97Zm-19.12-112.38c2.28,6.05,4.92,11.95,7.43,17.9,2.04,4.54,3.72,9.23,4.37,14.19.81,5.07,1.08,10.49-1.14,15.27l.03-.06c-2.31,5.76-6.84,10.14-11.11,14.51.15-.57.28-1.15.42-1.73,1.79-7.11.48-14.4-.32-21.54-.35-4.11-.33-8.24.11-12.34.84-7.9,2.18-15.95.73-23.87-.14-.71-.3-1.44-.55-2.12.01-.07.03-.14.04-.22Zm-1.97,49.76c-.74-2.81-1.51-5.53-2.65-8.25-1.78-4.38-4.01-8.93-3.36-13.78.63-4.95,2.65-9.56,4.33-14.22,1.41-3.94,2.67-7.95,3.41-12.08,1.88,8.11.34,16.55-.48,24.72-.42,3.93-.47,7.94-.16,11.88.6,6.53,2.01,13.07.82,19.63-.19,1.1-.4,2.19-.67,3.28.39-3.77-.24-7.55-1.25-11.19Zm27.96,9.38c-1.36,4.43-2.72,8.87-4.32,13.23-1.82,4.79-3.6,9.7-6.94,13.69-6.86,8.22-18.04,11.01-28.15,7.84-1.81-.66-3.76-1.44-5.71-1.29,1.91-1.36,3.85-2.71,5.91-3.84,3.04-1.5,6.34-2.4,9.49-3.65,6.7-2.45,13.08-5.93,18.29-10.84,4.55-4.39,8.72-9.39,11.44-15.13Zm-37.29,22.46c.26-.36.52-.72.78-1.09.06-.01.13-.04.19-.09,2.09-1.58,4.29-2.99,6.62-4.28,4.36-2.4,9.18-3.8,13.78-5.66,6.29-2.67,11.76-7.05,15.88-12.48-.48,1.09-1,2.16-1.56,3.21-2.46,4.17-5.51,7.98-8.89,11.44-4.08,4.1-8.96,7.4-14.2,9.84-4.84,2.27-10.03,3.6-14.87,5.87-1.6.88-3.13,1.9-4.63,2.95.27-.33.55-.65.82-.98,2.33-2.6,4.03-5.66,5.99-8.53.05-.06.07-.13.09-.21Zm-9.99-42.81c.49,3.01,1.26,5.96,2.28,8.84,1.04,3.09,2.47,6.04,3.54,9.12,1.18,3.49,2.1,7.2,2.97,10.8.98,4.37.64,8.86.26,13.3-.01.06-.02.12-.04.18-.02.06-.02.13-.01.19-.59.82-1.18,1.63-1.78,2.43-1.49,2.04-3.03,4.05-4.6,6.03,1.15-2.69,1.51-5.66,2.06-8.51.41-2.24.56-4.54.3-6.81-.35-3.69-.99-7.41-2.14-10.96-.97-3.42-2.32-6.72-3.09-10.19-.85-3.76-1.08-7.58-1.4-11.41,0-3.75.41-7.48.63-11.22.46,2.72.58,5.49,1.03,8.21Zm2.26,47.72c.09-5.88-3.14-11.07-4.91-16.53-2.91-8.38-3.93-17.47-2.12-26.18.06-.31.12-.64.17-.96,0,0,0,.01,0,.02.68-3.96,1.52-7.92,2.98-11.68-.18,2.4-.24,4.84-.47,7.23-.25,2.37-.04,4.73.22,7.08.23,2.74.52,5.53,1.18,8.22,1.12,4.56,2.96,8.91,4.02,13.49.68,3.31,1.25,6.69,1.24,10.07-.08,2.6-.64,5.21-1.15,7.77-.34,1.53-.67,3.08-1.3,4.52.16-1,.19-2.03.13-3.05Zm-70.18,36.97c.28-.15.6-.35.93-.26.15.05.25.21.16.36-.78,1.14-2.31,1.38-3.52,1.84.74-.74,1.52-1.4,2.44-1.95Zm9.07-62.35c.57.23.74,1.24.44,1.75-.46.98-1.32,1.7-2.01,2.53.08-1.1.37-2.18.76-3.21.2-.38.38-.87.81-1.06Zm-5.15,10.05c.06,0,.11,0,.17-.02.44-.18.89-.29,1.35-.41.55-.12,1.21-.36,1.75-.06-.82.87-2.26.75-3.39.7.04-.07.08-.15.13-.22Zm-1.52-5.73c.6,1.35.49,2.84.39,4.29-.24-1.41-.47-2.85-.39-4.29Zm-5.23,10.49c.79,1.47,1.19,3.12,1.7,4.7-.96-1.41-1.52-3-1.7-4.7Zm3.18,4.81c.22-.28.39-.63.63-.88.32-.4.66-.8,1.02-1.18.36-.49,2.27-1.62,1.79-.22-.65,1.38-2.22,1.91-3.5,2.6.02-.1.03-.21.05-.31Zm-4.71,6.17c1.23,1.11,1.95,2.73,2.61,4.23-1.27-1.11-2.1-2.64-2.61-4.23Zm3.86,4.11c0-.08,0-.17,0-.25.36-.33.44-.99.79-1.42.5-.71,1.35-2.13,2.38-1.77.01.05,0,.11,0,.16,0,0-.02.05-.03.11,0,.03-.02.06-.03.08-.82,1.19-1.89,2.26-3.09,3.08Zm-1.07,12.13c-.97-1.2-1.49-2.88-1.89-4.41,1,1.56,1.77,3.26,2.36,5.01-.16-.2-.32-.39-.47-.6Zm1.53.54c.17-.03.32-.16.39-.33.4-1,.68-1.97,1.2-2.93.79-1.38,2.95-3.06,1.7-.07-.7,1.46-1.94,2.59-3.23,3.54-.02-.07-.04-.14-.06-.21Zm-4.02,5.79c.57.37.76,1.13,1.05,1.71.55,1.45,1.18,2.89,1.56,4.39,0,0,0,0,0,0-1.54-1.64-2.5-3.86-2.6-6.11Zm6.35,2.62c.36-.31.77-.68,1.28-.64.05.17.02.33-.06.49-.77,1.47-2.13,2.67-3.63,3.38.82-1.06,1.46-2.27,2.41-3.23Zm-7.11,7.19c.87,1.25.64,2.97.72,4.43-.7-1.15-1.56-3.2-.72-4.43Zm40.79,81.33c-1.09.45-2.18-.55-3.08-1.06,1.08-.21,2.48.07,3.08,1.06Zm-6.16-5.24c-.64.38-1.4.49-2.13.62.64-.35,1.36-.67,2.13-.62Zm-2.78,2.37c.47,1.14.93,2.4.64,3.61-.84-1.05-.7-2.39-.76-3.67.04.02.08.04.12.06Zm-6.03-1c.27,1.67-.84.56-1.2-.21-.47-.97-.71-2.03-.8-3.1.2.12.39.23.59.34,0,.02,0,.04.02.06.46.98,1.11,1.84,1.39,2.9Zm1.84-5.79c-1.08.64-2.25.84-3.51.93,1.04-.64,2.28-.98,3.51-.93Zm-10.62-.13c.17.68.5,1.73-.15,2.26-1.14-1.13-.73-2.87-.63-4.37.05.03.09.06.14.09-.22.55.56,1.47.63,2.01Zm4.05-3.91c-.43.07-.86.13-1.3.18-1.01.15-1.93.22-2.99.1,1.35-.49,2.83-.47,4.28-.29Zm47.82-13.57c-1.09.99-2.69,1.16-4.09,1.52,1.01-1.15,2.55-1.95,4.09-1.52Zm-17.58,5.29c.27.16.73.18,1.02.24,1.06.35,3.06.77,3.27,2.08-.51.13-1.04-.19-1.53-.33-1.26-.48-2.44-1.11-3.57-1.86.27-.04.54-.08.81-.13Zm1.98-3.93c-.96,1.1-2.04,2.07-3.3,2.82.83-1.21,1.95-2.23,3.3-2.82Zm-13.21,5.84c1.19.25,3.14.82,3.06,2.34-.85,1.03-3.99-1.74-5.2-2.88h.06c.35.43,1.61.34,2.07.54Zm1.47-5.18c-1.01,1.29-2.52,2.18-3.88,3.08.74-1.5,2.11-2.97,3.88-3.08Zm-13.47,5.62c1.13.57,2.44,1.68,2.28,3.07-.41.61-2.87-1.86-3.16-2.29-.56-1.49.19-1.13.89-.78Zm3.02-5.95c-1.35,1.62-3.54,2.32-5.44,3.2,1.51-1.45,3.31-2.86,5.44-3.2Zm24.53-61.15c1.23-.55,2.51-.97,3.82-1.29,6.91-1.65,13.63,1.72,20.24,3.31,8.99,2.3,18.66,3.19,27.62.35-.55.32-1.11.61-1.7.86-7.9,3.17-16.51,4.6-25.02,4.3,0,0,.01,0,.02,0-4.73-.27-9.5-.78-14.21-1.44-5.34-.99-10.81-1.58-16.21-.74-.08.03-.21.05-.38.07,1.89-1.75,3.75-3.53,5.58-5.34.09-.03.17-.07.24-.09Zm-.55-49.66c.65,1.98,1.39,3.92,2.02,5.91,1.85,5.35,2.31,11.06,2.88,16.67.27,5.43-1.07,10.84-2.63,16.01-2.39,6.24-6.01,12.37-11.47,16.36.77-1.36,1.52-2.74,2.21-4.15,3.82-7.55,3.17-16.2,2.61-24.39-.51-5.67-.57-11.4.32-17.04,0,0,0,.01,0,.02.64-4.57,2.09-8.97,3.46-13.37.09,1.34.25,2.69.61,3.98Zm-9.9,40.89c-2.09-6.03-4.41-12.34-3.96-18.86.92-9.45,7.91-17.87,12.66-25.96-.41,1.22-.68,2.52-1.09,3.73-.5,1.69-1.07,3.4-1.47,5.14-.88,3.94-1.4,7.97-1.5,12.01-.16,7.82,1.24,15.61.62,23.44-.33,4.09-1.68,8.04-3.57,11.68.85-3.7-.36-7.51-1.7-11.19Zm-15.07-17.95c-.49,3.64-.04,7.34,1.03,10.86.72,2.48,1.7,4.88,2.18,7.43.91,5.76-.36,13.03-3.34,18.1-2.91,4.96-7.37,8.86-12.46,11.5-1.8.96-3.58,1.76-5.47,2.61-.29.19-.83.32-1.19.56-.77-.4-1.51-.76-2.19-1.08-.52-.24-1.04-.48-1.57-.72.52-.53,1.05-1.07,1.57-1.61,1.79-1.93,3.78-3.68,5.37-5.79,2.76-3.62,4.99-7.68,6.92-11.82,1.01-2.22,2.01-4.45,2.77-6.77,1.14-3.48,1.64-7.11,2.3-10.69.75-4.27,2.37-8.34,3.96-12.36.04-.08.07-.15.11-.22Zm-26.4,47.3c1.48-.8,2.62-2.07,3.75-3.28,2.74-3.16,5.16-6.72,6.99-10.49,2.06-4.51,2.95-9.47,4.5-14.17,2.4-6.56,6.32-12.47,10.18-18.28-.85,2.14-1.64,4.31-2.39,6.49-1.63,5.19-1.81,10.69-3.58,15.85-2.94,7.77-6.65,15.65-12.59,21.57-1.34,1.33-2.62,2.72-3.95,4.06-1.11-.5-2.21-1-3.3-1.52.14-.07.27-.15.4-.21Zm-15.34-29.11c1.54,1.61,2.4,3.81,3.66,5.66,1.64,2.1,3.99,3.71,4.83,6.36,2.62,7.68-2.11,17.57-7.99,22.64-2,1.73-4.13,3.37-6.3,4.89.97-2.35,2.07-4.64,2.82-7.07.72-2.82,1.2-5.79.77-8.7-.62-2.86-1.85-5.79-4.17-7.67-1.79-1.65-4.22-1.72-6.51-1.9-4.17-.44-6.22-1.83-8.65-4.77.22-.24.02-.54.05-.82.12-1.43.65-2.82,1.18-4.14,1.65-3.84,5.08-7.03,9.21-7.98,3.98-.8,8.39.39,11.11,3.5Zm-1.68,44.94c.23,2.02.58,4.25,2.25,5.6,3.45,2.29,2.99,5.76,1.67,9.19,0,0,0,0,0,0,0,0,0,0,0-.01-.56,1.58-1.45,3-2.26,4.46-.08.27-.33.62-.52.98-.72.77-1.46,1.52-2.3,2.18-2.05,1.78-4.78,2.1-7.24,2.99-1.5.61-2.86,1.52-4.15,2.51-7.4,6.35-18.76,7.36-25.98.14-.96-.94-1.59-2.14-2.1-3.37,0-.01-.02-.03-.02-.05,3.09.47,6.52-.35,8.59-2.8,1.52-1.52,1.92-4.16,4.29-4.68,0,0,.01,0,.02-.01,4.95,2.12,11.52,1.32,14.92-2.94,1.63-2.27.38-4.96-.29-7.33-.13-.5-.29-1.23.15-1.67,1.67-1.48,3.45-3.34,2.62-5.8-.19-.7-.49-1.35-.83-1.98.09-.04.18-.09.26-.13,2.97-1.17,6.33-.75,9.45-.45.35.03.69.08,1.03.13.3.99.27,2.04.42,3.06Zm.69-2.83c2.2.56,4.23,1.7,5.84,3.36,3,3.33,1.95,8.25.38,12.03-.63,1.48-1.62,2.77-2.66,4.02,1.39-3.06,2.65-6.78.66-9.78-.7-1.21-2.07-1.77-2.83-2.92-1.22-2.02-.93-4.48-1.4-6.71Zm-73.85-1.9c-.93,2.96-1.74,5.97-2.95,8.83-2.43,4.28-2.18,9.57-.25,14,.18.39.4.76.62,1.12-1.02-.52-1.98-1.11-2.77-2-1.89-1.9-3.24-4.5-4.08-7.05-.6-2.57-.43-5.24-.17-7.86.6-4.72,3.9-8.93,8.2-10.92.98-.39,1.99-.67,2.99-.82-.89,1.41-1.16,3.12-1.6,4.7Zm-3.52,13.44c.31-2.31,1.75-4.29,2.41-6.52.72-2.02,1.3-4.08,1.94-6.12.5-1.6.72-3.3,1.52-4.79.19-.3.39-.61.66-.84,3.11-.1,6.05,1.12,7.94,4.08.12.15.19.38.28.58-2.37,1.59-4.31,3.71-5.37,6.19-.97,2.72.95,5.54,3.33,6.78,2.08,1.22,4.52,1.39,6.82,1.94,1.22.32,2.42.8,3.43,1.62,1.73,1.36,3.05,3.25,5.11,4.17,4.14,2.13,8.44-1.6,10.2-5.21.79-1.95,1.62-3.89,2.43-5.84.63,4.18,2.38,8.36,5.75,10.92.39.29.81.56,1.24.8-.84.42-1.57,1.06-2.02,1.89-1.78,3.77-5,5.77-9.21,5.24-.57-.06-1.09-.3-1.63-.48-2.98-.83-6.42.02-8.81,1.95-2.2,1.89-2.75,4.88-4.49,7.13-1.75,2.37-4.75,4.05-7.74,3.15-3.05-1.04-4.05-4.39-4.66-7.26-.71-2.53-2.07-5.09-4.16-6.76-.72-.51-1.5-.91-2.3-1.29-.11-.23-.3-.47-.41-.66-2.09-3.09-2.77-7.02-2.27-10.69Zm7.74-36.61c1.2-1.36,3.02-2.18,3.96-3.83.11-.2.24-.4.31-.63.01-.03,0-.06,0-.1.92-1.34,1.4-3.07,2.67-4.16,2.65-2.09,5.65-1.75,8.3-.37.04.17.16.3.4.38.08.02.17,0,.24-.02,1.23.73,2.37,1.68,3.34,2.69-1.95,3.23-1.38,7.36-1.25,11.17.08,2.04-1.84,1.99-3.15,2.89-4.82,3.39.37,9.33,3.66,12.02-.7-.08-1.41-.12-2.13-.1-.13-.02-.29,0-.45.02-2.74.16-5.54,1.04-7.97,2.46-.43-1.09-1.99-2.59-2.44-2.94-1.15-1-2.5-1.62-3.93-1.93-.87-2.34-2.83-3.98-4.13-6.07-.11-.16-.22-.33-.33-.49-.02-.18-.08-.36-.13-.52-.73-3.67.41-7.75,3.01-10.49Zm-4.26,8.34c-.5-1.26-.82-2.6-.94-3.98-.36-3.91,3.15-5.24,6.18-6.62-.3.24-.6.48-.88.73-2.78,2.42-4.39,6.17-4.36,9.87Zm37.57,15.97c-.14.19-.18.43-.21.68-2.24-.6-4.44-1.37-6.65-2.1-3.4-1.01-6.68-2.7-9.13-5.27.01-.18-.05-.37-.14-.54-.18-.58-.05-1.22.31-1.7,3.5-3.91,8.43-5.91,6.87-12.22-1.56-7.48,3.85-11.15,10.69-8.6,0,0,0,0,0,.01.06.15.2.25.35.29.39.51.73,1.06,1.01,1.65,1.99,3.95,1.75,8.67,2.02,13,.06.39-.19,1.15-.09,1.65-2.83,3.43-4.85,8.87-5.03,13.13Zm22.31,16.52c-.54,1.31-1.77,2.13-2.96,2.81-2.64,1.52-5.75,1.66-8.71,1.19-5.7-1.06-8.64-5.95-9.79-11.2.53.61,1.26,1.15,1.69,1.55,3.05,2.37,6.39,4.35,9.91,5.93-.4.71.43,1.38,1.04.83.13.03.27,0,.39-.07.16-.1.27-.27.37-.42.6-1.03,1.14-2.32.83-3.52-.16-.47-.79-.6-1.11-.22-.58.7-.85,1.6-1.26,2.41-3.05-1.4-5.96-3.07-8.68-5.09-.47-.36-.97-.72-1.43-1.11,2.59,1.55,5.47,2.78,8.48,3.2.06.31.44.48.72.35.08-.03.14-.08.19-.14.16-.01.31-.1.39-.25.48-1.17,1.14-2.62.55-3.85-.31-.48-.98-.28-1.13.22-.35.86-.36,1.76-.76,2.63-3.7-.7-7.45-2.26-10.23-4.92,1.25.02,2.51-.02,3.77-.07.08.16.2.31.38.41.25.11.52.05.72-.12.11-.1.18-.22.24-.34.41-.02.81-.03,1.22-.04.02,1.06.66,5.03,2.34,3.7.52-.81.09-1.83-.14-2.67-.26-.77-.77-3.36-1.92-2.05-.45,0-.9.02-1.36.03,0,0,0-.01,0-.01-.05-.64-.07-1.34-.35-1.92-.02-.04-.04-.07-.07-.1,1.45.14,2.91.25,4.35.48.04.62,0,1.4.45,1.87.28.18.7.15.92-.09.8-.85.24-4.73-1.27-2.81-3.07-.44-6.12-.52-9.18-1.13-.05-.04-.1-.06-.16-.08,3.72.02,7.59-.26,11.35-.18.04.02.09.04.14.05.15.03.32-.01.44-.11.09,0,.19,0,.28-.04.52-.3.36-1.04.41-1.55-.02-.67.01-1.84-.85-1.94-.92.15-1.04,1.82-1.04,2.58-2.89-.11-5.78.15-8.68.13,3-1.06,5.99-2.22,8.87-3.49.37-.13.38-.55.27-.87,0-.42-.19-.86-.19-1.3-.11-.88-.06-2.05-.87-2.62-.39-.22-.88.1-.92.53-.16,1.26.42,2.43.78,3.6-2.91,1.1-5.77,2.31-8.7,3.34,1.16-.8,2.5-1.4,3.49-2.37.07-.14.08-.28.06-.43.58-.41.11-1.28.07-1.86-.17-.68-.13-1.49-.64-2.02-.04-.04-.08-.07-.13-.1,1.29-1.36,2.98-2.37,5.27-3.13.23.42.6.88,1.13.88.09.07.19.13.3.15.22.04.45-.07.57-.27.21-.37.06-.82-.04-1.21-.19-.93-.34-2.1-1.08-2.75-.34-.24-.82-.1-1.01.26-.32.58-.01,1.27.03,1.89-4.03,1.25-7.35,3.88-8.55,8.04-.08.23-.17.48-.25.74.77-3.51,2.08-7.08,4.28-10,2.84-3.79,8.71-5.82,12.7-2.6,2.43,1.8,2.51,4.98,2.58,7.76-.16,1.46.02,2.93.62,4.28.67,2.14,2.38,3.93,2.93,6.13.61,2.01-1.17,3.41-2.45,4.65-1.83,2.33,1.73,5.63.41,8.45Zm-48.5-10.8c-.3,2.43.73,4.79,2.48,6.39-1.09-.21-2.18-.44-3.2-.89-1.95-.8-3.9-2.5-3.98-4.77.1-2.3,1.88-4.08,3.47-5.58,1.97-1.65,4.38-2.98,6.94-3.68-2.91,1.95-5.29,4.99-5.7,8.52Zm1.03.06c.3-2.73,2.05-5.06,4.04-6.87,1.2-.85,2.56-1.96,4.04-2.24.08.01.16,0,.23-.02,1.27-.03,2.53.13,3.76.49.08.03.18.04.27.02,2.62,1.56,5.64,2.4,8.52,3.36,1.24.35,2.46.8,3.7,1.15.08.02.17.04.26.06-.1,1.22-.25,2.43-.28,3.65,0,.28.02.56.04.84,0,0,0,0,0,0-.86,2.28-1.99,4.46-2.78,6.78-1.22,2.8-3.7,5.78-6.97,6-3.99-.08-5.73-4.49-9.18-5.8-.17-.08-.35-.14-.53-.2-.05-.05-.12-.08-.21-.1-3.07-.83-5.33-3.91-4.92-7.12ZM329.12-.27c.07.91.38,1.8.66,2.66-.82.57-1.67,1.08-2.51,1.62.46-1.68,1.05-3.09,1.85-4.29Zm-3.39,9.88c.17.02.34.02.49.03,1.14.09,2.29.06,3.43.06.02.15.04.3.03.42.04.24.03.53.02.81-1.34.05-2.68.09-4.02.08,0-.47.02-.93.05-1.4Zm-.6-35.77c-2.09-.39-4.38-.26-6.32.67-3.02,1.61-4.14,5.21-3.68,8.45.24,1.96.91,4.06-.12,5.91-1.28,2.42-3.62,3.99-5.56,5.84-.69.61-1.25,1.45-1.39,2.34-.07-.1-.14-.19-.21-.29-.9-1.33-2.03-2.72-2.02-4.4.4-4.45,5.8-1.9,5.11-7.47-.53-5.53-.33-11.44,6.15-13.01,2.94-.64,6.12.2,8.49,2.06-.15-.04-.3-.08-.45-.11Zm33.16,23.06c-1.04-2.38-.43-5.19-.33-7.71-.14-3.33-2.21-6.38-4.83-8.34-.97-.76-2.07-1.3-3.2-1.77,2.36.22,4.51.29,6.28,2.29,3.94,4.18,3.81,10.31,2.07,15.53Zm-29.39-38.03c.43-.39.88-.75,1.35-1.09,3-2.26,6.66-3.44,10.42-3.36,2.84.24,5.76.77,8.24,2.26.89.59,1.77,1.4,2.55,2.15.14.09.28.24.42.4-1.84.29-3.6.98-5.12,2.09-3.14,2.07-5.3,5.34-6.3,8.94-.18.6-.33,1.22-.39,1.85-3.69-4.2-6.31-9.36-10.86-12.76-.13-.13-.27-.25-.41-.37.04-.04.08-.08.1-.12Zm-15.46,4.15c.2.03.39-.01.52-.24.06-.12.08-.26.04-.39.79-.87,1.64-1.69,2.54-2.44,3.07-2.4,7.8-3.41,10.97-.62,4.91,3.36,7.75,8.74,11.55,13.19,1.5,1.88,2.82,3.41,4.43,4.53.02.01.02.03.04.04.38.31.74.65,1.19.86,2.74,1.45,5.95,2.12,8.37,4.17,1.82,1.48,3.05,3.5,3.72,5.77.31,1.3.03,2.7-.1,4.01-.12,1.9-.02,3.88.73,5.65.09.2.22.46.39.67-.12.3-.24.6-.37.9-.77,1.7-1.37,3.48-2.24,5.14-2-.04-4.05.09-5.89.95-.04,0-.08,0-.12,0-.6-1.02-1.22-2.03-1.58-3.16-.63-1.33-.62-2.82-.52-4.26-.15-2.58-.22-5.5-2.18-7.42-3.63-3.92-9.92-2.96-13.53.5.03-.5.05-1,.02-1.5-.34-4.9-.21-10.34-3.33-14.39-.04-.1-.12-.18-.21-.25-.14-.17-.27-.34-.43-.51-3.53-3.82-10.09-4.88-14.31-1.59-.52.42-.97.87-1.34,1.35-.03-.02-.05-.05-.07-.07-.56-.56-1.18-1.07-1.81-1.56-.46-.41-.97-.77-1.5-1.1.46-1.22,1.08-2.4,1.69-3.55.98-1.64,2.1-3.22,3.35-4.68Zm-25.8-1.19c.13.2.41.29.63.19.19-.09.3-.28.3-.48,2.61-.71,5.39-.85,8.07-1.09,2.95-.16,5.89.18,8.81.47,2.42.12,4.78.63,6.97,1.67-1.83,2.15-3.35,4.56-4.51,7.14-.06.25-.28.62-.47,1-3.1-1.51-6.92-1.56-9.56.95-1.15,1.06-1.54,2.62-2.4,3.88-1.02,1.56-2.96,2.06-4.56,2.85-1.17.43-2.34,1.09-3.27,1.95-3.04-.71-6.29-.83-9.26.21-.02-.41-.07-.82-.04-1.23-.05-2.45.25-4.9.93-7.26,1.21-3.77,3.27-7.55,6.77-9.65.51-.24,1.04-.44,1.57-.62Zm-2.16-4.67c.64,1.17,1.21,2.44,1.74,3.7-.88.31-1.72.72-2.51,1.25-3.71,2.68-5.88,7.1-6.84,11.49-.36,1.77-.55,3.57-.53,5.37.05.28,0,.77-.01,1.23-.01-.01-.02-.02-.03-.03-.4-.43-.81-.85-1.22-1.27.87-2.74,1.48-5.57,2.12-8.38.92-4.18,1.41-8.44,1.53-12.72.09-3.29.34-6.65-.19-9.91,2.11,3,4.16,6.06,5.95,9.26Zm-6.83-10.52c.06.08.11.16.17.24.69,2.95.51,6.02.48,9.03-.15,3.58-.27,7.22-.9,10.77-.69,3.95-1.57,7.95-2.74,11.81-3.56-3.5-7.62-6.43-11.84-9.09-.03-.05-.05-.09-.08-.14-.02-.04-.04-.08-.06-.12.57-1.09.66-2.43.87-3.64.37-2.76.55-5.53.71-8.31.41-6.74.28-13.51-.64-20.21-.26-2.47-.47-4.95-1.03-7.37,5.57,5.15,10.63,10.85,15.05,17.03Zm-25.45-25.57c3.38,2.46,6.63,5.11,9.72,7.93,0,0,0,.01,0,.02.78,2.86.95,5.88,1.29,8.82.99,7.34.9,14.74.36,22.13-.26,2.88-.36,5.84-1.2,8.62-1.22-2.26-2.49-4.54-3.76-6.77-2.57-4.65-5.13-9.33-7.79-13.93-1.22-2.1-2.34-4.26-3.44-6.42,0-.04,0-.09,0-.14.62-3.97,1.06-8.02.83-12.06-.14-3.93-.37-7.88-1.15-11.75,1.75,1.14,3.46,2.35,5.13,3.57Zm-20.57-10.3c5.36.95,10.24,3.4,14.82,6.33,1.2,6.01,1.48,12.22,1.15,18.34-.09,1.73-.41,3.44-.64,5.16-.82-1.62-1.63-3.25-2.45-4.87-2.61-5.01-5.39-9.92-8.15-14.85,0,0,.01.02.02.03-1.62-3.06-3.33-6.12-5.24-9.03-.17-.17-.42-.82-.69-1.22.38-.06.81.08,1.19.11Zm-2.47,2.47c.29-.75.52-1.5.88-2.21,1.02,1.78,2.2,3.46,3.2,5.25,1.61,2.95,3.25,5.88,4.88,8.81-1.97-.43-3.77-1.46-5.5-2.46-1.88-1.18-3.93-2.23-5.3-4.03.58-1.8,1.19-3.59,1.84-5.37Zm-5.05,18.92c.63-4.39,1.69-8.72,3.02-12.96.96,1.22,2.39,2.13,3.7,2.93,2.39,1.45,4.84,3.05,7.63,3.55,2.1,3.77,4.18,7.55,6.16,11.39,1.03,2.18,2.14,4.33,3.28,6.46-.3,0-.6,0-.9-.05-4.05-.79-7.74-2.74-11.43-4.52-2.39-1.09-4.67-2.39-6.9-3.75-1.54-.97-3.17-1.76-4.52-3.01,0-.01-.02-.02-.03-.03Zm-.61,7.16c.05-2.2.23-4.38.52-6.55,1.14,1.02,2.52,1.74,3.82,2.53,2.47,1.53,5,2.98,7.64,4.19,4,1.83,8.2,4.37,12.68,4.55,2.64,4.92,5.47,9.73,8.14,14.63.09.17.18.33.27.49-4.08-.47-8.03-1.73-11.93-2.96-7.27-2.34-14.02-5.97-20.58-9.83-.13-.06-.24-.18-.37-.25-.2-2.25-.23-4.52-.19-6.79Zm.25,7.44c5.47,3.24,11.05,6.35,17.02,8.59,5.11,1.92,10.41,3.64,15.84,4.33.09.01.16-.02.21-.08,1.69,3.09,3.45,6.12,5.12,9.23-.2-.13-.41-.25-.61-.38-8.33-5.02-17.06-9.65-26.51-12.15-3.03-.8-6.11-1.41-9.22-1.82-.14-.24-.23-.5-.36-.8-.79-2.25-1.23-4.57-1.48-6.92Zm15.34,11.91c9.52,3.37,18.47,8.37,26.84,14.02,3.69,2.38,6.9,5.38,9.98,8.53-1.94.97-3.45,2.62-4.37,4.58-.79,1.74-1.66,3.44-2.77,5-1.83,2.7-3.78,5.42-5.05,8.44,0,0,0,0-.01,0-6.13-9.45-13.84-17.87-22.05-25.56-4.07-3.75-8.51-7.02-12.97-10.28-4.1-2.8-8.08-5.94-12.44-8.33-.07-.02-.22-.1-.41-.2,7.88-.04,15.78,1.33,23.25,3.82Zm23.3,54.23c-.51.61-1.12,1.13-1.73,1.65-2.02,1.59-4.38,2.47-6.73,3.52-6.12,2.35-12.79,3.78-19.39,3.36-5.99-.59-11.85-2.23-17.36-4.69,8.91-1.21,17.54-3.93,25.96-7.01,4.16-1.62,8.17-3.58,12.17-5.55,2.67-1.36,5.47-2.58,7.98-4.22.05,0,.09.02.13.02-.31.82-.57,1.67-.75,2.54-.73,3.37-.69,6.85,0,10.21-.1.03-.2.08-.28.17Zm.52.94c.1.42.22.84.34,1.26-.64.63-1.34,1.23-2.03,1.8-1.07.86-2.2,1.65-3.35,2.39-.5-.28-1.76-.44-2.89-.51,3.09-1.25,6-2.87,7.93-4.94Zm-54.89-58.47c2.22-.28,4.46-.44,6.7-.49.57.27,1.13.55,1.68.85,4.29,2.45,8.23,5.51,12.3,8.31,5.98,4.32,11.79,8.87,16.94,14.18,5.37,5.26,10.21,11.03,14.73,17.02.99,1.24,1.91,2.54,2.7,3.92.04.07.09.17.15.27,0,0-.01,0-.02,0-1.05-.14-2.09-.31-3.14-.48-5.39-.92-10.74-2.03-16.08-3.22-2.57-.59-5.14-1.23-7.7-1.88-.02-.05-.06-.09-.12-.11-2.68-3.82-5.64-7.44-8.87-10.81-4.54-5.1-9.43-9.86-14.82-14.06-5.17-4.15-10.5-8.26-16.6-10.95,3.98-1.15,8.04-2.01,12.14-2.55Zm-22.51,6.26c3.12-1.35,6.33-2.51,9.6-3.48.48.18.94.43,1.42.64,6.78,3.16,12.58,8.03,18.36,12.72,6.41,5.3,11.98,11.54,17.39,17.85,1.08,1.41,2.13,2.87,3.18,4.3-9.85-2.53-19.6-5.49-29.18-8.9-.24-.5-.87-1.22-.99-1.47-1.17-1.79-2.42-3.54-3.85-5.14-5.27-6.09-11.52-11.37-18.69-15.06.9-.51,1.82-1,2.77-1.44Zm-12.91,8.19s-.03-.04-.05-.06c3.25-2.08,6.34-4.44,9.67-6.39.28.13.56.27.83.42,9.03,4.9,16.81,12.1,22.44,20.67-.99-.36-1.99-.71-2.98-1.07-7.08-2.59-13.93-5.75-20.48-9.47-2.52-1.4-5.02-2.86-7.78-3.77-.52-.12-1.12-.5-1.65-.33,0,0,0,0,0,0Zm.36.49c4,1.03,7.46,3.4,11.09,5.29,3.56,1.9,7.15,3.78,10.89,5.32,3.55,1.44,7.12,2.81,10.73,4.11-.23.12-.47.21-.7.32-5.92,2.5-12.28,3.77-18.64,4.6-4.54-6.49-8.61-13.3-13.36-19.64Zm15.95,23.24c-.77-1.03-1.53-2.07-2.27-3.13,6.64-.89,13.34-2.23,19.46-5.04.07-.03.12-.08.15-.14,9.44,3.41,19.04,6.36,28.77,8.85-3.09,1.78-6.39,3.27-9.55,4.93-7.64,3.37-15.63,6.11-23.82,7.82-4.67-4.01-8.93-8.45-12.74-13.3Zm14.7,14.94c-.5-.41-.99-.82-1.49-1.24,7.73-1.56,15.23-4.21,22.49-7.26,2-.85,3.89-1.94,5.83-2.93,1.78-.89,3.63-1.69,5.29-2.78,8.86,2.24,17.81,4.1,26.82,5.56-5.21,2.92-10.64,5.47-16.07,7.95-4.19,1.88-8.58,3.29-12.97,4.64-5.39,1.74-10.88,3.08-16.5,3.82-.14.06-.44.07-.71.1-4.53-2.11-8.8-4.77-12.69-7.86Zm7.6,6.47s.06-.03.09-.05c3.87,2.19,7.97,3.99,12.23,5.33,7.46,2.44,15.47,3.06,23.12,1.12,2.13-.5,4.63-1.18,7.1-2.09,1.07-.02,2.15.05,3.2.29.12.01.24.06.36.1-2.51,1.56-5.17,2.89-7.83,4.13-4.8,2.02-9.81,3.49-14.89,4.62-.62-.43-1.28-.85-1.93-1.23-3.05-1.94-6.56-2.97-9.93-4.23-4.97-1.68-10.05-3.14-15.22-4.05.93-1.46,2.1-2.8,3.7-3.95Zm-3.98,4.4c.05,0,.1,0,.14.02,5,.95,9.94,2.27,14.75,3.92,3.6,1.31,7.32,2.42,10.56,4.51.42.24.82.5,1.22.77-3.55.77-7.14,1.39-10.73,1.9-2,.31-4.01.58-6.03.79-3.98-2.48-8.53-4.01-13.16-4.72,1.05-2.41,1.88-4.91,3.24-7.18Zm-3.45,7.67c3.48.53,6.94,1.52,10.13,3.02.81.42,1.58.84,2.36,1.3-2.86.28-5.73.44-8.61.44-2.21.03-4.5.02-6.74-.05,1.24-1.44,2.11-3.05,2.86-4.71Zm-1.97,5.24c1.94.05,3.89.06,5.82.04,3.14.02,6.27-.19,9.38-.51-.79,2.04-1.95,3.97-3.7,5.33-3.78-1.76-7.56-3.52-11.5-4.86Zm20.5,8.77c-2.86-1.09-5.65-2.36-8.44-3.66,1.12-.96,2.65-3.12,2.8-3.56.38-.67.6-1.39.91-2.09,3.1-.34,6.19-.8,9.27-1.3,2.53-.42,5.08-.9,7.63-1.46.01,0,.03.02.04.03-.39,1.19-.86,2.34-1.44,3.45-2.06,3.47-4.25,7.02-7.32,9.68-1.16-.33-2.31-.69-3.44-1.09Zm4.08,1.27c.44-.38.83-.86,1.24-1.25,2.23-2.44,4.06-5.21,5.72-8.06.73-1.27,1.25-2.64,1.72-4.02.02-.05.01-.1,0-.14,8.03-1.81,15.97-4.47,22.8-8.92-.11.92-.42,1.8-.79,2.66-3.15,7.62-8.49,14.17-14.16,20.09-.52.52-1.05,1.07-1.64,1.52-5,.18-10.06-.54-14.9-1.86Zm44.35-13.69c-.46.74-.98,1.45-1.53,2.13-4.3,4.68-9.73,8.38-15.59,10.86-3.68,1.52-7.56,2.31-11.49,2.53.62-.56,1.2-1.17,1.77-1.78,4.85-5.03,9.26-10.66,12.45-16.9.4-.84,2.28-4.68,2.04-5.9,1.76-1.18,3.44-2.48,5.02-3.93,1,3.16,2.54,6.16,4.51,8.79.88,1.34,1.81,2.92,3.17,3.81-.16.06-.3.2-.36.38Zm-2.25-5.19c-4.45-6.06-6.55-14.19-4.59-21.57,1.07-3.96,3.62-7.34,5.88-10.71,1.77-2.29,2.4-5.24,4.36-7.39,2.44-2.41,6.18-3.21,9.53-2.87.72.14,1.44.26,2.17.38-.57.76-.97,1.64-1.09,2.64-.23,3.09.88,6.22,2.6,8.75,1.16,1.98,2.95,3.53,3.95,5.58-.52-.05-1.05-.07-1.59-.05-.09-.03-.19-.02-.29.02-1.79.1-3.58.58-5.17,1.33-4,2.16-7.18,6.06-8.02,10.58-.28,2.25-.53,4.63-.3,6.92-.14.18-.24.42-.36.61-1.88,2.98-3.1,6.34-3.72,9.82-1.48-.95-2.37-2.6-3.34-4.05Zm44.25,33.83c-3.28,1.7-6.98,3.18-10.73,3.35-7.24-.08-8.94-3.48-14.11-7.3-8.2-4.66-15.69-9.49-15.61-20.04.15-4.08.83-8.21,2.49-12.02.35-.93.87-1.78,1.39-2.63.17.78.4,1.55.72,2.29,1.43,3.27,3.51,6.46,6.82,8.06,1.17.66,2.49,1.02,3.6,1.8,1.54,1.13,2.61,2.81,3.38,4.54.73,1.59.96,3.46,1.54,5.14.85,2.13,2.54,4.29,4.89,4.78,3.05.73,5.9-.73,7.9-2.97.13.24.28.47.36.66,1.88,3.15,4.58,5.73,7.43,8.01,1.41,1.12,2.85,2.2,4.35,3.15-1.38,1.17-2.84,2.27-4.41,3.18Zm69.73-11.43c-.56.67-1.14-.68-1.3-1.12-.5-1.41-.43-2.97-.11-4.43.63.65,1.28,1.29,1.95,1.9.11,1.24.13,2.56-.54,3.65Zm3.48-5.52c-.75.44-1.6.6-2.47.54-.11,0-.2.04-.29.1-.38-.36-.74-.73-1.11-1.1,1.01-.13,2.06-.26,3.08-.21.13.01.25-.01.36-.07.13.21.26.41.4.62.02.03.04.06.06.08-.01.01-.02.03-.03.04Zm3.49,2.09c-.63.03-.97-.7-1.42-1.12-1.36-1.71-2.64-3.57-3.22-5.7,1.6.96,5.63,4.82,4.63,6.82Zm4.86-11.54c-.57.62-1.34.93-2.08,1.31-2.13.97-4.39,1.63-6.73,1.89,2.28-1.59,5.95-3.77,8.82-3.2Zm-10.62,4.24c.16,1.23.65,2.39,1.26,3.48,0,0-.02,0-.03,0-1.2.1-2.46.05-3.62.41-1.97-2.16-3.67-4.55-5.02-7.24,2.32,1.33,4.8,2.44,7.41,3.35Zm-9.54,10.08c-1.35,3.91-5,7.02-9.24,7.05-3.49.09-6.38-2.01-9.45-3.34-4.19-1.6-9.06-1.31-13.09.64-5.91,3.2-9.35,7.66-16.92,6.82-2.26-.35-4.64-1.34-6.96-2.68-.08-.14-.22-.24-.41-.24-3.95-2.37-7.66-5.73-10.18-8.67-.79-1.06-1.58-2.09-2.11-3.32-.01-.04-.02-.08-.04-.12.4-.55.76-1.13,1.05-1.73,1.93-4.46,3.84-6.78,9.03-6.99.76-.04,1.47.17,2.17.4.36,1.03.81,2.04,1.39,2.97,3.72,5.08,10.54,7.62,16.72,6.71,3.83-.53,7.72-1.96,10.77-4.41,1.06-.82,2.1-1.65,3.3-2.36,2.48-1.58,5.62-1.54,8.07-3.2,1.06-.67,1.99-1.49,2.87-2.38.42.05.95-.04,1.29.04,3.65.13,7.31-.03,10.96-.07.1,0,.19,0,.29,0,.02.1.07.21.18.32,2.66,4.34,2.04,9.93.31,14.53Zm56.13-33.58c-2.42,1.65-4.77,3.29-7.43,4.57-8.36,4.11-18.35,2.74-26.75-.61-1.4-.64-2.91-1.41-4.26-2.2-.33-.21-.76-.46-1.13-.71.24-.21.48-.42.71-.65,1.44-1.37,2.22-2.69,2.5-3.97.31.01.61.04.92.07,9.87,1.17,19.82,2.6,29.77,1.66,4.79-.25,9.4-1.55,14-2.78-2.87,1.37-5.71,2.83-8.34,4.62Zm-32.82-7.81c6.89-2.79,11.22-5.76,18.67-2.06,3.34,1.44,6.61,3.14,10.17,4,3.85.83,7.82,1.01,11.75.86-4.04,1.14-8.12,2.2-12.32,2.56-10.31,1.09-20.63-.33-30.85-1.57-.17.01-.53-.07-.87-.09.12-1.07-.11-2.09-.59-3.07,1.28.29,2.91-.25,4.04-.63Zm-5.27,5.71c-1.64,2.58-4.63,3.84-6.53,6.15-2.13,3.58,3.15,6.19,2.59,9.72-1.31,3.01-7.96,3.55-10.9,3.91-4.03.1-8.08.04-12.11.15-1.06.03-2.11-.02-3.16-.07.37-.41.74-.83,1.11-1.25,1.32-1.61,2.72-3.16,3.83-4.92,2.16-4.13,3.54-9.59.81-13.77-1.7-2.11-4.15-3.77-6.8-4.39-1.57-.37-3.18-.57-4.79-.67.99-.7,1.9-1.5,2.89-2.2,3.47-2.48,6.65-5.45,8.85-9.13.53-.9,1.02-1.84,1.47-2.81.79.55,1.58,1.09,2.37,1.63,2.77,1.83,5.92,2.93,8.89,4.38,4.4,2.28,15.24,6.95,11.49,13.29Zm24.57-27.59c-6.51,5.57-13.64,10.37-20.97,14.8-1.58.89-3.13,1.84-4.74,2.69-.26.19-.97.46-1.42.78-.86-.67-1.8-1.3-2.74-1.88,3-1.26,5.82-2.91,8.71-4.39,4.66-2.41,9.32-4.86,13.73-7.72,6.33-4.12,12.27-8.81,17.88-13.87-3.38,3.31-6.87,6.52-10.46,9.58Zm35.45,10.08c-7.79,1.82-15.95-.72-22.71-4.66-1.73-1.07-3.42-2.26-5.07-3.45-1.56-1.1-3.51-2.69-5.5-2.47,1.13-.98,2.24-1.97,3.34-2.97,5.7-1.11,11.56-.52,17.23.53,4.52.64,9.08,1.11,13.64,1.41,7.85.42,19.65-1.08,27.23-5.06-8.29,7.17-17.6,13.43-28.16,16.67Z"/></g></g><line class="cls-2" y1="47.88" x2="375" y2="47.88"/></g></g></g></g></svg>