<?xml version="1.0" encoding="UTF-8"?><svg id="_レイヤー_2" xmlns="http://www.w3.org/2000/svg" viewBox="0 0 112.5 16.61"><defs><style>.cls-1{fill:#e3dac2;}</style></defs><g id="_レイヤー_1-2"><g><path class="cls-1" d="m.01,7.19v-.93c.54-.04,1.02-.13,1.44-.27.42-.14.9-.36,1.44-.67h.83v2.11c.53-.65,1.14-1.16,1.84-1.54.7-.38,1.33-.57,1.88-.57s.98.13,1.3.39c.32.26.48.58.48.95,0,.27-.11.5-.32.71-.21.2-.47.31-.76.31-.13,0-.25-.02-.35-.06-.1-.04-.24-.12-.42-.24-.41-.27-.75-.4-1.02-.4-.37,0-.78.16-1.23.47-.56.4-1.01.79-1.33,1.18v5.14c0,.45.02.75.07.91s.13.3.24.41c.11.12.25.2.41.25.16.05.45.08.86.08h.37v.94H0v-.94h.48c.45,0,.75-.04.89-.12.19-.11.34-.27.43-.46.09-.2.14-.55.14-1.06v-6.57H.01Z"/><path class="cls-1" d="m31,13.47l.71.58c-.54.65-1.07,1.16-1.58,1.54-.51.38-.99.64-1.44.8-.45.15-.98.23-1.59.23-1.09,0-2.02-.22-2.78-.67-.88-.51-1.55-1.18-2.02-2-.47-.82-.7-1.8-.7-2.92s.23-2.18.68-3.01c.45-.83,1.09-1.49,1.9-1.97.81-.48,1.75-.72,2.82-.72.79,0,1.49.12,2.07.37.59.25,1.08.62,1.49,1.12.41.5.71,1.07.89,1.72.1.38.16.87.18,1.47h-7.88c-.02.36-.03.64-.03.82,0,.94.16,1.77.49,2.51.33.73.76,1.27,1.3,1.62.54.35,1.15.52,1.83.52.58,0,1.14-.14,1.68-.41.54-.27,1.2-.8,1.97-1.59Zm-1.43-4.5c-.11-.68-.27-1.19-.47-1.51-.2-.33-.49-.59-.87-.78s-.8-.29-1.26-.29-.91.1-1.31.29c-.41.19-.75.46-1.02.8-.27.34-.51.84-.71,1.49h5.65Z"/><path class="cls-1" d="m44.67,5.59h1.9v-1.67c0-1.15.38-2.09,1.14-2.82.76-.73,1.75-1.1,2.98-1.1.82,0,1.45.17,1.91.51.46.34.69.71.69,1.11,0,.27-.09.49-.27.67-.18.18-.41.27-.69.27-.24,0-.46-.04-.64-.13-.18-.09-.45-.31-.82-.67-.39-.37-.77-.56-1.12-.56-.24,0-.47.08-.66.23-.2.15-.35.38-.46.67-.11.29-.16.75-.16,1.35v2.13h2.09v1.14h-2.09v7.23c0,.5.04.83.11,1,.07.17.19.28.33.35s.49.1,1.04.1h.46v.94h-5.74v-.94h.35c.59,0,.96-.04,1.12-.11.16-.07.27-.2.35-.36.07-.17.1-.55.09-1.14v-7.06h-1.9v-1.14Z"/><path class="cls-1" d="m63.32,1.86v-.93c1.01-.07,1.99-.39,2.95-.94h.82v13.71c0,.58.04.94.11,1.09.1.21.24.36.42.46s.54.14,1.07.14h.36v.94h-5.74v-.94h.58c.36,0,.64-.05.82-.17s.31-.26.39-.45c.08-.19.12-.58.12-1.15V1.86h-1.9Z"/><path class="cls-1" d="m91.22,13.47l.71.58c-.54.65-1.07,1.16-1.58,1.54-.51.38-.99.64-1.44.8-.45.15-.98.23-1.59.23-1.09,0-2.02-.22-2.78-.67-.88-.51-1.55-1.18-2.02-2-.47-.82-.7-1.8-.7-2.92s.23-2.18.68-3.01c.45-.83,1.09-1.49,1.9-1.97.81-.48,1.75-.72,2.82-.72.79,0,1.49.12,2.07.37.59.25,1.08.62,1.49,1.12.41.5.71,1.07.89,1.72.1.38.16.87.18,1.47h-7.88c-.02.36-.03.64-.03.82,0,.94.16,1.77.49,2.51.33.73.76,1.27,1.3,1.62.54.35,1.15.52,1.83.52.58,0,1.14-.14,1.68-.41.54-.27,1.2-.8,1.97-1.59Zm-1.43-4.5c-.11-.68-.27-1.19-.47-1.51-.2-.33-.49-.59-.87-.78s-.8-.29-1.26-.29-.91.1-1.31.29c-.41.19-.75.46-1.02.8-.27.34-.51.84-.71,1.49h5.65Z"/><path class="cls-1" d="m107.9,1.81h.79v3.79h3.31v1.11h-3.31v6.72c0,.57.05.98.15,1.22s.27.45.51.6.51.23.81.23c.71,0,1.49-.32,2.34-.95v1.08c-.97.66-1.96.99-2.96.99-.57,0-1.08-.13-1.53-.38-.46-.25-.77-.55-.94-.89-.17-.34-.25-.94-.25-1.78v-6.85h-1.95v-.94c.63-.14,1.13-.36,1.51-.66.38-.3.7-.68.93-1.16.24-.48.43-1.19.58-2.15Z"/></g></g></svg>