<?xml version="1.0" encoding="UTF-8"?><svg id="_レイヤー_2" xmlns="http://www.w3.org/2000/svg" viewBox="0 0 49.68 32.54"><defs><style>.cls-1{fill:none;stroke:#e3dac2;stroke-linecap:round;stroke-linejoin:round;stroke-width:.75px;}</style></defs><g id="_レイヤー_1-2"><g><g><g><path class="cls-1" d="m30.75,17.09c-5.49.43-10.26,4.04-12.12,9.29l-.26.74c-.87,2.46.95,5.05,3.57,5.05h0"/><path class="cls-1" d="m41.74,32.17h0c2.61,0,4.44-2.59,3.57-5.05l-.26-.74c-.65-1.82-1.64-3.45-2.9-4.81"/><g><path class="cls-1" d="m22.95,27.31h5.76c1.34,0,2.43,1.09,2.43,2.43h0c0,1.34-1.09,2.43-2.43,2.43h-6.77"/><path class="cls-1" d="m33.36,27.91c-.5.45-.82,1.1-.82,1.82h0c0,1.34,1.09,2.43,2.43,2.43h6.77"/><line class="cls-1" x1="40.73" y1="27.31" x2="38.87" y2="27.31"/></g><circle class="cls-1" cx="35.45" cy="21.66" r="6.6"/></g><g><line class="cls-1" x1="31.13" y1="23.44" x2="32.61" y2="24.27"/><line class="cls-1" x1="35.11" y1="25.65" x2="36.59" y2="26.47"/></g></g><path class="cls-1" d="m6.45,9.33c-1.27,2.27.78,6.74,5.29,4.7,3.58-1.62,7.72-6.82,5.53-7.36-2.56-.63-6.76,1.55-6.91,3.89-.15,2.4.42,6.27,3.58,4.36,2.64-1.6,4.34-2.21,3.53-4.4-.84-2.28-.15-4.15-3.18-4.49-3.7-.42-4.39-.46-5.04,1.42-.69,1.98-.71,7.43,7.43,6.93,3.52-.22,1.58-3.75-1.12-6.7-1.94-2.12-4.38-4.06-5.42-3.89-2.98.51.74,4.13,3.05,6.04,2.05,1.71,4.92,3.65,5.48.53.53-2.93-11.23-6.54-11.53-3.94-.69,2.9,6.36,9.69,8.67,9.24,2.02-.39,3.29-5.74-.93-6.8-5.63-1.42-4.8-.39-2.79,1.81,1.82,2,3.66,4.42,3.71,2.31"/><line class="cls-1" x1="49.31" y1="32.17" x2="7.49" y2="32.17"/><path class="cls-1" d="m23.73,11.5c0-1.27-.49-2.43-1.29-3.29.15-.38.24-.8.24-1.24,0-1.85-1.5-3.34-3.34-3.34-.06,0-.12,0-.18,0-.85-1.92-2.76-3.26-4.99-3.26-1.44,0-2.75.56-3.72,1.47-.67-.33-1.42-.51-2.21-.51-2.7,0-4.9,2.11-5.05,4.76-1.64.66-2.8,2.27-2.8,4.14,0,1.67.91,3.12,2.27,3.89-.02.11-.02.23-.02.35s1.21,2.7,2.7,2.7c.31,0,.61-.05.89-.15.87,1.28,2.35,2.12,4.01,2.12,1.19,0,2.29-.43,3.13-1.15.77.55,1.71.87,2.73.87,1.91,0,3.55-1.13,4.29-2.75,1.95-.63,3.36-2.46,3.36-4.62Z"/><circle class="cls-1" cx="26.54" cy="13.61" r="1.87"/><path class="cls-1" d="m31.91,14.3c0,.61-.49,1.1-1.1,1.1s-1.1-.49-1.1-1.1.49-1.1,1.1-1.1,1.1.49,1.1,1.1Z"/></g></g></svg>