<?xml version="1.0" encoding="UTF-8"?><svg id="_レイヤー_2" xmlns="http://www.w3.org/2000/svg" viewBox="0 0 29.36 30.46"><defs><style>.cls-1{fill:none;stroke:#e3dac2;stroke-linecap:round;stroke-linejoin:round;stroke-width:.75px;}</style></defs><g id="_レイヤー_1-2"><g><polyline class="cls-1" points="28.97 12.99 28.98 10.76 23.96 7.02 23.96 1.97 20.59 1.97 20.59 4.7 14.61 .38 .38 10.76 .39 13.23"/><line class="cls-1" x1="6.24" y1="17.17" x2="1.61" y2="17.17"/><line class="cls-1" x1="3.74" y1="30.08" x2="3.74" y2="17.17"/><g><rect class="cls-1" x="15.18" y="9.67" width="7.53" height="4.72"/><line class="cls-1" x1="18.98" y1="16.11" x2="18.98" y2="14.38"/></g><g><line class="cls-1" x1="25.44" y1="17.17" x2="25.44" y2="30.08"/><line class="cls-1" x1="27.5" y1="17.17" x2="14.23" y2="17.17"/><rect class="cls-1" x="18.74" y="17.17" width="6.71" height="4.48"/><polyline class="cls-1" points="18.74 21.65 18.74 27.81 25.44 27.81 25.44 21.65"/><line class="cls-1" x1="21.69" y1="24.73" x2="22.49" y2="24.73"/><line class="cls-1" x1="21.69" y1="19.53" x2="22.49" y2="19.53"/></g><path class="cls-1" d="m12.77,24.06h-5.08c-.67,0-1.21-.54-1.21-1.21v-9c0-.67.54-1.21,1.21-1.21h3.87c.67,0,1.21.54,1.21,1.21v10.21Z"/><path class="cls-1" d="m12.77,24.05h2.87v-1.68c0-.67-.54-1.21-1.21-1.21h-1.66"/><line class="cls-1" x1="15.58" y1="24.05" x2="16.83" y2="24.05"/><g><line class="cls-1" x1="10.48" y1="24.06" x2="10.48" y2="30.05"/><path class="cls-1" d="m7.64,30.05v-1.07c0-.27.22-.48.48-.48h4.7c.27,0,.48.22.48.48v1.07"/></g></g></g></svg>