<?xml version="1.0" encoding="UTF-8"?><svg xmlns="http://www.w3.org/2000/svg" xmlns:xlink="http://www.w3.org/1999/xlink" viewBox="0 0 336 51"><defs><style>.cls-1,.cls-2,.cls-3{fill:none;}.cls-4{clip-path:url(#clippath);}.cls-5{fill:#95938d;}.cls-6{mix-blend-mode:hard-light;}.cls-7{fill:url(#_名称未設定グラデーション_10);}.cls-2,.cls-3{stroke:#989382;stroke-miterlimit:10;}.cls-8{isolation:isolate;}.cls-3{stroke-width:.5px;}</style><linearGradient id="_名称未設定グラデーション_10" x1="167.75" y1="50.5" x2="167.75" y2=".5" gradientUnits="userSpaceOnUse"><stop offset="0" stop-color="#232331"/><stop offset="1" stop-color="#233e79"/><stop offset="1" stop-color="#000"/></linearGradient><clipPath id="clippath"><rect class="cls-1" x=".5" y=".5" width="335" height="50"/></clipPath></defs><g class="cls-8"><g id="_レイヤー_2"><g id="_レイヤー_1-2"><g><rect class="cls-7" y=".5" width="335.5" height="50"/><g class="cls-6"><g class="cls-4"><path class="cls-5" d="m81.31,64.86c.63-.6,1.19-1.26,1.65-2.02,2.13-3.68,2.28-8.25,1.42-12.33-.36-1.63-.89-3.23-1.59-4.75-.15-.22-.29-.65-.46-1.05.01,0,.03.01.04.02.5.21,1.01.42,1.51.61.09.08.35.15.51.19,4.34,1.61,8.89,2.55,13.48,3.2.04.03.64.11.96.13.22.03.44.06.66.09,8.96,1.09,18.11,1.7,27.07.21,2.87-.47,5.71-1.13,8.5-1.96.28-.15.72-.16,1.11-.34,6.36-2.01,12.43-4.94,17.86-8.84,3.6-2.64,7.09-5.49,10.27-8.64.12-.13.53-.54.76-.78.85-.87,1.67-1.75,2.46-2.67,2.92-3.54,5.07-7.63,7.54-11.48.46-1.24-1.6-1.68-2.38-2.28-2.62-1.47-5.19-3.04-7.73-4.67-5.09-3.26-10.12-6.66-15.55-9.34-3.61-1.75-7.34-3.23-11.14-4.52-4.22-1.46-8.59-2.45-13.01-2.94.13-.29.24-.6.35-.78,1.28-2.62,1.58-5.56,1.46-8.45-.03-2.92-.5-5.91.44-8.76.22-.52.32-1.38-.42-1.49-1.07,0-2.14.21-3.22.26-3.56.24-7.06.09-10.67.1-14.94-.65-30.68,3.39-39.43,16.44-2.66,4.09-5.34,8.47-6.04,13.37-.6-1.96-1.39-3.85-2.35-5.64-2.65-4.67-7.6-7.45-12.76-8.49-3.43-.73-6.99-.61-10.35-1.67-4.47-1.68-8.29-2.11-12.76-.06-4.83,2.6-8.56,7.03-10.85,11.98-4.57-.49-9.01.17-12.73,3.68C2.07,4.73.81,10.54-3.84,13.3c-2.22,1.39-4.76,2.37-7.43,2.38-1.89,0-3.78-.3-5.67-.08-5.28.3-9.44,5.18-9.22,10.42.05,3.86,1.08,8.07,3.47,11.2-1.66-1.24-3.48-2.25-5.38-3.1-.02-.03-.04-.06-.07-.09-.31-1.74-.9-3.49-2.15-4.78-1.03-1.23-3.13-1.65-3.19.49-.03.92.25,1.8.64,2.63-1.63-.48-3.28-.87-4.94-1.19-.12-.45-.34-.88-.47-1.32-.45-1.13-.87-2.47-2.04-3.04-.5-.32-1.22-.42-1.57.16-.75,1.16.22,2.52,1.02,3.37.12.08.25.22.39.37-.31-.05-.62-.1-.93-.15-1.53-.22-3.06-.42-4.59-.6-.71-1.59-1.88-3.19-3.53-3.84-.6-.26-1.54-.07-1.72.66-.21,1.25.84,2.13,1.76,2.82-1.61-.14-3.22-.25-4.84-.32-.55-1.06-.95-2.25-1.84-3.1-.64-.64-2.02-1.36-2.23.03-.02,1.17.7,2.15,1.5,3.01-1.09-.01-2.18,0-3.26.03-.03,0-.05.02-.08.03-.31-.4-1.13-.29-1.58-.42-1.13-.14-2.66-.2-3.26.97-.21.46.02.98.44,1.23,1.25.76,2.96.44,4.08-.41.17-.14.38-.29.52-.46.03,0,.05,0,.09,0,1.32-.07,2.65-.06,3.98-.01-.86.58-1.81,1.23-2.16,2.25-.17,1.31,1.56.91,2.19.39.47-.31,1.81-1.65,1.99-2.55.29.01.58.03.87.04,1.74.14,3.51.28,5.29.44-1.03.62-2,1.36-2.6,2.44-.27.43-.14,1.15.41,1.28.67.06,1.31-.36,1.88-.66.47-.16,2.22-1.8,2.64-2.84,1.95.21,3.89.46,5.82.79-1.45.58-2.84,1.38-3.97,2.43-.13.17-.24.43-.17.66.38,1.46,3.87-.4,4.66-.91.33-.24,1.55-1.1,1.77-1.74,1.65.35,3.29.76,4.88,1.27-.7.37-1.29.89-1.74,1.55-1.31-.77-3.12-1.74-3.8-.31-.4,2.31,2.73,3.92,5.13,4.72-3.18.5-6.38,1.3-9.56,2.35-1.49-1.2-6.23-3.83-7.47-2.09-.33.62.03,1.35.46,1.83.94,1.07,2.29,1.38,3.67,1.45-2.38.91-4.74,1.94-7.05,3.06-1.71-.71-6.22-2.41-7.44-.53-.35.65-.02,1.42.52,1.85.86.71,1.92.82,2.99.69-2.13,1.16-4.22,2.38-6.23,3.64-1.45-.42-6.47-1.1-7.17.45-.28,1.71,1.74,2.08,3.5,1.96-2.73,1.87-5.3,3.79-7.66,5.69-.11,0-.23.02-.33.1-.47.34-.93.68-1.39,1.02-1.02.86-2.44,1.77-2.56,3.22.45,1.87,3.37.02,3.93-.99.25-.4,1.08-1.87,1.06-2.69,2.1-1.66,4.18-3.35,6.37-4.89.82-.57,1.66-1.11,2.5-1.64-.58,1.19-1.38,2.5-1.16,3.84.83,1.6,2.57-1.36,2.94-2.16.47-1.02.72-2.14.79-3.26.45-.27.9-.54,1.35-.82,2.09-1.25,4.25-2.48,6.47-3.63-.66,1.04-1.29,2.11-1.72,3.27-.24.58-.24,1.52.52,1.69,1.63-.03,2.65-1.85,3.08-3.24.3-.91.27-1.86.28-2.8,2.62-1.28,5.31-2.45,8.06-3.45-1.27,1.46-2.83,2.94-3.11,4.89-.04.4.15.83.57.92,1.09.12,1.86-.96,2.55-1.65,1.2-1.46,1.99-3.19,2.55-5,0-.01,0-.03.02-.04,3.2-1.03,6.45-1.81,9.74-2.25-2.25,1.51-4.41,3.36-5.78,5.72-.33.58-.38,1.46.44,1.61,1.92.25,4.06-2.12,5.27-3.43,1.09-1.27,1.93-2.74,2.77-4.18,0,0,0,0,0,0,2.62-.2,5.26-.17,7.89.13.06,0,.13.01.21.02-3.48,1.65-6.89,3.73-9.07,6.93-1.28,1.9.05,3.99,1.73,5.08,1.07.77,2.3,1.3,3.15,2.33.58.67.68,1.65.26,2.44-.45,1.01-1,1.97-1.51,2.96-.18-.07-.39-.1-.57-.12-1.21-.18-2.43-.28-3.67-.34-8.99-.2-18.87,2.5-25.01,9.4-2.08,2.33-3.68,5.02-5.31,7.67-2.13,3.33-4.7,6.39-7.4,9.29-.17.19-.46.42-.46.7,0,.31.33.57.64.46,1.43-.82,2.75-1.67,4.28-2.39,4.03-1.89,8.23-3.61,12.74-3.85,9.01-.36,13.59,1.34,20.1-6.51,1.71-1.67,3.17-4.08,5.66-4.57.22.12.42.05.55-.08.79.45,1.69.81,2.66,1.09-.02.03-.04.06-.05.08-1,1.32-1.99,2.65-2.95,3.99-3.98,5.59-7.66,11.41-10.86,17.48-.79,1.51-1.53,3.05-2.27,4.59-.17-.12-.41-.15-.59.02-.15.2-.39.29-.61.4-2.24.77-4.6-.32-6.84-.62-8.74-1.75-18.86-1.09-25.96,4.83-5.45,4.99-9.93,11.01-13.47,17.5-2.45,4.04-4.13,8.47-6.31,12.65-.2.29-.2.77.19.9.65.15.76-.73,1.04-1.14,1.67-2.79,4.26-4.9,6.99-6.62,6.85-4.61,15.12-6.55,23.23-7.6-.03,0-.06,0-.09.01.15-.02.29-.04.47-.06,0,0-.02,0-.03,0,5.62-.65,11.64-1.55,15.86-5.66-.92,2.45-1.81,4.92-2.66,7.39-1.55,4.72-2.95,9.49-4.31,14.27-.26.27-.6.53-.95.73-1.44.8-3.08.88-4.7.98-1.68.2-3.36.55-4.98,1-10.74,3.09-18.16,13.07-18.02,24.26-.07,8.01,1.15,15.97,2.06,23.9.15,1.43.32,2.87.45,4.31.03,1,.11,2.01.29,3,.01.3.27.54.57.49.47-.09.4-.56.34-.91-.54-4.03-.4-8.09.94-11.96,1.46-5.08,4.21-9.75,7.78-13.67,4.46-4.47,9.18-8.76,12.43-14.24-.61,3.47-1.06,6.97-1.2,10.49-.02.38-.03,2.45.16,4.03-.11.17-.18.4-.24.58-.38.96-.73,1.97-1.07,2.96-1.48,3.85-2.9,7.78-3.29,11.92-1.03,7.77,2.19,13.73,6.61,19.84,1.84,2.55,4.04,4.8,6.33,6.95.07.29,1.28,1.3,1.25,1.15,2.12,1.94,4.3,3.83,6.33,5.84,1.77,1.64,3.54,3.27,5.26,4.97.93.82,1.69,1.87,2.69,2.6.5.2.82-.39.63-.81-.92-3.23-1.61-6.52-1.97-9.86-.91-6.59-.24-13.56-2.84-19.81-2.03-4.45-6.19-7.34-9.45-10.82-2.8-3.13-5.64-6.37-7.59-10.13-.48-1.04-.9-2.2-1.27-3.34-.08-.19-.13-.43-.18-.68,0-.03,0-.05,0-.08-.24-1.32-.41-2.62-.43-3.97.04-4.68.72-9.36,1.63-13.98.17.39.33.74.39.95,1.42,4.46,3.77,8.54,6.83,12.08,3.11,4.15,6.9,7.66,10.58,11.28,2.37,2.46,4.58,5.23,6.36,8.17,1.19,1.98,2.28,4.02,3.61,5.91.31.37.54.98,1.08,1.06.53.03.61-.55.56-.95-.03-1-.07-1.99-.13-2.99-.22-3.25-.92-6.45-1.72-9.6-.52-2.14-1.05-4.31-1.79-6.39-2.07-6.3-5.94-11.9-10.39-16.78-2.78-3.03-5.98-5.63-8.6-8.83-1.33-2.07-2.63-4.32-3.07-6.77-.09-.69-.08-1.51-.04-2.22.02-.11,0-.22-.06-.31,2.38-8.53,5.38-16.9,9-24.97-.47,2.25-.72,4.56-.83,6.84-.22,3.8.51,7.56,1.31,11.26.35,1.71.87,3.49,1.53,5.13.87,2.36,2.21,4.49,3.5,6.64,1.34,2.19,2.61,4.43,4.22,6.44,1.12,1.47,2.36,2.8,3.61,4.16,1.08,1.24,2.37,2.33,3.33,3.7.82,1.19,1.44,2.42,2.11,3.71.43.82,1.22.34,1.25-.38.25-1.88.47-3.77.74-5.66,2.23-15.57,3.86-23.2-7.89-35.42-2.4-2.69-5.25-5.09-7-8.29-1.86-3.26-1.27-7.29.41-10.48.02-.04.01-.08.02-.12,3.38-5.83,7.25-11.36,11.54-16.57,1.71-2.13,3.32-4.34,5.11-6.41.19-.34.99-.91,1.26-1.41.24.02.47.04.71.06-.91,1.03-1.81,2.06-2.7,3.11-4.26,4.87-7.31,10.95-7.77,17.47-.33,4.79.99,9.63,2.92,13.99,1.22,2.52,3.12,4.62,5.03,6.64,2.93,3.16,5.36,6.8,6.24,11.09.14.4.15.93.52,1.19.21.12.51.07.64-.13.37-.89.39-1.89.61-2.84,1.1-6.92,2.39-13.9,1.81-20.93-.45-4.04-1.36-8.03-1.52-12.1-.09-4.18.68-8.42,1.86-12.42.51-1.48,1-3.05,2.05-4.27.13-.19.36-.32.44-.54,1.81.08,3.62.25,5.42.63-1.02,1.18-1.32,2.92-1.58,4.42-.03.26-.04.52-.06.78-.09,0-.19.02-.27.07-1.13.89-2.3,1.85-3.13,3.05-.91,1.16-.5,3.03,1.24,2.48,1.09-.61,1.62-1.85,2.11-2.99.08,2.35.47,4.68,1.08,6.96,0,.05.02.1.04.15.01.04.02.08.03.13-1.52,1.24-2.41,3.26-2.62,5.2-.16,1.25.91,2.17,1.98,1.24,1.04-1,1.2-2.48,1.44-3.87.88,2.53,1.97,5,3.14,7.38-.95.98-1.37,2.42-1.75,3.71-1.1,5.97,3.62,4.88,3.15-.95,1.34,2.63,2.69,5.26,3.9,7.95-.99,1.08-1.4,2.59-1.84,3.96-.5,1.39.42,2.69,1.86,1.8.8-.67,1.14-1.69,1.28-2.72.74,1.82,1.39,3.68,1.93,5.58-.36.3-.61.75-.92,1.09-.74.98-1.65,1.99-1.69,3.28-.24,1.14.96,2.28,2,1.49.78-.55,1.18-1.39,1.45-2.28.32,1.98.41,4,.27,6-.36.05-.74.26-1.06.38-1.05.47-2.33,1.13-2.58,2.37-.07.42.15.89.57,1.04,1.07.29,1.95-.39,2.75-1.1-.2,1.11-.46,2.2-.81,3.28-.15.08-.26.24-.26.41-.32.14-.35.55-.47.84-.26.93-.66,1.84-.76,2.81-.3,1.32,1.14,3.28,2.53,2.47,1.25-1.26.52-3.44.17-4.96-.1-.36-.25-.69-.4-1.03.02-.04.05-.07.07-.11.33-1.2.68-2.4.91-3.63.52,1.41,1.15,2.85,2.41,3.72.42.28,1.05.16,1.26-.33.17-.4-.02-.84-.17-1.22-.39-.9-2.05-4.16-3.19-4.72.21-2.58-.03-5.13-.55-7.64.66.75,1.32,1.51,2.05,2.19.48.43,1.05,1.04,1.76.95,1.63-.49-.18-2.44-.76-3.17-.32-.47-2.65-2.6-3.73-2.69-.58-2.03-1.31-4.02-2.12-5.97,1.28,1.03,3.7,2.81,4.42,1.24.06-1.14-2.06-2.51-2.95-3.11-.82-.48-1.77-.85-2.71-1-.11-.24-.22-.49-.33-.73-.96-2.01-1.99-4-3.01-5.99,1.29,1.15,2.98,2.48,3.85,2,.56-.55-.04-1.26-.43-1.72-.82-.98-1.64-2-2.69-2.75-.81-.58-1.73-.98-2.62-1.42-.04-.05-.08-.09-.14-.12-1.02-2.12-1.97-4.27-2.75-6.48.86.89,1.72,1.79,2.71,2.53.62.52,2.04.67,2.11-.4-.08-.84-.7-1.54-1.2-2.2-1-1.19-2.18-2.25-3.62-2.86-.33-.15-.67-.3-1.02-.42-.04-.16-.09-.31-.12-.47-.39-1.39-.74-3.18-.89-5.04.61,1.38,1.36,2.83,2.69,3.2.98.14,1.24-1.1,1.02-1.83-.55-1.85-2.11-3.15-3.77-4.03.07-1.95.44-3.82,1.28-5.22.2,3.54,1.13,7.05,3.14,9.97,1.63,2.34,4.22,3.61,6.85,4.5,2.23.98,3.93,2.98,6.21,3.89,3.22,1.51,7.06,1.24,10.19-.37.37.22.98.28,1.3.47,2.26.92,4.77,1.27,7.19.74,5.62-.72,10.57-4.36,12.9-9.54.08-.2.2-.4.23-.62,4.1.86,7.7-1.3,9.83-5.04.57-1.14,1.05-2.32,1.44-3.53.66,0,1.32,0,1.98-.05,1.89-.04,3.66-.71,5.43-1.31,2.78-.92,5.58-1.84,8.16-3.26,2-1.18,4.21-2.28,6.02-3.79M-64.18,30.21c.75-.8,2.05-.37,3.01-.27-.83.59-2.13.88-3.01.27Zm7.21,2.09c.4-.57,1-.95,1.56-1.33-.41.53-.9,1.08-1.56,1.33Zm1.45-3.06c-.83-.78-1.7-1.68-1.91-2.82,1.11.57,1.5,1.76,2.04,2.82-.04,0-.09,0-.13,0Zm5.49-1.44c-.86-1.31.5-.79,1.09-.28.77.64,1.37,1.45,1.85,2.32-.21-.02-.42-.05-.63-.07-.01-.01-.02-.03-.04-.04-.76-.66-1.64-1.14-2.28-1.93Zm.64,5.6c.67-.95,1.59-1.57,2.62-2.12-.64.94-1.56,1.7-2.62,2.12Zm9.04-3.92c-.4-.51-1.08-1.28-.73-1.97,1.39.52,1.71,2.15,2.19,3.46-.05,0-.1-.02-.15-.03-.02-.55-1.03-1.03-1.3-1.47Zm-1.95,4.85c.34-.22.68-.44,1.03-.65.8-.51,1.55-.92,2.49-1.22-.96.93-2.22,1.48-3.52,1.87Zm-35.34,29.66c.55-1.26,1.84-2,2.89-2.84-.42,1.36-1.42,2.62-2.89,2.84Zm12.88-11.15c-.29-.03-.69.13-.95.19-1.04.1-2.88.51-3.56-.52.38-.3.95-.23,1.42-.3,1.25-.07,2.49.01,3.73.22-.21.14-.43.28-.64.41Zm-.19,4.08c.39-1.3.94-2.53,1.72-3.65-.24,1.34-.8,2.63-1.72,3.65Zm8.97-9.97c-1.11.24-2.97.5-3.48-.82.33-1.2,4.04-.05,5.5.47l-.05.03c-.46-.23-1.5.32-1.96.33Zm.72,4.94c.36-1.47,1.31-2.81,2.12-4.08-.06,1.55-.66,3.32-2.12,4.08Zm9.27-9.88c-1.17-.05-2.71-.49-3.09-1.73.11-.68,3.13.48,3.55.74,1.04,1.04.27,1.03-.45,1Zm-.3,6.18c.53-1.88,2.11-3.31,3.39-4.77-.73,1.81-1.72,3.68-3.39,4.77Zm13.21,172.12c-4.23-4.25-8.71-8.25-13.09-12.34-3.45-3.07-6.66-6.4-9.09-10.36-2.61-3.98-4.9-8.47-4.84-13.36v.06c-.23-5.75,1.95-11.19,3.89-16.51.09.54.2,1.08.3,1.62,1.18,6.7,5.06,12.37,8.46,18.12,1.85,3.34,3.41,6.85,4.59,10.49,2.29,7.01,4.21,14.34,8.45,20.49.39.55.8,1.1,1.28,1.59.02.07.03.13.05.2Zm-17.23-42.88c1.7,2.1,3.38,4.11,5.38,5.98,3.17,3.03,6.79,6.03,8.08,10.39,1.34,4.43,1.39,9.1,1.73,13.69.3,3.87.76,7.75,1.7,11.52-4.68-6.15-6.58-13.88-8.99-21.11-1.14-3.49-2.62-6.9-4.38-10.12-2.99-5.31-6.67-10.31-8.15-16.31-.25-1-.5-2.01-.68-3.03,1.1,3.34,3.07,6.3,5.31,9Zm-27.25,2.68c-.53-4.27-1.07-8.55-1.36-12.84-.28-4.74-.64-9.58.68-14.23,2.69-9.57,11.09-16.18,20.86-17.33,1.79-.13,3.73-.21,5.33-1.08-1.1,1.88-2.23,3.76-3.54,5.49-2.01,2.42-4.46,4.44-6.65,6.7-4.74,4.62-8.82,9.99-11.37,16.13-2.18,5.44-3.81,11.26-3.94,17.16Zm23.05-33.19c-.08.41-.17.81-.25,1.22-.05.04-.09.08-.13.15-1.17,2.13-2.5,4.17-3.98,6.13-2.78,3.69-6.33,6.7-9.52,10.03-4.31,4.65-7.28,10.44-8.71,16.6,0-1.11.02-2.21.1-3.32.5-4.46,1.63-8.85,3.19-13.06,1.9-5.02,4.77-9.67,8.29-13.73,3.23-3.76,7.12-6.86,10.36-10.62,1.02-1.36,1.93-2.8,2.8-4.26-.11.38-.22.76-.33,1.15-.98,3.08-1.26,6.33-1.83,9.5-.01.07-.01.14,0,.21Zm24.72,32.46c-1.56-2.36-3.33-4.57-5.29-6.62-2.05-2.22-4.39-4.18-6.46-6.38-2.32-2.51-4.51-5.3-6.62-8.02-2.49-3.33-3.91-7.26-5.27-11.16-.01-.06-.03-.11-.03-.17,0-.06-.03-.12-.06-.17.19-.92.38-1.83.58-2.74.49-2.29,1.03-4.58,1.61-6.85.05,2.71.87,5.37,1.49,7.99.5,2.05,1.25,4.05,2.33,5.88,1.7,2.99,3.65,5.9,5.97,8.47,2.12,2.53,4.52,4.81,6.49,7.46,2.15,2.86,3.79,6.01,5.53,9.13,1.42,3.17,2.49,6.49,3.73,9.74-1.42-2.13-2.58-4.43-3.99-6.56Zm-20.04-39.55c2.16,5.01,6.86,8.18,10.43,12.13,5.64,5.99,9.97,13.3,11.74,21.37.07.29.14.58.22.88,0,0,0-.01,0-.02.93,3.61,1.72,7.29,1.91,11.02-.76-2.1-1.63-4.19-2.35-6.3-.69-2.1-1.76-4.02-2.88-5.91-1.24-2.23-2.54-4.49-4.12-6.51-2.68-3.44-5.89-6.42-8.53-9.9-1.84-2.54-3.6-5.19-4.87-8.06-.92-2.24-1.44-4.66-1.98-7.02-.29-1.43-.61-2.87-.62-4.32.25.91.61,1.79,1.04,2.63ZM-4.41,81.87c-.18.23-.37.52-.69.57-.15.02-.29-.09-.27-.25.23-1.26,1.43-2.04,2.28-2.9-.34.91-.76,1.77-1.32,2.57Zm16,56.25c-.57.03-1.09-.77-1.03-1.31.02-1.01.48-1.94.74-2.91.35.96.52,1.99.58,3.01-.02.4.01.88-.28,1.21Zm.54-10.47s-.1.04-.13.08c-.3.32-.64.58-.99.86-.42.32-.89.77-1.46.72.36-1.05,1.62-1.49,2.61-1.89,0,.08-.02.15-.02.23Zm3.46,4.27c-1.02-.91-1.49-2.22-1.96-3.48.74,1.11,1.48,2.23,1.96,3.48Zm.45-10.87c-1.23-.94-2.19-2.19-3.22-3.34,1.35.83,2.42,1.96,3.22,3.34Zm-4.52-2.86c-.08.32-.09.68-.2.99-.11.46-.25.93-.42,1.39-.12.55-1.31,2.24-1.43.87.03-1.41,1.15-2.46,1.98-3.53.02.09.05.19.08.28Zm1.64-7.02c-1.46-.48-2.69-1.57-3.82-2.59,1.49.46,2.78,1.44,3.82,2.59Zm-4.83-2.02c.03.07.06.14.09.21-.18.42,0,1.01-.13,1.5-.15.8-.34,2.32-1.34,2.4-.03-.04-.04-.09-.05-.14,0,0,0-.05-.02-.11,0-.03,0-.06,0-.08.24-1.32.74-2.63,1.45-3.79Zm-3.7-10.67c1.28.65,2.36,1.88,3.28,3.02-1.44-.94-2.73-2.09-3.9-3.34.21.11.42.21.63.32Zm-1.5.13c-.13.09-.21.25-.2.43.04,1,.18,1.93.1,2.94-.15,1.47-1.34,3.72-1.41.71.04-1.5.66-2.93,1.39-4.22.04.05.09.1.13.15Zm1.2-6.43c-.62-.1-1.07-.67-1.54-1.05-1.01-1.02-2.1-2-2.99-3.13,0,0,0,0,0,0,1.92.81,3.58,2.32,4.53,4.19Zm-6.37.19c-.18.4-.39.87-.84,1.03-.11-.12-.14-.27-.14-.43.09-1.54.79-3.07,1.79-4.24-.29,1.21-.37,2.47-.81,3.65Zm3.29-8.79c-1.21-.73-1.67-2.27-2.29-3.48,1.03.71,2.54,2.11,2.29,3.48ZM173.62,13.83c-3.78.65-7.61-.04-11.4-.27-3.74-.26-7.49-.49-11.24-.37-3.55.13-7.1.33-10.65.59.15-.19.32-.35.48-.54,4.06-4.37,8.97-7.86,14.03-10.98,6.31,3.77,12.34,7.99,18.77,11.56ZM151.28.21c1.05.58,2.08,1.18,3.11,1.79-5.29,3.28-10.45,6.96-14.56,11.66-.05.05-.07.11-.08.17-9.28.7-18.54,1.85-27.72,3.44,1.94-2.68,4.17-5.2,6.22-7.81,5.19-5.76,10.92-11.11,17.2-15.67,5.47,1.62,10.77,3.76,15.84,6.42Zm-18.12-7.06c.58.15,1.15.32,1.73.49-5.95,4.26-11.3,9.35-16.28,14.69-1.37,1.48-2.56,3.12-3.82,4.69-1.17,1.43-2.43,2.81-3.43,4.36-8.36,1.47-16.64,3.29-24.83,5.48,3.3-4.45,6.93-8.67,10.59-12.84,2.84-3.19,6.02-6.05,9.22-8.86,3.9-3.52,8.04-6.74,12.53-9.5.1-.1.34-.22.57-.36,4.63.06,9.27.69,13.73,1.84Zm-51.45,18.59c.2-.71.52-1.38.83-2.05,1.11-2.11,2.77-3.75,4.37-5.54,4.29-4.32,9.4-8.06,15.14-10.21,5.3-1.77,10.88-2.61,16.48-2.63-7.08,4.4-13.36,9.99-19.32,15.8-2.9,2.95-5.56,6.14-8.2,9.32-1.74,2.17-3.65,4.26-5.15,6.6-.04.01-.08.02-.12.03-.05-.81-.15-1.63-.33-2.44-.66-3.13-2.02-6.06-3.87-8.65.08-.06.14-.14.17-.25Zm-.8-.59c-.25-.32-.51-.63-.77-.94.3-.78.67-1.55,1.04-2.3.58-1.13,1.24-2.23,1.93-3.3.53.05,1.66-.3,2.64-.67-2.14,2.23-3.99,4.71-4.84,7.2Zm43.36-20.59s-.04.05-.05.08c-4.11-.38-8.27-.35-12.38.13-7.25.76-14.26,3.28-20,7.84-1.62,1.23-3.47,2.76-5.22,4.47-.9.42-1.84.77-2.82.97-.11.03-.22.04-.34.05,1.53-2.27,3.28-4.41,5.06-6.47,3.3-3.53,6.98-6.68,10.85-9.57.69.13,1.4.24,2.1.31,3.32.48,6.68.03,10.01-.19,4.85-.46,9.7-1.16,14.43-2.36-.23,1.59-.71,3.17-1.64,4.75Zm1.7-5.24s-.09.03-.13.04c-4.59,1.09-9.28,1.86-13.98,2.28-3.54.26-7.12.73-10.66.2-.44-.04-.88-.11-1.32-.19,2.71-2,5.52-3.89,8.36-5.69,1.58-1.02,3.18-2.01,4.8-2.96,4.31.59,8.75.16,12.94-1,.03,2.44.27,4.88-.01,7.31Zm.01-7.8c-3.14.87-6.46,1.35-9.73,1.29-.84-.04-1.66-.11-2.49-.21,2.32-1.32,4.69-2.55,7.12-3.64,1.86-.87,3.8-1.72,5.73-2.52-.5,1.69-.63,3.38-.63,5.08Zm-.32-5.19c-1.66.69-3.32,1.42-4.94,2.18-2.67,1.18-5.24,2.54-7.75,4-.1-2.02.14-4.1,1.11-5.92,3.87.05,7.74.1,11.58-.26Zm-20.7.36c2.83-.17,5.68-.14,8.53-.11-.58,1.24-1.06,3.65-1.02,4.08-.07.71.02,1.41.03,2.12-2.49,1.47-4.93,3.03-7.35,4.62-1.98,1.32-3.96,2.7-5.91,4.14-.01,0-.03,0-.04,0-.12-1.15-.16-2.31-.09-3.47.42-3.72.93-7.56,2.52-10.98,1.11-.16,2.22-.29,3.33-.39Zm-3.94.48c-.23.49-.38,1.04-.57,1.53-.97,2.91-1.45,5.96-1.78,9-.13,1.35-.06,2.71.07,4.06,0,.05.02.09.05.12-6.11,4.58-11.83,9.85-15.92,16.22-.26-.82-.32-1.68-.34-2.55-.23-7.65,1.8-15.23,4.36-22.39.25-.64.48-1.31.81-1.91,4.16-2.05,8.73-3.37,13.33-4.08ZM68.67,1.61c.11-.8.28-1.6.48-2.39,1.86-5.6,5.06-10.8,9.08-15.12,2.54-2.68,5.53-4.83,8.77-6.51-.32.71-.57,1.44-.82,2.18-2.2,6.1-3.8,12.54-4.12,19.04-.02.86-.15,4.82.51,5.77-1.04,1.67-1.97,3.41-2.76,5.23-2.05-2.3-4.49-4.25-7.16-5.73-1.25-.8-2.64-1.79-4.13-2.02.11-.12.18-.29.16-.46Zm3.87,3.54c6.07,3.44,10.94,9.53,12.08,16.53.6,3.76-.28,7.59-.91,11.3-.63,2.61-.04,5.35-.89,7.91-1.15,2.97-4.01,5.07-6.98,6.05-.66.15-1.32.33-1.98.5.2-.86.2-1.76-.07-2.65-.98-2.7-3.1-4.93-5.52-6.43-1.73-1.23-3.84-1.87-5.46-3.22.46-.15.92-.34,1.36-.56.09-.01.17-.06.24-.13,1.48-.77,2.81-1.85,3.87-3.09,2.57-3.35,3.77-7.86,2.77-12.01-.62-2.02-1.31-4.12-2.38-5.97.05-.2.04-.45.07-.65.46-3.24.21-6.55-.58-9.73,1.62.24,3,1.3,4.37,2.16Zm-4.75,49.95s.02.06.03.08c-.27,1.49-.02,3.13-.68,4.54-1.45,2.77-4.12,3.63-6.89,3.47-.1-.12-.25-.19-.48-.17-.08.02-.14.06-.2.11-1.32-.15-2.64-.52-3.85-1.01.42-3.48-1.63-6.75-3.18-9.93-.84-1.7.81-2.38,1.57-3.65,2.8-4.7-3.86-7.76-7.67-8.79.63-.19,1.24-.44,1.84-.73.12-.03.25-.1.38-.19,2.26-1.17,4.29-2.98,5.81-5.11.78.76,2.67,1.44,3.18,1.56,1.35.41,2.73.42,4.06.15,1.62,1.65,3.91,2.3,5.8,3.58.16.09.31.19.46.29.09.14.21.28.31.39,2.01,2.83,2.59,6.72,1.43,10.02-.5,1.61-1.73,2.99-1.89,4.75-.02.21-.05.43-.03.65Zm-35.53-13.33c.05-.22,0-.44-.08-.66,2.13-.34,4.29-.53,6.43-.75,3.26-.43,6.68-.25,9.73.99.06.15.18.3.32.4.37.42.51,1.01.38,1.56-1.48,4.64-4.89,8.21-1.18,12.96,4.16,5.74.98,10.9-5.79,11.34,0,0,0,0,0,0-.11-.11-.26-.14-.41-.12-.52-.29-1.02-.62-1.48-1.01-3.19-2.59-4.77-6.68-6.65-10.25-.2-.31-.27-1.05-.55-1.43,1.09-3.98.74-9.36-.73-13.03ZM.73,52.26c-.96-1.62-2.11-3.38-4.03-3.88-3.79-.63-4.72-3.74-4.9-7.15,0,0,0,0,0,0,0,0,0,0,0,.01-.12-1.55.08-3.09.22-4.63-.03-.26.05-.65.07-1.02.32-.93.66-1.84,1.12-2.72,1.06-2.28,3.25-3.59,5-5.28,1.04-1.09,1.85-2.38,2.56-3.7,3.86-8.19,13.09-13.36,21.94-9.99,1.17.43,2.16,1.21,3.06,2.06.01,0,.03.02.04.03-2.8.77-5.38,2.77-6.21,5.63-.71,1.86-.05,4.25-1.86,5.59,0,0,0,.01-.01.02-5,.09-10.25,3.26-11.52,8.16-.52,2.54,1.56,4.35,3.03,6.09.3.38.71.93.51,1.47-.86,1.89-1.65,4.14-.02,5.91.43.52.93.96,1.45,1.37-.06.07-.12.14-.17.21-2.07,2.12-5.08,3.04-7.84,3.97-.31.11-.61.2-.93.28-.63-.73-1-1.62-1.51-2.43Zm.49,2.66c-2.07.36-4.23.17-6.22-.62-3.81-1.68-4.79-6.25-4.89-10.04-.03-1.49.32-2.96.72-4.42-.01,3.12.33,6.75,3.16,8.53,1.05.76,2.42.71,3.5,1.4,1.8,1.24,2.49,3.44,3.74,5.15Zm63.26-26.45c-.34-2.86-.79-5.71-.85-8.6.44-4.55-1.79-8.93-5.11-11.95-.3-.26-.63-.49-.95-.72,1.06.05,2.1.19,3.1.64,2.32.9,4.45,2.58,6.13,4.42,1.49,1.95,2.36,4.27,3.13,6.59,1.29,4.23.09,9.04-2.8,12.37-.68.71-1.43,1.32-2.22,1.83.21-1.53-.21-3.08-.43-4.59Zm-2.12-12.72c.61,2.08.14,4.3.43,6.44.16,1.98.45,3.95.68,5.92.19,1.55.64,3.06.53,4.63-.05.32-.1.67-.24.96-2.6,1.26-5.54,1.35-8.28-.44-.15-.08-.31-.24-.46-.38,1.41-2.24,2.24-4.78,2.2-7.28-.21-2.67-2.91-4.33-5.4-4.48-2.23-.24-4.36.54-6.51.94-1.15.19-2.35.24-3.52-.07-1.98-.49-3.82-1.6-5.91-1.59-4.32-.23-6.54,4.56-6.66,8.28.07,1.95.11,3.91.16,5.86-2.12-3.3-5.19-6.17-9.02-7.07-.44-.1-.9-.16-1.35-.21.55-.67.93-1.49.99-2.37.08-3.87,2.04-6.78,5.81-7.94.51-.16,1.03-.16,1.56-.21,2.84-.42,5.43-2.46,6.72-5,1.15-2.44.48-5.18,1.09-7.74.58-2.67,2.48-5.23,5.36-5.61,2.98-.27,5.09,2.18,6.7,4.38,1.56,1.87,3.69,3.52,6.09,4.14.8.16,1.62.2,2.44.22.18.15.43.28.59.4,2.94,1.82,5.01,4.89,5.98,8.19Zm-31.62,21.23c-.11-.23-.23-.47-.35-.7,0,0,0,0,0,0-.14-2.26,0-4.54-.22-6.8-.03-2.83.94-6.3,3.62-7.73,3.41-1.45,6.55,1.62,9.98,1.43.17,0,.35-.02.52-.03.06.02.13.02.21.01,2.92-.46,6,1.28,6.87,4.16.78,2.42.19,5.06-.81,7.35-.7,1.17-1.42,2.63-2.58,3.43-.07.02-.13.06-.19.11-1.06.5-2.19.85-3.37,1.01-.08,0-.16.04-.23.09-2.81-.32-5.68.11-8.49.39-1.19.17-2.39.25-3.57.43-.08.02-.16.03-.24.05-.38-1.07-.72-2.15-1.15-3.2Zm.33,10.87c-.4-.74-1.01-1.38-1.57-2,.48-.79,1.01-1.55,1.51-2.33.25,1.6.28,3.02.06,4.33Zm-.88-9.66c-.15.05-.3.11-.42.16-1,.35-1.96.82-2.93,1.25-.07-.12-.15-.23-.19-.35-.12-.19-.22-.43-.33-.68,1.12-.55,2.24-1.1,3.37-1.59.18.39.34.8.49,1.2Zm22.08-11.21c-.67-2.17-2.44-3.78-4.53-4.47,1-.24,2.01-.45,3.05-.47,1.95-.06,4.25.64,5.18,2.52.79,1.98-.04,4.17-.82,6.04-1.04,2.15-2.58,4.19-4.48,5.75,1.73-2.76,2.58-6.24,1.59-9.38ZM10.34,48.13c-1.28-1.47-.31-3.33.31-4.87.67-2.67-3.61-4.11-3.56-7-.04-1.31.69-2.48,1.44-3.51,1.66-2.29,4.24-3.59,6.92-4.31,5.23-1.27,9.58,1.76,12.54,5.76-.68-.31-1.5-.5-2.02-.67-3.48-.85-7.06-1.25-10.64-1.26.07-.76-.89-1.01-1.2-.31-.12.03-.23.1-.3.21-.1.15-.13.33-.16.5-.12,1.1-.08,2.4.63,3.3.31.33.9.21,1.02-.24.23-.82.11-1.68.15-2.52,3.12.03,6.21.33,9.29,1.01.54.13,1.09.24,1.63.4-2.78-.33-5.69-.28-8.4.51-.17-.24-.55-.24-.74-.03-.05.06-.09.12-.11.19-.13.07-.23.2-.24.36.04,1.17.03,2.65,1,3.46.45.28.94-.13.87-.62-.03-.86-.36-1.63-.35-2.51,3.4-.82,7.17-.92,10.53.28-1.06.46-2.12.97-3.17,1.49-.13-.11-.28-.19-.48-.2-.25,0-.46.15-.56.37-.05.12-.07.25-.07.38-.34.17-.68.34-1.01.5-.42-.89-2.47-4-3.38-2.25-.13.88.62,1.59,1.14,2.21.51.56,1.92,2.55,2.4,1,.38-.18.76-.36,1.14-.54,0,0,0,0,0,.01.29.53.57,1.11,1.03,1.5.03.02.06.04.1.05-1.28.44-2.56.89-3.87,1.25-.27-.51-.54-1.18-1.09-1.42-.3-.04-.65.13-.75.43-.36,1.02,1.6,4.1,2.14,1.9,2.77-.79,5.38-1.88,8.21-2.53.06.01.11.01.17,0-3.16,1.4-6.33,3.1-9.54,4.47-.05,0-.09,0-.14,0-.14.03-.27.13-.33.26-.08.03-.16.08-.22.14-.33.45.09,1.02.24,1.47.27.56.69,1.57,1.46,1.32.72-.48.19-1.94-.1-2.58,2.49-1.01,4.84-2.32,7.3-3.41-2.14,2.04-4.23,4.15-6.19,6.33-.27.25-.11.61.1.84.16.36.49.65.65,1.03.42.7.83,1.71,1.73,1.89.42.03.71-.42.58-.79-.34-1.13-1.28-1.89-2.03-2.75,2.04-2.04,4.01-4.15,6.1-6.13-.68,1.12-1.58,2.13-2.05,3.33,0,.14.04.27.11.38-.34.57.39,1.12.65,1.6.4.51.68,1.21,1.31,1.47.05.02.1.03.15.04-.57,1.64-1.62,3.14-3.28,4.66-.36-.27-.84-.51-1.29-.31-.1-.03-.21-.04-.31-.01-.2.05-.36.24-.38.44-.04.39.26.72.49,1.01.51.72,1.08,1.65,1.96,1.92.38.07.73-.23.76-.6.05-.62-.47-1.08-.74-1.59,2.94-2.59,4.75-6.07,4.19-10.06-.02-.23-.04-.47-.07-.72.69,3.27.93,6.79.17,10.1-.97,4.29-5.16,8.23-9.77,7.03-2.74-.61-4.01-3.27-5.13-5.6-.42-1.3-1.13-2.47-2.15-3.39-1.38-1.56-3.51-2.42-4.81-4.07Zm33.94,20.14c1.92-.47,3.81-1.45,5.1-2.97,1.94-2.51,1.53-5.99-.09-8.55-.95-1.57-2.32-3.09-2.14-5.05.16-2.54,1.55-4.75,2.49-7.06.36-.78.51-1.7.29-2.51.1.05.19.1.29.16,1.26.78,2.75,1.53,3.38,2.96,1.35,3.92-4.19,3.81-1.49,8.26,2.55,4.48,4.62,9.56-.27,13.35-2.25,1.66-5.26,2.16-7.97,1.49.14-.03.28-.05.42-.08Zm25.92-17.23c1.44-3.11,1.37-6.9-.06-10.01.9.88,1.68,1.89,2.31,3.01,1.79,3.18-.68,5.64-2.72,7.95.17-.32.33-.63.47-.95ZM22.22-6.69c2.13-2.69,4.7-5.34,7.81-6.91,6.16-2.68,8.89-.45,14.72.82,8.71.83,16.89,2.07,20.83,11.04,1.42,3.51,2.41,7.27,2.46,11.13.05.92-.06,1.84-.17,2.75-.44-.6-.92-1.16-1.48-1.66-2.46-2.23-5.43-4.14-8.84-4.24-1.25-.12-2.5.08-3.73-.16-1.73-.37-3.28-1.38-4.58-2.56-1.22-1.07-2.12-2.57-3.26-3.77-1.53-1.48-3.79-2.67-5.96-2.19-2.86.54-4.72,2.86-5.56,5.52-.2-.16-.42-.3-.56-.42-2.79-1.95-6.06-3.11-9.33-3.96-1.62-.42-3.25-.78-4.88-1.01.72-1.51,1.55-3,2.53-4.37ZM-32.49,29.47c.22-.78,1.22.14,1.53.45.96,1.01,1.49,2.36,1.78,3.71-.78-.31-1.57-.61-2.38-.87-.57-1.01-1.08-2.12-.93-3.3Zm-.85,6c.46-.66,1.12-1.11,1.88-1.39.09-.04.16-.11.2-.19.45.16.91.33,1.35.51-.81.5-1.65,1-2.53,1.34-.11.04-.21.11-.27.2-.19-.13-.38-.25-.57-.37-.03-.01-.06-.03-.09-.05,0-.02.01-.03.01-.05Zm-3.75-.45c.53-.26,1.09.23,1.63.41,1.8.93,3.59,2.02,4.89,3.6-1.72-.2-6.6-1.94-6.52-4.02Zm.27,11.62c.25-.74.78-1.3,1.27-1.9,1.44-1.63,3.1-3.05,4.98-4.16-1.32,2.21-3.61,5.45-6.25,6.06Zm7.38-7.62c-.6-.98-1.46-1.78-2.39-2.47,0,0,.02,0,.02-.01.98-.54,2.06-.97,2.91-1.72,2.49,1.08,4.84,2.46,7,4.23-2.47-.25-5-.24-7.55-.02Zm4.25-12.15c-.34-3.82,1.57-7.85,5.14-9.48,2.92-1.4,6.17-.72,9.27-.76,4.16-.24,8.17-2.33,10.84-5.52C3.85,6.14,5.07,1.06,11.8-1.1c2.05-.57,4.44-.63,6.91-.38.12.09.28.12.44.05,4.25.51,8.67,1.94,11.91,3.48,1.07.59,2.13,1.17,3.05,2.01.02.03.05.06.08.08-.13.62-.21,1.25-.23,1.86.06,4.51-.68,7.2-4.99,9.35-.63.32-1.31.42-1.99.49-.7-.74-1.46-1.42-2.3-1.99-5.08-2.89-11.82-2.45-16.71.67-3.04,1.9-5.79,4.59-7.44,7.83-.58,1.1-1.15,2.19-1.9,3.25-1.5,2.28-4.17,3.44-5.62,5.77-.64.97-1.12,2.02-1.53,3.1-.38.12-.79.39-1.1.45-3.14,1.28-6.18,2.8-9.26,4.22-.08.04-.16.07-.24.11-.06-.08-.14-.15-.27-.21-3.9-2.67-5.5-7.64-5.78-12.18Zm-34.77,49.76c1.42-2.32,2.79-4.59,4.55-6.69,5.52-6.66,14.5-9.29,22.88-9.65,1.43,0,3,.09,4.45.25.36.05.82.1,1.23.17-.13.27-.25.54-.36.82-.7,1.71-.86,3.12-.61,4.31-.26.11-.53.2-.81.29-8.8,2.76-17.77,5.33-25.84,9.91-3.96,2.03-7.37,4.88-10.8,7.68,1.91-2.25,3.76-4.57,5.31-7.08Zm30.76-5.85c-4.78,4.98-7.32,9.14-15.02,8.84-3.38.05-6.79-.15-10.13.47-3.57.75-7,2.12-10.28,3.73,2.99-2.5,6.04-4.95,9.46-6.85,8.31-4.84,17.59-7.56,26.72-10.39.14-.07.47-.15.77-.25.3.95.89,1.73,1.66,2.38-1.2.24-2.37,1.32-3.18,2.07Zm-41.89,30.79c5.91-4.5,13.78-5.45,21-4.68,1.87.25,3.75.62,5.61,1,1.74.34,3.99.94,5.6,0-.58,1.26-1.15,2.52-1.7,3.79-4.4,3.11-9.59,4.84-14.79,6.09-4.07,1.17-8.11,2.51-12.08,3.99-6.81,2.63-16.23,8.38-21.14,14.63,4.3-9.22,9.8-18.06,17.51-24.81Zm27.29,7.73c-.83.93-1.76,1.78-2.75,2.54-5.22,4.03-12.19,3.72-18.39,4.88-8.49,1.47-17.01,4.39-23.52,10.2.35-.48.71-.94,1.11-1.37,5.49-5.69,12.23-10.17,19.55-13.15,0,0,0,0-.01,0,4.11-1.57,8.34-2.95,12.58-4.18,4.9-1.19,9.76-2.77,14.01-5.54.05-.06.16-.13.29-.2-.94,2.2-1.84,4.41-2.7,6.64-.06.06-.12.12-.17.17Zm19.33,41.85c-1.3-1.43-2.67-2.79-3.95-4.24-3.6-3.83-6.16-8.49-8.77-13.02-2.29-4.5-3.21-9.58-3.86-14.56-.35-6.19.39-12.76,3.5-18.21-.14,1.45-.24,2.9-.3,4.35-.37,7.85,3.47,14.93,7.05,21.64,2.58,4.61,4.82,9.44,6.2,14.55,0,0,0,0,0-.01,1.2,4.11,1.64,8.39,2.15,12.64-.59-1.1-1.23-2.18-2.03-3.14Zm-7.15-38.39c4.06,4.31,8.43,8.78,10.52,14.46,2.81,8.35.09,18.14-.86,26.79-.11-1.19-.38-2.39-.49-3.57-.22-1.62-.39-3.29-.71-4.91-.75-3.67-1.84-7.28-3.29-10.74-2.84-6.68-6.98-12.75-9.43-19.61-1.27-3.59-1.63-7.45-1.42-11.25.69,3.46,3.16,6.23,5.69,8.83Zm7.73-34.31c-3.03,3.81-6.05,7.66-8.7,11.75-3.8,5.9-7.04,12.12-9.87,18.54,1.61-4.09,3.34-8.13,5.22-12.09,3.39-7.19,7.61-13.97,12.13-20.5,1-1.36,1.95-2.75,2.99-4.08.15-.26.65-.75.9-1.2.99.24,2.01.42,3.04.55-2.06,2.2-3.82,4.67-5.71,7.03Zm11.85,43.79c-.97-3.27-2.76-6.23-5-8.8-1.55-1.82-3.3-3.49-4.67-5.46-2.96-4.54-4.64-11.17-4.05-16.6.58-5.3,2.88-10.3,6.18-14.47,1.16-1.5,2.37-2.85,3.64-4.29.17-.27.58-.59.79-.92.81.05,1.57.07,2.27.09.53,0,1.07.01,1.6.02-.24.65-.48,1.3-.72,1.96-.78,2.32-1.81,4.55-2.35,6.95-.96,4.12-1.31,8.4-1.37,12.64-.02,2.26-.02,4.53.23,6.78.35,3.38,1.31,6.64,2.11,9.93.99,3.91,1.16,7.96,1.34,11.97,0,.08,0,.15,0,.23Zm4.38-50.09c-.95,1.24-1.43,2.75-1.93,4.21-1.13,3.71-1.81,7.65-1.93,11.54-.03,4.6,1.1,9.14,1.58,13.71.46,6.46-.62,12.96-1.67,19.35-.09-2.13-.25-4.28-.44-6.4-.59-5.01-2.53-9.74-2.99-14.78-.46-7.7-.31-15.77,2.47-23.05.62-1.64,1.19-3.3,1.8-4.93,1.13,0,2.25,0,3.38.03-.09.12-.17.23-.26.33Zm7.34-.51c-.87-.16-1.75-.32-2.63-.48-3.04-.5-6.12-.24-9.19-.33-4.59-.25-15.55-.1-14.78-6.89.41-2.81,2.47-5.01,3.19-7.69.45-3.84-5.02-4.05-5.89-7.25-.03-3.05,5.39-6.04,7.74-7.45,3.38-1.62,6.83-3.1,10.2-4.73.89-.42,1.79-.78,2.7-1.14-.16.49-.31.99-.46,1.48-.5,1.86-1.1,3.71-1.38,5.62-.26,4.32.64,9.46,4.55,11.97,2.25,1.14,4.94,1.62,7.43,1.14,1.47-.28,2.91-.73,4.31-1.25-.57.97-1.04,2-1.61,2.96-1.99,3.41-3.56,7.14-4.03,11.09-.11.97-.17,1.95-.18,2.94Zm16.71,19.33c-1.92-.78-3.48-2.32-5.25-3.4-2.19-1.15-4.79-1.63-6.51-3.56-5.13-5.51-4.89-15.68-1.83-22.21,1.04-2.22,2.22-4.42,3.48-6.53.07,2.36.01,4.72.3,7.06.46,2.66,1.18,5.36,2.65,7.66,1.61,2.19,3.76,4.2,6.45,4.91,2.14.72,4.22-.15,6.23-.87,3.7-1.22,5.96-.81,9.13.75-.09.29.18.46.27.71.44,1.25.52,2.63.57,3.95.06,3.88-1.63,7.88-4.76,10.26-3.06,2.19-7.25,2.85-10.74,1.26Zm-8.94-29.62c1.78,1.62,2.34,4.23,3.21,6.41,1.39,2.76,4.29,4.57,7.26,5.23,1.11.28,2.24.31,3.38.28-2.08.71-3.93,1.47-6.19.44-4.93-2.04-7.14-7.28-7.65-12.36Zm39.33,21.04c-.21.49-.46.97-.73,1.44-1.68,3.05-4.33,5.44-7.54,6.8-2.5.88-5.17,1.53-7.84,1.22-.97-.16-2.03-.51-2.98-.86-.15-.02-.32-.1-.51-.18,1.44-.94,2.68-2.2,3.54-3.71,1.87-2.94,2.46-6.54,1.94-9.97-.08-.57-.19-1.16-.38-1.72,4.72,2.15,8.9,5.53,14.04,6.68.16.06.32.1.48.16-.02.05-.04.09-.04.14Zm11.52-9.39c-.18.05-.33.16-.35.4,0,.12.03.25.11.35-.34,1.04-.74,2.05-1.22,3.03-1.69,3.2-5.31,5.85-9.05,4.69-5.43-.98-9.88-4.46-14.79-6.78-1.98-1.02-3.69-1.82-5.47-2.15-.02,0-.03-.02-.05-.02-.44-.12-.87-.27-1.33-.28-2.87-.19-5.85.47-8.67-.35-2.1-.56-3.91-1.8-5.34-3.48-.76-.98-1.05-2.27-1.44-3.43-.62-1.65-1.46-3.29-2.76-4.51-.15-.14-.36-.31-.58-.42-.01-.3-.02-.6-.03-.9,0-1.73-.16-3.47-.06-5.2,1.71-.72,3.4-1.61,4.62-3.04.04,0,.07-.03.11-.04.89.64,1.8,1.25,2.54,2.08,1.04.89,1.59,2.15,2.06,3.41,1.1,2.13,2.27,4.57,4.67,5.45,4.56,1.94,9.52-1.26,11.27-5.56.16.43.34.86.55,1.27,2.15,4.02,4.1,8.68,8.29,10.92.08.07.17.11.27.13.18.09.36.19.55.27,4.44,1.89,10.4.3,12.72-4.09.28-.56.49-1.11.63-1.65.03.01.06.02.09.03.69.26,1.41.46,2.12.64.54.17,1.11.29,1.68.36.07,1.21,0,2.44-.09,3.65-.2,1.76-.55,3.52-1.06,5.24Zm21.62-8.19c-1.94,1.59-4.24,2.77-6.42,3.99-2.43,1.25-5.05,2.09-7.64,2.95-2.09.82-4.29,1.29-6.54,1.23.73-2.51,1.1-5.14,1.11-7.76-.04-.24,0-.63.02-1.02,3.2.1,6.45-1.31,7.73-4.43.57-1.33.31-2.81.56-4.2.28-1.71,1.72-2.87,2.78-4.15.83-.81,1.57-1.81,2.02-2.89,2.85-.56,5.64-1.69,7.76-3.7.17.34.37.67.5,1.03.97,2.05,1.65,4.24,1.97,6.5.41,3.65.1,7.64-2.07,10.74-.34.4-.71.76-1.09,1.12m41.45-15.39c-9.34.77-18.82-.07-28.05-1.67-4.03-.61-7.89-1.94-11.69-3.43,1.27-1.55,1.93-3.53,1.96-5.54,0-1.78.1-3.54.44-5.29.53-2.98,1.14-6.03,1.07-9.07,0,0,0,0,.01,0,8.78,5.68,18.51,9.88,28.38,13.27,4.87,1.63,9.88,2.71,14.89,3.78,4.54.81,9.09,1.96,13.7,2.33.07,0,.23,0,.43.01-6.66,3.02-13.87,4.86-21.14,5.6Zm27.56-9c-1.77,1.09-3.61,2.07-5.49,2.96-.58-.02-1.16-.03-1.75-.08-4.56-.45-9.06-1.54-13.57-2.36-6.7-1.39-13.35-3.04-19.73-5.58-6.55-2.41-12.84-5.46-18.94-8.82-1.31-.67-2.58-1.43-3.77-2.29-.06-.05-.14-.11-.23-.17,0,0,0,0,.01-.01.94-.28,1.89-.53,2.84-.78,4.91-1.27,9.87-2.36,14.84-3.38,2.4-.48,4.82-.91,7.23-1.33.04.03.08.05.15.05,3.72,2.22,7.6,4.16,11.62,5.78,5.78,2.59,11.73,4.77,17.89,6.28,5.96,1.55,12.03,3.01,18.22,2.97-2.93,2.48-6.04,4.76-9.31,6.78Zm16.68-13.86c-2.13,2.33-4.41,4.53-6.81,6.59-.48.03-.96,0-1.44,0-6.94-.1-13.71-2.02-20.38-3.79-7.44-2.06-14.53-5.22-21.51-8.5-1.45-.78-2.89-1.62-4.33-2.43,9.31-1.6,18.69-2.79,28.1-3.55.4.33,1.2.7,1.4.87,1.67,1.07,3.39,2.08,5.21,2.89,6.77,3.16,14.07,5.25,21.55,5.65-.57.78-1.16,1.54-1.79,2.27Zm2.13-2.72c-.29,0-.58-.02-.86-.04-9.51-.72-18.84-3.86-26.86-8.98.98-.08,1.95-.16,2.93-.22,6.97-.5,13.98-.42,20.94.24,2.67.23,5.34.52,8.02.24.49-.1,1.14,0,1.53-.35,0,0,0,0,0,0,.02.01.04.02.06.04-1.96,2.99-3.68,6.17-5.76,9.08Z"/><path class="cls-5" d="m452.8-26.55c-.53-.41-1,.35-1.41.61-2.67,1.87-5.89,2.73-9.08,3.18-8.14,1.4-16.48-.21-24.3-2.57.03,0,.06.02.09.03-.15-.04-.28-.09-.45-.14,0,0,.02,0,.03,0-5.4-1.71-11.26-3.35-16.78-1.32,1.84-1.86,3.66-3.75,5.45-5.66,3.35-3.68,6.58-7.45,9.78-11.26.35-.14.77-.24,1.16-.28,1.64-.14,3.17.45,4.68,1.03,1.61.51,3.29.88,4.96,1.13,11.07,1.57,21.92-4.49,26.37-14.75,3.35-7.28,5.49-15.04,7.91-22.65.45-1.37.89-2.75,1.35-4.12.38-.93.72-1.88.96-2.85.11-.28-.02-.61-.32-.68-.47-.11-.59.35-.68.7-1.15,3.9-2.95,7.55-5.76,10.53-3.41,4.04-7.83,7.18-12.69,9.29-5.9,2.25-11.96,4.24-17.17,7.9,1.98-2.92,3.82-5.92,5.39-9.08.17-.34,1.03-2.22,1.51-3.75.17-.11.33-.29.46-.43.74-.73,1.47-1.5,2.18-2.26,2.92-2.91,5.84-5.91,7.88-9.53,4.13-6.67,3.62-13.43,2.09-20.81-.63-3.08-1.72-6.03-2.93-8.94.06-.29-.64-1.71-.67-1.56-1.14-2.64-2.35-5.26-3.39-7.92-.95-2.22-1.89-4.44-2.76-6.69-.51-1.13-.78-2.4-1.39-3.47-.37-.39-.91.02-.91.48-.48,3.32-1.2,6.6-2.24,9.8-1.87,6.38-5.33,12.47-5.52,19.24.03,4.89,2.64,9.23,4.19,13.74,1.27,4.01,2.54,8.12,2.78,12.35,0,1.14-.08,2.38-.21,3.57,0,.21-.06.45-.12.7,0,.02-.03.05-.03.07-.32,1.3-.7,2.56-1.23,3.8-1.95,4.25-4.49,8.24-7.2,12.09,0-.43,0-.81.04-1.02.53-4.65.05-9.34-1.29-13.82-1.14-5.06-3.16-9.81-5.04-14.62-1.16-3.22-2.04-6.65-2.46-10.06-.28-2.29-.43-4.6-.88-6.87-.14-.47-.1-1.12-.55-1.41-.47-.25-.78.25-.9.64-.38.92-.75,1.85-1.11,2.78-1.13,3.06-1.8,6.26-2.36,9.46-.4,2.17-.81,4.36-.98,6.56-.69,6.6.55,13.29,2.61,19.56,1.3,3.9,3.15,7.59,4.23,11.57.37,2.43.63,5.02.03,7.44-.2.67-.54,1.41-.88,2.04-.06.1-.08.2-.07.3-5.66,6.81-11.82,13.21-18.43,19.1,1.35-1.86,2.52-3.86,3.55-5.9,1.76-3.38,2.63-7.1,3.41-10.81.38-1.71.64-3.54.71-5.3.18-2.51-.18-5-.47-7.49-.32-2.54-.57-5.11-1.21-7.6-.43-1.8-1-3.52-1.59-5.28-.48-1.57-1.21-3.09-1.52-4.74-.26-1.42-.32-2.8-.41-4.25-.06-.92-.98-.81-1.3-.17-1,1.62-1.97,3.25-2.99,4.86-8.41,13.29-13.01,19.59-7.31,35.55,1.09,3.44,2.7,6.79,3,10.43.36,3.74-1.83,7.17-4.66,9.4-.03.03-.05.07-.07.1-5.47,3.93-11.26,7.4-17.31,10.39-2.43,1.25-4.81,2.6-7.28,3.76-.31.24-1.28.43-1.73.77-.21-.12-.41-.23-.62-.35,1.25-.57,2.5-1.14,3.74-1.74,5.89-2.7,11.15-7,14.24-12.76,2.26-4.24,3.04-9.19,3.06-13.96-.09-2.8-.96-5.5-1.87-8.12-1.38-4.09-2.11-8.4-1.15-12.67.03-.42.25-.9.02-1.3-.14-.2-.43-.27-.64-.15-.71.66-1.13,1.56-1.72,2.34-3.83,5.86-7.87,11.7-10.22,18.36-1.24,3.87-2.04,7.88-3.56,11.66-1.63,3.85-4.07,7.4-6.78,10.57-1.07,1.15-2.16,2.38-3.62,3.06-.2.13-.46.14-.62.32-1.62-.82-3.2-1.71-4.68-2.79,1.41-.66,2.4-2.12,3.25-3.39.13-.23.25-.46.37-.69.09.04.18.06.28.05,1.4-.35,2.86-.75,4.1-1.5,1.31-.68,1.69-2.56-.12-2.77-1.24.11-2.23,1.02-3.15,1.86.89-2.18,1.48-4.46,1.86-6.79.02-.05.03-.1.02-.15,0-.04.01-.09.02-.13,1.9-.51,3.54-1.99,4.52-3.67.66-1.07.05-2.36-1.3-1.94-1.36.49-2.11,1.77-2.9,2.94.24-2.67.25-5.37.16-8.02,1.27-.51,2.24-1.65,3.12-2.67,3.45-5-1.3-5.93-3.26-.42-.15-2.95-.3-5.9-.31-8.85,1.35-.58,2.34-1.8,3.3-2.86,1.02-1.06.72-2.62-.96-2.4-1.01.29-1.73,1.07-2.29,1.96.08-1.97.24-3.93.53-5.88.45-.12.86-.43,1.28-.62,1.08-.59,2.32-1.14,2.89-2.3.68-.94.06-2.48-1.21-2.18-.93.18-1.64.78-2.26,1.48.52-1.94,1.26-3.82,2.21-5.59.35.11.78.07,1.12.09,1.15,0,2.58-.08,3.33-1.11.24-.36.23-.88-.09-1.18-.86-.71-1.94-.44-2.96-.12.63-.93,1.32-1.82,2.08-2.66.17-.01.33-.11.4-.27.35,0,.55-.36.78-.58.62-.74,1.36-1.41,1.85-2.25.81-1.08.31-3.46-1.3-3.29-1.66.63-1.88,2.93-2.18,4.46-.05.37-.05.73-.05,1.1-.04.02-.07.04-.11.08-.79.96-1.6,1.91-2.32,2.93.11-1.5.12-3.07-.68-4.38-.27-.43-.9-.57-1.28-.22-.32.29-.33.78-.34,1.18,0,.98.17,4.64.98,5.61-1.24,2.27-2.07,4.69-2.62,7.19-.29-.96-.59-1.92-.97-2.84-.26-.59-.53-1.38-1.22-1.59-1.69-.22-.83,2.3-.61,3.2.09.56,1.36,3.45,2.3,3.98-.3,2.09-.45,4.2-.51,6.32-.74-1.47-2.23-4.07-3.53-2.94-.52,1.01.85,3.14,1.42,4.04.55.77,1.27,1.5,2.06,2.02,0,.27,0,.53,0,.8.05,2.23.18,4.46.29,6.7-.7-1.57-1.7-3.48-2.7-3.4-.73.27-.48,1.17-.32,1.74.35,1.23.68,2.49,1.33,3.61.51.86,1.17,1.61,1.81,2.37.01.06.04.12.07.17.07,2.35.05,4.7-.14,7.04-.41-1.17-.84-2.33-1.43-3.42-.35-.73-1.58-1.44-2.09-.5-.27.8.01,1.7.19,2.5.42,1.49,1.07,2.94,2.13,4.09.24.27.49.55.76.8-.03.16-.05.32-.08.48-.21,1.43-.63,3.2-1.25,4.96,0-1.51-.08-3.13-1.14-4.02-.83-.53-1.58.5-1.68,1.26-.25,1.92.64,3.74,1.79,5.22-.87,1.75-1.96,3.3-3.31,4.24,1.26-3.31,1.85-6.89,1.21-10.38-.53-2.8-2.37-5.02-4.41-6.91-1.63-1.81-2.37-4.33-4.08-6.09-2.32-2.7-5.94-4.02-9.45-3.83-.24-.35-.78-.66-.99-.96-1.69-1.76-3.83-3.11-6.26-3.61-5.42-1.65-11.43-.35-15.68,3.42-.15.15-.35.28-.46.47-3.39-2.46-7.56-1.97-11.03.57-.99.8-1.9,1.69-2.76,2.63-.6-.28-1.21-.54-1.83-.77-1.74-.74-3.63-.85-5.49-1.03-2.91-.3-5.85-.61-8.78-.36-2.31.26-4.77.36-7.05.99-.12-.31-.25-.62-.38-.92-1.71-3.85-4.11-7.35-6.48-10.82-8.35-12.11-19.25-22.43-31.74-30.2-4.09-2.45-8.48-4.57-13.24-5.27-1.88-.39-2.07.75-2.63,2.18-3.85,10.18-6.48,21.07-5.39,32.02.06.83.64,5.2,1.54,7.25-6.63-.77-13.37-.58-19.91.75-4.37.94-8.72,2.1-12.91,3.68-.17.07-.7.27-1.01.4-1.13.45-2.24.91-3.34,1.43-4.11,2.03-7.75,4.89-11.58,7.39-.93.94.77,2.19,1.23,3.06,1.79,2.42,3.49,4.9,5.14,7.42,3.31,5.06,6.51,10.22,10.37,14.89,2.58,3.07,5.37,5.96,8.31,8.68,3.25,3.06,6.83,5.75,10.67,8.01-.24.21-.46.45-.64.57-2.24,1.87-3.71,4.43-4.79,7.11-1.16,2.67-1.96,5.6-3.99,7.81-.42.39-.86,1.13-.22,1.53.98.43,2.04.68,3.04,1.08,3.35,1.24,6.48,2.81,9.78,4.28,13.37,6.7,29.38,9.47,42.7,1.14,4.1-2.64,8.34-5.54,10.99-9.73-.25,2.03-.31,4.09-.17,6.11.5,5.35,3.88,9.91,8.16,12.96,2.83,2.07,6.13,3.41,8.76,5.76,3.4,3.36,6.7,5.32,11.61,5.28,5.47-.39,10.69-2.91,14.81-6.48,3.97,2.32,8.29,3.53,13.12,1.86,4.97-1.6,8.49-6.39,13.87-7.01,2.6-.36,5.31-.21,7.75.87,1.72.78,3.32,1.82,5.14,2.4,4.94,1.89,10.74-.87,12.68-5.73,1.54-3.55,2.32-7.81,1.41-11.64,1.01,1.81,2.25,3.48,3.64,5.03,0,.04.01.07.03.11-.43,1.71-.61,3.55,0,5.24.44,1.54,2.18,2.79,3.11.86.4-.83.51-1.74.49-2.66,1.29,1.1,2.64,2.13,4.02,3.11-.08.46-.05.94-.11,1.4-.05,1.21-.22,2.61.61,3.61.33.49.94.88,1.5.49,1.16-.75.83-2.39.44-3.49-.08-.12-.14-.3-.21-.49.26.17.52.34.79.51,1.3.82,2.62,1.63,3.94,2.43,0,1.74.41,3.67,1.65,4.95.44.48,1.38.69,1.84.1.7-1.05.11-2.28-.45-3.29,1.41.79,2.84,1.55,4.28,2.27.07,1.19-.05,2.45.41,3.58.32.85,1.28,2.07,2.05.89.49-1.06.25-2.25-.13-3.36.99.45,1.98.9,2.99,1.31.03,0,.06,0,.09,0,.12.49.91.72,1.27,1.03.97.59,2.35,1.27,3.37.45.37-.33.38-.9.1-1.3-.82-1.21-2.52-1.61-3.89-1.3-.21.06-.47.11-.66.21-.03-.01-.05-.03-.08-.03-1.23-.48-2.44-1.03-3.64-1.62,1.02-.17,2.16-.38,2.89-1.17.69-1.13-1.05-1.47-1.84-1.25-.55.09-2.33.77-2.86,1.51-.26-.13-.52-.26-.77-.4-1.53-.84-3.09-1.69-4.64-2.57,1.2-.15,2.38-.42,3.37-1.16.42-.28.6-1,.16-1.34-.58-.33-1.34-.21-1.98-.17-.49-.05-2.76.74-3.57,1.51-1.69-.99-3.37-2.01-4.99-3.1,1.56.06,3.16-.1,4.62-.59.19-.1.4-.3.42-.53.25-1.49-3.69-1.22-4.62-1.07-.4.09-1.86.37-2.32.86-1.37-.99-2.69-2.04-3.93-3.16.79-.05,1.55-.28,2.23-.7.88,1.24,2.13,2.86,3.34,1.84,1.31-1.94-.88-4.69-2.74-6.41,3.11.84,6.36,1.43,9.68,1.77.87,1.71,4.12,6.05,5.96,4.96.55-.43.52-1.25.33-1.86-.42-1.36-1.52-2.2-2.75-2.82,2.54.15,5.11.17,7.68.09,1.27,1.35,4.68,4.74,6.57,3.52.59-.45.6-1.29.29-1.9-.5-1-1.41-1.53-2.44-1.86,2.42-.18,4.82-.44,7.18-.77,1.15.98,5.46,3.65,6.73,2.52.96-1.44-.73-2.61-2.4-3.22,3.26-.58,6.39-1.28,9.32-2.06.1.05.22.07.34.05.56-.12,1.12-.24,1.69-.37,1.28-.36,2.95-.62,3.65-1.89.36-1.89-3.06-1.4-3.99-.71-.39.26-1.75,1.26-2.07,2.02-2.6.66-5.19,1.34-7.82,1.86-.98.18-1.96.33-2.95.47,1.02-.85,2.28-1.71,2.63-3.03-.1-1.8-2.9.19-3.56.77-.85.74-1.54,1.66-2.06,2.65-.52.06-1.05.13-1.57.19-2.42.29-4.89.52-7.39.66,1.03-.68,2.04-1.39,2.91-2.27.46-.43.84-1.29.22-1.75-1.5-.64-3.17.61-4.14,1.7-.65.71-1.01,1.59-1.4,2.44-2.91.1-5.85.06-8.77-.15,1.76-.81,3.79-1.53,4.84-3.19.2-.35.2-.82-.14-1.08-.95-.56-2.09.11-3,.47-1.69.85-3.12,2.1-4.37,3.52-.01,0-.02.02-.03.03-3.34-.37-6.63-.99-9.81-1.94,2.67-.46,5.4-1.26,7.61-2.85.54-.4.94-1.18.26-1.65-1.65-1.02-4.57.27-6.21.98-1.51.71-2.88,1.71-4.24,2.68,0,0,0,0,0,0-2.47-.89-4.87-1.99-7.15-3.35-.05-.03-.11-.07-.18-.11,3.85-.08,7.82-.58,11.11-2.61,1.95-1.21,1.58-3.66.5-5.34-.66-1.14-1.57-2.12-1.92-3.42-.25-.85.06-1.78.76-2.33.83-.73,1.72-1.39,2.59-2.08.13.14.32.25.47.34,1.03.66,2.1,1.25,3.21,1.81,8.12,3.86,18.24,5.44,26.67,1.66,2.85-1.27,5.41-3.08,7.98-4.83,3.31-2.17,6.91-3.91,10.55-5.45.24-.1.59-.2.7-.45.12-.29-.07-.66-.4-.68-1.64.16-3.19.4-4.88.43-4.45.07-8.98-.08-13.2-1.7-8.37-3.35-11.85-6.79-21-2.28-2.24.82-4.56,2.43-7.03,1.86-.15-.2-.36-.22-.54-.15-.54-.73-1.22-1.43-1.98-2.08.03-.02.06-.04.08-.05,1.45-.79,2.9-1.6,4.33-2.44,5.92-3.47,11.66-7.28,17.07-11.5,1.34-1.06,2.65-2.15,3.95-3.26.11.18.31.31.55.22.22-.12.47-.11.72-.11,2.35.21,4.06,2.18,5.99,3.36,7.25,5.18,16.77,8.71,25.66,6.22,7.01-2.32,13.57-5.98,19.45-10.45,3.89-2.69,7.24-6.04,10.93-8.96.3-.19.5-.62.2-.9Zm-17.75-104.3c2.12,5.61,4.57,11.09,6.89,16.61,1.9,4.21,3.45,8.56,4.06,13.17.76,4.7,1,9.74-1.06,14.17l.02-.06c-2.14,5.34-6.35,9.41-10.31,13.47.14-.53.26-1.07.39-1.6,1.66-6.6.45-13.36-.3-19.99-.32-3.81-.31-7.65.1-11.45.78-7.34,2.02-14.81.67-22.15-.13-.66-.28-1.33-.52-1.97.01-.07.02-.13.03-.2Zm-1.83,46.18c-.69-2.61-1.4-5.13-2.46-7.65-1.65-4.06-3.73-8.28-3.12-12.79.59-4.59,2.46-8.88,4.02-13.19,1.31-3.66,2.48-7.38,3.17-11.21,1.75,7.52.32,15.36-.44,22.94-.39,3.65-.44,7.37-.15,11.03.55,6.06,1.87,12.13.76,18.22-.18,1.02-.37,2.04-.62,3.04.36-3.5-.22-7.01-1.16-10.38Zm25.95,8.71c-1.27,4.12-2.52,8.24-4.01,12.28-1.69,4.44-3.34,9.01-6.45,12.7-6.37,7.63-16.74,10.22-26.13,7.28-1.68-.61-3.49-1.34-5.3-1.2,1.78-1.26,3.57-2.52,5.48-3.56,2.82-1.39,5.88-2.23,8.81-3.39,6.22-2.27,12.14-5.5,16.98-10.06,4.22-4.07,8.09-8.72,10.62-14.04Zm-34.61,20.84c.24-.34.49-.67.73-1.01.06-.01.12-.04.18-.08,1.94-1.46,3.99-2.78,6.14-3.97,4.05-2.23,8.52-3.53,12.79-5.26,5.84-2.48,10.91-6.54,14.74-11.58-.45,1.01-.93,2.01-1.45,2.98-2.28,3.87-5.11,7.41-8.25,10.61-3.79,3.8-8.31,6.87-13.18,9.13-4.49,2.11-9.31,3.34-13.8,5.45-1.48.82-2.9,1.76-4.3,2.74.25-.3.51-.61.77-.91,2.16-2.41,3.74-5.25,5.56-7.92.04-.06.07-.12.08-.19Zm-9.27-39.74c.45,2.79,1.17,5.53,2.12,8.2.96,2.86,2.3,5.61,3.28,8.47,1.09,3.24,1.95,6.68,2.75,10.03.91,4.05.6,8.22.24,12.34-.01.06-.02.11-.04.17-.02.06-.02.12,0,.18-.55.76-1.1,1.51-1.65,2.26-1.39,1.89-2.81,3.76-4.27,5.59,1.07-2.49,1.41-5.25,1.91-7.9.39-2.08.52-4.21.28-6.32-.33-3.42-.92-6.88-1.98-10.17-.9-3.17-2.15-6.24-2.87-9.46-.79-3.49-1-7.04-1.3-10.59,0-3.48.38-6.94.59-10.42.43,2.53.54,5.09.96,7.62Zm2.1,44.29c.08-5.46-2.91-10.27-4.56-15.34-2.7-7.78-3.65-16.21-1.96-24.3.05-.29.11-.59.16-.89,0,0,0,.01,0,.02.63-3.68,1.41-7.35,2.77-10.84-.17,2.23-.23,4.49-.43,6.71-.24,2.2-.04,4.39.21,6.57.22,2.54.48,5.13,1.1,7.63,1.04,4.23,2.75,8.27,3.73,12.52.63,3.07,1.16,6.21,1.15,9.35-.08,2.42-.59,4.84-1.07,7.21-.32,1.42-.62,2.86-1.21,4.2.15-.93.18-1.88.12-2.83Zm-65.14,34.31c.26-.14.56-.32.86-.24.14.05.23.2.15.34-.72,1.06-2.15,1.28-3.27,1.71.69-.69,1.42-1.3,2.26-1.81Zm8.42-57.87c.53.21.68,1.15.41,1.62-.43.91-1.23,1.57-1.86,2.35.07-1.02.34-2.03.7-2.98.18-.36.35-.8.75-.99Zm-4.78,9.33c.05,0,.1,0,.15-.02.41-.16.82-.26,1.25-.38.51-.12,1.12-.34,1.63-.06-.76.81-2.09.7-3.15.65.04-.07.08-.13.12-.2Zm-1.41-5.32c.56,1.25.45,2.64.36,3.98-.22-1.31-.44-2.64-.36-3.98Zm-4.86,9.73c.74,1.36,1.11,2.89,1.58,4.36-.89-1.31-1.41-2.78-1.58-4.36Zm2.95,4.46c.21-.26.36-.58.59-.82.29-.37.61-.74.95-1.09.34-.45,2.11-1.5,1.66-.21-.61,1.28-2.06,1.77-3.25,2.41.02-.1.03-.19.05-.29Zm-4.37,5.73c1.14,1.03,1.81,2.53,2.42,3.93-1.18-1.03-1.95-2.45-2.42-3.93Zm3.58,3.81c0-.08,0-.15,0-.23.34-.3.41-.92.73-1.31.47-.66,1.26-1.98,2.21-1.65.01.05,0,.1,0,.15,0,0-.02.05-.03.11,0,.03-.02.05-.03.08-.76,1.11-1.76,2.1-2.87,2.86Zm-.99,11.25c-.9-1.12-1.38-2.68-1.76-4.09.93,1.44,1.64,3.02,2.19,4.65-.15-.18-.29-.37-.44-.55Zm1.42.5c.16-.03.3-.14.36-.3.37-.92.63-1.83,1.12-2.72.74-1.28,2.74-2.84,1.58-.07-.65,1.35-1.8,2.4-3,3.28-.02-.06-.04-.13-.06-.19Zm-3.73,5.38c.53.35.7,1.04.97,1.59.51,1.35,1.1,2.68,1.44,4.08,0,0,0,0,0,0-1.43-1.52-2.32-3.59-2.42-5.67Zm5.89,2.43c.33-.29.71-.64,1.19-.6.05.15.02.31-.05.45-.71,1.37-1.97,2.48-3.37,3.14.76-.99,1.35-2.1,2.23-2.99Zm-6.6,6.67c.81,1.16.6,2.76.66,4.11-.65-1.07-1.45-2.97-.66-4.11Zm37.86,75.48c-1.01.42-2.02-.51-2.86-.98,1-.19,2.3.06,2.86.98Zm-5.72-4.86c-.6.36-1.3.46-1.97.57.59-.32,1.26-.62,1.97-.57Zm-2.58,2.2c.43,1.05.86,2.23.59,3.35-.78-.97-.65-2.22-.71-3.41.04.02.08.04.12.06Zm-5.6-.93c.25,1.55-.78.52-1.11-.19-.44-.9-.66-1.88-.74-2.88.18.11.36.21.55.32,0,.02,0,.04.02.06.43.91,1.03,1.71,1.29,2.69Zm1.71-5.37c-1,.59-2.09.78-3.26.86.97-.6,2.12-.91,3.26-.86Zm-9.86-.13c.16.63.47,1.61-.14,2.1-1.06-1.04-.68-2.66-.58-4.05.04.03.09.06.13.09-.2.51.52,1.36.59,1.87Zm3.76-3.63c-.4.07-.8.12-1.2.17-.94.14-1.79.2-2.77.09,1.25-.46,2.63-.44,3.98-.26Zm44.38-12.59c-1.01.92-2.5,1.08-3.8,1.41.94-1.07,2.37-1.81,3.8-1.41Zm-16.31,4.91c.25.15.68.16.95.22.99.33,2.84.71,3.03,1.93-.47.12-.97-.18-1.42-.3-1.17-.45-2.27-1.03-3.31-1.73.25-.04.5-.08.75-.12Zm1.84-3.65c-.89,1.02-1.89,1.92-3.06,2.62.77-1.13,1.81-2.07,3.06-2.62Zm-12.26,5.42c1.11.24,2.92.76,2.84,2.17-.79.96-3.71-1.61-4.82-2.68h.06c.32.39,1.5.32,1.93.51Zm1.36-4.8c-.93,1.2-2.34,2.02-3.6,2.86.69-1.39,1.96-2.76,3.6-2.86Zm-12.5,5.22c1.05.53,2.27,1.56,2.11,2.85-.38.57-2.66-1.72-2.94-2.12-.52-1.38.18-1.05.82-.72Zm2.8-5.52c-1.25,1.5-3.28,2.16-5.05,2.97,1.41-1.35,3.07-2.66,5.05-2.97Zm22.76-56.75c1.14-.51,2.33-.9,3.55-1.19,6.41-1.54,12.65,1.6,18.78,3.07,8.34,2.13,17.32,2.96,25.63.32-.51.3-1.03.57-1.58.8-7.34,2.94-15.32,4.27-23.22,3.99,0,0,.01,0,.02,0-4.39-.25-8.82-.72-13.19-1.33-4.95-.92-10.04-1.46-15.05-.68-.07.03-.2.05-.35.07,1.76-1.62,3.48-3.27,5.18-4.96.08-.03.16-.06.23-.08Zm-.51-46.09c.6,1.84,1.29,3.64,1.87,5.49,1.71,4.97,2.15,10.27,2.67,15.47.25,5.04-.99,10.06-2.44,14.86-2.22,5.79-5.58,11.48-10.65,15.18.72-1.27,1.41-2.54,2.05-3.85,3.55-7.01,2.94-15.04,2.42-22.64-.47-5.26-.53-10.58.3-15.82,0,0,0,0,0,.01.59-4.24,1.94-8.33,3.21-12.41.09,1.25.23,2.49.56,3.7Zm-9.19,37.96c-1.94-5.6-4.1-11.46-3.67-17.5.85-8.77,7.34-16.58,11.75-24.1-.38,1.13-.63,2.34-1.01,3.46-.47,1.57-.99,3.16-1.36,4.77-.82,3.66-1.3,7.39-1.39,11.15-.15,7.26,1.15,14.49.57,21.76-.31,3.8-1.56,7.46-3.31,10.84.78-3.44-.33-6.97-1.57-10.38Zm-13.99-16.66c-.46,3.38-.03,6.81.96,10.08.67,2.3,1.58,4.53,2.02,6.89.84,5.35-.34,12.09-3.1,16.8-2.7,4.6-6.84,8.22-11.56,10.68-1.67.89-3.33,1.63-5.08,2.43-.27.17-.77.3-1.1.52-.72-.37-1.41-.71-2.03-1.01-.48-.23-.97-.45-1.46-.67.49-.5.97-.99,1.45-1.49,1.66-1.79,3.51-3.41,4.99-5.38,2.56-3.36,4.63-7.13,6.42-10.97.94-2.06,1.87-4.13,2.57-6.28,1.06-3.23,1.52-6.6,2.13-9.92.7-3.97,2.2-7.74,3.67-11.48.03-.07.07-.14.1-.21Zm-24.5,43.9c1.37-.74,2.43-1.92,3.48-3.05,2.55-2.93,4.79-6.24,6.49-9.74,1.91-4.19,2.74-8.79,4.17-13.15,2.23-6.08,5.87-11.57,9.44-16.97-.79,1.98-1.52,4-2.22,6.02-1.51,4.81-1.68,9.92-3.32,14.71-2.73,7.21-6.17,14.52-11.69,20.02-1.24,1.24-2.43,2.52-3.66,3.76-1.03-.47-2.05-.93-3.07-1.41.13-.07.25-.14.37-.19Zm-14.23-27.01c1.43,1.5,2.23,3.54,3.4,5.25,1.52,1.95,3.7,3.45,4.48,5.91,2.43,7.12-1.96,16.31-7.42,21.01-1.86,1.6-3.83,3.13-5.85,4.54.9-2.18,1.92-4.31,2.61-6.57.67-2.62,1.12-5.38.72-8.07-.57-2.66-1.71-5.37-3.87-7.12-1.66-1.54-3.91-1.59-6.04-1.76-3.87-.4-5.77-1.7-8.03-4.43.2-.22.02-.5.04-.76.11-1.32.6-2.62,1.1-3.84,1.53-3.56,4.71-6.53,8.54-7.41,3.69-.74,7.78.36,10.31,3.25Zm-1.55,41.71c.21,1.87.54,3.94,2.09,5.2,3.2,2.13,2.77,5.34,1.55,8.53,0,0,0,0,0,0,0,0,0,0,0-.01-.52,1.46-1.34,2.79-2.09,4.14-.08.25-.31.58-.49.9-.67.72-1.36,1.41-2.14,2.02-1.9,1.65-4.44,1.95-6.72,2.77-1.4.57-2.66,1.41-3.85,2.33-6.87,5.9-17.41,6.83-24.11.13-.89-.87-1.48-1.99-1.94-3.13,0-.01-.01-.03-.02-.04,2.87.44,6.05-.33,7.97-2.6,1.41-1.41,1.78-3.86,3.98-4.34,0,0,.01,0,.02-.01,4.6,1.96,10.69,1.23,13.85-2.73,1.51-2.1.35-4.6-.27-6.8-.12-.47-.27-1.14.14-1.55,1.55-1.37,3.2-3.1,2.43-5.38-.18-.65-.45-1.25-.77-1.84.08-.04.17-.08.24-.12,2.76-1.09,5.88-.69,8.77-.41.32.03.64.07.96.12.28.92.25,1.89.39,2.84Zm.64-2.62c2.04.52,3.93,1.57,5.42,3.12,2.79,3.09,1.81,7.66.36,11.16-.59,1.37-1.5,2.57-2.47,3.74,1.29-2.84,2.46-6.29.61-9.08-.65-1.12-1.92-1.64-2.62-2.71-1.14-1.87-.86-4.16-1.3-6.23Zm-68.55-1.76c-.86,2.75-1.62,5.54-2.74,8.19-2.26,3.97-2.02,8.88-.23,12.99.17.36.37.71.58,1.04-.94-.48-1.84-1.03-2.57-1.85-1.75-1.77-3.01-4.17-3.79-6.55-.56-2.39-.4-4.86-.16-7.29.55-4.38,3.62-8.29,7.62-10.14.91-.37,1.85-.62,2.78-.76-.82,1.31-1.07,2.9-1.48,4.36Zm-3.27,12.47c.29-2.15,1.63-3.98,2.24-6.05.67-1.87,1.2-3.79,1.8-5.68.46-1.49.67-3.06,1.41-4.45.18-.28.36-.57.61-.78,2.88-.09,5.61,1.03,7.37,3.79.11.14.18.35.26.54-2.2,1.47-4,3.44-4.99,5.74-.9,2.52.88,5.14,3.09,6.29,1.93,1.13,4.2,1.29,6.33,1.8,1.13.3,2.24.74,3.19,1.51,1.6,1.26,2.83,3.02,4.74,3.87,3.84,1.98,7.83-1.49,9.46-4.83.74-1.81,1.5-3.61,2.25-5.42.58,3.88,2.21,7.76,5.34,10.14.36.27.75.52,1.15.74-.78.39-1.46.98-1.88,1.76-1.66,3.5-4.64,5.35-8.55,4.87-.53-.06-1.01-.28-1.51-.45-2.76-.77-5.96.02-8.17,1.81-2.04,1.76-2.55,4.53-4.16,6.62-1.62,2.2-4.41,3.75-7.19,2.92-2.83-.97-3.76-4.08-4.33-6.74-.66-2.34-1.92-4.72-3.86-6.27-.67-.48-1.4-.85-2.14-1.2-.11-.22-.27-.43-.38-.61-1.94-2.87-2.57-6.52-2.1-9.92Zm7.18-33.98c1.12-1.26,2.81-2.02,3.67-3.56.11-.19.22-.37.29-.58,0-.03,0-.06,0-.09.86-1.25,1.3-2.85,2.48-3.86,2.46-1.94,5.25-1.62,7.71-.34.04.16.15.28.37.35.08.02.15,0,.23-.02,1.14.68,2.2,1.56,3.1,2.49-1.81,3-1.28,6.83-1.16,10.36.08,1.89-1.71,1.85-2.93,2.69-4.48,3.14.34,8.66,3.4,11.16-.65-.08-1.31-.11-1.98-.09-.12-.02-.27,0-.42.02-2.54.15-5.14.96-7.4,2.29-.4-1.01-1.85-2.41-2.26-2.73-1.07-.93-2.32-1.5-3.64-1.8-.8-2.17-2.63-3.7-3.83-5.64-.11-.15-.2-.3-.3-.45-.02-.17-.07-.34-.12-.48-.68-3.41.38-7.19,2.8-9.73Zm-3.95,7.74c-.46-1.17-.76-2.41-.88-3.69-.34-3.63,2.93-4.86,5.74-6.14-.28.22-.56.44-.82.67-2.58,2.25-4.08,5.73-4.04,9.16Zm34.87,14.82c-.13.18-.17.4-.2.63-2.08-.56-4.13-1.27-6.17-1.95-3.15-.94-6.2-2.5-8.47-4.89.01-.16-.05-.35-.13-.5-.17-.54-.05-1.13.29-1.58,3.25-3.63,7.82-5.49,6.38-11.34-1.45-6.94,3.57-10.35,9.92-7.98,0,0,0,0,0,0,.06.14.18.24.32.27.36.47.68.98.93,1.53,1.85,3.66,1.62,8.05,1.87,12.07.06.36-.18,1.07-.08,1.53-2.63,3.19-4.51,8.24-4.67,12.19Zm20.71,15.33c-.5,1.21-1.64,1.98-2.75,2.61-2.45,1.41-5.33,1.54-8.08,1.1-5.29-.98-8.02-5.52-9.08-10.39.49.56,1.17,1.07,1.57,1.44,2.83,2.2,5.93,4.03,9.2,5.5-.37.66.4,1.28.97.77.12.02.25,0,.36-.07.15-.1.25-.25.35-.39.56-.96,1.05-2.15.77-3.27-.15-.43-.73-.56-1.03-.2-.54.65-.79,1.49-1.17,2.24-2.83-1.3-5.53-2.85-8.06-4.72-.44-.33-.9-.67-1.33-1.03,2.41,1.44,5.08,2.58,7.87,2.97.06.29.41.45.66.33.07-.03.13-.08.18-.13.15-.01.29-.09.36-.23.45-1.08,1.06-2.43.51-3.57-.29-.44-.91-.26-1.05.21-.32.8-.33,1.64-.71,2.44-3.44-.65-6.92-2.1-9.49-4.56,1.16.02,2.33-.02,3.5-.06.07.15.18.29.35.38.23.1.48.05.67-.11.1-.09.17-.2.22-.32.38-.01.75-.03,1.13-.04.02.99.62,4.66,2.17,3.43.48-.75.09-1.7-.13-2.48-.24-.72-.71-3.11-1.78-1.9-.42,0-.84.02-1.26.03,0,0,0,0,0-.01-.05-.6-.06-1.24-.33-1.79-.02-.03-.04-.06-.06-.09,1.35.13,2.7.24,4.04.44.04.57,0,1.3.41,1.74.26.16.65.14.86-.08.74-.78.22-4.39-1.17-2.61-2.85-.41-5.68-.49-8.52-1.05-.05-.03-.1-.06-.15-.07,3.46.02,7.05-.24,10.53-.17.04.02.08.04.13.05.14.03.3,0,.41-.1.09,0,.18,0,.26-.04.48-.28.33-.97.38-1.44-.02-.62.01-1.71-.79-1.8-.85.14-.97,1.69-.96,2.39-2.69-.1-5.37.14-8.06.13,2.79-.99,5.56-2.06,8.24-3.24.35-.12.35-.51.25-.81,0-.39-.18-.79-.17-1.21-.1-.82-.06-1.9-.8-2.43-.37-.2-.81.09-.85.49-.15,1.17.39,2.25.72,3.34-2.7,1.02-5.36,2.14-8.08,3.1,1.08-.74,2.32-1.3,3.24-2.2.06-.13.07-.26.05-.4.54-.38.1-1.18.07-1.72-.16-.63-.12-1.38-.59-1.88-.04-.04-.08-.07-.12-.09,1.19-1.26,2.77-2.2,4.9-2.91.21.39.56.81,1.04.81.08.07.17.12.28.14.2.04.42-.07.53-.25.2-.34.06-.77-.04-1.12-.17-.86-.31-1.95-1.01-2.55-.32-.22-.76-.09-.94.24-.3.54-.01,1.18.03,1.76-3.74,1.16-6.82,3.6-7.94,7.47-.07.22-.16.45-.24.69.71-3.26,1.93-6.57,3.98-9.28,2.64-3.52,8.08-5.4,11.79-2.41,2.25,1.67,2.33,4.63,2.39,7.21-.15,1.36.02,2.72.58,3.97.62,1.98,2.21,3.65,2.72,5.69.56,1.86-1.08,3.17-2.27,4.31-1.7,2.16,1.61,5.23.38,7.84Zm-45.01-10.02c-.28,2.25.68,4.44,2.3,5.93-1.01-.19-2.02-.41-2.97-.82-1.81-.74-3.62-2.32-3.7-4.42.09-2.13,1.74-3.79,3.22-5.18,1.83-1.53,4.07-2.76,6.44-3.41-2.7,1.81-4.91,4.63-5.29,7.91Zm.95.06c.27-2.53,1.9-4.7,3.75-6.38,1.12-.79,2.37-1.82,3.75-2.07.07.01.15,0,.21-.02,1.18-.02,2.35.12,3.49.46.08.03.16.03.25.01,2.43,1.45,5.23,2.22,7.91,3.12,1.15.33,2.28.75,3.43,1.07.08.02.16.04.24.05-.09,1.13-.23,2.25-.26,3.39,0,.26.02.52.04.78,0,0,0,0,0,0-.79,2.12-1.85,4.14-2.58,6.29-1.13,2.6-3.43,5.36-6.47,5.57-3.71-.08-5.31-4.16-8.52-5.39-.16-.07-.32-.13-.49-.19-.05-.04-.11-.08-.19-.1-2.85-.77-4.95-3.63-4.56-6.61ZM305.96.25c.06.84.36,1.67.61,2.47-.76.53-1.55,1-2.33,1.51.43-1.56.98-2.87,1.72-3.98Zm-3.15,9.17c.16.02.32.02.45.02,1.06.09,2.12.05,3.18.06.02.14.04.27.03.39.03.23.02.49.02.75-1.25.04-2.49.08-3.73.07,0-.43.02-.87.04-1.3Zm-.56-33.2c-1.94-.36-4.07-.24-5.87.62-2.8,1.5-3.84,4.84-3.42,7.84.22,1.82.85,3.77-.11,5.49-1.19,2.25-3.36,3.7-5.16,5.42-.64.57-1.16,1.35-1.29,2.17-.07-.09-.13-.17-.2-.26-.83-1.23-1.88-2.52-1.87-4.08.37-4.13,5.38-1.76,4.75-6.93-.49-5.13-.31-10.61,5.71-12.07,2.73-.59,5.68.18,7.88,1.91-.14-.03-.28-.07-.42-.1Zm30.78,21.4c-.96-2.21-.4-4.82-.3-7.16-.13-3.09-2.05-5.92-4.48-7.74-.9-.71-1.92-1.2-2.97-1.64,2.19.2,4.18.27,5.83,2.13,3.66,3.88,3.54,9.57,1.92,14.41Zm-27.28-35.3c.39-.36.82-.7,1.25-1.02,2.78-2.1,6.18-3.19,9.67-3.12,2.64.22,5.34.72,7.65,2.1.82.54,1.64,1.3,2.36,2,.13.08.26.22.39.37-1.7.27-3.34.91-4.75,1.94-2.91,1.92-4.92,4.96-5.85,8.3-.16.55-.3,1.13-.36,1.72-3.42-3.9-5.86-8.69-10.08-11.84-.12-.12-.25-.23-.38-.34.04-.03.07-.07.1-.11Zm-14.35,3.85c.19.03.36-.01.48-.22.06-.11.07-.24.04-.36.74-.81,1.52-1.57,2.36-2.27,2.85-2.23,7.24-3.16,10.18-.58,4.55,3.11,7.19,8.11,10.72,12.24,1.39,1.74,2.62,3.17,4.11,4.2.01.01.02.03.04.04.35.29.68.61,1.1.8,2.54,1.34,5.53,1.97,7.77,3.87,1.69,1.37,2.83,3.25,3.45,5.36.29,1.21.02,2.5-.09,3.72-.11,1.76-.02,3.6.67,5.24.08.18.2.43.36.62-.11.28-.22.56-.34.83-.71,1.58-1.27,3.23-2.08,4.77-1.86-.04-3.76.08-5.46.88-.04,0-.08,0-.11,0-.55-.95-1.13-1.88-1.46-2.93-.58-1.23-.57-2.61-.48-3.95-.14-2.39-.2-5.1-2.02-6.88-3.37-3.64-9.21-2.74-12.56.46.03-.46.04-.92.02-1.39-.31-4.55-.19-9.6-3.09-13.36-.04-.09-.11-.17-.2-.23-.13-.16-.25-.32-.4-.47-3.28-3.54-9.36-4.53-13.28-1.47-.48.39-.9.81-1.25,1.25-.02-.02-.05-.05-.07-.07-.52-.52-1.1-.99-1.68-1.45-.43-.38-.9-.72-1.39-1.02.43-1.13,1-2.22,1.57-3.29.91-1.52,1.94-2.99,3.11-4.34Zm-23.94-1.11c.13.19.38.27.59.17.18-.08.28-.26.28-.44,2.42-.66,5-.79,7.49-1.01,2.73-.15,5.47.16,8.18.44,2.25.11,4.44.58,6.47,1.55-1.7,1.99-3.11,4.24-4.19,6.63-.06.23-.26.57-.43.93-2.88-1.4-6.42-1.45-8.87.88-1.06.98-1.43,2.44-2.23,3.6-.95,1.44-2.74,1.91-4.23,2.65-1.09.4-2.17,1.01-3.03,1.81-2.83-.66-5.84-.77-8.59.2-.02-.38-.06-.77-.03-1.14-.05-2.27.23-4.55.86-6.74,1.12-3.5,3.03-7.01,6.28-8.96.47-.22.96-.41,1.46-.57Zm-2.01-4.34c.59,1.08,1.13,2.26,1.62,3.43-.82.29-1.6.67-2.33,1.16-3.44,2.48-5.46,6.59-6.34,10.66-.34,1.64-.51,3.31-.49,4.99.05.26,0,.71-.01,1.14-.01-.01-.02-.02-.03-.03-.37-.4-.75-.79-1.13-1.18.81-2.55,1.38-5.17,1.97-7.78.85-3.88,1.31-7.83,1.42-11.8.08-3.05.32-6.17-.18-9.2,1.96,2.78,3.86,5.62,5.52,8.59Zm-6.34-9.76c.05.07.1.15.16.22.64,2.74.47,5.59.45,8.38-.14,3.33-.25,6.7-.83,9.99-.64,3.67-1.46,7.38-2.54,10.96-3.3-3.25-7.07-5.97-10.99-8.44-.03-.04-.05-.09-.07-.13-.02-.04-.04-.07-.06-.11.53-1.01.62-2.25.81-3.38.34-2.56.51-5.14.66-7.71.38-6.25.26-12.54-.59-18.75-.24-2.29-.43-4.6-.96-6.84,5.17,4.78,9.87,10.07,13.97,15.8Zm-23.62-23.73c3.14,2.29,6.15,4.74,9.02,7.36,0,0,0,.01,0,.02.72,2.66.88,5.45,1.2,8.18.92,6.81.84,13.68.34,20.54-.24,2.67-.33,5.42-1.11,8-1.13-2.09-2.31-4.21-3.49-6.28-2.38-4.32-4.76-8.66-7.23-12.93-1.13-1.95-2.17-3.95-3.2-5.96,0-.04,0-.08,0-.13.57-3.69.98-7.45.77-11.2-.13-3.65-.34-7.32-1.06-10.91,1.63,1.06,3.21,2.18,4.76,3.31Zm-19.09-9.56c4.97.88,9.51,3.16,13.75,5.88,1.11,5.58,1.37,11.35,1.07,17.02-.08,1.61-.38,3.19-.6,4.79-.76-1.51-1.51-3.02-2.28-4.52-2.43-4.65-5-9.21-7.56-13.78,0,0,.01.02.02.03-1.5-2.84-3.09-5.68-4.86-8.38-.15-.16-.39-.77-.64-1.13.35-.06.75.08,1.1.1Zm-2.29,2.29c.27-.7.48-1.39.81-2.05.94,1.65,2.04,3.21,2.97,4.87,1.49,2.73,3.02,5.46,4.53,8.18-1.82-.4-3.5-1.35-5.11-2.28-1.75-1.09-3.65-2.07-4.92-3.74.53-1.68,1.11-3.34,1.71-4.98Zm-4.69,17.56c.58-4.07,1.57-8.09,2.8-12.03.89,1.13,2.22,1.98,3.43,2.72,2.22,1.34,4.49,2.83,7.08,3.3,1.95,3.5,3.88,7.01,5.72,10.57.96,2.03,1.98,4.02,3.04,6-.28,0-.56,0-.83-.05-3.76-.73-7.18-2.54-10.61-4.2-2.21-1.01-4.33-2.22-6.41-3.48-1.43-.9-2.95-1.63-4.2-2.8,0-.01-.02-.02-.02-.03Zm-.56,6.65c.05-2.04.21-4.07.48-6.08,1.06.94,2.34,1.62,3.54,2.35,2.3,1.42,4.64,2.76,7.1,3.89,3.71,1.7,7.62,4.06,11.77,4.22,2.45,4.56,5.08,9.03,7.56,13.58.08.15.17.31.25.46-3.78-.44-7.45-1.6-11.08-2.75-6.75-2.18-13.01-5.54-19.1-9.13-.12-.05-.23-.17-.34-.24-.19-2.09-.22-4.19-.18-6.3Zm.24,6.91c5.08,3.01,10.26,5.89,15.8,7.97,4.75,1.78,9.66,3.38,14.7,4.02.09.01.15-.02.19-.07,1.57,2.86,3.2,5.68,4.75,8.56-.19-.12-.38-.23-.57-.35-7.73-4.66-15.83-8.96-24.61-11.27-2.81-.74-5.67-1.31-8.56-1.69-.13-.23-.21-.46-.33-.75-.73-2.09-1.15-4.24-1.37-6.42Zm14.24,11.06c8.84,3.12,17.15,7.77,24.91,13.01,3.43,2.21,6.4,4.99,9.26,7.91-1.8.9-3.2,2.44-4.05,4.25-.73,1.62-1.54,3.19-2.57,4.65-1.7,2.51-3.51,5.03-4.69,7.83,0,0,0,0-.01,0-5.69-8.77-12.84-16.59-20.47-23.72-3.77-3.48-7.9-6.52-12.03-9.54-3.81-2.6-7.49-5.51-11.55-7.73-.06-.02-.21-.09-.38-.19,7.31-.03,14.64,1.24,21.58,3.54Zm21.63,50.33c-.47.57-1.04,1.05-1.6,1.53-1.87,1.47-4.07,2.29-6.25,3.27-5.68,2.18-11.87,3.51-18,3.12-5.56-.55-11-2.07-16.11-4.35,8.27-1.12,16.28-3.65,24.1-6.51,3.86-1.51,7.58-3.32,11.3-5.15,2.48-1.26,5.08-2.4,7.4-3.92.04,0,.08.01.13.02-.29.76-.53,1.55-.7,2.36-.68,3.13-.64,6.36,0,9.48-.1.03-.19.07-.26.15Zm.49.87c.1.39.2.78.32,1.17-.59.58-1.25,1.14-1.89,1.67-.99.8-2.04,1.53-3.11,2.22-.46-.26-1.64-.41-2.68-.47,2.86-1.16,5.57-2.66,7.36-4.59Zm-50.94-54.27c2.06-.26,4.14-.41,6.22-.45.52.25,1.05.51,1.56.79,3.98,2.28,7.64,5.11,11.42,7.71,5.55,4.01,10.94,8.24,15.72,13.16,4.99,4.88,9.48,10.23,13.67,15.8.92,1.15,1.77,2.36,2.51,3.64.04.07.09.16.14.25,0,0-.01,0-.02,0-.97-.13-1.94-.29-2.91-.45-5-.85-9.97-1.89-14.92-2.99-2.39-.55-4.77-1.14-7.15-1.74-.02-.04-.06-.08-.11-.11-2.49-3.55-5.23-6.9-8.23-10.03-4.21-4.73-8.76-9.15-13.75-13.05-4.8-3.85-9.74-7.67-15.41-10.16,3.69-1.06,7.46-1.87,11.27-2.37Zm-20.89,5.81c2.9-1.25,5.88-2.33,8.91-3.23.45.17.88.4,1.32.59,6.29,2.93,11.68,7.45,17.04,11.8,5.95,4.92,11.12,10.71,16.14,16.56,1,1.31,1.97,2.66,2.95,3.99-9.14-2.35-18.19-5.1-27.09-8.26-.22-.46-.81-1.13-.92-1.36-1.09-1.67-2.24-3.29-3.57-4.77-4.89-5.65-10.69-10.55-17.35-13.98.84-.48,1.69-.93,2.57-1.34Zm-11.99,7.6s-.03-.04-.04-.06c3.01-1.93,5.88-4.12,8.97-5.93.26.13.52.25.77.39,8.38,4.55,15.61,11.23,20.83,19.19-.92-.33-1.84-.66-2.76-1-6.57-2.4-12.93-5.33-19.01-8.79-2.34-1.3-4.66-2.66-7.22-3.5-.49-.11-1.04-.46-1.54-.31,0,0,0,0,0,0Zm.34.46c3.71.96,6.93,3.15,10.29,4.91,3.3,1.77,6.63,3.51,10.1,4.93,3.29,1.34,6.61,2.6,9.95,3.82-.21.11-.44.19-.65.29-5.5,2.32-11.4,3.5-17.3,4.27-4.21-6.02-7.99-12.34-12.4-18.23Zm14.8,21.57c-.72-.96-1.42-1.93-2.1-2.9,6.16-.83,12.39-2.07,18.06-4.68.06-.03.11-.07.14-.13,8.76,3.16,17.67,5.9,26.7,8.21-2.87,1.65-5.93,3.04-8.87,4.58-7.09,3.13-14.51,5.67-22.1,7.26-4.33-3.72-8.29-7.84-11.82-12.34Zm13.64,13.86c-.47-.38-.92-.77-1.38-1.15,7.17-1.45,14.14-3.91,20.87-6.74,1.86-.79,3.61-1.8,5.41-2.72,1.65-.83,3.37-1.57,4.91-2.58,8.22,2.08,16.53,3.81,24.9,5.16-4.84,2.71-9.87,5.08-14.91,7.38-3.89,1.75-7.97,3.06-12.04,4.31-5,1.62-10.1,2.85-15.32,3.54-.13.05-.4.06-.66.1-4.2-1.95-8.17-4.42-11.78-7.3Zm7.05,6.01s.05-.03.08-.05c3.6,2.03,7.4,3.7,11.35,4.95,6.92,2.27,14.36,2.84,21.45,1.04,1.98-.46,4.3-1.1,6.59-1.94,1-.02,2,.05,2.97.27.11.01.22.05.33.1-2.33,1.45-4.79,2.69-7.27,3.84-4.46,1.87-9.1,3.24-13.82,4.29-.57-.4-1.18-.79-1.79-1.15-2.83-1.8-6.09-2.76-9.21-3.92-4.61-1.56-9.33-2.92-14.13-3.75.86-1.35,1.94-2.6,3.44-3.67Zm-3.7,4.08s.09,0,.13.02c4.64.89,9.22,2.1,13.69,3.64,3.34,1.21,6.8,2.24,9.8,4.18.39.22.76.46,1.13.71-3.3.72-6.63,1.29-9.96,1.76-1.86.29-3.72.54-5.59.74-3.69-2.31-7.92-3.73-12.21-4.38.97-2.24,1.75-4.56,3.01-6.67Zm-3.2,7.11c3.23.49,6.45,1.41,9.4,2.81.75.39,1.47.78,2.19,1.21-2.66.26-5.32.41-7.99.41-2.05.03-4.18.02-6.26-.05,1.15-1.34,1.96-2.83,2.66-4.37Zm-1.83,4.86c1.8.05,3.61.06,5.4.04,2.91.02,5.82-.17,8.71-.48-.73,1.89-1.81,3.68-3.43,4.95-3.51-1.63-7.02-3.26-10.68-4.51Zm19.03,8.14c-2.65-1.01-5.24-2.19-7.83-3.39,1.04-.89,2.46-2.9,2.6-3.31.35-.62.55-1.29.84-1.94,2.88-.32,5.74-.75,8.6-1.21,2.35-.39,4.72-.84,7.08-1.36.01,0,.02.02.04.02-.37,1.1-.8,2.17-1.34,3.2-1.91,3.22-3.94,6.51-6.79,8.99-1.08-.31-2.14-.64-3.19-1.01Zm3.79,1.18c.41-.35.77-.8,1.15-1.16,2.07-2.26,3.76-4.84,5.31-7.48.67-1.18,1.16-2.45,1.6-3.73.02-.05.01-.09,0-.13,7.45-1.68,14.83-4.15,21.17-8.28-.1.85-.39,1.67-.74,2.47-2.92,7.07-7.88,13.15-13.14,18.64-.48.48-.97,1-1.52,1.41-4.64.17-9.34-.5-13.83-1.73Zm41.16-12.71c-.43.69-.91,1.35-1.42,1.98-3.99,4.35-9.03,7.78-14.47,10.08-3.42,1.41-7.02,2.14-10.67,2.35.58-.52,1.11-1.08,1.64-1.65,4.5-4.67,8.6-9.89,11.56-15.69.37-.78,2.11-4.34,1.89-5.48,1.63-1.1,3.19-2.31,4.66-3.65.93,2.93,2.36,5.72,4.19,8.16.81,1.24,1.68,2.71,2.95,3.53-.15.06-.28.19-.33.35Zm-2.09-4.81c-4.13-5.62-6.08-13.17-4.26-20.02,1-3.68,3.36-6.81,5.45-9.94,1.64-2.13,2.23-4.86,4.05-6.85,2.27-2.24,5.73-2.98,8.84-2.66.67.13,1.34.24,2.01.35-.53.7-.9,1.52-1.02,2.45-.21,2.87.81,5.77,2.41,8.12,1.08,1.84,2.74,3.28,3.67,5.18-.49-.05-.98-.07-1.47-.05-.08-.03-.18-.02-.27.02-1.66.09-3.33.54-4.8,1.24-3.71,2-6.66,5.62-7.44,9.82-.26,2.09-.49,4.3-.28,6.42-.13.17-.22.39-.34.57-1.75,2.76-2.87,5.89-3.46,9.12-1.38-.89-2.2-2.42-3.1-3.76Zm41.07,31.4c-3.04,1.58-6.48,2.95-9.96,3.11-6.72-.08-8.3-3.23-13.1-6.77-7.61-4.32-14.56-8.8-14.49-18.6.14-3.79.77-7.62,2.31-11.16.33-.86.81-1.65,1.29-2.44.15.72.37,1.44.67,2.12,1.33,3.04,3.26,6,6.33,7.48,1.09.62,2.31.95,3.34,1.67,1.43,1.05,2.43,2.61,3.13,4.21.68,1.48.89,3.21,1.43,4.77.79,1.98,2.36,3.99,4.54,4.44,2.83.68,5.48-.68,7.33-2.76.12.22.26.44.34.61,1.75,2.93,4.25,5.32,6.89,7.44,1.31,1.04,2.65,2.04,4.04,2.92-1.28,1.09-2.64,2.1-4.09,2.95Zm64.72-10.61c-.52.62-1.05-.63-1.21-1.04-.46-1.31-.4-2.76-.1-4.12.58.61,1.19,1.2,1.81,1.76.1,1.15.12,2.38-.5,3.39Zm3.23-5.13c-.69.41-1.48.56-2.29.5-.1,0-.19.04-.26.09-.35-.33-.69-.67-1.03-1.02.94-.12,1.91-.24,2.85-.19.12.01.23-.01.33-.07.12.19.24.38.37.57.02.02.04.05.06.08-.01.01-.02.02-.03.04Zm3.24,1.94c-.59.02-.9-.65-1.32-1.04-1.26-1.58-2.45-3.31-2.98-5.29,1.49.89,5.23,4.48,4.3,6.33Zm4.51-10.71c-.53.58-1.24.87-1.93,1.21-1.98.9-4.08,1.52-6.25,1.76,2.11-1.47,5.52-3.5,8.18-2.97Zm-9.85,3.93c.14,1.14.6,2.22,1.17,3.23,0,0-.02,0-.03,0-1.12.09-2.28.04-3.36.38-1.83-2-3.41-4.23-4.66-6.72,2.16,1.24,4.46,2.27,6.88,3.11Zm-8.85,9.35c-1.25,3.63-4.64,6.52-8.58,6.55-3.24.08-5.92-1.87-8.77-3.1-3.89-1.48-8.41-1.22-12.15.6-5.49,2.97-8.68,7.11-15.7,6.33-2.1-.32-4.31-1.24-6.46-2.49-.07-.13-.21-.22-.38-.22-3.67-2.2-7.11-5.32-9.45-8.05-.74-.98-1.47-1.94-1.96-3.08,0-.04-.02-.07-.04-.11.37-.51.7-1.05.97-1.6,1.79-4.14,3.57-6.29,8.38-6.49.71-.04,1.36.16,2.02.37.33.96.75,1.9,1.29,2.76,3.46,4.72,9.79,7.07,15.52,6.23,3.55-.49,7.16-1.82,10-4.1.98-.76,1.95-1.53,3.06-2.19,2.3-1.46,5.22-1.43,7.49-2.97.98-.62,1.85-1.38,2.66-2.21.39.04.88-.03,1.19.04,3.39.12,6.79-.02,10.17-.07.09,0,.18,0,.27,0,.02.1.07.2.16.3,2.47,4.03,1.9,9.22.29,13.48Zm52.09-31.17c-2.24,1.53-4.42,3.05-6.89,4.24-7.76,3.82-17.03,2.54-24.83-.57-1.3-.59-2.7-1.31-3.96-2.05-.31-.19-.7-.43-1.05-.66.23-.2.45-.39.66-.6,1.34-1.27,2.06-2.5,2.32-3.68.28.01.57.04.85.07,9.16,1.08,18.39,2.41,27.63,1.54,4.44-.23,8.72-1.43,12.99-2.58-2.66,1.27-5.3,2.63-7.74,4.29Zm-30.46-7.25c6.4-2.58,10.42-5.34,17.33-1.91,3.1,1.34,6.14,2.91,9.44,3.72,3.57.77,7.26.94,10.91.8-3.75,1.05-7.54,2.04-11.43,2.38-9.56,1.01-19.14-.31-28.64-1.45-.15,0-.49-.06-.81-.09.11-.99-.1-1.94-.54-2.85,1.19.27,2.7-.23,3.75-.59Zm-4.89,5.3c-1.53,2.39-4.3,3.56-6.06,5.71-1.98,3.32,2.92,5.75,2.4,9.02-1.22,2.79-7.39,3.3-10.12,3.63-3.74.09-7.5.04-11.24.14-.98.02-1.96-.02-2.93-.07.35-.38.69-.77,1.03-1.16,1.22-1.49,2.52-2.94,3.56-4.57,2.01-3.83,3.29-8.9.75-12.78-1.58-1.96-3.85-3.5-6.31-4.08-1.46-.35-2.95-.53-4.45-.62.92-.65,1.76-1.39,2.69-2.04,3.22-2.3,6.17-5.06,8.21-8.47.49-.84.95-1.71,1.36-2.61.73.51,1.47,1.01,2.2,1.51,2.57,1.7,5.49,2.72,8.25,4.06,4.08,2.11,14.14,6.45,10.66,12.34Zm22.81-25.61c-6.04,5.17-12.66,9.63-19.46,13.73-1.47.83-2.91,1.71-4.4,2.5-.24.17-.9.42-1.32.73-.8-.62-1.67-1.2-2.55-1.74,2.79-1.17,5.4-2.7,8.09-4.08,4.33-2.24,8.65-4.51,12.75-7.17,5.88-3.83,11.39-8.18,16.59-12.87-3.14,3.07-6.38,6.05-9.71,8.9Zm32.9,9.36c-7.23,1.68-14.8-.67-21.08-4.33-1.6-.99-3.17-2.1-4.71-3.2-1.45-1.02-3.26-2.49-5.11-2.29,1.04-.91,2.08-1.82,3.1-2.76,5.29-1.03,10.73-.49,15.99.5,4.2.6,8.43,1.03,12.66,1.31,7.29.39,18.23-1,25.28-4.69-7.7,6.66-16.33,12.47-26.13,15.47Z"/><path class="cls-5" d="m34.63,156.19c.58.33.94-.49,1.32-.8,2.38-2.22,5.46-3.52,8.56-4.4,7.86-2.52,16.35-2.07,24.42-.81-.03,0-.06,0-.09-.02.15.02.29.05.46.07,0,0-.02,0-.03,0,5.58.95,11.61,1.76,16.81-1.01-1.57,2.1-3.11,4.22-4.62,6.36-2.81,4.1-5.48,8.29-8.13,12.5-.33.19-.73.34-1.11.44-1.61.36-3.2-.01-4.78-.37-1.67-.28-3.38-.41-5.06-.43-11.18-.03-21.09,7.48-24.08,18.26-2.31,7.67-3.36,15.65-4.7,23.53-.25,1.42-.5,2.84-.77,4.27-.25.97-.45,1.96-.56,2.96-.07.29.11.6.41.63.48.04.54-.42.58-.78.6-4.02,1.88-7.88,4.25-11.23,2.82-4.47,6.77-8.19,11.28-10.96,5.53-3.05,11.26-5.85,15.91-10.2-1.55,3.16-2.96,6.39-4.08,9.74-.12.36-.72,2.34-.97,3.92-.16.13-.29.33-.39.49-.63.82-1.25,1.69-1.85,2.54-2.49,3.28-4.96,6.66-6.49,10.53-3.16,7.18-1.73,13.8.81,20.9,1.05,2.97,2.54,5.74,4.14,8.44-.02.3.87,1.6.88,1.46,1.5,2.46,3.06,4.88,4.45,7.37,1.25,2.07,2.49,4.13,3.66,6.24.66,1.05,1.1,2.27,1.86,3.24.43.34.9-.15.83-.6.02-3.36.27-6.71.86-10.01.97-6.58,3.55-13.09,2.8-19.82-.7-4.84-3.89-8.78-6.05-13.03-1.82-3.79-3.64-7.69-4.46-11.85-.17-1.13-.25-2.37-.29-3.56-.03-.21,0-.45.02-.71,0-.03.02-.05.02-.08.14-1.33.34-2.64.7-3.93,1.35-4.48,3.31-8.79,5.46-12.97.06.42.11.8.11,1.02.11,4.68,1.24,9.25,3.19,13.51,1.83,4.85,4.48,9.28,7.01,13.78,1.59,3.03,2.94,6.3,3.83,9.62.59,2.23,1.06,4.5,1.82,6.69.2.44.25,1.1.74,1.32.49.18.74-.36.8-.76.25-.96.49-1.93.71-2.9.7-3.19.91-6.45,1.03-9.7.1-2.2.19-4.43.06-6.64-.23-6.63-2.38-13.09-5.29-19.01-1.83-3.68-4.17-7.08-5.79-10.87-.7-2.36-1.32-4.89-1.06-7.36.1-.69.34-1.48.59-2.14.05-.11.05-.21.03-.31,4.66-7.53,9.88-14.72,15.61-21.47-1.08,2.03-1.96,4.17-2.7,6.34-1.27,3.59-1.62,7.4-1.88,11.17-.14,1.74-.14,3.59.03,5.35.17,2.51.87,4.93,1.51,7.36.67,2.48,1.27,4.98,2.25,7.36.67,1.72,1.48,3.35,2.31,5.01.69,1.49,1.63,2.9,2.16,4.48.45,1.37.71,2.73.99,4.15.18.91,1.08.67,1.31-.01.77-1.74,1.51-3.49,2.29-5.22,6.49-14.33,10.18-21.2,2.32-36.22-1.55-3.26-3.62-6.35-4.41-9.91-.88-3.65.82-7.35,3.32-9.95.03-.04.04-.07.05-.11,4.87-4.65,10.13-8.88,15.71-12.69,2.24-1.57,4.4-3.24,6.69-4.73.28-.28,1.2-.6,1.61-1,.22.09.44.17.66.26-1.16.74-2.32,1.47-3.46,2.24-5.45,3.49-10.07,8.47-12.33,14.61-1.65,4.51-1.74,9.52-1.1,14.25.47,2.76,1.71,5.31,2.97,7.78,1.93,3.86,3.25,8.03,2.9,12.39.03.42-.12.93.16,1.29.17.17.47.21.65.06.61-.75.9-1.7,1.38-2.56,2.98-6.34,6.18-12.68,7.58-19.6.69-4.01.93-8.09,1.92-12.04,1.08-4.04,3-7.9,5.25-11.41.9-1.28,1.81-2.65,3.16-3.53.18-.15.44-.2.57-.4,1.72.58,3.41,1.25,5.02,2.12-1.31.85-2.08,2.43-2.75,3.81-.1.24-.18.49-.27.73-.09-.03-.19-.03-.28,0-1.34.54-2.72,1.14-3.86,2.05-1.2.86-1.32,2.77.5,2.73,1.21-.28,2.07-1.32,2.86-2.28-.58,2.28-.85,4.62-.9,6.98,0,.05-.01.1,0,.15,0,.04,0,.09,0,.13-1.81.77-3.23,2.46-3.97,4.26-.51,1.15.27,2.34,1.55,1.74,1.28-.67,1.85-2.05,2.46-3.31.13,2.67.49,5.35.96,7.96-1.18.68-1.99,1.95-2.72,3.07-2.72,5.43,2.11,5.69,3.29-.04.56,2.9,1.11,5.8,1.53,8.72-1.25.76-2.07,2.1-2.87,3.29-.87,1.19-.35,2.7,1.28,2.25.96-.42,1.57-1.3,1.99-2.26.2,1.96.3,3.92.29,5.9-.43.18-.79.55-1.19.79-.98.74-2.14,1.45-2.54,2.68-.55,1.02.28,2.46,1.5,1.99.9-.31,1.52-1,2.03-1.78-.24,2-.72,3.96-1.41,5.84-.36-.06-.78.04-1.13.07-1.14.16-2.55.43-3.14,1.56-.18.38-.11.9.25,1.15.95.58,1.98.17,2.95-.29-.5,1.01-1.06,1.98-1.69,2.92-.16.04-.31.15-.36.32-.34.05-.49.43-.69.68-.51.82-1.15,1.58-1.52,2.48-.66,1.18.17,3.47,1.74,3.08,1.55-.86,1.46-3.16,1.54-4.72,0-.37-.05-.74-.1-1.1.03-.03.07-.05.1-.09.65-1.06,1.32-2.12,1.89-3.23.1,1.5.31,3.06,1.28,4.25.32.38.97.45,1.3.04.28-.34.22-.81.18-1.21-.13-.97-.81-4.57-1.74-5.42.92-2.42,1.41-4.93,1.6-7.49.42.91.85,1.82,1.36,2.68.33.55.72,1.29,1.42,1.4,1.7-.02.51-2.39.16-3.25-.17-.54-1.82-3.23-2.83-3.63,0-2.11-.14-4.23-.37-6.33.94,1.35,2.77,3.73,3.9,2.42.37-1.07-1.28-2.99-1.96-3.81-.65-.69-1.47-1.31-2.32-1.72-.04-.26-.07-.53-.11-.79-.36-2.2-.79-4.4-1.22-6.59.91,1.46,2.17,3.21,3.14,2.99.69-.37.31-1.23.07-1.77-.51-1.17-1.02-2.38-1.81-3.39-.62-.78-1.38-1.43-2.12-2.1-.02-.06-.06-.11-.1-.16-.39-2.32-.7-4.65-.83-6.99.57,1.1,1.15,2.2,1.89,3.18.45.68,1.77,1.21,2.14.2.15-.83-.25-1.68-.54-2.45-.62-1.42-1.47-2.77-2.68-3.76-.28-.24-.56-.48-.86-.68,0-.16,0-.33.01-.49.01-1.44.18-3.26.55-5.09.2,1.49.51,3.09,1.69,3.83.9.41,1.5-.71,1.49-1.48-.01-1.93-1.15-3.62-2.5-4.92.61-1.85,1.49-3.54,2.69-4.66-.79,3.46-.88,7.08.23,10.45.92,2.7,3.04,4.64,5.32,6.23,1.86,1.57,2.94,3.96,4.88,5.47,2.67,2.35,6.44,3.16,9.89,2.48.29.32.86.55,1.12.81,1.92,1.51,4.22,2.55,6.7,2.71,5.6.88,11.37-1.24,15.05-5.56.13-.17.31-.33.39-.53,3.69,1.97,7.76.9,10.85-2.09.87-.93,1.65-1.94,2.37-2.98.63.19,1.27.37,1.92.51,1.83.49,3.71.34,5.58.26,2.93-.1,5.88-.21,8.74-.86,2.25-.58,4.68-1.02,6.84-1.96.16.29.33.58.5.86,2.23,3.58,5.09,6.71,7.92,9.82,9.95,10.84,22.17,19.55,35.61,25.52,4.39,1.86,9.03,3.35,13.84,3.39,1.92.13,1.95-1.03,2.3-2.52,2.41-10.62,3.51-21.76.91-32.46-.18-.82-1.35-5.06-2.52-6.96,6.67-.15,13.32-1.28,19.62-3.5,4.2-1.53,8.34-3.29,12.27-5.43.16-.09.66-.37.95-.54,1.05-.6,2.1-1.22,3.11-1.87,3.79-2.58,7-5.91,10.44-8.92.79-1.06-1.06-2.06-1.64-2.86-2.11-2.15-4.14-4.37-6.11-6.64-3.98-4.55-7.86-9.22-12.33-13.31-2.98-2.69-6.15-5.15-9.43-7.45-3.64-2.58-7.56-4.75-11.67-6.45.21-.24.4-.51.55-.65,1.96-2.16,3.07-4.9,3.76-7.7.78-2.81,1.17-5.82,2.87-8.29.36-.44.7-1.24.01-1.54-1.03-.29-2.12-.39-3.16-.65-3.49-.77-6.81-1.88-10.27-2.89-14.16-4.79-30.4-5.31-42.45,4.78-3.7,3.18-7.49,6.64-9.54,11.15-.03-2.05-.26-4.09-.68-6.07-1.24-5.23-5.22-9.28-9.88-11.71-3.09-1.66-6.55-2.53-9.47-4.49-3.83-2.86-7.37-4.34-12.23-3.62-5.37,1.14-10.19,4.36-13.77,8.47-4.25-1.75-8.7-2.35-13.25-.02-4.7,2.28-7.53,7.51-12.77,8.86-2.53.72-5.23.94-7.8.21-1.82-.53-3.54-1.35-5.42-1.66-5.15-1.19-10.51,2.34-11.76,7.43-1.03,3.72-1.22,8.05.21,11.72-1.25-1.66-2.71-3.13-4.3-4.48-.01-.03-.02-.07-.04-.1.19-1.75.11-3.6-.73-5.19-.65-1.47-2.54-2.46-3.2-.42-.28.88-.26,1.8-.12,2.71-1.43-.91-2.91-1.75-4.41-2.52.01-.47-.08-.94-.09-1.4-.11-1.21-.15-2.62-1.1-3.49-.39-.44-1.05-.74-1.55-.28-1.04.91-.5,2.48.04,3.52.09.11.18.28.27.46-.28-.13-.57-.27-.85-.4-1.4-.64-2.82-1.26-4.24-1.86-.24-1.72-.91-3.58-2.32-4.67-.5-.42-1.46-.49-1.84.16-.55,1.14.21,2.27.9,3.2-1.51-.59-3.02-1.14-4.56-1.65-.23-1.17-.29-2.43-.9-3.49-.44-.8-1.56-1.87-2.15-.6-.34,1.12.07,2.26.6,3.31-1.04-.31-2.09-.61-3.14-.88-.03,0-.06,0-.09,0-.19-.47-1-.59-1.4-.84-1.04-.45-2.5-.93-3.4.02-.32.38-.26.95.08,1.3.98,1.08,2.71,1.25,4.03.75.2-.09.45-.17.63-.3.03,0,.05.02.08.02,1.28.3,2.56.69,3.83,1.1-.99.31-2.08.68-2.7,1.56-.53,1.21,1.24,1.31,2,.98.54-.17,2.2-1.08,2.62-1.89.27.1.55.19.82.28,1.63.62,3.29,1.25,4.95,1.9-1.17.31-2.3.75-3.18,1.62-.38.34-.46,1.07.03,1.35.62.25,1.35.02,1.99-.11.49-.02,2.63-1.11,3.33-1.99,1.81.74,3.61,1.53,5.37,2.38-1.55.15-3.11.53-4.49,1.23-.17.13-.35.35-.34.58-.05,1.51,3.83.69,4.73.42.38-.14,1.79-.63,2.18-1.17,1.49.79,2.94,1.65,4.33,2.58-.77.16-1.49.49-2.11,1-1.04-1.11-2.51-2.54-3.56-1.36-1.03,2.11,1.52,4.52,3.6,5.97-3.19-.41-6.49-.53-9.84-.42-1.1-1.57-4.91-5.42-6.59-4.09-.49.5-.35,1.31-.07,1.88.6,1.29,1.81,1.97,3.12,2.42-2.54.21-5.09.54-7.62.97-1.44-1.16-5.3-4.05-6.99-2.58-.52.52-.41,1.36-.02,1.92.63.92,1.61,1.32,2.68,1.5-2.37.51-4.71,1.11-7,1.76-1.27-.81-5.91-2.86-7.01-1.57-.75,1.56,1.09,2.48,2.82,2.86-3.14,1.03-6.15,2.16-8.94,3.33-.11-.04-.23-.04-.35,0-.54.19-1.08.4-1.62.6-1.22.54-2.84,1.02-3.36,2.37-.09,1.92,3.23.96,4.05.15.35-.31,1.56-1.49,1.77-2.29,2.48-1.01,4.95-2.05,7.48-2.92.94-.32,1.9-.6,2.86-.87-.89.98-2.02,2.01-2.18,3.36.35,1.76,2.85-.59,3.42-1.25.74-.85,1.29-1.86,1.67-2.91.51-.14,1.02-.27,1.52-.41,2.36-.62,4.77-1.19,7.23-1.68-.92.82-1.83,1.66-2.56,2.66-.4.49-.65,1.4.02,1.77,1.58.43,3.06-1.04,3.87-2.25.54-.79.78-1.71,1.05-2.61,2.87-.5,5.79-.87,8.7-1.07-1.63,1.04-3.54,2.03-4.36,3.83-.15.37-.09.84.29,1.05,1.02.42,2.05-.4,2.91-.88,1.56-1.07,2.8-2.51,3.85-4.09.01-.01.02-.02.03-.04,3.35-.09,6.7.07,9.98.56-2.58.83-5.18,2-7.14,3.88-.48.47-.77,1.3-.02,1.67,1.77.78,4.49-.9,6.02-1.83,1.4-.91,2.62-2.1,3.83-3.24,0,0,0,0,0,0,2.57.54,5.1,1.3,7.54,2.32.06.02.12.05.19.08-3.8.61-7.66,1.65-10.64,4.12-1.76,1.47-1.06,3.85.25,5.36.81,1.04,1.84,1.88,2.38,3.12.37.81.19,1.78-.44,2.41-.72.84-1.52,1.61-2.28,2.42-.15-.12-.35-.2-.52-.27-1.11-.51-2.26-.95-3.43-1.35-8.58-2.7-18.82-2.86-26.64,2.04-2.65,1.65-4.94,3.79-7.24,5.89-2.97,2.61-6.3,4.82-9.7,6.85-.22.13-.56.28-.63.54-.08.3.16.64.49.62,1.6-.39,3.1-.84,4.77-1.1,4.4-.69,8.91-1.17,13.31-.14,8.75,2.16,12.67,5.08,21.11-.64,2.1-1.12,4.18-3.04,6.71-2.81.18.18.39.17.56.07.63.65,1.4,1.25,2.25,1.79-.02.02-.05.04-.07.06-1.33.99-2.65,1.99-3.95,3.01-5.38,4.26-10.54,8.82-15.31,13.75-1.18,1.24-2.32,2.5-3.46,3.78-.13-.17-.35-.26-.57-.15-.2.15-.45.17-.7.21-2.36.12-4.32-1.59-6.4-2.5-7.9-4.12-17.81-6.31-26.27-2.61-6.62,3.27-12.61,7.8-17.82,13.04-3.48,3.2-6.33,6.98-9.59,10.38-.27.23-.41.68-.07.92Zm32,100.85c-2.87-5.26-6.06-10.35-9.12-15.5-2.46-3.91-4.6-8-5.84-12.48-1.4-4.55-2.34-9.5-.91-14.18l-.02.06c1.38-5.59,4.99-10.2,8.34-14.77-.07.55-.11,1.1-.17,1.64-.74,6.77,1.41,13.29,3.06,19.76.85,3.73,1.36,7.53,1.48,11.36.25,7.37.04,14.94,2.4,22.03.22.64.46,1.28.78,1.88,0,.07,0,.14,0,.2Zm-4.58-45.99c1.04,2.49,2.1,4.89,3.5,7.24,2.2,3.79,4.84,7.69,4.86,12.24.05,4.63-1.21,9.13-2.16,13.62-.79,3.8-1.43,7.65-1.59,11.54-2.77-7.21-2.44-15.17-2.74-22.78-.12-3.67-.59-7.35-1.38-10.94-1.39-5.93-3.53-11.76-3.28-17.94.03-1.03.08-2.07.19-3.1.13,3.51,1.19,6.91,2.59,10.12Zm-26.91-5.03c.68-4.25,1.36-8.51,2.28-12.71,1.06-4.63,2.06-9.38,4.63-13.47,5.25-8.44,15.17-12.44,24.87-10.82,1.75.38,3.64.84,5.41.45-1.58,1.5-3.19,2.99-4.94,4.29-2.61,1.77-5.52,3.02-8.26,4.58-5.84,3.11-11.26,7.13-15.42,12.32-3.62,4.62-6.81,9.75-8.57,15.38Zm31.4-25.43c-.19.37-.39.73-.58,1.1-.06.02-.11.05-.17.1-1.72,1.72-3.56,3.3-5.53,4.78-3.7,2.77-7.95,4.67-11.94,6.98-5.44,3.26-9.9,7.99-13,13.51.3-1.06.64-2.12,1.03-3.15,1.72-4.15,4.04-8.04,6.7-11.65,3.22-4.29,7.28-7.95,11.79-10.87,4.15-2.71,8.76-4.6,12.91-7.31,1.35-1.02,2.63-2.15,3.88-3.31-.21.34-.42.67-.63,1.01-1.81,2.69-2.98,5.72-4.41,8.61-.03.06-.05.13-.06.2Zm14.68,38.07c-.83-2.7-1.92-5.32-3.23-7.83-1.35-2.7-3.05-5.24-4.42-7.93-1.53-3.06-2.85-6.35-4.11-9.55-1.46-3.89-1.73-8.06-1.95-12.19,0-.06,0-.11.01-.17,0-.06,0-.12-.02-.18.44-.83.88-1.65,1.32-2.47,1.11-2.07,2.27-4.11,3.46-6.13-.71,2.62-.67,5.4-.8,8.09-.09,2.11.07,4.24.6,6.3.8,3.35,1.86,6.68,3.37,9.8,1.33,3.02,3,5.88,4.15,8.97,1.26,3.34,1.96,6.83,2.76,10.31.48,3.44.58,6.93.86,10.4-.77-2.44-1.24-4.97-2-7.42Zm-8.21-43.57c.67,5.41,4.31,9.77,6.63,14.56,3.75,7.33,5.86,15.55,5.31,23.8-.01.3-.03.6-.04.91,0,0,0-.01,0-.02-.11,3.73-.38,7.48-1.24,11.12-.14-2.23-.4-4.48-.5-6.71-.07-2.21-.57-4.35-1.11-6.48-.57-2.49-1.18-5.02-2.14-7.4-1.61-4.05-3.87-7.81-5.42-11.88-1.05-2.95-2.01-5.99-2.43-9.1-.26-2.4-.08-4.87.06-7.29.12-1.45.22-2.92.61-4.32-.02.94.08,1.89.27,2.82Zm59.76-42.99c-.24.17-.5.4-.82.36-.15-.02-.25-.17-.19-.31.57-1.15,1.95-1.56,3-2.15-.59.78-1.22,1.49-1.99,2.1Zm-.33,58.48c-.56-.13-.84-1.04-.63-1.55.3-.96,1-1.73,1.52-2.58.07,1.02-.06,2.05-.28,3.05-.13.38-.23.85-.61,1.08Zm3.45-9.9c-.05,0-.1.01-.15.04-.38.22-.78.38-1.19.55-.49.19-1.07.49-1.6.28.64-.91,1.98-.98,3.03-1.08-.03.07-.06.14-.09.22Zm2.13,5.07c-.73-1.16-.81-2.55-.91-3.89.4,1.27.8,2.56.91,3.89Zm3.46-10.31c-.92-1.25-1.5-2.71-2.17-4.1,1.06,1.17,1.78,2.56,2.17,4.1Zm-3.54-4.01c-.17.28-.27.63-.47.89-.24.41-.5.82-.79,1.21-.27.5-1.88,1.78-1.62.43.42-1.35,1.79-2.04,2.88-2.83,0,.1,0,.2,0,.29Zm3.54-6.28c-1.27-.87-2.14-2.26-2.94-3.55,1.31.85,2.27,2.16,2.94,3.55Zm-4.07-3.28c.01.08.02.15.03.23-.29.35-.28.97-.54,1.4-.37.72-.97,2.13-1.96,1.94-.02-.05-.01-.1-.01-.15,0,0,0-.05.02-.11,0-.03.01-.05.02-.08.6-1.2,1.45-2.32,2.45-3.23Zm-.57-11.28c1.04.98,1.74,2.46,2.31,3.81-1.12-1.3-2.04-2.77-2.82-4.3.17.16.34.32.51.49Zm-1.48-.3c-.15.05-.27.18-.31.35-.24.97-.37,1.9-.73,2.85-.55,1.37-2.32,3.19-1.56.29.46-1.43,1.45-2.63,2.51-3.67.03.06.06.12.09.18Zm2.95-5.84c-.57-.27-.84-.94-1.18-1.44-.69-1.26-1.46-2.5-1.99-3.84,0,0,0,0,0,0,1.62,1.31,2.79,3.23,3.18,5.28Zm-6.17-1.59c-.29.34-.62.73-1.09.75-.07-.15-.06-.3-.01-.45.52-1.45,1.61-2.73,2.9-3.58-.61,1.08-1.05,2.27-1.8,3.28Zm5.62-7.52c-.96-1.04-.97-2.65-1.23-3.98.79.97,1.84,2.74,1.23,3.98Zm-47.94-69.52c.95-.56,2.07.22,2.97.58-.96.33-2.29.25-2.97-.58Zm6.34,4.02c.54-.44,1.22-.63,1.87-.84-.54.4-1.16.79-1.87.84Zm2.25-2.53c-.58-.98-1.16-2.09-1.05-3.24.9.86.95,2.1,1.17,3.28-.04-.01-.08-.03-.12-.04Zm5.67.15c-.46-1.5.7-.62,1.13.04.56.83.91,1.77,1.13,2.75-.2-.08-.39-.16-.59-.24,0-.02-.01-.04-.02-.05-.55-.84-1.26-1.55-1.65-2.49Zm-.95,5.56c.91-.73,1.96-1.06,3.11-1.3-.88.72-1.97,1.19-3.11,1.3Zm9.78-1.24c-.24-.6-.68-1.53-.16-2.09,1.19.89,1.04,2.54,1.14,3.93-.05-.02-.09-.05-.14-.07.13-.53-.7-1.28-.84-1.77Zm-3.22,4.11c.39-.12.78-.23,1.17-.34.91-.27,1.75-.45,2.73-.48-1.18.63-2.54.8-3.9.81Zm-42.21,18.61c.88-1.05,2.33-1.41,3.57-1.92-.78,1.19-2.09,2.12-3.57,1.92Zm15.48-7.12c-.27-.11-.7-.07-.97-.09-1.02-.19-2.91-.31-3.27-1.49.45-.18.98.04,1.45.1,1.22.28,2.39.71,3.52,1.26-.24.07-.49.15-.73.22Zm-1.32,3.87c.74-1.14,1.61-2.16,2.67-3.02-.6,1.22-1.51,2.3-2.67,3.02Zm11.39-7.07c-1.13-.08-2.99-.35-3.11-1.76.65-1.06,3.89,1.08,5.15,1.98h-.06c-.37-.34-1.53-.1-1.98-.23Zm-.68,4.95c.76-1.31,2.04-2.33,3.17-3.33-.49,1.47-1.56,3-3.17,3.33Zm11.66-6.9c-1.11-.38-2.46-1.23-2.49-2.53.3-.62,2.87,1.34,3.2,1.7.71,1.29-.03,1.07-.71.83Zm-2.01,5.85c1.03-1.66,2.95-2.59,4.59-3.64-1.21,1.53-2.68,3.06-4.59,3.64Zm-14.69,59.36c-1.06.66-2.18,1.22-3.35,1.67-6.14,2.41-12.75.17-19.03-.45-8.56-.96-17.56-.54-25.43,3.23.47-.36.94-.71,1.45-1.01,6.86-3.93,14.58-6.35,22.44-7.17,0,0-.01,0-.02,0,4.39-.36,8.84-.5,13.25-.5,5.03.23,10.14.06,15-1.4.07-.04.19-.08.34-.12-1.52,1.85-2.99,3.72-4.44,5.63-.07.04-.15.08-.21.12Zm6.88,45.58c-.85-1.74-1.78-3.43-2.61-5.18-2.38-4.68-3.55-9.87-4.79-14.95-.94-4.96-.41-10.1.36-15.06,1.39-6.04,3.94-12.14,8.45-16.51-.54,1.35-1.04,2.71-1.5,4.1-2.54,7.43-.84,15.3.73,22.75,1.19,5.15,1.99,10.41,1.89,15.71,0,0,0,0,0-.01,0,4.28-.77,8.52-1.46,12.74-.26-1.22-.57-2.44-1.07-3.58Zm3.85-38.86c2.7,5.28,5.64,10.78,6.06,16.82.37,8.81-4.98,17.44-8.3,25.49.22-1.17.3-2.4.52-3.57.25-1.62.54-3.27.69-4.92.3-3.74.26-7.5-.16-11.23-.86-7.21-3.14-14.19-3.58-21.47-.22-3.81.51-7.6,1.78-11.19-.3,3.51,1.29,6.86,3,10.06Zm16.16,14.57c-.02-3.41-.91-6.75-2.35-9.85-.98-2.18-2.19-4.27-2.96-6.55-1.57-5.18-1.34-12.02.74-17.07,2.04-4.93,5.64-9.09,9.97-12.17,1.53-1.12,3.07-2.08,4.69-3.11.24-.21.72-.4,1.02-.67.76.27,1.49.51,2.15.72.51.16,1.02.31,1.53.46-.41.56-.83,1.12-1.23,1.68-1.4,2.01-3,3.87-4.2,6.01-2.07,3.68-3.6,7.7-4.84,11.75-.65,2.17-1.28,4.34-1.67,6.57-.6,3.34-.59,6.74-.74,10.12-.14,4.03-1.11,7.97-2.05,11.87-.02.07-.05.15-.07.22Zm18.19-46.87c-1.25.93-2.14,2.24-3.03,3.5-2.12,3.25-3.88,6.84-5.08,10.54-1.31,4.41-1.5,9.08-2.31,13.6-1.37,6.33-4.21,12.27-7.01,18.11.51-2.07.95-4.18,1.37-6.27.83-4.98.29-10.06,1.26-15.03,1.71-7.52,4.1-15.23,8.81-21.44,1.06-1.4,2.06-2.83,3.11-4.24,1.08.32,2.16.64,3.23.98-.12.09-.23.17-.34.24Zm17.83,24.79c-1.63-1.29-2.7-3.2-4.09-4.73-1.78-1.72-4.14-2.9-5.25-5.23-3.39-6.72-.32-16.42,4.44-21.83,1.62-1.85,3.36-3.63,5.17-5.3-.59,2.28-1.3,4.53-1.68,6.86-.3,2.68-.36,5.48.41,8.09.93,2.55,2.44,5.08,4.82,6.52,1.86,1.29,4.1,1.04,6.22.91,3.89-.14,5.95.89,8.56,3.27-.17.25.05.5.06.76.08,1.33-.23,2.67-.56,3.95-1.03,3.74-3.76,7.11-7.44,8.52-3.55,1.25-7.76.72-10.66-1.79Zm-4.23-41.53c-.47-1.82-1.08-3.83-2.79-4.86-3.47-1.66-3.48-4.91-2.71-8.23,0,0,0,0,0,0,0,0,0,0,0,.01.32-1.52.94-2.95,1.5-4.39.04-.26.23-.61.36-.96.56-.8,1.15-1.58,1.84-2.29,1.66-1.89,4.12-2.54,6.27-3.68,1.3-.76,2.44-1.77,3.49-2.84,5.99-6.79,16.3-9.17,23.86-3.47,1,.74,1.74,1.76,2.36,2.83,0,.01.02.03.03.04-2.9-.04-5.94,1.16-7.53,3.68-1.21,1.59-1.23,4.07-3.34,4.85,0,0-.01,0-.02.01-4.83-1.31-10.75.26-13.34,4.62-1.2,2.29.29,4.61,1.21,6.7.18.45.43,1.09.07,1.56-1.35,1.57-2.74,3.51-1.67,5.67.26.62.62,1.18,1.01,1.72-.08.05-.15.1-.22.15-2.58,1.46-5.72,1.5-8.63,1.62-.32.02-.65.02-.97.01-.4-.87-.51-1.84-.77-2.76Zm-.27,2.69c-2.09-.24-4.11-1.02-5.8-2.34-3.19-2.67-2.85-7.34-1.9-11.01.39-1.44,1.13-2.76,1.93-4.04-.89,2.99-1.57,6.57.65,9.08.8,1.02,2.13,1.36,2.97,2.32,1.38,1.7,1.43,4,2.15,5.99Zm68.13-7.74c.47-2.84.83-5.71,1.58-8.49,1.69-4.25.77-9.08-1.57-12.9-.22-.34-.46-.65-.72-.95,1,.35,1.96.77,2.8,1.48,1.98,1.51,3.56,3.72,4.65,5.96.88,2.29,1.07,4.76,1.17,7.2.06,4.42-2.44,8.71-6.14,11.09-.85.49-1.74.87-2.65,1.14.63-1.41.66-3.02.86-4.52Zm1.51-12.8c0,2.17-1.06,4.17-1.38,6.3-.4,1.95-.67,3.92-1,5.88-.25,1.54-.24,3.12-.78,4.6-.14.3-.28.61-.5.86-2.84.49-5.7-.25-7.83-2.73-.13-.12-.23-.32-.34-.5,1.98-1.76,3.49-3.96,4.14-6.38.54-2.62-1.59-4.97-3.93-5.81-2.07-.85-4.34-.7-6.52-.91-1.16-.14-2.32-.43-3.36-1.05-1.76-1.03-3.22-2.6-5.23-3.17-4.08-1.43-7.55,2.56-8.7,6.09-.48,1.89-.99,3.78-1.48,5.68-1.11-3.76-3.26-7.38-6.69-9.3-.4-.22-.81-.41-1.24-.58.72-.49,1.31-1.17,1.61-2,1.16-3.69,3.85-5.94,7.8-6,.53-.01,1.04.14,1.56.24,2.84.38,5.9-.84,7.84-2.92,1.78-2.02,1.9-4.84,3.21-7.13,1.3-2.4,3.84-4.33,6.71-3.89,2.93.57,4.28,3.52,5.22,6.07.98,2.23,2.55,4.41,4.69,5.68.73.38,1.5.64,2.28.89.13.2.33.39.46.55,2.31,2.57,3.44,6.1,3.46,9.54Zm-2.41,34.65c-.93,1.4-2.5,2.39-3.14,4.03-.08.2-.17.4-.21.62,0,.03,0,.06,0,.09-.68,1.35-.89,3-1.92,4.17-2.17,2.26-4.97,2.33-7.59,1.4-.06-.15-.19-.26-.42-.3-.08,0-.15.02-.22.05-1.23-.52-2.39-1.24-3.41-2.04,1.37-3.22.32-6.94-.28-10.42-.34-1.86,1.44-2.06,2.53-3.07,4-3.73-1.54-8.53-4.91-10.58.65-.01,1.31-.07,1.97-.19.12,0,.27-.03.42-.08,2.5-.5,4.95-1.67,7.01-3.29.54.94,2.16,2.13,2.62,2.39,1.19.77,2.51,1.16,3.86,1.27,1.1,2.04,3.11,3.3,4.57,5.05.13.13.24.27.36.41.04.16.12.32.19.46,1.14,3.28.61,7.18-1.42,10.02Zm2.84-8.21c.62,1.1,1.09,2.29,1.38,3.54.84,3.55-2.23,5.22-4.83,6.87.25-.26.49-.51.72-.78,2.25-2.59,3.24-6.24,2.74-9.63Zm-36.59-9.85c.11-.19.11-.42.11-.66,2.14.26,4.26.69,6.38,1.08,3.25.49,6.48,1.62,9.07,3.67.01.16.09.34.19.47.24.51.21,1.11-.07,1.6-2.71,4.04-6.99,6.51-4.75,12.11,2.39,6.67-2.1,10.74-8.72,9.28,0,0,0,0,0,0-.08-.13-.21-.21-.36-.23-.42-.42-.81-.88-1.14-1.39-2.34-3.37-2.72-7.74-3.52-11.69-.11-.35.03-1.08-.13-1.53,2.16-3.52,3.32-8.78,2.94-12.72Zm-22.63-12.32c.33-1.27,1.35-2.19,2.36-2.97,2.23-1.74,5.07-2.26,7.85-2.21,5.37.24,8.71,4.36,10.43,9.04-.56-.49-1.3-.9-1.76-1.2-3.11-1.79-6.43-3.17-9.87-4.18.28-.71-.57-1.22-1.06-.63-.12,0-.25.03-.35.12-.14.12-.22.28-.29.44-.42,1.03-.75,2.28-.31,3.35.21.41.8.45,1.05.06.45-.72.57-1.58.85-2.38,2.99.9,5.87,2.05,8.63,3.56.48.27.98.54,1.46.84-2.58-1.09-5.39-1.86-8.2-1.86-.1-.27-.46-.39-.7-.23-.06.04-.12.1-.16.16-.14.03-.27.13-.33.28-.29,1.14-.71,2.55,0,3.61.35.4.94.13,1.01-.35.21-.84.1-1.67.36-2.51,3.5.17,7.14,1.12,10.03,3.21-1.15.14-2.3.34-3.46.55-.09-.14-.22-.26-.4-.33-.24-.07-.49.02-.65.2-.09.1-.14.22-.17.34-.37.07-.74.13-1.11.2-.15-.97-1.26-4.53-2.62-3.1-.37.81.15,1.7.47,2.44.33.68,1.14,2.99,2.03,1.64.41-.06.83-.14,1.24-.21,0,0,0,0,0,.01.13.59.23,1.22.57,1.72.02.03.05.05.08.08-1.35.06-2.71.14-4.06.12-.12-.56-.18-1.28-.65-1.66-.28-.13-.66-.05-.84.2-.63.88.39,4.38,1.52,2.42,2.88.01,5.69-.3,8.59-.14.05.03.1.04.16.05-3.43.46-6.94,1.21-10.41,1.63-.04-.02-.09-.03-.14-.03-.15-.01-.29.05-.39.16-.09,0-.17.03-.25.08-.44.34-.2,1-.18,1.48.11.61.22,1.7,1.03,1.68.82-.26.72-1.81.62-2.5,2.67-.27,5.3-.88,7.96-1.24-2.62,1.36-5.22,2.81-7.71,4.35-.33.17-.28.55-.14.83.06.39.29.76.34,1.17.21.79.32,1.88,1.13,2.29.39.15.79-.2.77-.6-.01-1.18-.7-2.18-1.18-3.2,2.53-1.38,5.01-2.86,7.57-4.19-.96.88-2.11,1.61-2.9,2.63-.05.14-.04.27,0,.4-.48.45.07,1.19.17,1.72.25.6.31,1.35.85,1.78.04.03.08.06.13.08-1.01,1.42-2.44,2.56-4.45,3.56-.27-.36-.67-.73-1.15-.66-.09-.06-.19-.09-.3-.1-.21-.01-.41.13-.49.32-.15.36.05.77.19,1.1.29.83.58,1.89,1.35,2.39.35.17.76-.01.9-.37.22-.58-.15-1.17-.27-1.74,3.55-1.67,6.26-4.51,6.83-8.49.04-.22.09-.47.14-.71-.25,3.33-1,6.78-2.65,9.75-2.13,3.85-7.25,6.47-11.34,4.02-2.46-1.35-2.94-4.26-3.36-6.81-.04-1.37-.39-2.69-1.12-3.85-.89-1.88-2.69-3.31-3.48-5.26-.81-1.77.64-3.29,1.65-4.59,1.39-2.38-2.32-4.96-1.46-7.71Zm45.97,3.7c-.04-2.27-1.29-4.31-3.1-5.56,1.03.05,2.06.13,3.06.4,1.89.48,3.9,1.8,4.27,3.87.2,2.12-1.2,3.99-2.47,5.57-1.6,1.77-3.65,3.3-5.91,4.27,2.43-2.16,4.22-5.27,4.14-8.56Zm-.95.07c.08,2.54-1.23,4.92-2.83,6.83-1,.93-2.1,2.13-3.43,2.57-.07,0-.14.02-.21.05-1.16.19-2.34.21-3.52.03-.08-.02-.17,0-.25.02-2.61-1.1-5.49-1.48-8.26-2-1.19-.17-2.36-.42-3.55-.58-.08,0-.16-.01-.25-.02-.06-1.13-.09-2.26-.21-3.39-.04-.25-.09-.51-.14-.77,0,0,0,0,0,0,.49-2.21,1.26-4.36,1.69-6.59.76-2.73,2.66-5.79,5.64-6.41,3.68-.44,5.84,3.39,9.18,4.16.17.05.34.08.51.12.06.03.12.06.2.07,2.93.37,5.4,2.91,5.43,5.91Zm-25.23,14.05c-.18-.83-.58-1.61-.95-2.36.68-.63,1.4-1.21,2.1-1.82-.21,1.6-.57,2.98-1.15,4.18Zm1.85-9.52c-.16,0-.32.02-.45.04-1.06.06-2.11.24-3.16.38-.04-.13-.08-.27-.09-.39-.06-.22-.09-.48-.13-.74,1.23-.22,2.46-.43,3.68-.59.06.43.1.86.14,1.29Zm5.15,32.81c1.97.09,4.06-.33,5.73-1.42,2.57-1.87,3.14-5.32,2.3-8.24-.47-1.77-1.36-3.61-.65-5.45.87-2.39,2.81-4.13,4.36-6.09.56-.65.96-1.49.98-2.33.08.08.16.15.23.23,1,1.1,2.21,2.24,2.42,3.78.2,4.14-5.08,2.49-3.74,7.52,1.19,5.01,1.77,10.47-3.98,12.75-2.62.97-5.66.6-8.07-.8.14.01.29.03.43.04Zm-33.45-16.94c1.26,2.05,1.07,4.72,1.29,7.05.56,3.04,2.85,5.58,5.51,7.05.99.58,2.07.93,3.17,1.21-2.19.1-4.18.31-6.07-1.3-4.16-3.33-4.83-8.99-3.9-14.01Zm31.9,31.19c-.34.42-.72.8-1.1,1.18-2.47,2.46-5.68,4.02-9.14,4.42-2.64.14-5.39.03-7.86-1.02-.89-.43-1.81-1.06-2.62-1.65-.14-.06-.28-.18-.44-.31,1.65-.5,3.19-1.36,4.44-2.58,2.62-2.3,4.19-5.59,4.64-9.03.08-.57.14-1.16.12-1.75,3.93,3.39,7,7.8,11.62,10.33.14.1.28.19.42.28-.03.04-.06.08-.08.13Zm13.68-5.8c-.19,0-.36.06-.44.29-.04.12-.04.25.01.36-.62.9-1.29,1.76-2.02,2.57-2.52,2.6-6.74,4.13-10,1.98-4.94-2.45-8.24-7.04-12.31-10.64-1.62-1.54-3.03-2.78-4.65-3.59-.02-.01-.03-.03-.04-.03-.39-.24-.76-.51-1.2-.64-2.7-.98-5.75-1.18-8.23-2.76-1.86-1.12-3.25-2.82-4.16-4.83-.45-1.16-.37-2.48-.42-3.7-.13-1.76-.48-3.57-1.39-5.1-.1-.17-.26-.4-.44-.56.07-.29.14-.59.23-.87.49-1.66.81-3.38,1.4-5.01,1.85-.22,3.71-.6,5.29-1.63.04,0,.08,0,.11-.01.68.86,1.38,1.71,1.86,2.7.75,1.14.93,2.51,1.02,3.85.47,2.35.9,5.02,2.96,6.54,3.84,3.14,9.5,1.44,12.38-2.2.04.46.08.92.17,1.38.94,4.46,1.52,9.48,4.91,12.8.05.09.13.15.23.2.15.14.3.28.46.41,3.74,3.05,9.9,3.19,13.36-.38.43-.46.78-.93,1.06-1.41.03.02.05.04.08.06.59.45,1.22.83,1.86,1.2.48.31.99.58,1.52.82-.27,1.18-.69,2.34-1.1,3.48-.69,1.63-1.51,3.23-2.48,4.73Zm23.87-2.22c-.15-.17-.41-.21-.61-.09-.17.11-.24.3-.21.48-2.31.99-4.85,1.47-7.28,2.04-2.69.52-5.44.59-8.16.7-2.24.2-4.48.04-6.62-.64,1.4-2.21,2.49-4.63,3.23-7.14.03-.24.18-.61.3-.98,3.05.99,6.56.55,8.66-2.1.92-1.12,1.08-2.61,1.71-3.88.74-1.56,2.45-2.27,3.83-3.21,1.02-.55,2.01-1.3,2.75-2.21,2.89.26,5.89-.05,8.48-1.38.07.37.17.75.19,1.13.36,2.24.4,4.54.08,6.79-.63,3.62-2.03,7.36-4.99,9.74-.44.29-.9.54-1.36.77Zm2.59,4.02c-.73-.99-1.43-2.08-2.08-3.18.77-.4,1.49-.88,2.15-1.48,3.07-2.94,4.49-7.28,4.81-11.44.11-1.67.05-3.35-.2-5.01-.08-.25-.1-.7-.15-1.13.01,0,.03.02.04.03.42.35.85.68,1.28,1.01-.45,2.63-.65,5.31-.88,7.97-.31,3.96-.21,7.94.23,11.88.34,3.03.54,6.16,1.45,9.08-2.33-2.48-4.6-5.03-6.65-7.75Zm7.63,8.79c-.06-.07-.12-.13-.19-.2-1.02-2.62-1.24-5.47-1.6-8.24-.32-3.31-.68-6.67-.56-10.01.13-3.72.42-7.51,1-11.21,3.72,2.76,7.83,4.93,12.05,6.84.03.04.06.08.09.12.02.03.05.07.07.1-.38,1.07-.3,2.32-.33,3.46.01,2.58.2,5.16.41,7.73.49,6.24,1.48,12.46,3.18,18.49.55,2.24,1.07,4.49,1.9,6.64-5.78-4.02-11.17-8.61-16.02-13.72Zm26.67,20.24c-3.42-1.83-6.75-3.85-9.95-6.04,0,0,0-.01,0-.02-1.08-2.53-1.63-5.28-2.32-7.94-1.85-6.62-2.72-13.43-3.18-20.29-.13-2.68-.42-5.41,0-8.07,1.41,1.92,2.87,3.85,4.32,5.74,2.96,3.95,5.91,7.91,8.95,11.81,1.39,1.78,2.7,3.61,3.99,5.46,0,.04,0,.09.02.12-.06,3.73.06,7.51.78,11.19.63,3.59,1.35,7.2,2.56,10.65-1.76-.83-3.48-1.72-5.18-2.62Zm20.23,6.83c-5.05-.19-9.85-1.81-14.43-3.92-1.87-5.37-2.93-11.05-3.41-16.71-.14-1.61-.06-3.22-.07-4.83.96,1.39,1.91,2.78,2.88,4.16,3.05,4.27,6.23,8.43,9.4,12.6,0,0-.01-.02-.02-.03,1.88,2.61,3.85,5.2,5.97,7.63.17.13.49.7.79,1.03-.34.11-.76.03-1.11.05Zm1.95-2.59c-.17.73-.29,1.44-.52,2.15-1.16-1.51-2.47-2.9-3.62-4.42-1.86-2.5-3.74-4.99-5.62-7.47,1.86.14,3.65.86,5.38,1.55,1.88.84,3.9,1.55,5.39,3.02-.3,1.73-.64,3.46-1.01,5.17Zm2.22-18.04c-.01,4.12-.44,8.23-1.11,12.3-1.04-1-2.47-1.65-3.77-2.22-2.38-1.02-4.84-2.19-7.47-2.28-2.41-3.2-4.81-6.41-7.12-9.68-1.23-1.88-2.52-3.71-3.84-5.52.27-.05.55-.08.83-.07,3.83.21,7.47,1.52,11.09,2.69,2.33.7,4.6,1.6,6.83,2.56,1.54.69,3.14,1.21,4.54,2.19,0,0,.02.01.03.02Zm-.36-6.66c.24,2.03.35,4.06.36,6.09-1.18-.79-2.54-1.28-3.83-1.84-2.47-1.09-4.98-2.09-7.56-2.87-3.91-1.17-8.1-2.96-12.24-2.55-3.06-4.18-6.28-8.24-9.36-12.41-.1-.14-.21-.28-.31-.42,3.81-.09,7.6.55,11.35,1.19,6.98,1.22,13.65,3.69,20.18,6.4.13.03.25.14.37.19.47,2.04.8,4.12,1.05,6.22Zm-1.19-6.81c-5.45-2.28-10.97-4.41-16.75-5.71-4.95-1.11-10.03-2.01-15.11-1.95-.09,0-.15.04-.18.1-1.95-2.62-3.96-5.19-5.89-7.82.2.09.41.18.61.27,8.3,3.55,16.92,6.68,25.93,7.76,2.89.34,5.8.51,8.71.49.16.21.27.43.43.69,1.01,1.97,1.72,4.04,2.25,6.17Zm-15.63-8.98c-9.19-1.87-18.06-5.32-26.47-9.44-3.7-1.71-7.03-4.06-10.27-6.56,1.66-1.14,2.84-2.86,3.43-4.77.5-1.7,1.08-3.37,1.9-4.96,1.34-2.72,2.78-5.47,3.56-8.41,0,0,0,0,.01,0,6.85,7.9,15.01,14.65,23.55,20.66,4.22,2.92,8.73,5.36,13.24,7.79,4.13,2.05,8.19,4.42,12.51,6.06.07,0,.22.06.4.13-7.24,1.04-14.67.8-21.86-.52Zm-28.38-46.86c.39-.62.89-1.18,1.37-1.74,1.65-1.72,3.71-2.83,5.74-4.1,5.32-2.95,11.27-5.11,17.39-5.58,5.58-.23,11.18.53,16.56,2.08-8.03,2.25-15.62,5.86-22.96,9.78-3.61,2.02-7.05,4.34-10.47,6.67-2.28,1.59-4.7,3.07-6.79,4.9-.04,0-.08,0-.13,0,.18-.8.31-1.61.37-2.43.24-3.19-.25-6.38-1.3-9.39.09-.04.18-.1.23-.19Zm-.6-.79c-.15-.38-.31-.75-.48-1.12.5-.66,1.08-1.31,1.64-1.92.87-.93,1.81-1.79,2.78-2.63.49.2,1.68.18,2.72.1-2.68,1.54-5.15,3.41-6.66,5.56Zm57.96,46.7c-2.01.55-4.04.98-6.1,1.31-.55-.18-1.11-.36-1.65-.56-4.26-1.7-8.27-4.01-12.37-6.06-6.05-3.2-11.97-6.64-17.39-10.86-5.61-4.14-10.8-8.82-15.73-13.76-1.07-1.01-2.08-2.09-2.98-3.26-.05-.06-.11-.14-.17-.23,0,0,.01,0,.02,0,.98,0,1.96.02,2.95.04,5.07.15,10.13.49,15.19.9,2.44.22,4.88.47,7.32.74.03.04.07.07.13.09,2.95,3.17,6.14,6.11,9.54,8.8,4.83,4.1,9.94,7.85,15.43,11.02,5.29,3.15,10.71,6.25,16.66,7.93-3.51,1.57-7.13,2.88-10.83,3.91Zm19.89-8.65c-2.7,1.64-5.5,3.12-8.38,4.43-.47-.11-.92-.27-1.38-.4-6.64-2.03-12.6-5.76-18.51-9.33-6.57-4.05-12.5-9.07-18.28-14.17-1.18-1.15-2.32-2.36-3.48-3.54,9.38,1.06,18.72,2.53,27.97,4.44.29.43.96,1,1.1,1.22,1.31,1.5,2.68,2.95,4.2,4.23,5.62,4.92,12.05,8.97,19.12,11.44-.76.59-1.54,1.16-2.36,1.68Zm10.82-9.19s.03.03.05.05c-2.72,2.32-5.26,4.89-8.07,7.12-.27-.09-.55-.18-.82-.28-8.93-3.34-17.01-8.96-23.28-16.12.96.2,1.92.39,2.87.6,6.84,1.47,13.54,3.5,20.04,6.08,2.5.96,4.99,1.99,7.63,2.46.5.04,1.1.31,1.56.09,0,0,0,0,0,0Zm-.39-.41c-3.81-.44-7.3-2.16-10.87-3.44-3.52-1.29-7.05-2.56-10.69-3.49-3.44-.87-6.91-1.66-10.39-2.4.19-.14.41-.25.61-.38,5.12-3.06,10.81-5.04,16.54-6.62,5,5.38,9.62,11.12,14.8,16.34Zm-17.65-19.32c.84.85,1.67,1.71,2.49,2.58-5.99,1.67-11.98,3.76-17.24,7.13-.06.03-.1.09-.12.14-9.11-1.92-18.32-3.4-27.58-4.44,2.61-2.04,5.46-3.83,8.15-5.76,6.59-4.08,13.59-7.62,20.89-10.24,4.8,3.08,9.29,6.62,13.42,10.59Zm-15.43-11.84c.51.31,1.02.63,1.52.95-6.9,2.43-13.46,5.83-19.74,9.56-1.73,1.04-3.33,2.28-4.98,3.44-1.52,1.05-3.12,2.02-4.51,3.23-8.43-.93-16.9-1.48-25.37-1.67,4.41-3.35,9.07-6.4,13.75-9.37,3.61-2.27,7.47-4.13,11.33-5.93,4.73-2.29,9.6-4.22,14.68-5.63.12-.07.39-.12.64-.19,4.43,1.35,8.7,3.25,12.67,5.6Zm-7.81-4.97s-.05.04-.07.06c-3.84-1.52-7.84-2.64-11.93-3.33-7.17-1.29-14.61-.83-21.39,1.94-1.9.73-4.11,1.68-6.26,2.84-.98.16-1.99.23-2.98.14-.11,0-.23-.02-.34-.05,2.1-1.75,4.38-3.32,6.67-4.8,4.16-2.47,8.57-4.46,13.1-6.16.62.32,1.28.62,1.93.89,3.06,1.39,6.41,1.89,9.67,2.61,4.78.91,9.64,1.6,14.51,1.76-.67,1.46-1.57,2.85-2.9,4.11Zm3.1-4.55s-.09,0-.13,0c-4.72-.24-9.43-.81-14.06-1.71-3.47-.74-7.04-1.28-10.29-2.79-.41-.17-.82-.35-1.22-.55,3.17-1.17,6.39-2.2,9.62-3.13,1.8-.54,3.61-1.05,5.44-1.5,3.98,1.77,8.36,2.6,12.7,2.65-.65,2.35-1.1,4.76-2.05,7.02Zm2.19-7.49c-3.26-.04-6.58-.5-9.7-1.48-.8-.28-1.56-.57-2.34-.89,2.59-.62,5.21-1.14,7.86-1.51,2.03-.31,4.13-.59,6.21-.82-.95,1.49-1.55,3.07-2.03,4.7Zm1.14-5.07c-1.79.2-3.59.44-5.35.71-2.89.39-5.74.97-8.56,1.68.47-1.97,1.28-3.89,2.71-5.37,3.7,1.13,7.4,2.26,11.2,2.99Zm-19.97-5.43c2.77.63,5.5,1.45,8.23,2.28-.91,1.02-2.03,3.21-2.11,3.63-.26.66-.37,1.36-.57,2.04-2.8.71-5.58,1.53-8.35,2.38-2.27.71-4.56,1.48-6.83,2.33-.01,0-.03-.01-.04-.02.21-1.14.49-2.26.88-3.36,1.44-3.46,3-7,5.49-9.84,1.11.16,2.21.34,3.3.56Zm-3.91-.64c-.36.41-.66.89-.98,1.31-1.74,2.53-3.06,5.31-4.22,8.15-.51,1.26-.81,2.59-1.06,3.92,0,.05,0,.09.01.13-7.15,2.69-14.11,6.16-19.82,11.13-.02-.86.16-1.71.39-2.54,1.92-7.41,5.98-14.12,10.43-20.28.41-.54.83-1.12,1.31-1.61,4.57-.81,9.32-.8,13.94-.2Zm-39.01,18.28c.33-.74.71-1.46,1.13-2.16,3.35-4.86,7.87-8.96,12.94-11.99,3.19-1.87,6.65-3.09,10.24-3.8-.5.59-.95,1.23-1.4,1.86-3.81,5.25-7.15,10.99-9.28,17.14-.26.82-1.49,4.59-1.12,5.68-1.46,1.31-2.84,2.73-4.11,4.26-1.32-2.78-3.13-5.34-5.28-7.5-.98-1.12-2.03-2.45-3.41-3.09.14-.08.25-.22.28-.4Zm2.73,4.48c4.87,5,7.84,12.21,6.99,19.24-.48,3.78-2.39,7.21-4.03,10.6-1.33,2.33-1.53,5.12-3.06,7.35-1.94,2.53-5.26,3.75-8.39,3.86-.68-.04-1.36-.05-2.04-.07.43-.77.68-1.63.67-2.56-.19-2.87-1.6-5.6-3.51-7.71-1.32-1.67-3.16-2.87-4.35-4.62.49-.02.98-.07,1.46-.15.09.01.18,0,.27-.06,1.63-.32,3.22-.99,4.58-1.89,3.4-2.5,5.82-6.49,6.01-10.76-.03-2.11-.11-4.32-.62-6.4.1-.18.17-.42.25-.61,1.35-2.98,2.03-6.23,2.16-9.51,1.49.69,2.51,2.09,3.59,3.29Zm-45.02-25.42c2.8-1.98,6.01-3.82,9.43-4.46,6.67-.85,8.67,2.05,13.91,4.89,8.13,3.23,15.64,6.7,16.92,16.41.38,3.77.29,7.65-.74,11.37-.21.9-.57,1.75-.94,2.6-.25-.7-.56-1.37-.96-2.01-1.74-2.83-4.06-5.49-7.31-6.54-1.16-.46-2.42-.62-3.54-1.19-1.56-.84-2.76-2.25-3.69-3.74-.87-1.37-1.32-3.06-2.08-4.53-1.06-1.85-2.89-3.62-5.11-3.77-2.9-.28-5.33,1.43-6.88,3.75-.15-.21-.32-.4-.42-.56-2.13-2.66-4.95-4.68-7.86-6.41-1.44-.85-2.91-1.66-4.4-2.33,1.12-1.25,2.32-2.45,3.65-3.49Zm-62.63,19.46c.43-.69,1.13.48,1.34.86.64,1.24.78,2.68.67,4.06-.66-.52-1.34-1.02-2.04-1.5-.26-1.13-.45-2.34.03-3.43Zm-2.49,5.52c.63-.5,1.39-.76,2.2-.81.1-.01.18-.06.25-.13.39.28.78.57,1.16.87-.91.25-1.86.5-2.8.59-.12,0-.23.04-.32.11-.15-.17-.3-.35-.44-.52-.02-.02-.05-.05-.07-.07,0-.01.02-.03.03-.04Zm-3.47-1.48c.58-.1.98.52,1.45.85,1.47,1.39,2.88,2.94,3.69,4.83-1.59-.68-5.8-3.71-5.14-5.68Zm-2.99,11.23c.45-.64,1.11-1.03,1.75-1.47,1.84-1.16,3.83-2.07,5.95-2.61-1.89,1.75-4.99,4.23-7.69,4.07Zm9.22-5.26c-.3-1.11-.9-2.11-1.6-3.03,0,0,.02,0,.03,0,1.09-.25,2.25-.36,3.28-.84,2.09,1.73,3.96,3.71,5.54,6.01-2.31-.93-4.73-1.63-7.24-2.13Zm7.47-10.49c.74-3.76,3.7-7.1,7.59-7.67,3.19-.53,6.13,1.03,9.12,1.86,4.06.93,8.49.04,11.95-2.27,5.02-3.7,7.61-8.25,14.68-8.44,2.12.03,4.44.63,6.74,1.57.09.12.23.19.41.17,3.94,1.67,7.78,4.29,10.47,6.66.87.87,1.72,1.72,2.36,2.78.01.04.03.07.05.1-.3.56-.55,1.14-.74,1.72-1.21,4.35-2.66,6.73-7.4,7.58-.69.14-1.37.03-2.05-.09-.46-.9-1.01-1.77-1.66-2.56-4.08-4.19-10.67-5.65-16.23-4.03-3.45.98-6.84,2.79-9.33,5.44-.87.89-1.72,1.78-2.73,2.59-2.08,1.77-4.97,2.14-7.01,3.97-.89.75-1.64,1.63-2.33,2.55-.4.01-.87.15-1.19.13-3.37.35-6.72.96-10.07,1.47-.09.01-.18.02-.26.03-.03-.09-.1-.18-.2-.27-3-3.65-3.15-8.87-2.15-13.31Zm-47.28,38.08c2.01-1.83,3.96-3.63,6.24-5.15,7.16-4.85,16.51-4.87,24.67-2.87,1.37.4,2.86.92,4.2,1.48.33.15.76.32,1.13.51-.2.22-.39.45-.57.69-1.15,1.44-1.7,2.76-1.79,3.97-.28.03-.57.04-.85.05-9.22.19-18.55.16-27.58,2.3-4.37.84-8.44,2.63-12.51,4.36,2.46-1.63,4.88-3.34,7.07-5.32Zm31.17,2.97c-5.98,3.45-9.58,6.73-16.89,4.29-3.26-.9-6.48-2.04-9.86-2.38-3.64-.27-7.32.08-10.91.72,3.57-1.56,7.19-3.06,10.99-3.94,9.33-2.33,19-2.34,28.56-2.52.15-.03.5,0,.81-.03.03,1,.37,1.91.93,2.75-1.21-.1-2.65.61-3.63,1.1Zm4.11-5.93c1.18-2.58,3.77-4.12,5.21-6.49,1.5-3.57-3.69-5.29-3.63-8.6.82-2.94,6.86-4.29,9.52-4.99,3.7-.61,7.42-1.07,11.12-1.69.97-.16,1.94-.25,2.92-.34-.29.43-.58.86-.86,1.3-1,1.64-2.09,3.26-2.89,5.01-1.46,4.08-2.03,9.27,1.03,12.76,1.84,1.72,4.29,2.93,6.81,3.17,1.49.14,3,.11,4.49,0-.82.77-1.55,1.63-2.38,2.4-2.87,2.72-5.41,5.86-6.96,9.52-.37.9-.71,1.82-.99,2.77-.79-.4-1.59-.8-2.39-1.19-2.78-1.33-5.81-1.94-8.73-2.88-4.34-1.53-14.9-4.43-12.27-10.74Zm-19.04,28.52c5.26-5.96,11.2-11.29,17.37-16.29,1.34-1.02,2.64-2.09,4.01-3.08.22-.21.83-.54,1.2-.9.88.51,1.82.96,2.76,1.37-2.6,1.54-4.98,3.42-7.44,5.16-3.98,2.82-7.95,5.67-11.63,8.86-5.29,4.6-10.15,9.67-14.65,15.04,2.69-3.48,5.48-6.87,8.39-10.15Zm-33.88-4.72c6.93-2.67,14.75-1.39,21.48,1.37,1.73.76,3.43,1.64,5.1,2.52,1.57.81,3.57,2.02,5.38,1.56-.91,1.04-1.81,2.09-2.69,3.16-5.09,1.76-10.56,1.97-15.91,1.72-4.24,0-8.49.15-12.72.45-7.27.62-17.92,3.52-24.38,8.15,6.7-7.66,14.45-14.61,23.74-18.94Z"/></g></g><g><rect class="cls-2" x=".5" y=".5" width="335" height="50"/><rect class="cls-3" x="147.01" y="-137.99" width="41.97" height="326.97" transform="translate(193.5 -142.5) rotate(90)"/></g></g></g></g></g></svg>