<?xml version="1.0" encoding="UTF-8"?><svg id="_レイヤー_2" xmlns="http://www.w3.org/2000/svg" viewBox="0 0 32.54 27.09"><defs><style>.cls-1{fill:none;stroke:#e3dac2;stroke-linecap:round;stroke-linejoin:round;stroke-width:.75px;}</style></defs><g id="_レイヤー_1-2"><g><path class="cls-1" d="m21.92,21.87c5.7-.27,10.24-4.97,10.24-10.74,0-.79-.09-1.57-.26-2.31-.79,2.78-3.34,4.82-6.38,4.82-3.66,0-6.63-2.97-6.63-6.63,0-3.04,2.04-5.59,4.83-6.38-.75-.16-1.52-.26-2.31-.26-5.94,0-10.75,4.81-10.75,10.75,0,.53.04,1.05.11,1.56"/><path class="cls-1" d="m19.16,19.62c.11-.35.19-.72.19-1.1,0-1.99-1.61-3.6-3.6-3.6-.72,0-1.39.22-1.96.58-.87-1.67-2.59-2.81-4.6-2.81-2.88,0-5.21,2.33-5.21,5.21,0,.58.12,1.12.29,1.64-.1,0-.19-.03-.29-.03-1.99,0-3.6,1.61-3.6,3.6s1.61,3.6,3.6,3.6c1.47,0,2.74-.89,3.29-2.16.81,1.29,2.24,2.16,3.88,2.16s3.07-.86,3.88-2.16c.56,1.27,1.82,2.16,3.29,2.16,1.99,0,3.6-1.61,3.6-3.6,0-1.7-1.18-3.12-2.77-3.49Z"/></g></g></svg>