<?xml version="1.0" encoding="UTF-8"?><svg id="_レイヤー_2" xmlns="http://www.w3.org/2000/svg" viewBox="0 0 26.22 32.02"><defs><style>.cls-1{stroke-linecap:round;stroke-linejoin:round;}.cls-1,.cls-2{fill:none;stroke:#e3dac2;stroke-width:.75px;}.cls-2{stroke-miterlimit:10;}</style></defs><g id="_レイヤー_1-2"><g><rect class="cls-1" x="2.42" y="-.03" width="21.38" height="32.07" rx="10.69" ry="10.69" transform="translate(7.1 -3.79) rotate(22.43)"/><g><path class="cls-1" d="m10.27,7.33c1.57-2.22,4.52-3.15,7.14-2.07,2.62,1.08,4.06,3.82,3.6,6.5"/><path class="cls-1" d="m12.86,16.29c-2.62-1.08-4.06-3.82-3.6-6.5"/><path class="cls-1" d="m10.27,7.33s-.09-.05-.14-.07c-.94-.39-1.94-.15-2.22.53s.25,1.55,1.2,1.94c.05.02.1.03.15.05"/><path class="cls-1" d="m21.01,11.76s.1.03.15.05c.94.39,1.48,1.26,1.2,1.94s-1.18.89-2.08.58"/><path class="cls-1" d="m20.28,14.33c-.58,1.16-2.11,2.78-6.09,3.42-6.5,1.04-9.06,6.47-9.06,6.47"/></g><path class="cls-1" d="m14.84,7.48c-.34.81.05,1.75.87,2.08.81.34,1.75-.05,2.08-.87,0,0,1.26-1.9-.39-3.44"/><g><rect class="cls-2" x="11.57" y="9.05" width="1.48" height="2.76" rx=".74" ry=".74" transform="translate(4.91 -3.91) rotate(22.43)"/><rect class="cls-2" x="16.89" y="11.25" width="1.48" height="2.76" rx=".74" ry=".74" transform="translate(6.15 -5.77) rotate(22.43)"/></g></g></g></svg>