<?xml version="1.0" encoding="UTF-8"?><svg id="_レイヤー_2" xmlns="http://www.w3.org/2000/svg" viewBox="0 0 38.82 29.28"><defs><style>.cls-1{fill:none;stroke:#e3dac2;stroke-linecap:round;stroke-linejoin:round;stroke-width:.75px;}</style></defs><g id="_レイヤー_1-2"><g><line class="cls-1" x1="2.75" y1="26.68" x2="36.07" y2="26.68"/><g><rect class="cls-1" x="5.2" y="5.45" width="7.89" height="21.22"/><rect class="cls-1" x="25.74" y="5.45" width="7.89" height="21.22"/><rect class="cls-1" x="13.08" y=".38" width="12.66" height="26.3"/><g><rect class="cls-1" x="8.64" y="9.16" width=".99" height=".99"/><rect class="cls-1" x="8.64" y="13.31" width=".99" height=".99"/><rect class="cls-1" x="8.64" y="17.47" width=".99" height=".99"/><rect class="cls-1" x="8.64" y="21.62" width=".99" height=".99"/></g><g><rect class="cls-1" x="29.19" y="9.16" width=".99" height=".99"/><rect class="cls-1" x="29.19" y="13.31" width=".99" height=".99"/><rect class="cls-1" x="29.19" y="17.47" width=".99" height=".99"/><rect class="cls-1" x="29.19" y="21.62" width=".99" height=".99"/></g><rect class="cls-1" x="15.93" y="21.22" width="6.95" height="5.45"/><line class="cls-1" x1="19.32" y1="21.22" x2="19.32" y2="26.68"/><g><rect class="cls-1" x="16.63" y="3.91" width=".99" height=".99"/><rect class="cls-1" x="16.63" y="8.06" width=".99" height=".99"/><rect class="cls-1" x="16.63" y="12.22" width=".99" height=".99"/><rect class="cls-1" x="16.63" y="16.37" width=".99" height=".99"/></g><g><rect class="cls-1" x="21.2" y="3.91" width=".99" height=".99"/><rect class="cls-1" x="21.2" y="8.06" width=".99" height=".99"/><rect class="cls-1" x="21.2" y="12.22" width=".99" height=".99"/><rect class="cls-1" x="21.2" y="16.37" width=".99" height=".99"/></g></g><line class="cls-1" x1=".38" y1="28.9" x2="38.45" y2="28.9"/></g></g></svg>